<?xml version="1.0" encoding="UTF-8" standalone="no"?>
<svg
   width="12in"
   height="12in"
   viewBox="0 0 1152 1152"
   version="1.1"
   id="svg64"
   inkscape:version="1.1.2 (b8e25be833, 2022-02-05)"
   sodipodi:docname="Cameo-Geldscheinrahmen-500.svg"
   xmlns:inkscape="http://www.inkscape.org/namespaces/inkscape"
   xmlns:sodipodi="http://sodipodi.sourceforge.net/DTD/sodipodi-0.dtd"
   xmlns="http://www.w3.org/2000/svg"
   xmlns:svg="http://www.w3.org/2000/svg"
   xmlns:rdf="http://www.w3.org/1999/02/22-rdf-syntax-ns#"
   xmlns:cc="http://creativecommons.org/ns#"
   xmlns:dc="http://purl.org/dc/elements/1.1/">
  <defs
     id="defs58">
    <inkscape:path-effect
       effect="skeletal"
       id="path-effect4720"
       is_visible="true"
       lpeversion="1"
       pattern="m 663.36239,534.93771 q 0,2.98009 -2.68834,2.98009 -1.87558,0 -1.87558,-1.33375 0,-0.45847 0.29176,-1.06283 v -0.0833 q 0,-1.39627 -0.95863,-2.27154 -0.93779,-0.87527 -2.3549,-0.87527 -1.95894,0 -3.6678,1.45878 -1.62551,1.39627 -1.62551,2.79253 0,0.95864 1.02115,1.68803 0.6252,0.43763 2.93841,1.47962 4.52224,2.0423 6.37698,3.93873 2.16734,2.18817 2.16734,5.3975 0,2.93841 -2.08398,5.04323 -2.12566,2.16734 -5.64759,2.60498 -0.47931,2.25069 -0.95863,4.52223 -0.47931,1.37543 -1.9381,1.37543 -2.1465,0 -2.1465,-1.91726 0,-0.91695 0.60436,-4.10544 -5.58507,-1.29207 -5.58507,-5.62675 0,-1.58382 1.04199,-2.64665 1.04199,-1.08367 2.54246,-1.08367 0.89611,0 1.45878,0.56267 0.58352,0.56268 0.58352,1.41711 0,0.47932 -0.81275,0.93779 -0.81276,0.45848 -0.81276,0.93779 0,0.77107 1.20871,1.45879 1.33375,0.75023 3.10513,0.75023 2.2507,0 3.772,-1.20871 1.52131,-1.22955 1.52131,-3.02177 0,-2.85505 -5.58507,-5.58506 -4.31383,-2.10482 -4.95987,-2.60498 -1.95894,-1.47962 -1.95894,-4.00124 0,-2.41741 1.87558,-4.54307 1.95894,-2.22986 5.12659,-3.10513 0.16672,-3.14681 0.66688,-4.293 0.60435,-1.33375 2.18818,-1.33375 0.95863,0 1.56298,0.58352 0.62519,0.56267 0.62519,1.45878 0,0.39596 -0.22923,1.31291 -0.29176,1.20871 -0.37512,1.81306 2.62581,0.50016 4.10544,2.16734 1.47963,1.64634 1.47963,4.02208 z"
       copytype="single_stretched"
       prop_scale="1"
       scale_y_rel="false"
       spacing="0"
       normal_offset="0"
       tang_offset="0"
       prop_units="false"
       vertical_pattern="false"
       hide_knot="false"
       fuse_tolerance="0" />
    <inkscape:path-effect
       effect="skeletal"
       id="path-effect4720-2"
       is_visible="true"
       lpeversion="1"
       pattern="m 663.36239,534.93771 q 0,2.98009 -2.68834,2.98009 -1.87558,0 -1.87558,-1.33375 0,-0.45847 0.29176,-1.06283 v -0.0833 q 0,-1.39627 -0.95863,-2.27154 -0.93779,-0.87527 -2.3549,-0.87527 -1.95894,0 -3.6678,1.45878 -1.62551,1.39627 -1.62551,2.79253 0,0.95864 1.02115,1.68803 0.6252,0.43763 2.93841,1.47962 4.52224,2.0423 6.37698,3.93873 2.16734,2.18817 2.16734,5.3975 0,2.93841 -2.08398,5.04323 -2.12566,2.16734 -5.64759,2.60498 -0.47931,2.25069 -0.95863,4.52223 -0.47931,1.37543 -1.9381,1.37543 -2.1465,0 -2.1465,-1.91726 0,-0.91695 0.60436,-4.10544 -5.58507,-1.29207 -5.58507,-5.62675 0,-1.58382 1.04199,-2.64665 1.04199,-1.08367 2.54246,-1.08367 0.89611,0 1.45878,0.56267 0.58352,0.56268 0.58352,1.41711 0,0.47932 -0.81275,0.93779 -0.81276,0.45848 -0.81276,0.93779 0,0.77107 1.20871,1.45879 1.33375,0.75023 3.10513,0.75023 2.2507,0 3.772,-1.20871 1.52131,-1.22955 1.52131,-3.02177 0,-2.85505 -5.58507,-5.58506 -4.31383,-2.10482 -4.95987,-2.60498 -1.95894,-1.47962 -1.95894,-4.00124 0,-2.41741 1.87558,-4.54307 1.95894,-2.22986 5.12659,-3.10513 0.16672,-3.14681 0.66688,-4.293 0.60435,-1.33375 2.18818,-1.33375 0.95863,0 1.56298,0.58352 0.62519,0.56267 0.62519,1.45878 0,0.39596 -0.22923,1.31291 -0.29176,1.20871 -0.37512,1.81306 2.62581,0.50016 4.10544,2.16734 1.47963,1.64634 1.47963,4.02208 z"
       copytype="single_stretched"
       prop_scale="1"
       scale_y_rel="false"
       spacing="0"
       normal_offset="0"
       tang_offset="0"
       prop_units="false"
       vertical_pattern="false"
       hide_knot="false"
       fuse_tolerance="0" />
    <inkscape:path-effect
       effect="skeletal"
       id="path-effect4720-24"
       is_visible="true"
       lpeversion="1"
       pattern="m 663.36239,534.93771 q 0,2.98009 -2.68834,2.98009 -1.87558,0 -1.87558,-1.33375 0,-0.45847 0.29176,-1.06283 v -0.0833 q 0,-1.39627 -0.95863,-2.27154 -0.93779,-0.87527 -2.3549,-0.87527 -1.95894,0 -3.6678,1.45878 -1.62551,1.39627 -1.62551,2.79253 0,0.95864 1.02115,1.68803 0.6252,0.43763 2.93841,1.47962 4.52224,2.0423 6.37698,3.93873 2.16734,2.18817 2.16734,5.3975 0,2.93841 -2.08398,5.04323 -2.12566,2.16734 -5.64759,2.60498 -0.47931,2.25069 -0.95863,4.52223 -0.47931,1.37543 -1.9381,1.37543 -2.1465,0 -2.1465,-1.91726 0,-0.91695 0.60436,-4.10544 -5.58507,-1.29207 -5.58507,-5.62675 0,-1.58382 1.04199,-2.64665 1.04199,-1.08367 2.54246,-1.08367 0.89611,0 1.45878,0.56267 0.58352,0.56268 0.58352,1.41711 0,0.47932 -0.81275,0.93779 -0.81276,0.45848 -0.81276,0.93779 0,0.77107 1.20871,1.45879 1.33375,0.75023 3.10513,0.75023 2.2507,0 3.772,-1.20871 1.52131,-1.22955 1.52131,-3.02177 0,-2.85505 -5.58507,-5.58506 -4.31383,-2.10482 -4.95987,-2.60498 -1.95894,-1.47962 -1.95894,-4.00124 0,-2.41741 1.87558,-4.54307 1.95894,-2.22986 5.12659,-3.10513 0.16672,-3.14681 0.66688,-4.293 0.60435,-1.33375 2.18818,-1.33375 0.95863,0 1.56298,0.58352 0.62519,0.56267 0.62519,1.45878 0,0.39596 -0.22923,1.31291 -0.29176,1.20871 -0.37512,1.81306 2.62581,0.50016 4.10544,2.16734 1.47963,1.64634 1.47963,4.02208 z"
       copytype="single_stretched"
       prop_scale="1"
       scale_y_rel="false"
       spacing="0"
       normal_offset="0"
       tang_offset="0"
       prop_units="false"
       vertical_pattern="false"
       hide_knot="false"
       fuse_tolerance="0" />
    <inkscape:path-effect
       effect="skeletal"
       id="path-effect4720-3"
       is_visible="true"
       lpeversion="1"
       pattern="m 663.36239,534.93771 q 0,2.98009 -2.68834,2.98009 -1.87558,0 -1.87558,-1.33375 0,-0.45847 0.29176,-1.06283 v -0.0833 q 0,-1.39627 -0.95863,-2.27154 -0.93779,-0.87527 -2.3549,-0.87527 -1.95894,0 -3.6678,1.45878 -1.62551,1.39627 -1.62551,2.79253 0,0.95864 1.02115,1.68803 0.6252,0.43763 2.93841,1.47962 4.52224,2.0423 6.37698,3.93873 2.16734,2.18817 2.16734,5.3975 0,2.93841 -2.08398,5.04323 -2.12566,2.16734 -5.64759,2.60498 -0.47931,2.25069 -0.95863,4.52223 -0.47931,1.37543 -1.9381,1.37543 -2.1465,0 -2.1465,-1.91726 0,-0.91695 0.60436,-4.10544 -5.58507,-1.29207 -5.58507,-5.62675 0,-1.58382 1.04199,-2.64665 1.04199,-1.08367 2.54246,-1.08367 0.89611,0 1.45878,0.56267 0.58352,0.56268 0.58352,1.41711 0,0.47932 -0.81275,0.93779 -0.81276,0.45848 -0.81276,0.93779 0,0.77107 1.20871,1.45879 1.33375,0.75023 3.10513,0.75023 2.2507,0 3.772,-1.20871 1.52131,-1.22955 1.52131,-3.02177 0,-2.85505 -5.58507,-5.58506 -4.31383,-2.10482 -4.95987,-2.60498 -1.95894,-1.47962 -1.95894,-4.00124 0,-2.41741 1.87558,-4.54307 1.95894,-2.22986 5.12659,-3.10513 0.16672,-3.14681 0.66688,-4.293 0.60435,-1.33375 2.18818,-1.33375 0.95863,0 1.56298,0.58352 0.62519,0.56267 0.62519,1.45878 0,0.39596 -0.22923,1.31291 -0.29176,1.20871 -0.37512,1.81306 2.62581,0.50016 4.10544,2.16734 1.47963,1.64634 1.47963,4.02208 z"
       copytype="single_stretched"
       prop_scale="1"
       scale_y_rel="false"
       spacing="0"
       normal_offset="0"
       tang_offset="0"
       prop_units="false"
       vertical_pattern="false"
       hide_knot="false"
       fuse_tolerance="0" />
    <inkscape:path-effect
       effect="skeletal"
       id="path-effect4720-0"
       is_visible="true"
       lpeversion="1"
       pattern="m 663.36239,534.93771 q 0,2.98009 -2.68834,2.98009 -1.87558,0 -1.87558,-1.33375 0,-0.45847 0.29176,-1.06283 v -0.0833 q 0,-1.39627 -0.95863,-2.27154 -0.93779,-0.87527 -2.3549,-0.87527 -1.95894,0 -3.6678,1.45878 -1.62551,1.39627 -1.62551,2.79253 0,0.95864 1.02115,1.68803 0.6252,0.43763 2.93841,1.47962 4.52224,2.0423 6.37698,3.93873 2.16734,2.18817 2.16734,5.3975 0,2.93841 -2.08398,5.04323 -2.12566,2.16734 -5.64759,2.60498 -0.47931,2.25069 -0.95863,4.52223 -0.47931,1.37543 -1.9381,1.37543 -2.1465,0 -2.1465,-1.91726 0,-0.91695 0.60436,-4.10544 -5.58507,-1.29207 -5.58507,-5.62675 0,-1.58382 1.04199,-2.64665 1.04199,-1.08367 2.54246,-1.08367 0.89611,0 1.45878,0.56267 0.58352,0.56268 0.58352,1.41711 0,0.47932 -0.81275,0.93779 -0.81276,0.45848 -0.81276,0.93779 0,0.77107 1.20871,1.45879 1.33375,0.75023 3.10513,0.75023 2.2507,0 3.772,-1.20871 1.52131,-1.22955 1.52131,-3.02177 0,-2.85505 -5.58507,-5.58506 -4.31383,-2.10482 -4.95987,-2.60498 -1.95894,-1.47962 -1.95894,-4.00124 0,-2.41741 1.87558,-4.54307 1.95894,-2.22986 5.12659,-3.10513 0.16672,-3.14681 0.66688,-4.293 0.60435,-1.33375 2.18818,-1.33375 0.95863,0 1.56298,0.58352 0.62519,0.56267 0.62519,1.45878 0,0.39596 -0.22923,1.31291 -0.29176,1.20871 -0.37512,1.81306 2.62581,0.50016 4.10544,2.16734 1.47963,1.64634 1.47963,4.02208 z"
       copytype="single_stretched"
       prop_scale="1"
       scale_y_rel="false"
       spacing="0"
       normal_offset="0"
       tang_offset="0"
       prop_units="false"
       vertical_pattern="false"
       hide_knot="false"
       fuse_tolerance="0" />
    <inkscape:path-effect
       effect="skeletal"
       id="path-effect4720-37"
       is_visible="true"
       lpeversion="1"
       pattern="m 663.36239,534.93771 q 0,2.98009 -2.68834,2.98009 -1.87558,0 -1.87558,-1.33375 0,-0.45847 0.29176,-1.06283 v -0.0833 q 0,-1.39627 -0.95863,-2.27154 -0.93779,-0.87527 -2.3549,-0.87527 -1.95894,0 -3.6678,1.45878 -1.62551,1.39627 -1.62551,2.79253 0,0.95864 1.02115,1.68803 0.6252,0.43763 2.93841,1.47962 4.52224,2.0423 6.37698,3.93873 2.16734,2.18817 2.16734,5.3975 0,2.93841 -2.08398,5.04323 -2.12566,2.16734 -5.64759,2.60498 -0.47931,2.25069 -0.95863,4.52223 -0.47931,1.37543 -1.9381,1.37543 -2.1465,0 -2.1465,-1.91726 0,-0.91695 0.60436,-4.10544 -5.58507,-1.29207 -5.58507,-5.62675 0,-1.58382 1.04199,-2.64665 1.04199,-1.08367 2.54246,-1.08367 0.89611,0 1.45878,0.56267 0.58352,0.56268 0.58352,1.41711 0,0.47932 -0.81275,0.93779 -0.81276,0.45848 -0.81276,0.93779 0,0.77107 1.20871,1.45879 1.33375,0.75023 3.10513,0.75023 2.2507,0 3.772,-1.20871 1.52131,-1.22955 1.52131,-3.02177 0,-2.85505 -5.58507,-5.58506 -4.31383,-2.10482 -4.95987,-2.60498 -1.95894,-1.47962 -1.95894,-4.00124 0,-2.41741 1.87558,-4.54307 1.95894,-2.22986 5.12659,-3.10513 0.16672,-3.14681 0.66688,-4.293 0.60435,-1.33375 2.18818,-1.33375 0.95863,0 1.56298,0.58352 0.62519,0.56267 0.62519,1.45878 0,0.39596 -0.22923,1.31291 -0.29176,1.20871 -0.37512,1.81306 2.62581,0.50016 4.10544,2.16734 1.47963,1.64634 1.47963,4.02208 z"
       copytype="single_stretched"
       prop_scale="1"
       scale_y_rel="false"
       spacing="0"
       normal_offset="0"
       tang_offset="0"
       prop_units="false"
       vertical_pattern="false"
       hide_knot="false"
       fuse_tolerance="0" />
  </defs>
  <sodipodi:namedview
     inkscape:snap-page="false"
     id="base"
     pagecolor="#ffffff"
     bordercolor="#666666"
     borderopacity="1.0"
     inkscape:pageopacity="0.0"
     inkscape:pageshadow="2"
     inkscape:zoom="0.56204841"
     inkscape:cx="543.81784"
     inkscape:cy="576.15643"
     inkscape:document-units="mm"
     inkscape:current-layer="layer1"
     inkscape:document-rotation="0"
     showgrid="true"
     inkscape:pagecheckerboard="false"
     inkscape:showpageshadow="false"
     showborder="true"
     inkscape:snap-bbox="false"
     inkscape:bbox-nodes="true"
     inkscape:snap-nodes="true"
     inkscape:bbox-paths="true"
     inkscape:snap-grids="false"
     inkscape:snap-bbox-midpoints="true"
     inkscape:snap-bbox-edge-midpoints="true"
     units="in"
     inkscape:snap-smooth-nodes="true"
     inkscape:window-width="1400"
     inkscape:window-height="943"
     inkscape:window-x="0"
     inkscape:window-y="22"
     inkscape:window-maximized="0"
     inkscape:snap-global="true"
     inkscape:snap-intersection-paths="true"
     inkscape:object-paths="true">
    <inkscape:grid
       originy="1152"
       originx="0"
       visible="true"
       enabled="false"
       opacity="0.1254902"
       color="#ff3fff"
       empspacing="10"
       spacingy="3.7795276"
       spacingx="3.7795276"
       units="mm"
       id="grid42"
       type="xygrid" />
    <inkscape:grid
       originy="1152"
       originx="0"
       opacity="0.1254902"
       color="#fd3fff"
       empspacing="16"
       enabled="true"
       spacingy="6"
       spacingx="6"
       units="in"
       id="grid890"
       type="xygrid" />
  </sodipodi:namedview>
  <metadata
     id="metadata61">
    <rdf:RDF>
      <cc:Work
         rdf:about="">
        <dc:format>image/svg+xml</dc:format>
        <dc:type
           rdf:resource="http://purl.org/dc/dcmitype/StillImage" />
      </cc:Work>
    </rdf:RDF>
  </metadata>
  <g
     inkscape:groupmode="layer"
     id="layer2"
     inkscape:label="Mat_12&quot;x12&quot;"
     style="display:none"
     sodipodi:insensitive="true">
    <rect
       ry="18.897638"
       rx="18.897638"
       y="-76.124939"
       x="-38.329662"
       height="1303.937"
       width="1228.3464"
       id="rect150"
       style="fill:#b3b3b3;stroke:#4d4d4d;stroke-width:3.77953;stroke-miterlimit:4;stroke-dasharray:none" />
    <rect
       y="0"
       x="0"
       height="1150.9313"
       width="1150.9312"
       id="rect152"
       style="fill:#ffffff;stroke:#4d4d4d;stroke-width:1.88976;stroke-miterlimit:4;stroke-dasharray:none" />
    <path
       style="fill:#4d4d4d;stroke:#4d4d4d;stroke-width:1px;stroke-linecap:butt;stroke-linejoin:miter;stroke-opacity:1"
       d="m 563.14961,-34.015748 v 18.897638 h 26.4567 v -18.897638 h 15.11811 l -28.34646,-26.456694 -28.34646,26.456694 z"
       id="path44"
       sodipodi:nodetypes="cccccccc" />
    <text
       xml:space="preserve"
       style="font-style:normal;font-weight:normal;font-size:40px;line-height:1.25;font-family:sans-serif;fill:#4d4d4d;fill-opacity:1;stroke:none"
       x="714.51276"
       y="1200.3906"
       id="text1121"><tspan
         sodipodi:role="line"
         id="tspan1119"
         x="714.51276"
         y="1200.3906">12&quot; x 12&quot; Cutting Mat</tspan></text>
  </g>
  <g
     inkscape:groupmode="layer"
     id="layer3"
     inkscape:label="Grid_1&quot;x1&quot;"
     style="display:none"
     sodipodi:insensitive="true">
    <g
       id="g958"
       style="stroke:#4d4d4d">
      <path
         id="path892"
         d="M 96,0 V 1152"
         style="fill:#808080;stroke:#4d4d4d;stroke-width:1.88976;stroke-linecap:butt;stroke-linejoin:miter;stroke-miterlimit:4;stroke-dasharray:none;stroke-opacity:1" />
      <path
         id="path894"
         d="M 192,0 V 1152"
         style="fill:#808080;stroke:#4d4d4d;stroke-width:1.88976;stroke-linecap:butt;stroke-linejoin:miter;stroke-miterlimit:4;stroke-dasharray:none;stroke-opacity:1" />
      <path
         id="path896"
         d="M 288,0 V 1152"
         style="fill:#808080;stroke:#4d4d4d;stroke-width:1.88976;stroke-linecap:butt;stroke-linejoin:miter;stroke-miterlimit:4;stroke-dasharray:none;stroke-opacity:1" />
      <path
         id="path898"
         d="M 384,0 V 1152"
         style="fill:#808080;stroke:#4d4d4d;stroke-width:1.88976;stroke-linecap:butt;stroke-linejoin:miter;stroke-miterlimit:4;stroke-dasharray:none;stroke-opacity:1" />
      <path
         id="path900"
         d="M 480,0 V 1152"
         style="fill:#808080;stroke:#4d4d4d;stroke-width:1.88976;stroke-linecap:butt;stroke-linejoin:miter;stroke-miterlimit:4;stroke-dasharray:none;stroke-opacity:1" />
      <path
         id="path902"
         d="M 576,0 V 1152"
         style="fill:#808080;stroke:#4d4d4d;stroke-width:1.88976;stroke-linecap:butt;stroke-linejoin:miter;stroke-miterlimit:4;stroke-dasharray:none;stroke-opacity:1" />
      <path
         id="path904"
         d="M 672,0 V 1152"
         style="fill:#808080;stroke:#4d4d4d;stroke-width:1.88976;stroke-linecap:butt;stroke-linejoin:miter;stroke-miterlimit:4;stroke-dasharray:none;stroke-opacity:1" />
      <path
         id="path906"
         d="M 768,0 V 1152"
         style="fill:#808080;stroke:#4d4d4d;stroke-width:1.88976;stroke-linecap:butt;stroke-linejoin:miter;stroke-miterlimit:4;stroke-dasharray:none;stroke-opacity:1" />
      <path
         id="path908"
         d="M 864,0 V 1152"
         style="fill:#808080;stroke:#4d4d4d;stroke-width:1.88976;stroke-linecap:butt;stroke-linejoin:miter;stroke-miterlimit:4;stroke-dasharray:none;stroke-opacity:1" />
      <path
         id="path910"
         d="M 960,0 V 1152"
         style="fill:#808080;stroke:#4d4d4d;stroke-width:1.88976;stroke-linecap:butt;stroke-linejoin:miter;stroke-miterlimit:4;stroke-dasharray:none;stroke-opacity:1" />
      <path
         id="path912"
         d="M 1056,0 V 1152"
         style="fill:#808080;stroke:#4d4d4d;stroke-width:1.88976;stroke-linecap:butt;stroke-linejoin:miter;stroke-miterlimit:4;stroke-dasharray:none;stroke-opacity:1" />
      <path
         id="path914"
         d="M 1152,96 H 0"
         style="fill:#808080;stroke:#4d4d4d;stroke-width:1.88976;stroke-linecap:butt;stroke-linejoin:miter;stroke-miterlimit:4;stroke-dasharray:none;stroke-opacity:1" />
      <path
         id="path916"
         d="M 1152,192 H 0"
         style="fill:#808080;stroke:#4d4d4d;stroke-width:1.88976;stroke-linecap:butt;stroke-linejoin:miter;stroke-miterlimit:4;stroke-dasharray:none;stroke-opacity:1" />
      <path
         id="path918"
         d="M 1152,288 H 0"
         style="fill:#808080;stroke:#4d4d4d;stroke-width:1.88976;stroke-linecap:butt;stroke-linejoin:miter;stroke-miterlimit:4;stroke-dasharray:none;stroke-opacity:1" />
      <path
         id="path920"
         d="M 1152,384 H 0"
         style="fill:#808080;stroke:#4d4d4d;stroke-width:1.88976;stroke-linecap:butt;stroke-linejoin:miter;stroke-miterlimit:4;stroke-dasharray:none;stroke-opacity:1" />
      <path
         id="path922"
         d="M 1152,480 H 0"
         style="fill:#808080;stroke:#4d4d4d;stroke-width:1.88976;stroke-linecap:butt;stroke-linejoin:miter;stroke-miterlimit:4;stroke-dasharray:none;stroke-opacity:1" />
      <path
         id="path924"
         d="M 1152,576 H 0"
         style="fill:#808080;stroke:#4d4d4d;stroke-width:1.88976;stroke-linecap:butt;stroke-linejoin:miter;stroke-miterlimit:4;stroke-dasharray:none;stroke-opacity:1" />
      <path
         id="path926"
         d="M 1152,672 H 0"
         style="fill:#808080;stroke:#4d4d4d;stroke-width:1.88976;stroke-linecap:butt;stroke-linejoin:miter;stroke-miterlimit:4;stroke-dasharray:none;stroke-opacity:1" />
      <path
         id="path928"
         d="M 1152,768 H 0"
         style="fill:#808080;stroke:#4d4d4d;stroke-width:1.88976;stroke-linecap:butt;stroke-linejoin:miter;stroke-miterlimit:4;stroke-dasharray:none;stroke-opacity:1" />
      <path
         id="path930"
         d="M 1152,864 H 0"
         style="fill:#808080;stroke:#4d4d4d;stroke-width:1.88976;stroke-linecap:butt;stroke-linejoin:miter;stroke-miterlimit:4;stroke-dasharray:none;stroke-opacity:1" />
      <path
         id="path932"
         d="M 1152,960 H 0"
         style="fill:#808080;stroke:#4d4d4d;stroke-width:1.88976;stroke-linecap:butt;stroke-linejoin:miter;stroke-miterlimit:4;stroke-dasharray:none;stroke-opacity:1" />
      <path
         id="path934"
         d="M 1152,1056 H 0"
         style="fill:#808080;stroke:#4d4d4d;stroke-width:1.88976;stroke-linecap:butt;stroke-linejoin:miter;stroke-miterlimit:4;stroke-dasharray:none;stroke-opacity:1" />
    </g>
    <g
       id="g1197">
      <text
         id="text962"
         y="18"
         x="81.53125"
         style="font-style:normal;font-weight:normal;font-size:40px;line-height:1.25;font-family:sans-serif;fill:#4d4d4d;fill-opacity:1;stroke:none"
         xml:space="preserve"><tspan
           style="font-size:16px;fill:#4d4d4d"
           y="18"
           x="81.53125"
           id="tspan960"
           sodipodi:role="line">1</tspan><tspan
           id="tspan964"
           y="68"
           x="81.53125"
           sodipodi:role="line" /></text>
      <text
         xml:space="preserve"
         style="font-style:normal;font-weight:normal;font-size:40px;line-height:1.25;font-family:sans-serif;fill:#4d4d4d;fill-opacity:1;stroke:none"
         x="176.86719"
         y="18"
         id="text979"><tspan
           sodipodi:role="line"
           id="tspan975"
           x="176.86719"
           y="18"
           style="font-size:16px;fill:#4d4d4d">2</tspan><tspan
           sodipodi:role="line"
           x="176.86719"
           y="68"
           id="tspan977" /></text>
      <text
         xml:space="preserve"
         style="font-style:normal;font-weight:normal;font-size:40px;line-height:1.25;font-family:sans-serif;fill:#4d4d4d;fill-opacity:1;stroke:none"
         x="273.03125"
         y="17.757812"
         id="text985"><tspan
           sodipodi:role="line"
           id="tspan981"
           x="273.03125"
           y="17.757812"
           style="font-size:16px;fill:#4d4d4d">3</tspan><tspan
           sodipodi:role="line"
           x="273.03125"
           y="67.757812"
           id="tspan983" /></text>
      <text
         id="text991"
         y="18"
         x="368.60156"
         style="font-style:normal;font-weight:normal;font-size:40px;line-height:1.25;font-family:sans-serif;fill:#4d4d4d;fill-opacity:1;stroke:none"
         xml:space="preserve"><tspan
           style="font-size:16px;fill:#4d4d4d"
           y="18"
           x="368.60156"
           id="tspan987"
           sodipodi:role="line">4</tspan><tspan
           id="tspan989"
           y="68"
           x="368.60156"
           sodipodi:role="line" /></text>
      <text
         xml:space="preserve"
         style="font-style:normal;font-weight:normal;font-size:40px;line-height:1.25;font-family:sans-serif;fill:#4d4d4d;fill-opacity:1;stroke:none"
         x="464.96094"
         y="17.757812"
         id="text997"><tspan
           sodipodi:role="line"
           id="tspan993"
           x="464.96094"
           y="17.757812"
           style="font-size:16px;fill:#4d4d4d">5</tspan><tspan
           sodipodi:role="line"
           x="464.96094"
           y="67.757812"
           id="tspan995" /></text>
      <text
         id="text1003"
         y="17.757812"
         x="560.69531"
         style="font-style:normal;font-weight:normal;font-size:40px;line-height:1.25;font-family:sans-serif;fill:#4d4d4d;fill-opacity:1;stroke:none"
         xml:space="preserve"><tspan
           style="font-size:16px;fill:#4d4d4d"
           y="17.757812"
           x="560.69531"
           id="tspan999"
           sodipodi:role="line">6</tspan><tspan
           id="tspan1001"
           y="67.757812"
           x="560.69531"
           sodipodi:role="line" /></text>
      <text
         id="text1009"
         y="18"
         x="656.83594"
         style="font-style:normal;font-weight:normal;font-size:40px;line-height:1.25;font-family:sans-serif;fill:#4d4d4d;fill-opacity:1;stroke:none"
         xml:space="preserve"><tspan
           style="font-size:16px;fill:#4d4d4d"
           y="18"
           x="656.83594"
           id="tspan1005"
           sodipodi:role="line">7</tspan><tspan
           id="tspan1007"
           y="68"
           x="656.83594"
           sodipodi:role="line" /></text>
      <text
         xml:space="preserve"
         style="font-style:normal;font-weight:normal;font-size:40px;line-height:1.25;font-family:sans-serif;fill:#4d4d4d;fill-opacity:1;stroke:none"
         x="752.78125"
         y="17.734375"
         id="text1015"><tspan
           sodipodi:role="line"
           id="tspan1011"
           x="752.78125"
           y="17.734375"
           style="font-size:16px;fill:#4d4d4d">8</tspan><tspan
           sodipodi:role="line"
           x="752.78125"
           y="67.734375"
           id="tspan1013" /></text>
      <text
         id="text1021"
         y="17.773438"
         x="848.88281"
         style="font-style:normal;font-weight:normal;font-size:40px;line-height:1.25;font-family:sans-serif;fill:#4d4d4d;fill-opacity:1;stroke:none"
         xml:space="preserve"><tspan
           style="font-size:16px;fill:#4d4d4d"
           y="17.773438"
           x="848.88281"
           id="tspan1017"
           sodipodi:role="line">9</tspan><tspan
           id="tspan1019"
           y="67.773438"
           x="848.88281"
           sodipodi:role="line" /></text>
      <text
         xml:space="preserve"
         style="font-style:normal;font-weight:normal;font-size:40px;line-height:1.25;font-family:sans-serif;fill:#4d4d4d;fill-opacity:1;stroke:none"
         x="934.69531"
         y="17.757812"
         id="text1027"><tspan
           sodipodi:role="line"
           id="tspan1023"
           x="934.69531"
           y="17.757812"
           style="font-size:16px;fill:#4d4d4d">10</tspan><tspan
           sodipodi:role="line"
           x="934.69531"
           y="67.757812"
           id="tspan1025" /></text>
      <text
         xml:space="preserve"
         style="font-style:normal;font-weight:normal;font-size:40px;line-height:1.25;font-family:sans-serif;fill:#4d4d4d;fill-opacity:1;stroke:none"
         x="1031.3438"
         y="18"
         id="text1033"><tspan
           sodipodi:role="line"
           id="tspan1029"
           x="1031.3438"
           y="18"
           style="font-size:16px;fill:#4d4d4d">11</tspan><tspan
           sodipodi:role="line"
           x="1031.3438"
           y="68"
           id="tspan1031" /></text>
      <text
         id="text1039"
         y="18"
         x="1126.6797"
         style="font-style:normal;font-weight:normal;font-size:40px;line-height:1.25;font-family:sans-serif;fill:#4d4d4d;fill-opacity:1;stroke:none"
         xml:space="preserve"><tspan
           style="font-size:16px;fill:#4d4d4d"
           y="18"
           x="1126.6797"
           id="tspan1035"
           sodipodi:role="line">12</tspan><tspan
           id="tspan1037"
           y="68"
           x="1126.6797"
           sodipodi:role="line" /></text>
      <text
         xml:space="preserve"
         style="font-style:normal;font-weight:normal;font-size:40px;line-height:1.25;font-family:sans-serif;fill:#4d4d4d;fill-opacity:1;stroke:none"
         x="9.2539062"
         y="90"
         id="text1045"><tspan
           sodipodi:role="line"
           id="tspan1041"
           x="9.2539062"
           y="90"
           style="font-size:16px;fill:#4d4d4d">1</tspan><tspan
           sodipodi:role="line"
           x="9.2539062"
           y="140"
           id="tspan1043" /></text>
      <text
         id="text1057"
         y="186"
         x="9.3789062"
         style="font-style:normal;font-weight:normal;font-size:40px;line-height:1.25;font-family:sans-serif;fill:#4d4d4d;fill-opacity:1;stroke:none"
         xml:space="preserve"><tspan
           style="font-size:16px;fill:#4d4d4d"
           y="186"
           x="9.3789062"
           id="tspan1053"
           sodipodi:role="line">2</tspan><tspan
           id="tspan1055"
           y="236"
           x="9.3789062"
           sodipodi:role="line" /></text>
      <text
         id="text1063"
         y="281.75781"
         x="9.4375"
         style="font-style:normal;font-weight:normal;font-size:40px;line-height:1.25;font-family:sans-serif;fill:#4d4d4d;fill-opacity:1;stroke:none"
         xml:space="preserve"><tspan
           style="font-size:16px;fill:#4d4d4d"
           y="281.75781"
           x="9.4375"
           id="tspan1059"
           sodipodi:role="line">3</tspan><tspan
           id="tspan1061"
           y="331.75781"
           x="9.4375"
           sodipodi:role="line" /></text>
      <text
         xml:space="preserve"
         style="font-style:normal;font-weight:normal;font-size:40px;line-height:1.25;font-family:sans-serif;fill:#4d4d4d;fill-opacity:1;stroke:none"
         x="9.5742188"
         y="378"
         id="text1069"><tspan
           sodipodi:role="line"
           id="tspan1065"
           x="9.5742188"
           y="378"
           style="font-size:16px;fill:#4d4d4d">4</tspan><tspan
           sodipodi:role="line"
           x="9.5742188"
           y="428"
           id="tspan1067" /></text>
      <text
         id="text1075"
         y="473.75781"
         x="9.3242188"
         style="font-style:normal;font-weight:normal;font-size:40px;line-height:1.25;font-family:sans-serif;fill:#4d4d4d;fill-opacity:1;stroke:none"
         xml:space="preserve"><tspan
           style="font-size:16px;fill:#4d4d4d"
           y="473.75781"
           x="9.3242188"
           id="tspan1071"
           sodipodi:role="line">5</tspan><tspan
           id="tspan1073"
           y="523.75781"
           x="9.3242188"
           sodipodi:role="line" /></text>
      <text
         xml:space="preserve"
         style="font-style:normal;font-weight:normal;font-size:40px;line-height:1.25;font-family:sans-serif;fill:#4d4d4d;fill-opacity:1;stroke:none"
         x="9.3867188"
         y="569.75781"
         id="text1081"><tspan
           sodipodi:role="line"
           id="tspan1077"
           x="9.3867188"
           y="569.75781"
           style="font-size:16px;fill:#4d4d4d">6</tspan><tspan
           sodipodi:role="line"
           x="9.3867188"
           y="619.75781"
           id="tspan1079" /></text>
      <text
         xml:space="preserve"
         style="font-style:normal;font-weight:normal;font-size:40px;line-height:1.25;font-family:sans-serif;fill:#4d4d4d;fill-opacity:1;stroke:none"
         x="9.390625"
         y="666"
         id="text1087"><tspan
           sodipodi:role="line"
           id="tspan1083"
           x="9.390625"
           y="666"
           style="font-size:16px;fill:#4d4d4d">7</tspan><tspan
           sodipodi:role="line"
           x="9.390625"
           y="716"
           id="tspan1085" /></text>
      <text
         id="text1093"
         y="761.73438"
         x="9.4882812"
         style="font-style:normal;font-weight:normal;font-size:40px;line-height:1.25;font-family:sans-serif;fill:#4d4d4d;fill-opacity:1;stroke:none"
         xml:space="preserve"><tspan
           style="font-size:16px;fill:#4d4d4d"
           y="761.73438"
           x="9.4882812"
           id="tspan1089"
           sodipodi:role="line">8</tspan><tspan
           id="tspan1091"
           y="811.73438"
           x="9.4882812"
           sodipodi:role="line" /></text>
      <text
         xml:space="preserve"
         style="font-style:normal;font-weight:normal;font-size:40px;line-height:1.25;font-family:sans-serif;fill:#4d4d4d;fill-opacity:1;stroke:none"
         x="9.5742188"
         y="857.77344"
         id="text1099"><tspan
           sodipodi:role="line"
           id="tspan1095"
           x="9.5742188"
           y="857.77344"
           style="font-size:16px;fill:#4d4d4d">9</tspan><tspan
           sodipodi:role="line"
           x="9.5742188"
           y="907.77344"
           id="tspan1097" /></text>
      <text
         id="text1105"
         y="953.75781"
         x="3.8359375"
         style="font-style:normal;font-weight:normal;font-size:40px;line-height:1.25;font-family:sans-serif;fill:#4d4d4d;fill-opacity:1;stroke:none"
         xml:space="preserve"><tspan
           style="font-size:16px;fill:#4d4d4d"
           y="953.75781"
           x="3.8359375"
           id="tspan1101"
           sodipodi:role="line">10</tspan><tspan
           id="tspan1103"
           y="1003.7578"
           x="3.8359375"
           sodipodi:role="line" /></text>
      <text
         id="text1111"
         y="1050"
         x="4.1601562"
         style="font-style:normal;font-weight:normal;font-size:40px;line-height:1.25;font-family:sans-serif;fill:#4d4d4d;fill-opacity:1;stroke:none"
         xml:space="preserve"><tspan
           style="font-size:16px;fill:#4d4d4d"
           y="1050"
           x="4.1601562"
           id="tspan1107"
           sodipodi:role="line">11</tspan><tspan
           id="tspan1109"
           y="1100"
           x="4.1601562"
           sodipodi:role="line" /></text>
      <text
         xml:space="preserve"
         style="font-style:normal;font-weight:normal;font-size:40px;line-height:1.25;font-family:sans-serif;fill:#4d4d4d;fill-opacity:1;stroke:none"
         x="3.828125"
         y="1146"
         id="text1117"><tspan
           sodipodi:role="line"
           id="tspan1113"
           x="3.828125"
           y="1146"
           style="font-size:16px;fill:#4d4d4d">12</tspan><tspan
           sodipodi:role="line"
           x="3.828125"
           y="1196"
           id="tspan1115" /></text>
    </g>
  </g>
  <g
     inkscape:label="Layer 1"
     inkscape:groupmode="layer"
     id="layer1"
     transform="translate(0, 181.417)"
     style="display:inline">
    <g
       id="layer2-2"
       inkscape:label="Falz"
       style="display:inline"
       transform="matrix(0.99969 0 0 0.99969 -4862.37 -466.493)" />
    <g
       id="layer4"
       inkscape:label="Randzahlen"
       transform="matrix(0.99969 0 0 0.99969 -4862.37 -466.493)" />
    <g
       id="g3886">
      <path
         d="m 616.45969,700.26964 c -6.24574,-2.51472 -12.45215,-8.50406 -15.38256,-15.80749 -2.93027,-7.30353 -2.5844,-15.92155 0.1908,-22.05605 2.45294,-6.27055 8.37989,-12.53631 15.65377,-15.53927 7.27414,-3.00277 15.89509,-2.74275 22.05684,-0.029 -2.68347,-6.15329 -2.92454,-14.73122 0.0671,-21.97377 2.9916,-7.24265 9.21589,-13.15002 15.45963,-15.61575 6.10921,-2.78264 14.68203,-3.16212 21.97204,-0.28781 7.29001,2.8742 13.29696,9.0024 15.86337,15.20547 v 8.18226 c -0.87041,-8.00721 -6.38095,-16.11719 -13.5047,-19.87532 -6.94935,-4.07164 -16.74603,-4.47791 -24.00858,-0.9955 -7.41055,3.15542 -13.57349,10.78136 -15.10376,18.6891 -1.88081,7.83157 0.572,17.32482 6.01121,23.26508 -6.01895,-5.43692 -15.63004,-7.81078 -23.48832,-5.8015 -7.94148,1.64979 -15.53055,8.00721 -18.54657,15.53657 -3.35547,7.38441 -2.7028,17.26304 1.59521,24.14171 3.98041,7.0672 12.34003,12.37036 20.4295,12.96107 z"
         stroke="#FFBF00"
         stroke-width="0.24"
         fill="none"
         id="path18"
         style="display:inline;stroke:#00a6ff;stroke-width:0.720225;stroke-miterlimit:4;stroke-dasharray:none;stroke-opacity:1" />
      <path
         d="M 87.615046,700.26964 H 692.34065"
         stroke="#FFBF00"
         stroke-width="0.24"
         fill="none"
         id="path34"
         style="display:inline;stroke:#00a6ff;stroke-width:0.720225;stroke-miterlimit:4;stroke-dasharray:none;stroke-opacity:1" />
      <path
         d="m 163.49599,700.26964 c 6.24561,-2.51472 12.45217,-8.50406 15.38244,-15.80749 2.93027,-7.30353 2.5844,-15.92155 -0.1908,-22.05605 -2.45281,-6.27055 -8.37975,-12.53631 -15.65376,-15.53927 -7.27402,-3.00277 -15.89498,-2.74275 -22.05685,-0.029 2.68347,-6.15329 2.92454,-14.73122 -0.067,-21.97377 -2.99161,-7.24265 -9.21589,-13.15002 -15.45963,-15.61575 -6.10922,-2.78264 -14.68216,-3.16212 -21.97205,-0.28781 -7.290016,2.8742 -13.297091,9.0024 -15.863364,15.20547 v 8.18226 c 0.87027,-8.00721 6.380809,-16.11719 13.504554,-19.87532 6.94948,-4.07164 16.74604,-4.47791 24.00872,-0.9955 7.41042,3.15542 13.57336,10.78136 15.10363,18.6891 1.8808,7.83157 -0.572,17.32482 -6.01122,23.26508 6.01896,-5.43692 15.63017,-7.81078 23.48832,-5.8015 7.94148,1.64979 15.5307,8.00721 18.54657,15.53657 3.35561,7.38441 2.70281,17.26304 -1.59506,24.14171 -3.98055,7.0672 -12.34016,12.37036 -20.42965,12.96107 z"
         stroke="#FFBF00"
         stroke-width="0.24"
         fill="none"
         id="path68"
         style="display:inline;stroke:#00a6ff;stroke-width:0.720225;stroke-miterlimit:4;stroke-dasharray:none;stroke-opacity:1" />
      <path
         d="m 616.45969,390.34795 c -6.24574,2.51521 -12.45215,8.50416 -15.38256,15.80777 -2.93027,7.30348 -2.5844,15.9215 0.1908,22.05604 2.45294,6.27041 8.37989,12.53616 15.65377,15.5391 7.27414,3.00293 15.89509,2.74293 22.05684,0.0288 -2.68347,6.15335 -2.92454,14.73123 0.0671,21.97391 2.9916,7.24254 9.21589,13.14989 15.45963,15.61575 6.10921,2.78254 14.68203,3.16212 21.97204,0.28792 7.29001,-2.87431 13.29696,-9.00246 15.86337,-15.20553 v -8.18229 c -0.87041,8.00722 -6.38095,16.1171 -13.5047,19.87538 -6.94935,4.07146 -16.74603,4.47774 -24.00858,0.99552 -7.41055,-3.15553 -13.57349,-10.78155 -15.10376,-18.68916 -1.88081,-7.83162 0.572,-17.32497 6.01121,-23.26525 -6.01895,5.43695 -15.63004,7.81095 -23.48832,5.80148 -7.94148,-1.6496 -15.53055,-8.00708 -18.54657,-15.53656 -3.35547,-7.38442 -2.7028,-17.26297 1.59521,-24.14166 3.98041,-7.0672 12.34003,-12.37081 20.4295,-12.96122 z"
         stroke="#FFBF00"
         stroke-width="0.24"
         fill="none"
         id="path88"
         style="display:inline;stroke:#00a6ff;stroke-width:0.720225;stroke-miterlimit:4;stroke-dasharray:none;stroke-opacity:1" />
      <path
         d="m 163.49599,390.34795 c 6.24561,2.51521 12.45217,8.50416 15.38244,15.80777 2.93027,7.30348 2.5844,15.9215 -0.1908,22.05604 -2.45281,6.27041 -8.37975,12.53616 -15.65376,15.5391 -7.27402,3.00293 -15.89498,2.74293 -22.05685,0.0288 2.68347,6.15335 2.92454,14.73123 -0.067,21.97391 -2.99161,7.24254 -9.21589,13.14989 -15.45963,15.61575 -6.10922,2.78254 -14.68216,3.16212 -21.97205,0.28792 -7.290016,-2.87431 -13.297091,-9.00246 -15.863364,-15.20553 v -8.18229 c 0.87027,8.00722 6.380809,16.1171 13.504554,19.87538 6.94948,4.07146 16.74604,4.47774 24.00872,0.99552 7.41042,-3.15553 13.57336,-10.78155 15.10363,-18.68916 1.8808,-7.83162 -0.572,-17.32497 -6.01122,-23.26525 6.01896,5.43695 15.63017,7.81095 23.48832,5.80148 7.94148,-1.6496 15.5307,-8.00708 18.54657,-15.53656 3.35561,-7.38442 2.70281,-17.26297 -1.59506,-24.14166 -3.98055,-7.0672 -12.34016,-12.37081 -20.42965,-12.96122 z"
         stroke="#FFBF00"
         stroke-width="0.24"
         fill="none"
         id="path94"
         style="display:inline;stroke:#00a6ff;stroke-width:0.720225;stroke-miterlimit:4;stroke-dasharray:none;stroke-opacity:1" />
      <path
         d="m 484.39063,307.19819 c 13.52149,16.59656 23.12258,38.83781 25.75205,61.87492 2.62948,23.03698 -1.71266,46.86983 -11.14641,66.08653 -9.10496,19.37471 -24.99565,37.65981 -44.62223,50.0053 -19.62683,12.34546 -42.98955,18.75147 -64.39626,18.56913 -21.40671,0.18234 -44.76942,-6.22367 -64.39613,-18.56913 -19.6267,-12.34549 -35.5174,-30.63059 -44.62235,-50.0053 -9.43375,-19.2167 -13.77589,-43.04955 -11.14643,-66.08653 2.62947,-23.03711 12.23069,-45.27836 25.75218,-61.87492 z"
         stroke="#7FCFFF"
         stroke-width="0.24"
         fill="none"
         id="path248"
         style="display:inline;stroke:#00a6ff;stroke-width:0.720225;stroke-miterlimit:4;stroke-dasharray:none;stroke-opacity:1"
         sodipodi:nodetypes="cscscscscc" />
      <path
         d="m 389.97778,261.8437 c 31.20166,0 62.40332,13.1895 81.92023,31.96872 l 20.48017,-22.24404 c -12.52035,-11.55469 -28.00585,-21.76991 -45.56682,-28.87152 -17.56097,-7.10162 -37.19728,-11.08936 -56.83358,-11.08936 -19.63631,0 -39.27261,3.98774 -56.83358,11.08936 -17.56083,7.10161 -33.04646,17.31683 -45.56663,28.87152 l 20.48004,22.24404 c 19.51697,-18.77922 50.71851,-31.96872 81.92017,-31.96872 z"
         stroke="#7FCFFF"
         stroke-width="0.24"
         fill="none"
         id="path258"
         style="display:inline;stroke:#00a6ff;stroke-width:0.720225;stroke-miterlimit:4;stroke-dasharray:none;stroke-opacity:1"
         sodipodi:nodetypes="sccsssccs" />
      <path
         d="m 522.21245,307.19819 c 12.69708,21.86831 20.16709,48.9869 20.0799,76.08108 -0.0874,27.09419 -7.73175,54.16397 -20.56937,75.95015 -12.54297,21.95725 -32.25021,42.02812 -55.72919,55.55002 -23.47884,13.522 -50.72929,20.49504 -76.01601,20.32469 -25.28658,0.17035 -52.53704,-6.80269 -76.01602,-20.32469 -23.47885,-13.5219 -43.18622,-33.59277 -55.72904,-55.55002 -12.83776,-21.78618 -20.48217,-48.85596 -20.56938,-75.95015 -0.0872,-27.09418 7.38282,-54.21277 20.07991,-76.08108 h 2.61854 c -12.74336,21.51231 -20.34284,48.29329 -20.43071,75.09908 -0.0879,26.80565 7.33601,53.6361 19.93818,75.23148 12.30602,21.76541 31.74299,41.69492 54.94291,55.12305 23.1999,13.42843 50.16276,20.35538 75.16561,20.18473 25.00285,0.17065 51.9657,-6.7563 75.16562,-20.18473 23.20004,-13.42813 42.63688,-33.35764 54.94291,-55.12305 12.60215,-21.59538 20.02604,-48.42583 19.9383,-75.23148 -0.0879,-26.80579 -7.68735,-53.58677 -20.43071,-75.09908 z"
         stroke="#7FCFFF"
         stroke-width="0.24"
         fill="none"
         id="path262"
         style="display:inline;stroke:#00a6ff;stroke-width:0.720225;stroke-miterlimit:4;stroke-dasharray:none;stroke-opacity:1" />
      <g
         aria-label="$"
         transform="matrix(-1.053951,0.81668364,0.81668364,1.053951,363.84332,-437.75193)"
         id="g4869"
         style="font-size:42.6799px;line-height:1.25;font-family:'Permanent Marker';-inkscape-font-specification:'Permanent Marker';display:inline;fill:none;stroke:#00a6ff;stroke-width:1.00031;stroke-opacity:1">
        <path
           d="m 663.3624,534.93771 q 0,2.98009 -2.68834,2.98009 -1.87558,0 -1.87558,-1.33375 0,-0.45847 0.29176,-1.06283 v -0.0833 q 0,-1.39627 -0.95863,-2.27154 -0.93779,-0.87527 -2.3549,-0.87527 -1.95894,0 -3.6678,1.45878 -1.62551,1.39627 -1.62551,2.79253 0,0.95864 1.02115,1.68803 0.6252,0.43763 2.93841,1.47962 4.52224,2.0423 6.37698,3.93873 2.16734,2.18817 2.16734,5.3975 0,2.93841 -2.08398,5.04323 -2.12566,2.16734 -5.64759,2.60498 -0.47931,2.25069 -0.95863,4.52223 -0.47931,1.37543 -1.9381,1.37543 -2.1465,0 -2.1465,-1.91726 0,-0.91695 0.60436,-4.10544 -5.58507,-1.29207 -5.58507,-5.62675 0,-1.58382 1.04199,-2.64665 1.04199,-1.08367 2.54246,-1.08367 0.89611,0 1.45878,0.56267 0.58352,0.56268 0.58352,1.41711 0,0.47932 -0.81275,0.93779 -0.81276,0.45848 -0.81276,0.93779 0,0.77107 1.20871,1.45879 1.33375,0.75023 3.10513,0.75023 2.2507,0 3.772,-1.20871 1.52131,-1.22955 1.52131,-3.02177 0,-2.85505 -5.58507,-5.58506 -4.31383,-2.10482 -4.95987,-2.60498 -1.95894,-1.47962 -1.95894,-4.00124 0,-2.41741 1.87558,-4.54307 1.95894,-2.22986 5.12659,-3.10513 0.16672,-3.14681 0.66688,-4.293 0.60435,-1.33375 2.18818,-1.33375 0.95863,0 1.56298,0.58352 0.62519,0.56267 0.62519,1.45878 0,0.39596 -0.22923,1.31291 -0.29176,1.20871 -0.37512,1.81306 2.62581,0.50016 4.10544,2.16734 1.47963,1.64634 1.47963,4.02208 z"
           style="font-family:'Kristen ITC';-inkscape-font-specification:'Kristen ITC';fill:none;stroke:#00a6ff;stroke-opacity:1"
           id="path4867" />
      </g>
      <g
         aria-label="$"
         transform="matrix(1.0539509,0.81668364,-0.81668364,1.0539509,413.09419,-440.59737)"
         id="g5385"
         style="font-size:42.6799px;line-height:1.25;font-family:'Permanent Marker';-inkscape-font-specification:'Permanent Marker';display:inline;fill:none;stroke:#00a6ff;stroke-width:1.00031;stroke-opacity:1">
        <path
           d="m 663.3624,534.93771 q 0,2.98009 -2.68834,2.98009 -1.87558,0 -1.87558,-1.33375 0,-0.45847 0.29176,-1.06283 v -0.0833 q 0,-1.39627 -0.95863,-2.27154 -0.93779,-0.87527 -2.3549,-0.87527 -1.95894,0 -3.6678,1.45878 -1.62551,1.39627 -1.62551,2.79253 0,0.95864 1.02115,1.68803 0.6252,0.43763 2.93841,1.47962 4.52224,2.0423 6.37698,3.93873 2.16734,2.18817 2.16734,5.3975 0,2.93841 -2.08398,5.04323 -2.12566,2.16734 -5.64759,2.60498 -0.47931,2.25069 -0.95863,4.52223 -0.47931,1.37543 -1.9381,1.37543 -2.1465,0 -2.1465,-1.91726 0,-0.91695 0.60436,-4.10544 -5.58507,-1.29207 -5.58507,-5.62675 0,-1.58382 1.04199,-2.64665 1.04199,-1.08367 2.54246,-1.08367 0.89611,0 1.45878,0.56267 0.58352,0.56268 0.58352,1.41711 0,0.47932 -0.81275,0.93779 -0.81276,0.45848 -0.81276,0.93779 0,0.77107 1.20871,1.45879 1.33375,0.75023 3.10513,0.75023 2.2507,0 3.772,-1.20871 1.52131,-1.22955 1.52131,-3.02177 0,-2.85505 -5.58507,-5.58506 -4.31383,-2.10482 -4.95987,-2.60498 -1.95894,-1.47962 -1.95894,-4.00124 0,-2.41741 1.87558,-4.54307 1.95894,-2.22986 5.12659,-3.10513 0.16672,-3.14681 0.66688,-4.293 0.60435,-1.33375 2.18818,-1.33375 0.95863,0 1.56298,0.58352 0.62519,0.56267 0.62519,1.45878 0,0.39596 -0.22923,1.31291 -0.29176,1.20871 -0.37512,1.81306 2.62581,0.50016 4.10544,2.16734 1.47963,1.64634 1.47963,4.02208 z"
           style="font-family:'Kristen ITC';-inkscape-font-specification:'Kristen ITC';fill:none;stroke:#00a6ff;stroke-opacity:1"
           id="path5383" />
      </g>
      <g
         aria-label="$"
         transform="matrix(-1.053951,0.81668364,0.81668364,1.053951,905.11013,-683.16314)"
         id="g5895"
         style="font-size:42.6799px;line-height:1.25;font-family:'Permanent Marker';-inkscape-font-specification:'Permanent Marker';display:inline;fill:none;stroke:#00a6ff;stroke-width:1.00031;stroke-opacity:1">
        <path
           d="m 663.3624,534.93771 q 0,2.98009 -2.68834,2.98009 -1.87558,0 -1.87558,-1.33375 0,-0.45847 0.29176,-1.06283 v -0.0833 q 0,-1.39627 -0.95863,-2.27154 -0.93779,-0.87527 -2.3549,-0.87527 -1.95894,0 -3.6678,1.45878 -1.62551,1.39627 -1.62551,2.79253 0,0.95864 1.02115,1.68803 0.6252,0.43763 2.93841,1.47962 4.52224,2.0423 6.37698,3.93873 2.16734,2.18817 2.16734,5.3975 0,2.93841 -2.08398,5.04323 -2.12566,2.16734 -5.64759,2.60498 -0.47931,2.25069 -0.95863,4.52223 -0.47931,1.37543 -1.9381,1.37543 -2.1465,0 -2.1465,-1.91726 0,-0.91695 0.60436,-4.10544 -5.58507,-1.29207 -5.58507,-5.62675 0,-1.58382 1.04199,-2.64665 1.04199,-1.08367 2.54246,-1.08367 0.89611,0 1.45878,0.56267 0.58352,0.56268 0.58352,1.41711 0,0.47932 -0.81275,0.93779 -0.81276,0.45848 -0.81276,0.93779 0,0.77107 1.20871,1.45879 1.33375,0.75023 3.10513,0.75023 2.2507,0 3.772,-1.20871 1.52131,-1.22955 1.52131,-3.02177 0,-2.85505 -5.58507,-5.58506 -4.31383,-2.10482 -4.95987,-2.60498 -1.95894,-1.47962 -1.95894,-4.00124 0,-2.41741 1.87558,-4.54307 1.95894,-2.22986 5.12659,-3.10513 0.16672,-3.14681 0.66688,-4.293 0.60435,-1.33375 2.18818,-1.33375 0.95863,0 1.56298,0.58352 0.62519,0.56267 0.62519,1.45878 0,0.39596 -0.22923,1.31291 -0.29176,1.20871 -0.37512,1.81306 2.62581,0.50016 4.10544,2.16734 1.47963,1.64634 1.47963,4.02208 z"
           style="font-family:'Kristen ITC';-inkscape-font-specification:'Kristen ITC';fill:none;stroke:#00a6ff;stroke-opacity:1"
           id="path5893" />
      </g>
      <g
         aria-label="$"
         transform="matrix(1.0539509,0.81668364,-0.81668364,1.0539509,-129.91649,-682.53345)"
         id="g6405"
         style="font-size:42.6799px;line-height:1.25;font-family:'Permanent Marker';-inkscape-font-specification:'Permanent Marker';display:inline;fill:none;stroke:#00a6ff;stroke-width:1.00031;stroke-opacity:1">
        <path
           d="m 663.3624,534.93771 q 0,2.98009 -2.68834,2.98009 -1.87558,0 -1.87558,-1.33375 0,-0.45847 0.29176,-1.06283 v -0.0833 q 0,-1.39627 -0.95863,-2.27154 -0.93779,-0.87527 -2.3549,-0.87527 -1.95894,0 -3.6678,1.45878 -1.62551,1.39627 -1.62551,2.79253 0,0.95864 1.02115,1.68803 0.6252,0.43763 2.93841,1.47962 4.52224,2.0423 6.37698,3.93873 2.16734,2.18817 2.16734,5.3975 0,2.93841 -2.08398,5.04323 -2.12566,2.16734 -5.64759,2.60498 -0.47931,2.25069 -0.95863,4.52223 -0.47931,1.37543 -1.9381,1.37543 -2.1465,0 -2.1465,-1.91726 0,-0.91695 0.60436,-4.10544 -5.58507,-1.29207 -5.58507,-5.62675 0,-1.58382 1.04199,-2.64665 1.04199,-1.08367 2.54246,-1.08367 0.89611,0 1.45878,0.56267 0.58352,0.56268 0.58352,1.41711 0,0.47932 -0.81275,0.93779 -0.81276,0.45848 -0.81276,0.93779 0,0.77107 1.20871,1.45879 1.33375,0.75023 3.10513,0.75023 2.2507,0 3.772,-1.20871 1.52131,-1.22955 1.52131,-3.02177 0,-2.85505 -5.58507,-5.58506 -4.31383,-2.10482 -4.95987,-2.60498 -1.95894,-1.47962 -1.95894,-4.00124 0,-2.41741 1.87558,-4.54307 1.95894,-2.22986 5.12659,-3.10513 0.16672,-3.14681 0.66688,-4.293 0.60435,-1.33375 2.18818,-1.33375 0.95863,0 1.56298,0.58352 0.62519,0.56267 0.62519,1.45878 0,0.39596 -0.22923,1.31291 -0.29176,1.20871 -0.37512,1.81306 2.62581,0.50016 4.10544,2.16734 1.47963,1.64634 1.47963,4.02208 z"
           style="font-family:'Kristen ITC';-inkscape-font-specification:'Kristen ITC';fill:none;stroke:#00a6ff;stroke-opacity:1"
           id="path6403" />
      </g>
      <g
         id="g7120"
         transform="matrix(1.333336,0,0,1.333336,-284.00156,-637.76369)"
         style="display:inline;fill:none;stroke:#00a6ff;stroke-opacity:1">
        <path
           id="path7116"
           style="font-stretch:semi-expanded;font-size:32.0099px;line-height:1.25;font-family:'Kristen ITC';-inkscape-font-specification:'Kristen ITC Semi-Expanded';fill:none;stroke:#00a6ff;stroke-width:0.999999;stroke-opacity:1"
           d="m 5049.748,1016.1094 c -0.104,0 -0.2089,0 -0.3144,0 -1.8098,-0.045 -3.2833,1.5093 -3.5293,3.2344 -0.3432,2.6948 -0.2591,5.4278 -0.3555,8.1406 0.02,0.591 0.125,1.2701 -0.6718,1.0644 -3.3,0.1423 -6.604,0.1529 -9.9063,0.1172 0.1478,-2.7969 0.4817,-5.5854 0.5938,-8.3808 0.033,-1.7295 -1.2775,-3.4375 -3.0645,-3.545 -1.8103,-0.2757 -3.6299,0.9773 -4.0723,2.7442 -0.4414,1.6399 -0.335,3.3713 -0.5371,5.0508 -0.1546,1.6199 1.2739,2.6831 -0.3789,4.8847 -0.8236,1.7088 -1.5218,4.5634 -1.7949,7.5684 -1.9952,0.123 -4.4008,0.9942 -5.1406,2.0351 -0.7234,1.0526 -1.5664,2.1035 -2.8379,2.4981 -2.1755,0.7409 -4.5854,0.8281 -6.8223,0.3184 -2.0241,-0.4507 -3.5742,-2.1454 -4.082,-4.1231 -0.7245,-2.6746 -0.736,-5.5693 -0.014,-8.2461 0.7026,-2.6295 2.8503,-4.9885 5.6445,-5.3223 2.6892,-0.4787 5.3724,0.6059 7.4864,2.2149 1.4064,1.0751 3.5465,0.7441 4.6308,-0.625 1.2713,-1.3318 1.1081,-3.5708 -0.1699,-4.8399 -2.8633,-3.0303 -7.2334,-4.1269 -11.2871,-3.9472 -3.8966,0.1066 -7.7415,1.8496 -10.2363,4.873 -0.7481,0.862 -1.373,1.804 -1.8907,2.7989 -0.092,-0.8258 -0.2056,-1.6758 -0.3085,-2.5098 -0.6188,-3.2239 -1.3098,-4.3229 -3.0723,-5.2012 -0.5428,-0.2825 -1.1671,-0.3931 -1.7754,-0.3613 -0.8573,0.021 -1.6764,0.4002 -2.2871,0.9941 -3.4336,-1.3572 -7.4953,-0.9509 -10.668,0.9063 -3.3051,1.9463 -5.4386,5.6108 -5.625,9.4277 -0.2265,2.9621 0.3287,6.3201 2.7344,8.3184 0.5012,0.331 0.7806,0.5496 0.098,0.7871 -0.5182,0.3707 -0.8877,0.8399 -1.1563,1.3652 -1.1359,-0.4708 -2.5389,-0.4308 -3.9805,0.6406 -1.7198,0.5693 -3.248,1.6901 -5.0898,1.8985 -1.9373,0.357 -3.9108,0.4611 -5.877,0.5117 0.1475,-1.8789 0.229,-3.7626 0.2793,-5.6465 2.3145,-0.014 4.6688,0.163 6.9512,-0.291 1.6978,-0.3353 3.0006,-2.0296 2.7012,-3.7695 -0.1009,-1.7364 -1.7676,-3.0233 -3.4531,-2.9688 -2.0175,0.081 -4.0402,0.256 -6.0626,0.1485 0.013,-1.6375 0.032,-3.2746 0.035,-4.9122 3.8212,0.5686 7.277,0.8437 8.043,0.4532 1.8505,-0.7853 2.7444,-3.3492 1.4765,-5.0039 -2.7497,-3.3224 -10.4351,-2.8172 -15.2656,-2.7657 -1.6189,0.033 -3.5387,0.4476 -4.293,2.0606 -0.8902,1.7355 -0.098,4.2338 1.8653,4.7969 0.3773,0.2521 1.2487,-0.06 1.0722,0.5976 0.021,2.3998 0.037,4.8031 0.014,7.2051 -2.1327,-0.9172 -5.4705,-1.3453 -7.248,-1.627 -3.2702,-0.4749 -6.5253,-1.0994 -9.7442,-0.5078 -1.8504,0.3715 -3.9807,1.3214 -4.4453,3.3418 -0.4639,2.1242 1.4086,4.5037 3.6387,4.2129 1.3248,-0.1837 2.5795,-0.7739 3.9336,-0.7734 -0.6003,2.0916 -1.3548,4.4846 -3.3731,5.623 -2.0519,1.0044 -4.9185,0.4881 -6.1367,-1.5625 -1.5065,-2.4345 -1.4889,-5.4611 -1.2031,-8.2168 0.3032,-2.6961 1.6852,-5.4757 4.2617,-6.6347 2.5275,-1.1182 5.5058,-1.1816 8.1152,-0.3028 1.3596,0.5367 2.747,1.645 4.2872,1.0938 2.1182,-0.5955 3.2491,-3.3921 1.9726,-5.2383 -1.2657,-1.7917 -3.4893,-2.5537 -5.5254,-3.0898 -1.4333,-0.3372 -2.9086,-0.4674 -4.3789,-0.4688 -4.2755,-0.042 -8.7339,1.2995 -11.7441,4.4551 -3.3399,3.3378 -4.5577,8.2132 -4.4961,12.8164 -0.02,4.2052 1.1477,8.6779 4.3144,11.625 3.159,3.029 8.0939,3.779 12.1524,2.3437 1.0996,-0.3985 2.1122,-1.0157 3.0039,-1.7695 0.6724,1.6135 2.5797,2.6355 4.2695,2.0098 1.638,-0.4712 1.8632,-2.3093 2.2637,-4.0254 0.4867,-3.2616 1.4818,-3.9869 1.5723,-6.2422 1.8131,0.8523 3.1752,1.1973 4.1933,1.1934 -0.044,0.5893 -0.089,1.1789 -0.1445,1.7675 -0.2706,0.2567 -0.963,0.1802 -1.334,0.4942 -1.9735,0.9416 -2.5392,3.9632 -0.8496,5.4355 1.6913,1.4537 4.0775,1.1038 6.1426,1.1543 5.345,-0.022 11.5389,0.6867 16.4394,-1.6933 0.2399,-0.1166 0.5192,-0.2898 0.8106,-0.4864 -0.01,1.0754 0.01,2.15 0.076,3.2207 0.1383,1.7301 1.6645,3.2221 3.4258,3.168 1.6567,0.1252 3.3095,-1.0784 3.5352,-2.7559 0.088,-0.5272 -0.08,-1.2154 0.6894,-0.8222 3.2571,0.3854 5.2,0.208 7.4844,-2.3399 2.1347,-2.3567 2.1909,-6.0244 0.877,-8.791 -1.211,-2.5223 -2.1374,-4.2115 -4.6543,-5.0547 -1.5203,-0.5966 -3.211,-0.9448 -4.5176,-1.9609 -0.7184,-1.2309 -0.597,-2.8209 -0.1719,-4.1367 0.7388,-2.0612 3.0497,-3.2045 5.1602,-2.877 0.6712,0.077 1.3203,0.3025 1.916,0.6172 0.043,1.7775 2.6213,5.8953 4.459,6.5313 0.8639,0.313 1.8895,0.2522 2.7617,-0.1153 -0.1576,1.3702 -0.187,2.755 -0.1,4.1153 0.1867,4.1979 1.7068,8.5684 5.0683,11.2675 3.4808,2.8835 8.3058,3.429 12.6446,2.7891 2.6722,-0.4069 6.7778,-2.0151 9.5859,-4.0527 0.6556,1.9671 1.7816,3.4287 3.5527,3.8496 1.7261,0.4728 3.8016,-0.4196 4.3125,-2.2129 0.6054,-2.0588 0.2154,-4.2359 0.3086,-6.3477 0.01,-1.5444 0.036,-3.0894 0.09,-4.6328 3.6198,0.093 7.2406,0.093 10.8613,0.076 0.048,3.1394 -0.1136,6.2908 0.1445,9.4219 0.091,1.6259 1.3484,3.14 3.0196,3.2597 1.2272,0.2087 2.9662,-0.075 4.0214,-0.873 0.5255,0.2469 1.0981,0.4032 1.6582,0.4433 2.9458,0.1833 9.6647,0.3771 12.6114,0.2461 2.7978,-0.195 8.128,-0.2191 12.1093,-0.9687 0.5592,1.1304 1.59,2.018 2.9043,2.0605 1.7685,0.2218 3.4182,-1.1845 3.6602,-2.916 0.2795,-2.3407 1.1694,-5.1213 1.7051,-7.6933 0.5546,-2.6628 1.1888,-5.2711 1.5605,-8.0098 2.8266,5.3337 5.9938,10.5179 9.7676,15.2383 1.3156,1.6485 3.2669,3.2379 5.5137,2.8769 0.192,-0.021 0.3992,-0.076 0.6133,-0.1484 -0.268,0.8647 -0.3272,1.6294 0.082,2.0898 1.2739,1.5802 8.3202,-0.3643 9.6055,-1.8672 1.729,-1.9573 2.044,-4.6845 2.4531,-7.164 0.2563,-1.7445 0.432,-3.5 0.5879,-5.2559 0.432,-0.1791 0.8356,-0.7033 1.2656,-0.7051 4.2413,2.455 7.5131,6.2994 10.0234,10.4532 0.8597,1.3138 4.2647,4.3864 5.9668,4.6992 1.667,0.4537 3.5086,-0.5236 4.1817,-2.0586 0.1372,0.022 0.2759,0.047 0.4121,0.057 2.9457,0.1833 7.6549,-0.5565 10.6015,-0.6875 3.8226,-0.2658 7.7559,-0.8973 11.129,-2.8144 1.4355,-0.8136 2.5949,-2.5006 2.0585,-4.1914 -0.4919,-1.8929 -2.7459,-2.9703 -4.5468,-2.2403 -1.702,0.6102 -3.2448,1.6837 -5.084,1.8887 -1.9086,0.3388 -5.475,1.1955 -7.4102,1.2441 0.1533,-1.8785 1.0906,-4.1888 1.9043,-6.3984 2.3152,-0.014 4.6701,0.1629 6.9532,-0.291 1.6925,-0.3355 2.9969,-2.0207 2.7011,-3.7578 -0.093,-1.7389 -1.7631,-3.0366 -3.4531,-2.9805 -2.0175,0.081 -4.0402,0.258 -6.0625,0.1504 0.013,-1.6375 0.032,-3.2765 0.035,-4.9141 2.178,0.1805 4.5341,0.3117 6.75,0.8457 1.4695,0.42 3.0081,1.5129 4.5586,0.7598 1.8528,-0.7829 2.7492,-3.3515 1.4785,-5.0058 -1.337,-1.7437 -3.6238,-2.2742 -5.6446,-2.8067 -4.2159,-0.9659 -8.5789,-1.1656 -12.8906,-1.1094 -1.3425,0.6185 -1.6002,0.4475 -2.3535,2.0606 -0.8709,1.7013 -0.1374,4.1427 1.7637,4.7617 0.3555,0.2842 1.2438,-0.026 1.1699,0.5332 0.051,5.8097 -3.5871,12.2636 -4.1426,18.0527 -0.6533,0.036 -1.2598,0.2883 -1.7676,0.6778 -0.015,-0.026 -0.032,-0.053 -0.047,-0.078 -2.6068,-3.8436 -8.3484,-8.7765 -12.1641,-11.4531 2.9361,-2.5055 5.9761,-5.0265 8.1113,-8.2832 1.0293,-1.5428 1.6329,-3.808 0.3438,-5.3789 -1.3105,-1.5948 -3.9306,-1.3809 -5.3008,0.037 -1.7505,1.949 -3.3014,4.0904 -5.2363,5.875 -1.6219,1.5775 -3.3572,3.0365 -5.1661,4.3946 -0.1244,-2.6408 0.048,-5.323 -0.4843,-7.9258 -0.3796,-1.8892 -1.8059,-3.7248 -3.9121,-3.586 v 0 c -1.6959,-0.043 -3.2382,1.3243 -3.3926,3.0156 -0.1277,1.674 0.2479,3.3459 0.3242,5.0195 0.092,0.9986 0.1719,2.2486 0.2129,3.0938 0.1558,3.8602 -0.898,7.669 -2.0176,11.4492 -0.083,-0.3592 -0.1578,-0.695 -0.2656,-1.1211 -0.7354,-3.8129 -1.6019,-7.2595 -2.2774,-10.914 -0.3997,-2.1629 -0.6708,-4.2918 -1.0507,-6.5137 -0.2653,-1.5511 -0.6452,-3.4888 -2.3926,-3.9278 -0.3903,-0.1019 -0.7937,-0.1545 -1.1973,-0.1328 -1.7941,0.03 -3.543,1.615 -3.4043,3.1836 0.3534,3.9952 0.6605,5.9282 1.2266,8.8535 0.4211,2.1762 0.8691,4.4613 1.6094,6.4512 -3.6073,-5.3017 -7.1103,-10.3694 -9.6504,-16.2051 -0.6415,-1.5565 -2.4577,-2.5381 -4.0938,-1.9902 -2.0552,0.562 -2.9775,2.7231 -3.4453,4.6133 -1.07,4.3085 -2.2592,8.5404 -3.1016,12.873 -0.2748,1.4136 -0.6183,2.8638 -0.9296,4.3145 -1.8362,0.6482 -7.1072,2.3155 -8.9024,2.5156 -1.9085,0.3386 -3.85,0.4457 -5.7851,0.4941 0.1509,-1.8787 0.2272,-3.7646 0.2793,-5.6484 2.3151,-0.014 4.67,0.1628 6.9531,-0.291 1.6919,-0.337 2.9973,-2.0196 2.7012,-3.7578 -0.094,-1.7384 -1.7653,-3.0365 -3.4551,-2.9805 -2.0175,0.081 -4.0383,0.2579 -6.0606,0.1504 0.013,-1.6375 0.032,-3.2765 0.035,-4.9141 2.1781,0.1805 4.5341,0.3118 6.75,0.8457 1.4697,0.42 1.1309,0.7618 2.6816,0.01 1.8532,-0.7832 2.7507,-3.3508 1.4805,-5.0058 -1.3608,-1.7687 -1.8146,-1.5436 -3.8672,-2.0782 -4.1872,-0.9455 -8.5132,-1.1423 -12.793,-1.0859 v 0 c -1.6132,0.035 -2.1667,-0.1765 -2.9277,1.4258 -0.8989,1.7333 0.635,4.2416 2.6035,4.8106 -0.5428,5.7867 -1.7034,10.4905 -2.1972,15.8496 -0.7885,0.043 -2.0238,0.8051 -3.1875,1.8144 -0.081,-4.0153 -0.9842,-8.4322 -0.8868,-12.4277 l 0.031,-1.2344 c 0.071,-2.2052 0.1543,-4.3551 0.2656,-6.5742 -0.014,-0.3079 -9e-4,-0.9785 -0.1328,-1.4219 -0.291,-1.554 -1.6585,-2.7252 -3.2188,-2.7812 z"
           transform="matrix(1.0003105,0,0,1.0003105,-4658.4412,0)" />
        <path
           id="path7118"
           style="font-stretch:semi-expanded;font-size:32.0099px;line-height:1.25;font-family:'Kristen ITC';-inkscape-font-specification:'Kristen ITC Semi-Expanded';fill:none;stroke:#00a6ff;stroke-width:0.999999;stroke-opacity:1"
           d="m 5220.6973,1016.0488 c -2.1508,0.024 -3.5186,0.4586 -4.9434,2.2344 -0.4296,0.5456 -0.6427,1.2376 -0.6543,1.9277 l 0.2168,1.2832 c 0.4461,1.1812 0.4218,2.1235 1.709,2.2325 0.3818,3.9934 0.5749,8.0671 -0.1387,12.0351 -0.5017,2.6486 -1.6673,5.5856 -4.3183,6.7188 -1.6854,0.6608 -3.6691,0.8669 -5.3848,0.205 -1.712,-0.8171 -1.9587,-2.956 -1.9902,-4.6386 -0.065,-4.8048 1.3842,-9.5659 3.873,-13.6563 1.4472,0.8945 2.4969,-1.0871 2.8145,-2.2441 0.4037,-1.4711 0.1397,-3.2337 -1.6211,-4.2793 -1.2236,-0.7265 -1.4256,-1.06 -3.6563,-1.293 -2.22,-0.1084 -2.8082,-0.014 -4.6894,1.3184 -1.7812,1.2664 -2.0888,4.3153 -0.2715,5.6719 -1.2767,2.4439 -2.2324,5.0691 -2.8301,7.7695 -1.6184,-1.059 -3.9529,-1.6415 -5.543,-2.0469 -2.9441,-0.6234 -6.0542,-0.6751 -8.9863,0.041 -1.7191,0.4305 -3.6501,1.5531 -3.8359,3.4942 -0.3132,2.1529 1.7795,4.375 3.9746,3.8613 1.2106,-0.2374 2.3803,-0.7227 3.6289,-0.7285 -0.5997,2.0922 -1.3554,4.4835 -3.3731,5.623 -2.0518,1.0048 -4.9188,0.4881 -6.1367,-1.5625 -1.4916,-2.4039 -1.4856,-5.3921 -1.2148,-8.1172 0.2829,-2.7301 1.6642,-5.5581 4.2734,-6.7324 2.5275,-1.1178 5.5058,-1.1837 8.1152,-0.3047 1.3596,0.5367 2.747,1.645 4.2872,1.0938 2.1182,-0.5955 3.2491,-3.3921 1.9726,-5.2383 -1.2657,-1.7917 -3.4893,-2.5518 -5.5254,-3.0879 -1.4334,-0.3373 -2.9086,-0.4691 -4.3789,-0.4707 -4.2752,-0.043 -8.7281,1.2993 -11.7422,4.4492 -1.9521,1.9538 -3.1664,4.4386 -3.8379,7.0821 -0.053,-0.025 -0.1084,-0.049 -0.164,-0.07 -1.1703,-0.5235 -2.4812,-0.4442 -3.7305,-0.4394 v 0 c -1.9528,-9e-4 -4.2368,0.072 -5.6055,1.6836 -1.4153,1.6765 -0.7995,4.7136 1.375,5.4141 2.0084,0.523 4.0755,-0.273 6.1094,0.031 0.4621,0.035 0.9318,-0.021 1.377,-0.1543 0.1161,3.9415 1.2728,8.0077 4.1777,10.795 3.1587,3.1087 8.1593,3.9031 12.2676,2.4472 1.0998,-0.398 2.1117,-1.0163 3.0039,-1.7695 0.672,1.6138 2.5797,2.6352 4.2695,2.0098 1.5001,-0.451 2.8787,-2.1857 2.1817,-3.7715 0.344,0.2538 -0.096,-0.7801 -0.094,-1.2383 -0.2176,-1.1898 -0.3377,-2.3967 -0.375,-3.6055 -0.3389,0.5155 -0.7381,1.4341 -0.834,0.3145 -0.2922,-1.0163 -0.5847,-2.0325 -0.8769,-3.0488 0.6214,0.027 1.1153,0.5052 1.7129,0.5957 0.8642,0.1307 2.1712,10e-5 2.621,-0.09 -0.032,0.1091 0.065,0.1153 0.211,0.074 0.01,0.8541 0.045,1.7077 0.1348,2.5586 0.3728,3.3622 2.1417,6.7117 5.207,8.3321 3.1137,1.6704 6.8865,1.7107 10.248,0.8515 3.8747,-1.0103 6.9671,-4.0504 8.5528,-7.664 1.7353,-3.882 2.2123,-8.1363 2.1836,-12.3653 0.4233,0.1449 0.8778,0.2015 1.3398,0.1387 1.9029,-0.1186 3.1357,-1.9399 3.4023,-3.6855 1.2835,-0.5292 2.808,-0.6157 4.2168,-0.7344 0.3515,0.2494 0.073,1.1788 0.1797,1.6914 0.1356,5.3864 0.1283,10.7788 -0.248,16.1562 -0.047,1.8542 -0.567,4.0117 0.7578,5.5684 1.513,1.8473 4.9002,1.386 5.7969,-0.8594 0.7666,-1.9479 0.576,-4.0959 0.7343,-6.1465 0.2124,-5.435 0.147,-10.8766 0,-16.3125 1.8214,0.1944 3.705,0.2444 5.4434,0.8575 0.5616,0.3378 1.215,0.5612 1.873,0.6269 -0.03,0.2242 -0.075,0.4458 -0.092,0.6719 -0.2764,3.0051 -0.054,7.155 2.5781,8.5332 0.7277,0.381 2.209,1.2305 2.209,1.2305 1.9135,0.9374 3.5682,1.7179 4.0957,1.914 0.269,0.097 0.5377,0.1943 0.8067,0.291 0.8549,0.3854 1.9032,0.6014 2.5058,1.3672 0.1853,0.3664 0.087,0.8476 -0.3847,0.8965 -1.0155,0.2616 -2.1738,0.4542 -3.1797,0.08 -0.4214,-0.6898 -2.6149,-1.3173 -4.4278,-1.6328 -1.9542,0.1776 -3.2203,0.1496 -3.3047,2.0664 -0.068,2.353 -0.141,4.7164 -0.023,7.0664 0.1168,1.7259 1.5821,3.2712 3.3516,3.2539 1.684,0.1656 3.3964,-1.0389 3.625,-2.752 0.089,-0.5238 -0.081,-1.2157 0.6875,-0.8222 3.2602,0.3859 4.977,-0.2361 7.2597,-2.791 2.1755,-2.413 2.1874,-6.1748 0.7852,-8.9707 -1.3056,-2.4684 -1.9986,-3.6439 -4.5137,-4.4903 -1.4508,-0.5541 -3.0411,-0.9133 -4.2988,-1.8554 -0.7359,-1.1178 -0.6243,-2.6095 -0.3164,-3.8614 0.5782,-2.11 2.8093,-3.4395 4.9414,-3.2207 0.7826,0.042 1.5487,0.2784 2.2383,0.6465 0.041,1.7778 0.7189,3.8578 2.5547,4.4961 0.9104,0.3303 2.3642,0.2815 3.6113,-0.1055 -0.4545,2.077 -0.59,4.2359 -0.4414,6.336 0.2225,4.1659 1.7771,8.4853 5.1367,11.1347 3.5056,2.8515 8.3315,3.3708 12.668,2.711 3.1522,-0.5008 9.4787,-3.3107 12.3476,-6.0274 0,0.7306 0.01,1.4612 0.029,2.1914 0.045,1.5998 0.9887,3.2997 2.6524,3.6465 1.7333,0.4797 3.8204,-0.4233 4.3261,-2.2265 0.5992,-2.0887 0.2053,-4.2918 0.3028,-6.4317 0.01,-1.5111 0.037,-3.0231 0.09,-4.5332 3.6205,0.093 7.2419,0.093 10.8633,0.076 0.8469,3.6606 1.5887,7.8446 2.2656,11.543 0.091,1.6262 1.3486,3.1431 3.0215,3.2597 1.722,0.2921 5.2955,0.6805 5.7246,-1.0293 0.042,-0.1642 0.056,-0.3452 0.059,-0.5332 0.3111,0.072 0.6251,0.1252 0.9336,0.1367 3.2298,0.1433 9.3026,-0.7393 12.5273,-0.955 2.7195,-0.2762 7.3504,-1.6735 10.7286,-3.1465 0.098,1.3606 0.911,2.8819 1.9863,3.4922 2.2849,1.3397 6.5221,0.8472 9.0898,0.7089 1.6892,-0.1402 4.9337,-0.3231 6.8282,-1.3632 0.5506,0.6137 1.2814,1.04 2.1543,1.0937 1.7581,0.2665 3.46,-1.0777 3.7382,-2.8086 0.3016,-2.1033 0.1887,-4.2492 0.3223,-6.3691 0.1097,-3.0281 0.3106,-6.0567 0.7168,-9.0606 2.81,5.3073 5.9636,10.4597 9.7031,15.166 1.3165,1.648 3.2326,3.2796 5.4883,2.9629 1.8221,-0.1501 3.1326,-1.9068 3.1152,-3.6718 -0.01,-2.5391 -0.3435,-5.0776 -0.1796,-7.6211 0.1473,-3.6754 0.4244,-7.349 0.9082,-10.9961 0.1313,-0.9504 0.3263,-2.1613 0.5,-3.211 0.2622,-1.8893 0.9166,-4.0743 -0.3243,-5.7636 -0.6543,-0.9116 -1.8044,-1.3634 -2.9062,-1.3028 -1.7916,0.031 -3.0114,1.6874 -3.3692,3.3028 -0.7922,3.2133 -1.1417,6.5208 -1.4785,9.8086 -0.1992,2.0376 -0.3131,4.082 -0.4023,6.1269 -3.6481,-5.3603 -6.4706,-11.2217 -9.0547,-17.1523 -0.7037,-1.4509 -2.4439,-2.3116 -4.0059,-1.793 -2.0542,0.5627 -2.978,2.7232 -3.4453,4.6133 -1.0622,4.2761 -1.7239,8.6471 -2.2129,13.0234 -0.2116,2.1174 -0.388,4.2469 -0.4511,6.377 v 0 c -0.6527,-0.3018 -4.1932,0.5784 -4.8945,0.7364 0.5567,-5.5307 1.5687,-11.7834 0.4336,-17.252 1.6085,0.4 3.2286,-0.9241 3.3926,-2.582 0.3901,-1.9642 -1.3214,-3.2988 -3.084,-4.0625 -2.0303,-0.9947 -2.2362,-0.7255 -4.4629,-0.6875 -2.0453,0.064 -4.4792,0.44 -5.6387,2.3379 -1.1947,1.8731 -0.2801,4.8028 1.9512,5.3691 0.6611,0.1569 1.3518,0.069 1.9863,-0.1621 1.0789,4.2795 0.9207,4.9764 0.6914,9.3691 -0.9774,2.0628 -2.3843,4.8788 -2.5293,6.3692 v 0 c -0.032,-0.1876 -0.08,-0.3747 -0.1524,-0.5606 -0.5859,-1.8037 -2.7802,-2.7534 -4.5215,-2.041 -1.6874,0.6198 -6.3184,3.2664 -8.1464,3.4707 -1.9069,0.3376 -6.0376,3.2823 -7.7227,1.2891 -1.4667,-1.7348 2.171,-4.5596 2.2227,-6.4434 2.3151,-0.014 4.6701,0.1631 6.9531,-0.291 1.6926,-0.3355 2.997,-2.0207 2.7011,-3.7578 -0.093,-1.7389 -1.7631,-3.0366 -3.4531,-2.9805 -2.0174,0.081 -4.0402,0.2561 -6.0625,0.1485 0.013,-1.6375 0.032,-3.2746 0.035,-4.9122 2.1832,0.1826 4.5349,0.3091 6.75,0.8457 1.4716,0.4191 1.415,1.6012 2.9668,0.8477 1.8142,-0.7742 2.7201,-3.2379 1.5547,-4.9121 -1.3499,-1.8363 -2.1365,-2.4699 -4.2266,-3.0098 -4.1871,-0.9462 -8.5133,-1.1439 -12.793,-1.0879 -1.6184,0.033 -3.537,0.4485 -4.291,2.0606 -0.8724,1.7032 -0.1362,4.1505 1.7695,4.7637 0.3552,0.2783 1.2392,-0.026 1.1641,0.5312 0.051,5.8097 -2.7277,12.4336 -3.2832,18.2227 -0.6882,0.036 -1.3173,0.3191 -1.8379,0.7422 -0.019,-0.1602 -0.031,-0.3161 -0.025,-0.459 -2.8846,-9.9769 -4.2775,-9.6463 -1.7871,-22.2442 0.1058,-1.6988 -0.81,-3.6083 -2.5762,-4.0234 -0.3574,-0.098 -0.7296,-0.1372 -1.0996,-0.1289 -1.8123,-0.044 -3.2819,1.5158 -3.5254,3.2422 -0.3417,2.7256 -0.2598,5.4889 -0.3554,8.2324 0.098,0.667 -0.01,1.1428 -0.7735,0.9687 -3.2667,0.1399 -6.5357,0.1481 -9.8046,0.1133 0.1468,-2.7995 0.4863,-5.5909 0.5937,-8.3887 0.028,-1.7271 -1.2828,-3.4294 -3.0664,-3.5371 -1.8067,-0.2753 -3.6254,0.9707 -4.0684,2.7344 -0.4455,1.6075 -0.3327,3.3121 -0.5332,4.961 -0.1589,1.6524 -0.1858,3.3715 -0.3867,4.9843 -1.4908,1.1898 -1.5913,3.686 -0.1445,4.9532 -0.01,0.6853 -0.032,1.371 -0.049,2.0566 -1.4625,-0.9643 -3.634,-0.6347 -4.6719,0.8262 -0.7225,1.054 -5.6359,3.8709 -6.9082,4.2656 -2.2066,0.7446 -4.6557,0.8408 -6.918,0.291 -2.0248,-0.4748 -3.5208,-2.2165 -4.0156,-4.1914 -0.7006,-2.7276 -0.7097,-5.6746 0.088,-8.3828 0.7567,-2.5707 2.9257,-4.8142 5.6719,-5.1055 2.6612,-0.4417 2.5599,0.025 4.6503,1.6113 1.3095,0.9912 3.2562,0.7982 4.3926,-0.3652 1.3551,-1.2098 1.4872,-3.4413 0.3008,-4.8125 -2.2042,-2.5753 -2.8636,-3.2526 -6.1797,-3.5469 -0.8645,-0.087 -1.7356,-0.096 -2.6035,-0.068 -3.8943,0.1065 -7.7353,1.8476 -10.2305,4.8672 -0.2578,0.2969 -0.4793,0.6172 -0.709,0.9316 0.032,-0.2582 0.072,-0.5153 0.1329,-0.7695 0.3449,-1.7965 -0.055,-4.0934 -1.8789,-4.9395 -0.5247,-0.2417 -2.6095,-0.5234 -3.1856,-0.4902 -0.8569,0.021 -1.6804,0.3973 -2.2891,0.9941 -3.4035,-1.3475 -7.4219,-0.9546 -10.5839,0.8535 -1.0904,0.6319 -2.0443,1.4617 -2.8594,2.4102 -1.5673,-1.5572 -3.9422,-1.933 -6.0488,-2.2715 -3.2616,-0.4324 -6.5644,-0.4777 -9.8497,-0.4199 -2.8727,0.1303 -5.8582,0.3344 -8.5585,1.3809 -0.038,-0.1645 -0.084,-0.3284 -0.1465,-0.4844 -0.8031,-2.1218 -3.2607,-3.022 -5.375,-2.9688 z"
           transform="matrix(1.0003105,0,0,1.0003105,-4658.4412,0)" />
      </g>
      <path
         id="path32712"
         style="font-size:133.375px;line-height:1.25;font-family:'Kristen ITC';-inkscape-font-specification:'Kristen ITC';display:inline;fill:none;stroke:#00a6ff;stroke-width:1.33375;stroke-opacity:1"
         d="m 193.61381,3.2103781 c -8.60729,0.22614 -17.40453,2.47129 -24.32556,7.7734459 -5.07893,3.793212 -9.0961,9.281308 -10.21627,15.607054 -0.65211,3.633272 -0.82837,7.707986 1.31233,10.914991 2.26814,3.546578 6.70576,6.045253 10.94729,4.962499 2.54739,-0.693505 4.2262,-2.908137 5.44089,-5.115102 2.1842,-3.63742 4.33626,-7.50421 7.91344,-9.970204 3.70327,-2.742269 8.48719,-3.466484 12.98489,-3.06042 6.3682,0.32443 12.84783,2.639081 17.2408,7.40764 4.71535,4.803119 6.65433,11.678664 6.66903,18.277954 0.16385,8.248939 -2.00378,16.719489 -7.10305,23.314281 -3.43009,4.650596 -8.32345,8.610146 -14.18003,9.488664 -6.0005,0.929881 -12.02979,-0.802921 -17.50859,-3.146293 -2.56266,-0.918915 -5.10723,-2.153212 -7.8575,-2.326758 -3.16343,-0.06928 -6.5195,1.324249 -8.06251,4.213542 -1.83007,3.370063 -1.18687,7.314528 -1.19403,10.98244 0.44201,12.505948 2.46157,25.038988 6.79158,36.809168 1.64173,4.11622 5.57148,6.90994 9.78529,7.94287 5.21002,1.31949 10.64484,0.86123 15.94668,0.51531 10.05193,-0.86456 20.00064,-3.21448 29.31262,-7.11046 3.56594,-1.63045 7.38557,-3.81496 8.90794,-7.63898 1.40061,-3.71188 -0.32651,-7.94549 -3.28171,-10.37529 -3.76649,-3.37138 -9.22719,-4.06703 -14.0288,-3.02191 -4.45648,0.84378 -8.75196,2.33757 -13.04939,3.75628 -0.48317,0.15193 -1.46097,0.45151 -2.13542,0.65626 -3.70582,0.99428 -7.54051,2.11316 -11.41339,1.56891 -0.98047,0.17464 -0.9233,-1.11192 -1.31841,-1.72516 -1.4225,-3.68917 -2.24403,-7.59813 -2.52083,-11.53908 9.36857,2.18512 19.51878,2.18379 28.48548,-1.60711 9.42712,-3.928295 16.85624,-11.766501 21.44147,-20.776403 4.97279,-9.851091 6.43833,-21.141485 5.80496,-32.062444 -0.59881,-9.760459 -3.9112,-19.467365 -10.12244,-27.095466 -6.02731,-7.550776 -14.42136,-13.2144489 -23.77089,-15.7243889 -5.48944,-1.51534 -11.21304,-2.05611 -16.89587,-1.89584 z" />
      <path
         id="path32718"
         style="font-size:133.375px;line-height:1.25;font-family:'Kristen ITC';-inkscape-font-specification:'Kristen ITC';display:inline;fill:none;stroke:#00a6ff;stroke-width:1.33375;stroke-opacity:1"
         d="m 564.88538,11.272894 c -9.51118,0.141407 -19.19712,2.698552 -26.87508,8.473939 -9.0052,6.652764 -14.88423,16.896863 -17.45105,27.684084 -0.47004,1.80215 -0.79232,3.668831 -1.12968,5.480078 -3.1903,1.038558 -5.73955,3.867539 -6.18192,7.227776 -0.63252,3.437882 0.4593,7.30886 3.372,9.415496 0.59626,0.448681 1.23682,0.83897 1.91148,1.15885 0.0722,1.99641 0.22484,3.989222 0.39844,5.979174 -2.98881,0.731373 -5.1923,3.460665 -5.57161,6.47215 -0.68099,3.611898 0.41912,7.622263 3.30865,10.010242 1.68316,1.493846 3.76528,2.465634 5.89578,3.142644 3.30116,10.852703 9.32563,21.099883 18.24051,28.265193 7.81697,6.40691 17.758,9.86916 27.77836,10.59214 12.53676,0.98616 25.54223,-1.46199 36.31983,-8.11248 5.47589,-3.37159 10.17021,-8.50214 11.76391,-14.85859 0.92476,-3.85207 1.21446,-8.09365 -0.34244,-11.82278 -1.34069,-3.27044 -4.74004,-5.295691 -8.19073,-5.510304 -3.33348,-0.429527 -7.08964,0.557277 -9.07971,3.441611 -0.93838,1.501545 -1.44616,3.244543 -2.31613,4.794923 -0.96401,1.76975 -1.76785,3.6669 -2.9318,5.30459 -3.6085,3.52269 -8.7913,4.68978 -13.64385,5.24683 -6.95787,0.72277 -14.34071,0.44889 -20.66153,-2.85946 -5.17746,-2.62989 -9.16592,-7.13458 -11.98585,-12.14052 10.12685,0.136737 20.26823,0.142346 30.38029,-0.477372 4.95942,-0.376093 10.2216,-0.796253 14.51117,-3.561604 2.83485,-1.742049 4.52477,-5.116341 4.13098,-8.432742 -0.14727,-3.434003 -2.38223,-6.598771 -5.53032,-7.95364 -4.30525,-1.961881 -9.1718,-1.67327 -13.76698,-1.290659 -10.16625,0.697973 -20.34363,1.639271 -30.54501,1.281512 -1.70726,-0.03449 -3.41448,-0.08787 -5.12025,-0.167088 -0.20424,-1.921473 -0.33941,-3.850474 -0.41407,-5.781265 11.65712,-0.357429 23.34065,-1.390418 34.74892,-3.885064 4.37632,-1.104497 9.05226,-2.774418 11.79544,-6.583705 2.42373,-3.424967 2.38989,-8.545917 -0.35416,-11.778683 -2.48331,-2.784415 -6.51346,-3.44446 -10.06772,-3.184901 -11.51861,1.566564 -22.82833,4.683036 -34.48185,5.205744 1.52199,-6.168165 4.76307,-12.264552 10.2986,-15.691748 5.90283,-3.688184 13.18047,-4.213091 19.95017,-3.526415 8.24746,0.823785 16.07921,4.617537 22.02027,10.366431 1.68528,1.677669 2.81087,3.828921 4.21057,5.740878 1.99491,3.038696 4.14051,6.356706 7.68197,7.735868 3.79443,1.548309 8.25977,0.169977 11.03562,-2.704341 2.49036,-2.183522 3.63487,-5.679876 2.98705,-8.92022 -0.9196,-5.263275 -4.3835,-9.613425 -7.93241,-13.420932 -4.11006,-4.255369 -8.66365,-8.08379 -13.48004,-11.513665 -9.22362,-6.249819 -20.51894,-8.647955 -31.52219,-8.829718 -1.05463,-0.0173 -2.10891,-0.03459 -3.16363,-0.012 z" />
      <path
         id="path10436"
         style="font-stretch:semi-expanded;font-size:133.375px;line-height:1.25;font-family:'Kristen ITC';-inkscape-font-specification:'Kristen ITC Semi-Expanded';display:inline;fill:none;stroke:#00a6ff;stroke-width:1.33375;stroke-opacity:1"
         d="m 289.24177,96.486434 c -4.08961,-5.801688 -6.51055,-12.645193 -7.66802,-19.613979 -0.10533,-0.616639 -0.20974,-1.302856 -0.30334,-2.015564 -0.2632,-1.985904 -0.42612,-3.722704 -0.53226,-5.741298 -0.3812,-7.222887 0.092,-14.647931 2.74174,-21.44633 0.2856,-0.750827 0.7824,-1.886285 1.22347,-2.752126 3.15507,-6.355266 8.69655,-11.759008 15.62882,-13.715931 2.94601,-0.877107 6.03722,-1.193699 9.1035,-1.128329 5.84227,0.09317 11.39015,2.868569 15.45469,6.980212 7.37028,7.347369 11.41015,17.524529 12.44722,27.776115 0.75841,7.809885 0.44054,15.796735 -1.5076,23.419848 -1.84,6.941275 -5.42721,13.809568 -11.47229,17.959388 -5.26707,3.61424 -3.72014,12.92763 0.62347,16.06842 6.17854,4.46764 16.15483,0.20706 21.98351,-6.31932 7.03748,-7.62604 10.94735,-17.676293 12.40309,-27.849674 1.29534,-8.994117 1.08707,-18.167289 -0.0734,-27.164075 C 357.66918,48.747928 353.38303,36.670398 345.55142,27.051945 339.73941,19.760549 331.75579,14.114512 322.72457,11.629794 317.77883,10.22431 312.61175,9.6925151 307.4792,9.8046101 h 6.7e-4 c -10.12895,0.149044 -20.42016,2.7957519 -28.73445,8.7385969 -8.74589,6.113671 -15.08176,15.383973 -18.05431,25.595742 -3.0648,10.356724 -3.21734,21.369135 -1.92226,32.025166 1.49374,11.802975 5.80494,23.393966 13.31003,32.710995 6.7724,8.52372 15.93309,15.33722 26.45391,18.40325 8.39416,2.45409 7.36162,-14.02775 4.87801,-20.65017 -2.03947,-5.43836 -10.13482,-4.29885 -14.16909,-10.141756 z"
         sodipodi:nodetypes="cccccccccccsacccccsscccccac" />
      <path
         id="path10520"
         style="font-stretch:semi-expanded;font-size:133.375px;line-height:1.25;font-family:'Kristen ITC';-inkscape-font-specification:'Kristen ITC Semi-Expanded';display:inline;fill:none;stroke:#00a6ff;stroke-width:1.33375;stroke-opacity:1"
         d="m 405.29437,96.486434 c -4.08961,-5.801688 -6.51055,-12.645193 -7.66802,-19.613979 -0.10532,-0.616639 -0.20973,-1.302856 -0.30333,-2.015564 -0.2632,-1.985904 -0.42613,-3.722704 -0.53227,-5.741298 -0.3812,-7.222887 0.092,-14.647931 2.74174,-21.44633 0.2856,-0.750827 0.78241,-1.886285 1.22347,-2.752126 3.15507,-6.355266 8.69655,-11.759008 15.62883,-13.715931 2.946,-0.877107 6.03721,-1.193699 9.10349,-1.128329 5.84228,0.09317 11.39015,2.868569 15.45469,6.980212 7.37028,7.347369 11.41016,17.524529 12.44723,27.776115 0.7584,7.809885 0.44053,15.796735 -1.50761,23.419848 -1.83999,6.941275 -5.42721,13.809568 -11.47228,17.959388 -5.26708,3.61424 -3.72015,12.92763 0.62346,16.06842 6.17855,4.46764 16.15484,0.20706 21.98352,-6.31932 7.03747,-7.62604 10.94735,-17.676293 12.40309,-27.849674 1.29533,-8.994117 1.08707,-18.167289 -0.0734,-27.164075 C 473.72178,48.747928 469.43563,36.670398 461.60403,27.051945 455.79201,19.760549 447.80839,14.114512 438.77717,11.629794 433.83143,10.22431 428.66435,9.6925151 423.53181,9.8046101 h 6.7e-4 c -10.12896,0.149044 -20.42017,2.7957519 -28.73446,8.7385969 -8.74588,6.113671 -15.08176,15.383973 -18.0543,25.595742 -3.0648,10.356724 -3.21734,21.369135 -1.92227,32.025166 1.49374,11.802975 5.80494,23.393966 13.31002,32.710995 6.77242,8.52372 15.9331,15.33722 26.45393,18.40325 8.39414,2.45409 7.36161,-14.02775 4.878,-20.65017 -2.03947,-5.43836 -10.13481,-4.29885 -14.16909,-10.141756 z"
         sodipodi:nodetypes="cccccccccccsacccccsscccccac" />
      <path
         style="fill:none;stroke:#00a6ff;stroke-width:0.72189;stroke-linecap:round;stroke-linejoin:round"
         d="m 767.93186,-80.22465 -1.1e-4,298.76205 c -0.14445,-0.38956 -0.29205,-0.68423 -0.50875,-1.04594 -0.69671,-1.1374 -1.63767,-2.21656 -2.89594,-2.73376 -1.09777,-0.45933 -2.38962,-0.13161 -3.26193,0.63884 -0.89579,0.69133 -1.55447,1.82003 -1.34214,2.98046 0.13432,0.58065 0.42916,1.11665 0.5903,1.693 0.19197,0.65076 0.45253,1.29375 0.56455,1.96086 -0.0204,1.69758 -0.97631,3.20883 -1.9988,4.49658 -1.4841,1.82838 -3.30692,3.5215 -5.5992,4.23868 -1.8586,0.60665 -3.88093,0.48332 -5.7439,-0.0371 2.44335,-2.37817 4.85896,-4.7909 7.11881,-7.34562 1.09078,-1.27001 2.24416,-2.62297 2.60712,-4.30255 0.26027,-1.08964 -0.14094,-2.29619 -1.02473,-2.99143 -0.85242,-0.78246 -2.13773,-1.00369 -3.20987,-0.57676 -1.49188,0.55777 -2.58147,1.78542 -3.58433,2.97045 -2.25391,2.58629 -4.45288,5.23355 -6.9667,7.57691 -0.41464,0.39825 -0.83327,0.79158 -1.2581,1.17889 -0.50427,-0.41077 -0.9968,-0.8373 -1.47436,-1.27902 2.68988,-2.86026 5.22533,-5.88703 7.34718,-9.1967 0.77897,-1.30485 1.49386,-2.81591 1.24052,-4.3758 -0.23901,-1.39186 -1.46579,-2.60243 -2.88857,-2.71888 -1.25417,-0.0715 -2.37106,0.73061 -3.15539,1.63863 -2.3692,3.11494 -4.31874,6.54904 -6.96846,9.44778 -1.10524,-1.83064 -1.78617,-4.05347 -1.28449,-6.18713 0.52726,-2.28325 2.13446,-4.14051 3.90942,-5.58884 2.15972,-1.76728 4.92801,-2.72897 7.71073,-2.77444 0.80086,-0.001 1.58015,0.24201 2.36848,0.36404 1.19821,0.24877 2.49929,0.52805 3.67073,0.0133 1.27175,-0.53486 2.00857,-1.92561 1.98322,-3.27068 0.0736,-1.11354 -0.48703,-2.21709 -1.41213,-2.83466 -1.47188,-1.03422 -3.33203,-1.24513 -5.08326,-1.30674 -1.99169,-0.0345 -3.98712,0.13807 -5.95028,0.46819 -3.68365,0.70796 -6.94402,2.82578 -9.60689,5.4021 -0.25465,0.24711 -0.5093,0.49422 -0.75472,0.75095 l -5.6e-4,-5.7e-4 c -2.23052,2.2978 -3.92762,5.21256 -4.38052,8.41532 -0.51112,3.39985 0.31875,6.88581 1.95126,9.88576 -2.48546,-1.59129 -5.32501,-2.66867 -8.28932,-2.78764 -2.94127,-0.166 -6.33063,1.19451 -6.73806,3.72903 -0.28637,1.7818 1.56264,4.36694 3.67677,3.97339 2.42713,-0.4511 4.91678,0.33037 7.00721,1.54473 2.2787,1.35079 4.25569,3.17601 5.93413,5.21611 2.19364,2.68728 3.6488,6.07257 3.64876,9.57638 0.012,1.94627 -0.6486,3.92687 -2.01717,5.33996 -0.71441,0.74548 -1.52588,1.40648 -2.43587,1.89881 -2.11627,1.18451 -4.722,1.21772 -6.98586,0.45589 -0.31123,-0.10121 -0.69812,-0.25472 -0.94628,-0.36474 -2.24988,-0.98708 -4.12921,-2.64202 -5.75817,-4.452 -0.45532,-0.50585 -0.83072,-0.95731 -1.24013,-1.49343 -0.14786,-0.19142 -0.28754,-0.3804 -0.40758,-0.5524 -1.3836,-1.9344 -2.43588,-4.14 -2.84352,-6.4946 -0.43076,-2.35145 1.76722,-4.00768 0.95807,-5.78792 -0.98521,-2.16787 -4.66325,-6.33693 -6.07724,-3.75435 -1.77576,3.23454 -2.33334,7.03753 -1.9164,10.67891 0.228,2.11599 0.82706,4.16696 1.69627,6.10153 -2.49908,-1.61137 -5.35988,-2.70345 -8.3467,-2.82348 -2.94135,-0.16606 -6.33067,1.19452 -6.73798,3.729 -0.28588,1.78126 1.56254,4.3668 3.67666,3.97343 2.42721,-0.45131 4.91682,0.33035 7.00721,1.54472 2.27868,1.35083 4.25574,3.17595 5.93414,5.21612 2.19361,2.68731 3.6496,6.07187 3.6496,9.57561 0.0107,1.9465 -0.64947,3.92767 -2.01801,5.34068 -0.71438,0.74551 -1.52557,1.40631 -2.43585,1.89886 -2.11628,1.18451 -4.7212,1.21698 -6.98535,0.45515 -0.31118,-0.10093 -0.69869,-0.25396 -0.94694,-0.364 -2.24917,-0.98768 -4.12849,-2.64261 -5.75759,-4.45255 -0.45521,-0.50588 -0.8305,-0.9574 -1.24002,-1.49345 -0.14609,-0.19324 -0.28756,-0.38017 -0.40759,-0.5524 -1.38347,-1.93459 -2.43572,-4.14015 -2.8436,-6.49482 -0.4304,-2.35142 1.76748,-4.00768 0.95841,-5.78784 -0.9852,-2.16786 -4.66267,-6.33754 -6.07707,-3.75493 -1.77534,3.23453 -2.33321,7.03754 -1.91614,10.67892 0.28173,2.61569 1.126,5.13452 2.35654,7.45163 -0.10561,-0.0691 -0.19292,-0.15649 -0.27961,-0.24358 -2.46641,-2.18101 -5.56604,-3.70366 -8.86069,-4.04093 -3.23242,-0.36269 -6.57882,0.28737 -9.40202,1.91564 -1.66772,0.94602 -3.15933,2.17989 -4.47387,3.5708 -1.99522,2.10284 -3.5544,4.73215 -3.93975,7.64209 -0.30599,2.11209 0.0438,4.37492 1.28308,6.14754 0.70959,1.02021 1.63799,2.03191 2.91107,2.28575 1.38413,0.30437 3.0356,-0.15754 3.78775,-1.42497 0.44176,-0.77162 0.31269,-1.69823 0.0773,-2.51296 -0.346,-1.38579 -0.75385,-2.81853 -0.48932,-4.25732 0.22884,-1.53437 1.19533,-2.84591 2.36239,-3.81992 1.59347,-1.43891 3.68694,-2.42986 5.86801,-2.34051 2.26614,0.0208 4.3676,1.1923 5.93855,2.76331 2.00255,1.92488 3.5032,4.45752 3.85907,7.24145 0.29067,1.92371 0.069,4.0314 -1.11613,5.63471 -1.20707,1.64974 -3.05494,2.6724 -4.9171,3.41874 -0.82877,0.3914 -1.7288,0.70377 -2.42478,1.31736 -0.7708,0.7366 -1.23707,1.86692 -0.91667,2.92206 0.36613,1.23838 1.45908,2.02353 2.3304,2.89862 3.01666,2.81052 6.37554,5.25666 10.111,7.02041 l 82.44763,10e-6 V 783.41912 H 12.024368 V 307.19819 l 88.604842,-3e-5 c 0.48567,-0.15826 0.92313,-0.35732 1.36826,-0.624 1.1374,-0.69673 2.21655,-1.63768 2.73376,-2.89594 0.45933,-1.09779 0.1316,-2.38965 -0.63884,-3.26193 -0.69133,-0.8958 -1.82001,-1.55449 -2.98046,-1.34215 -0.58065,0.13434 -1.116648,0.42916 -1.692989,0.5903 -0.650768,0.19198 -1.293759,0.45251 -1.960862,0.56455 -1.697572,-0.0204 -3.208843,-0.97631 -4.496593,-1.99882 -1.828363,-1.4841 -3.521507,-3.3069 -4.238664,-5.59919 -0.606652,-1.85858 -0.48333,-3.88095 0.03709,-5.74389 2.378192,2.44337 4.790913,4.85896 7.345609,7.1188 1.270036,1.09078 2.622996,2.24419 4.302569,2.6071 1.08965,0.26028 2.29621,-0.14092 2.99142,-1.02472 0.78247,-0.85241 1.00372,-2.13771 0.57678,-3.20983 -0.55776,-1.49191 -1.78543,-2.58149 -2.97045,-3.58437 -2.586307,-2.2539 -5.233555,-4.45287 -7.576917,-6.96668 -0.398227,-0.41466 -0.791575,-0.83326 -1.178884,-1.25809 0.410742,-0.50429 0.83728,-0.99682 1.279002,-1.47437 2.860272,2.68987 5.887022,5.22532 9.196719,7.34717 1.30483,0.77897 2.8159,1.49386 4.37579,1.24053 1.39187,-0.239 2.60244,-1.46582 2.71888,-2.88858 0.0715,-1.25418 -0.7306,-2.37106 -1.63863,-3.15538 -3.11494,-2.36919 -6.54904,-4.31874 -9.447765,-6.96845 1.830615,-1.10523 4.053455,-1.7862 6.187115,-1.2845 2.28325,0.52727 4.14051,2.13444 5.58885,3.90941 1.76728,2.15972 2.72894,4.92802 2.77443,7.71075 9.9e-4,0.80087 -0.24213,1.58014 -0.36403,2.36845 -0.24889,1.19822 -0.52814,2.49931 -0.0135,3.67076 0.53487,1.27172 1.9256,2.00856 3.27069,1.98322 1.11354,0.0736 2.21708,-0.48704 2.83466,-1.41215 1.03422,-1.47188 1.2451,-3.33201 1.30672,-5.08327 0.0347,-1.99168 -0.13806,-3.9871 -0.46819,-5.95028 -0.70794,-3.68364 -2.82577,-6.94399 -5.40209,-9.60688 -0.24711,-0.25465 -0.49421,-0.5093 -0.75095,-0.75471 l 5.8e-4,-5.7e-4 c -2.29781,-2.23053 -5.21256,-3.92762 -8.41534,-4.3805 -3.39983,-0.51114 -6.88579,0.31874 -9.885749,1.95125 1.591296,-2.48546 2.668672,-5.32501 2.787645,-8.28932 0.165998,-2.94126 -1.194509,-6.33064 -3.729042,-6.73805 -1.781787,-0.28636 -4.366934,1.56262 -3.973376,3.67676 0.451089,2.42713 -0.330378,4.91677 -1.544741,7.00719 -1.3508,2.27872 -3.175994,4.25569 -5.21611,5.93415 -2.687276,2.19364 -6.072565,3.64879 -9.576397,3.64874 -1.946225,0.012 -3.92685,-0.64858 -5.339931,-2.01717 -0.745469,-0.71437 -1.406494,-1.52585 -1.898811,-2.43586 -1.184512,-2.11626 -1.217742,-4.72199 -0.455888,-6.98586 0.101198,-0.3112 0.254701,-0.69811 0.364737,-0.94629 0.987083,-2.24987 2.642019,-4.12918 4.451987,-5.75814 0.505863,-0.45535 0.957303,-0.83072 1.493436,-1.24013 0.191401,-0.14786 0.380402,-0.28755 0.552419,-0.4076 1.934389,-1.3836 4.139974,-2.43586 6.494583,-2.84351 2.35146,-0.43077 4.007676,1.76721 5.787923,0.95808 2.167857,-0.98521 6.336932,-4.66327 3.754334,-6.07725 -3.234525,-1.77574 -7.037515,-2.33333 -10.678894,-1.9164 -2.115993,0.228 -4.166956,0.82705 -6.101525,1.69627 1.611369,-2.49907 2.70342,-5.35987 2.823463,-8.34668 0.166068,-2.94138 -1.194529,-6.33068 -3.729012,-6.73801 -1.781237,-0.28587 -4.366784,1.56253 -3.973406,3.67667 0.4513,2.4272 -0.330358,4.91681 -1.544721,7.00721 -1.35083,2.27867 -3.175953,4.25573 -5.21612,5.93415 -2.687315,2.19361 -6.071864,3.6496 -9.575607,3.6496 -1.946525,0.0107 -3.92769,-0.64949 -5.340701,-2.018 -0.745499,-0.7144 -1.406283,-1.52561 -1.898841,-2.43587 -1.184522,-2.11628 -1.216982,-4.72121 -0.455168,-6.98534 0.101068,-0.31121 0.253981,-0.69871 0.364017,-0.94694 0.987683,-2.24919 2.642609,-4.12852 4.452547,-5.75761 0.505873,-0.4552 0.957413,-0.83048 1.493436,-1.24001 0.19326,-0.14609 0.380172,-0.28755 0.552409,-0.40758 1.934589,-1.38346 4.140154,-2.43574 6.494823,-2.84361 2.35142,-0.4304 4.007696,1.76747 5.787823,0.95841 2.167897,-0.9852 6.337562,-4.66269 3.754964,-6.07708 -3.234566,-1.77535 -7.037545,-2.33319 -10.678924,-1.91614 -2.615688,0.28174 -5.134546,1.126 -7.451646,2.35654 0.06908,-0.1056 0.156501,-0.19291 0.243594,-0.27961 2.181003,-2.4664 3.70364,-5.56601 4.040915,-8.8607 0.362688,-3.2324 -0.28736,-6.5788 -1.915645,-9.402 -0.946016,-1.66772 -2.179863,-3.15933 -3.570781,-4.47389 -2.102847,-1.99519 -4.732171,-3.55439 -7.642097,-3.93971 -2.112094,-0.30602 -4.374931,0.0438 -6.147541,1.28306 -1.020193,0.7096 -2.031929,1.63801 -2.28577,2.91105 -0.304356,1.38415 0.157561,3.03561 1.424977,3.78776 0.771631,0.44174 1.698253,0.31269 2.51298,0.0774 1.38578,-0.346 2.818525,-0.75387 4.257318,-0.48933 1.534383,0.22883 2.845896,1.19533 3.819924,2.3624 1.438893,1.59346 2.429855,3.68694 2.340483,5.86801 -0.02079,2.26613 -1.19228,4.36761 -2.763312,5.93855 -1.924872,2.00253 -4.457516,3.50321 -7.241421,3.85906 -1.923713,0.29067 -4.031399,0.069 -5.634721,-1.11614 -1.649737,-1.20705 -2.67239,-3.05493 -3.418738,-4.91706 -0.391389,-0.8288 -0.703762,-1.72881 -1.317351,-2.42481 -0.736591,-0.77081 -1.86694,-1.23708 -2.922063,-0.91666 -1.238385,0.36613 -2.023531,1.45907 -2.89863,2.3304 -2.871878,3.08254 -5.374731,6.54655 -7.145921,10.37934 -0.07228,0.16802 -0.09377,0.20904 -0.140756,0.38289 l -0.01716,-305.501635 z"
         id="path3115"
         sodipodi:nodetypes="cccccccccccccccccccccccccccccccccccccccsccccccccscccscccccccccccccccccscccccccccccccccccccccccccccccccccccccccccccccccccccccccccccccccccsccccccccccccscccccccccccccccccscccccccccccccccccccccccccc" />
    </g>
  </g>
  <g
     inkscape:groupmode="layer"
     id="layer5"
     inkscape:label="Falz"
     style="display:none">
    <path
       d="M 896.3732,828.01419 H 311.337"
       stroke="#7FCFFF"
       stroke-width="0.24"
       fill="none"
       id="path120"
       style="display:inline;overflow:visible;stroke:#ffbf00;stroke-width:0.557419;stroke-miterlimit:4;stroke-dasharray:none;stroke-opacity:1"
       transform="matrix(0.99968958,0,0,0.99968958,-210.61112,-339.14197)" />
    <path
       id="path72"
       style="display:inline;overflow:visible;stroke:#ffbf00;stroke-width:0.720449;stroke-miterlimit:4;stroke-dasharray:none;stroke-opacity:1"
       d="M 903.23215,911.18977 H 752.95026 M 903.23215,1221.2077 H 298.31877 M 448.60065,911.18977 H 298.31877 M 903.23215,1221.2077 V 911.18977 m -604.91338,0 v 310.01793"
       transform="matrix(0.99968958,0,0,0.99968958,-210.61112,-339.14197)" />
  </g>
</svg>
