<?xml version="1.0" encoding="UTF-8" standalone="no"?>
<svg
   width="12in"
   height="12in"
   viewBox="0 0 1152 1152"
   version="1.1"
   id="svg64"
   inkscape:version="1.3.2 (091e20e, 2023-11-25, custom)"
   sodipodi:docname="Cameo-Geldscheinrahmen-100.svg"
   xmlns:inkscape="http://www.inkscape.org/namespaces/inkscape"
   xmlns:sodipodi="http://sodipodi.sourceforge.net/DTD/sodipodi-0.dtd"
   xmlns="http://www.w3.org/2000/svg"
   xmlns:svg="http://www.w3.org/2000/svg"
   xmlns:rdf="http://www.w3.org/1999/02/22-rdf-syntax-ns#"
   xmlns:cc="http://creativecommons.org/ns#"
   xmlns:dc="http://purl.org/dc/elements/1.1/">
  <defs
     id="defs58">
    <inkscape:path-effect
       effect="skeletal"
       id="path-effect4720"
       is_visible="true"
       lpeversion="1"
       pattern="m 663.36239,534.93771 q 0,2.98009 -2.68834,2.98009 -1.87558,0 -1.87558,-1.33375 0,-0.45847 0.29176,-1.06283 v -0.0833 q 0,-1.39627 -0.95863,-2.27154 -0.93779,-0.87527 -2.3549,-0.87527 -1.95894,0 -3.6678,1.45878 -1.62551,1.39627 -1.62551,2.79253 0,0.95864 1.02115,1.68803 0.6252,0.43763 2.93841,1.47962 4.52224,2.0423 6.37698,3.93873 2.16734,2.18817 2.16734,5.3975 0,2.93841 -2.08398,5.04323 -2.12566,2.16734 -5.64759,2.60498 -0.47931,2.25069 -0.95863,4.52223 -0.47931,1.37543 -1.9381,1.37543 -2.1465,0 -2.1465,-1.91726 0,-0.91695 0.60436,-4.10544 -5.58507,-1.29207 -5.58507,-5.62675 0,-1.58382 1.04199,-2.64665 1.04199,-1.08367 2.54246,-1.08367 0.89611,0 1.45878,0.56267 0.58352,0.56268 0.58352,1.41711 0,0.47932 -0.81275,0.93779 -0.81276,0.45848 -0.81276,0.93779 0,0.77107 1.20871,1.45879 1.33375,0.75023 3.10513,0.75023 2.2507,0 3.772,-1.20871 1.52131,-1.22955 1.52131,-3.02177 0,-2.85505 -5.58507,-5.58506 -4.31383,-2.10482 -4.95987,-2.60498 -1.95894,-1.47962 -1.95894,-4.00124 0,-2.41741 1.87558,-4.54307 1.95894,-2.22986 5.12659,-3.10513 0.16672,-3.14681 0.66688,-4.293 0.60435,-1.33375 2.18818,-1.33375 0.95863,0 1.56298,0.58352 0.62519,0.56267 0.62519,1.45878 0,0.39596 -0.22923,1.31291 -0.29176,1.20871 -0.37512,1.81306 2.62581,0.50016 4.10544,2.16734 1.47963,1.64634 1.47963,4.02208 z"
       copytype="single_stretched"
       prop_scale="1"
       scale_y_rel="false"
       spacing="0"
       normal_offset="0"
       tang_offset="0"
       prop_units="false"
       vertical_pattern="false"
       hide_knot="false"
       fuse_tolerance="0" />
    <inkscape:path-effect
       effect="skeletal"
       id="path-effect4720-2"
       is_visible="true"
       lpeversion="1"
       pattern="m 663.36239,534.93771 q 0,2.98009 -2.68834,2.98009 -1.87558,0 -1.87558,-1.33375 0,-0.45847 0.29176,-1.06283 v -0.0833 q 0,-1.39627 -0.95863,-2.27154 -0.93779,-0.87527 -2.3549,-0.87527 -1.95894,0 -3.6678,1.45878 -1.62551,1.39627 -1.62551,2.79253 0,0.95864 1.02115,1.68803 0.6252,0.43763 2.93841,1.47962 4.52224,2.0423 6.37698,3.93873 2.16734,2.18817 2.16734,5.3975 0,2.93841 -2.08398,5.04323 -2.12566,2.16734 -5.64759,2.60498 -0.47931,2.25069 -0.95863,4.52223 -0.47931,1.37543 -1.9381,1.37543 -2.1465,0 -2.1465,-1.91726 0,-0.91695 0.60436,-4.10544 -5.58507,-1.29207 -5.58507,-5.62675 0,-1.58382 1.04199,-2.64665 1.04199,-1.08367 2.54246,-1.08367 0.89611,0 1.45878,0.56267 0.58352,0.56268 0.58352,1.41711 0,0.47932 -0.81275,0.93779 -0.81276,0.45848 -0.81276,0.93779 0,0.77107 1.20871,1.45879 1.33375,0.75023 3.10513,0.75023 2.2507,0 3.772,-1.20871 1.52131,-1.22955 1.52131,-3.02177 0,-2.85505 -5.58507,-5.58506 -4.31383,-2.10482 -4.95987,-2.60498 -1.95894,-1.47962 -1.95894,-4.00124 0,-2.41741 1.87558,-4.54307 1.95894,-2.22986 5.12659,-3.10513 0.16672,-3.14681 0.66688,-4.293 0.60435,-1.33375 2.18818,-1.33375 0.95863,0 1.56298,0.58352 0.62519,0.56267 0.62519,1.45878 0,0.39596 -0.22923,1.31291 -0.29176,1.20871 -0.37512,1.81306 2.62581,0.50016 4.10544,2.16734 1.47963,1.64634 1.47963,4.02208 z"
       copytype="single_stretched"
       prop_scale="1"
       scale_y_rel="false"
       spacing="0"
       normal_offset="0"
       tang_offset="0"
       prop_units="false"
       vertical_pattern="false"
       hide_knot="false"
       fuse_tolerance="0" />
    <inkscape:path-effect
       effect="skeletal"
       id="path-effect4720-24"
       is_visible="true"
       lpeversion="1"
       pattern="m 663.36239,534.93771 q 0,2.98009 -2.68834,2.98009 -1.87558,0 -1.87558,-1.33375 0,-0.45847 0.29176,-1.06283 v -0.0833 q 0,-1.39627 -0.95863,-2.27154 -0.93779,-0.87527 -2.3549,-0.87527 -1.95894,0 -3.6678,1.45878 -1.62551,1.39627 -1.62551,2.79253 0,0.95864 1.02115,1.68803 0.6252,0.43763 2.93841,1.47962 4.52224,2.0423 6.37698,3.93873 2.16734,2.18817 2.16734,5.3975 0,2.93841 -2.08398,5.04323 -2.12566,2.16734 -5.64759,2.60498 -0.47931,2.25069 -0.95863,4.52223 -0.47931,1.37543 -1.9381,1.37543 -2.1465,0 -2.1465,-1.91726 0,-0.91695 0.60436,-4.10544 -5.58507,-1.29207 -5.58507,-5.62675 0,-1.58382 1.04199,-2.64665 1.04199,-1.08367 2.54246,-1.08367 0.89611,0 1.45878,0.56267 0.58352,0.56268 0.58352,1.41711 0,0.47932 -0.81275,0.93779 -0.81276,0.45848 -0.81276,0.93779 0,0.77107 1.20871,1.45879 1.33375,0.75023 3.10513,0.75023 2.2507,0 3.772,-1.20871 1.52131,-1.22955 1.52131,-3.02177 0,-2.85505 -5.58507,-5.58506 -4.31383,-2.10482 -4.95987,-2.60498 -1.95894,-1.47962 -1.95894,-4.00124 0,-2.41741 1.87558,-4.54307 1.95894,-2.22986 5.12659,-3.10513 0.16672,-3.14681 0.66688,-4.293 0.60435,-1.33375 2.18818,-1.33375 0.95863,0 1.56298,0.58352 0.62519,0.56267 0.62519,1.45878 0,0.39596 -0.22923,1.31291 -0.29176,1.20871 -0.37512,1.81306 2.62581,0.50016 4.10544,2.16734 1.47963,1.64634 1.47963,4.02208 z"
       copytype="single_stretched"
       prop_scale="1"
       scale_y_rel="false"
       spacing="0"
       normal_offset="0"
       tang_offset="0"
       prop_units="false"
       vertical_pattern="false"
       hide_knot="false"
       fuse_tolerance="0" />
    <inkscape:path-effect
       effect="skeletal"
       id="path-effect4720-3"
       is_visible="true"
       lpeversion="1"
       pattern="m 663.36239,534.93771 q 0,2.98009 -2.68834,2.98009 -1.87558,0 -1.87558,-1.33375 0,-0.45847 0.29176,-1.06283 v -0.0833 q 0,-1.39627 -0.95863,-2.27154 -0.93779,-0.87527 -2.3549,-0.87527 -1.95894,0 -3.6678,1.45878 -1.62551,1.39627 -1.62551,2.79253 0,0.95864 1.02115,1.68803 0.6252,0.43763 2.93841,1.47962 4.52224,2.0423 6.37698,3.93873 2.16734,2.18817 2.16734,5.3975 0,2.93841 -2.08398,5.04323 -2.12566,2.16734 -5.64759,2.60498 -0.47931,2.25069 -0.95863,4.52223 -0.47931,1.37543 -1.9381,1.37543 -2.1465,0 -2.1465,-1.91726 0,-0.91695 0.60436,-4.10544 -5.58507,-1.29207 -5.58507,-5.62675 0,-1.58382 1.04199,-2.64665 1.04199,-1.08367 2.54246,-1.08367 0.89611,0 1.45878,0.56267 0.58352,0.56268 0.58352,1.41711 0,0.47932 -0.81275,0.93779 -0.81276,0.45848 -0.81276,0.93779 0,0.77107 1.20871,1.45879 1.33375,0.75023 3.10513,0.75023 2.2507,0 3.772,-1.20871 1.52131,-1.22955 1.52131,-3.02177 0,-2.85505 -5.58507,-5.58506 -4.31383,-2.10482 -4.95987,-2.60498 -1.95894,-1.47962 -1.95894,-4.00124 0,-2.41741 1.87558,-4.54307 1.95894,-2.22986 5.12659,-3.10513 0.16672,-3.14681 0.66688,-4.293 0.60435,-1.33375 2.18818,-1.33375 0.95863,0 1.56298,0.58352 0.62519,0.56267 0.62519,1.45878 0,0.39596 -0.22923,1.31291 -0.29176,1.20871 -0.37512,1.81306 2.62581,0.50016 4.10544,2.16734 1.47963,1.64634 1.47963,4.02208 z"
       copytype="single_stretched"
       prop_scale="1"
       scale_y_rel="false"
       spacing="0"
       normal_offset="0"
       tang_offset="0"
       prop_units="false"
       vertical_pattern="false"
       hide_knot="false"
       fuse_tolerance="0" />
  </defs>
  <sodipodi:namedview
     inkscape:snap-page="false"
     id="base"
     pagecolor="#ffffff"
     bordercolor="#666666"
     borderopacity="1.0"
     inkscape:pageopacity="0.0"
     inkscape:pageshadow="2"
     inkscape:zoom="0.56204841"
     inkscape:cx="543.81784"
     inkscape:cy="576.15643"
     inkscape:document-units="mm"
     inkscape:current-layer="layer1"
     inkscape:document-rotation="0"
     showgrid="true"
     inkscape:pagecheckerboard="false"
     inkscape:showpageshadow="false"
     showborder="true"
     inkscape:snap-bbox="false"
     inkscape:bbox-nodes="true"
     inkscape:snap-nodes="true"
     inkscape:bbox-paths="true"
     inkscape:snap-grids="false"
     inkscape:snap-bbox-midpoints="true"
     inkscape:snap-bbox-edge-midpoints="true"
     units="in"
     inkscape:snap-smooth-nodes="true"
     inkscape:window-width="1400"
     inkscape:window-height="943"
     inkscape:window-x="0"
     inkscape:window-y="22"
     inkscape:window-maximized="0"
     inkscape:snap-global="true"
     inkscape:snap-intersection-paths="true"
     inkscape:object-paths="true"
     inkscape:deskcolor="#d1d1d1">
    <inkscape:grid
       originy="1152"
       originx="0"
       visible="true"
       enabled="false"
       opacity="0.1254902"
       color="#ff3fff"
       empspacing="10"
       spacingy="3.7795276"
       spacingx="3.7795276"
       units="mm"
       id="grid42"
       type="xygrid" />
    <inkscape:grid
       originy="1152"
       originx="0"
       opacity="0.1254902"
       color="#fd3fff"
       empspacing="16"
       enabled="true"
       spacingy="6"
       spacingx="6"
       units="in"
       id="grid890"
       type="xygrid"
       visible="true" />
  </sodipodi:namedview>
  <metadata
     id="metadata61">
    <rdf:RDF>
      <cc:Work
         rdf:about="">
        <dc:format>image/svg+xml</dc:format>
        <dc:type
           rdf:resource="http://purl.org/dc/dcmitype/StillImage" />
      </cc:Work>
    </rdf:RDF>
  </metadata>
  <g
     inkscape:groupmode="layer"
     id="layer2"
     inkscape:label="Mat_12&quot;x12&quot;"
     style="display:none"
     sodipodi:insensitive="true">
    <rect
       ry="18.897638"
       rx="18.897638"
       y="-76.124939"
       x="-38.329662"
       height="1303.937"
       width="1228.3464"
       id="rect150"
       style="fill:#b3b3b3;stroke:#4d4d4d;stroke-width:3.77953;stroke-miterlimit:4;stroke-dasharray:none" />
    <rect
       y="0"
       x="0"
       height="1150.9313"
       width="1150.9312"
       id="rect152"
       style="fill:#ffffff;stroke:#4d4d4d;stroke-width:1.88976;stroke-miterlimit:4;stroke-dasharray:none" />
    <path
       style="fill:#4d4d4d;stroke:#4d4d4d;stroke-width:1px;stroke-linecap:butt;stroke-linejoin:miter;stroke-opacity:1"
       d="m 563.14961,-34.015748 v 18.897638 h 26.4567 v -18.897638 h 15.11811 l -28.34646,-26.456694 -28.34646,26.456694 z"
       id="path44"
       sodipodi:nodetypes="cccccccc" />
    <text
       xml:space="preserve"
       style="font-style:normal;font-weight:normal;font-size:40px;line-height:1.25;font-family:sans-serif;fill:#4d4d4d;fill-opacity:1;stroke:none"
       x="714.51276"
       y="1200.3906"
       id="text1121"><tspan
         sodipodi:role="line"
         id="tspan1119"
         x="714.51276"
         y="1200.3906">12&quot; x 12&quot; Cutting Mat</tspan></text>
  </g>
  <g
     inkscape:groupmode="layer"
     id="layer3"
     inkscape:label="Grid_1&quot;x1&quot;"
     style="display:none"
     sodipodi:insensitive="true">
    <g
       id="g958"
       style="stroke:#4d4d4d">
      <path
         id="path892"
         d="M 96,0 V 1152"
         style="fill:#808080;stroke:#4d4d4d;stroke-width:1.88976;stroke-linecap:butt;stroke-linejoin:miter;stroke-miterlimit:4;stroke-dasharray:none;stroke-opacity:1" />
      <path
         id="path894"
         d="M 192,0 V 1152"
         style="fill:#808080;stroke:#4d4d4d;stroke-width:1.88976;stroke-linecap:butt;stroke-linejoin:miter;stroke-miterlimit:4;stroke-dasharray:none;stroke-opacity:1" />
      <path
         id="path896"
         d="M 288,0 V 1152"
         style="fill:#808080;stroke:#4d4d4d;stroke-width:1.88976;stroke-linecap:butt;stroke-linejoin:miter;stroke-miterlimit:4;stroke-dasharray:none;stroke-opacity:1" />
      <path
         id="path898"
         d="M 384,0 V 1152"
         style="fill:#808080;stroke:#4d4d4d;stroke-width:1.88976;stroke-linecap:butt;stroke-linejoin:miter;stroke-miterlimit:4;stroke-dasharray:none;stroke-opacity:1" />
      <path
         id="path900"
         d="M 480,0 V 1152"
         style="fill:#808080;stroke:#4d4d4d;stroke-width:1.88976;stroke-linecap:butt;stroke-linejoin:miter;stroke-miterlimit:4;stroke-dasharray:none;stroke-opacity:1" />
      <path
         id="path902"
         d="M 576,0 V 1152"
         style="fill:#808080;stroke:#4d4d4d;stroke-width:1.88976;stroke-linecap:butt;stroke-linejoin:miter;stroke-miterlimit:4;stroke-dasharray:none;stroke-opacity:1" />
      <path
         id="path904"
         d="M 672,0 V 1152"
         style="fill:#808080;stroke:#4d4d4d;stroke-width:1.88976;stroke-linecap:butt;stroke-linejoin:miter;stroke-miterlimit:4;stroke-dasharray:none;stroke-opacity:1" />
      <path
         id="path906"
         d="M 768,0 V 1152"
         style="fill:#808080;stroke:#4d4d4d;stroke-width:1.88976;stroke-linecap:butt;stroke-linejoin:miter;stroke-miterlimit:4;stroke-dasharray:none;stroke-opacity:1" />
      <path
         id="path908"
         d="M 864,0 V 1152"
         style="fill:#808080;stroke:#4d4d4d;stroke-width:1.88976;stroke-linecap:butt;stroke-linejoin:miter;stroke-miterlimit:4;stroke-dasharray:none;stroke-opacity:1" />
      <path
         id="path910"
         d="M 960,0 V 1152"
         style="fill:#808080;stroke:#4d4d4d;stroke-width:1.88976;stroke-linecap:butt;stroke-linejoin:miter;stroke-miterlimit:4;stroke-dasharray:none;stroke-opacity:1" />
      <path
         id="path912"
         d="M 1056,0 V 1152"
         style="fill:#808080;stroke:#4d4d4d;stroke-width:1.88976;stroke-linecap:butt;stroke-linejoin:miter;stroke-miterlimit:4;stroke-dasharray:none;stroke-opacity:1" />
      <path
         id="path914"
         d="M 1152,96 H 0"
         style="fill:#808080;stroke:#4d4d4d;stroke-width:1.88976;stroke-linecap:butt;stroke-linejoin:miter;stroke-miterlimit:4;stroke-dasharray:none;stroke-opacity:1" />
      <path
         id="path916"
         d="M 1152,192 H 0"
         style="fill:#808080;stroke:#4d4d4d;stroke-width:1.88976;stroke-linecap:butt;stroke-linejoin:miter;stroke-miterlimit:4;stroke-dasharray:none;stroke-opacity:1" />
      <path
         id="path918"
         d="M 1152,288 H 0"
         style="fill:#808080;stroke:#4d4d4d;stroke-width:1.88976;stroke-linecap:butt;stroke-linejoin:miter;stroke-miterlimit:4;stroke-dasharray:none;stroke-opacity:1" />
      <path
         id="path920"
         d="M 1152,384 H 0"
         style="fill:#808080;stroke:#4d4d4d;stroke-width:1.88976;stroke-linecap:butt;stroke-linejoin:miter;stroke-miterlimit:4;stroke-dasharray:none;stroke-opacity:1" />
      <path
         id="path922"
         d="M 1152,480 H 0"
         style="fill:#808080;stroke:#4d4d4d;stroke-width:1.88976;stroke-linecap:butt;stroke-linejoin:miter;stroke-miterlimit:4;stroke-dasharray:none;stroke-opacity:1" />
      <path
         id="path924"
         d="M 1152,576 H 0"
         style="fill:#808080;stroke:#4d4d4d;stroke-width:1.88976;stroke-linecap:butt;stroke-linejoin:miter;stroke-miterlimit:4;stroke-dasharray:none;stroke-opacity:1" />
      <path
         id="path926"
         d="M 1152,672 H 0"
         style="fill:#808080;stroke:#4d4d4d;stroke-width:1.88976;stroke-linecap:butt;stroke-linejoin:miter;stroke-miterlimit:4;stroke-dasharray:none;stroke-opacity:1" />
      <path
         id="path928"
         d="M 1152,768 H 0"
         style="fill:#808080;stroke:#4d4d4d;stroke-width:1.88976;stroke-linecap:butt;stroke-linejoin:miter;stroke-miterlimit:4;stroke-dasharray:none;stroke-opacity:1" />
      <path
         id="path930"
         d="M 1152,864 H 0"
         style="fill:#808080;stroke:#4d4d4d;stroke-width:1.88976;stroke-linecap:butt;stroke-linejoin:miter;stroke-miterlimit:4;stroke-dasharray:none;stroke-opacity:1" />
      <path
         id="path932"
         d="M 1152,960 H 0"
         style="fill:#808080;stroke:#4d4d4d;stroke-width:1.88976;stroke-linecap:butt;stroke-linejoin:miter;stroke-miterlimit:4;stroke-dasharray:none;stroke-opacity:1" />
      <path
         id="path934"
         d="M 1152,1056 H 0"
         style="fill:#808080;stroke:#4d4d4d;stroke-width:1.88976;stroke-linecap:butt;stroke-linejoin:miter;stroke-miterlimit:4;stroke-dasharray:none;stroke-opacity:1" />
    </g>
    <g
       id="g1197">
      <text
         id="text962"
         y="18"
         x="81.53125"
         style="font-style:normal;font-weight:normal;font-size:40px;line-height:1.25;font-family:sans-serif;fill:#4d4d4d;fill-opacity:1;stroke:none"
         xml:space="preserve"><tspan
           style="font-size:16px;fill:#4d4d4d"
           y="18"
           x="81.53125"
           id="tspan960"
           sodipodi:role="line">1</tspan><tspan
           id="tspan964"
           y="68"
           x="81.53125"
           sodipodi:role="line" /></text>
      <text
         xml:space="preserve"
         style="font-style:normal;font-weight:normal;font-size:40px;line-height:1.25;font-family:sans-serif;fill:#4d4d4d;fill-opacity:1;stroke:none"
         x="176.86719"
         y="18"
         id="text979"><tspan
           sodipodi:role="line"
           id="tspan975"
           x="176.86719"
           y="18"
           style="font-size:16px;fill:#4d4d4d">2</tspan><tspan
           sodipodi:role="line"
           x="176.86719"
           y="68"
           id="tspan977" /></text>
      <text
         xml:space="preserve"
         style="font-style:normal;font-weight:normal;font-size:40px;line-height:1.25;font-family:sans-serif;fill:#4d4d4d;fill-opacity:1;stroke:none"
         x="273.03125"
         y="17.757812"
         id="text985"><tspan
           sodipodi:role="line"
           id="tspan981"
           x="273.03125"
           y="17.757812"
           style="font-size:16px;fill:#4d4d4d">3</tspan><tspan
           sodipodi:role="line"
           x="273.03125"
           y="67.757812"
           id="tspan983" /></text>
      <text
         id="text991"
         y="18"
         x="368.60156"
         style="font-style:normal;font-weight:normal;font-size:40px;line-height:1.25;font-family:sans-serif;fill:#4d4d4d;fill-opacity:1;stroke:none"
         xml:space="preserve"><tspan
           style="font-size:16px;fill:#4d4d4d"
           y="18"
           x="368.60156"
           id="tspan987"
           sodipodi:role="line">4</tspan><tspan
           id="tspan989"
           y="68"
           x="368.60156"
           sodipodi:role="line" /></text>
      <text
         xml:space="preserve"
         style="font-style:normal;font-weight:normal;font-size:40px;line-height:1.25;font-family:sans-serif;fill:#4d4d4d;fill-opacity:1;stroke:none"
         x="464.96094"
         y="17.757812"
         id="text997"><tspan
           sodipodi:role="line"
           id="tspan993"
           x="464.96094"
           y="17.757812"
           style="font-size:16px;fill:#4d4d4d">5</tspan><tspan
           sodipodi:role="line"
           x="464.96094"
           y="67.757812"
           id="tspan995" /></text>
      <text
         id="text1003"
         y="17.757812"
         x="560.69531"
         style="font-style:normal;font-weight:normal;font-size:40px;line-height:1.25;font-family:sans-serif;fill:#4d4d4d;fill-opacity:1;stroke:none"
         xml:space="preserve"><tspan
           style="font-size:16px;fill:#4d4d4d"
           y="17.757812"
           x="560.69531"
           id="tspan999"
           sodipodi:role="line">6</tspan><tspan
           id="tspan1001"
           y="67.757812"
           x="560.69531"
           sodipodi:role="line" /></text>
      <text
         id="text1009"
         y="18"
         x="656.83594"
         style="font-style:normal;font-weight:normal;font-size:40px;line-height:1.25;font-family:sans-serif;fill:#4d4d4d;fill-opacity:1;stroke:none"
         xml:space="preserve"><tspan
           style="font-size:16px;fill:#4d4d4d"
           y="18"
           x="656.83594"
           id="tspan1005"
           sodipodi:role="line">7</tspan><tspan
           id="tspan1007"
           y="68"
           x="656.83594"
           sodipodi:role="line" /></text>
      <text
         xml:space="preserve"
         style="font-style:normal;font-weight:normal;font-size:40px;line-height:1.25;font-family:sans-serif;fill:#4d4d4d;fill-opacity:1;stroke:none"
         x="752.78125"
         y="17.734375"
         id="text1015"><tspan
           sodipodi:role="line"
           id="tspan1011"
           x="752.78125"
           y="17.734375"
           style="font-size:16px;fill:#4d4d4d">8</tspan><tspan
           sodipodi:role="line"
           x="752.78125"
           y="67.734375"
           id="tspan1013" /></text>
      <text
         id="text1021"
         y="17.773438"
         x="848.88281"
         style="font-style:normal;font-weight:normal;font-size:40px;line-height:1.25;font-family:sans-serif;fill:#4d4d4d;fill-opacity:1;stroke:none"
         xml:space="preserve"><tspan
           style="font-size:16px;fill:#4d4d4d"
           y="17.773438"
           x="848.88281"
           id="tspan1017"
           sodipodi:role="line">9</tspan><tspan
           id="tspan1019"
           y="67.773438"
           x="848.88281"
           sodipodi:role="line" /></text>
      <text
         xml:space="preserve"
         style="font-style:normal;font-weight:normal;font-size:40px;line-height:1.25;font-family:sans-serif;fill:#4d4d4d;fill-opacity:1;stroke:none"
         x="934.69531"
         y="17.757812"
         id="text1027"><tspan
           sodipodi:role="line"
           id="tspan1023"
           x="934.69531"
           y="17.757812"
           style="font-size:16px;fill:#4d4d4d">10</tspan><tspan
           sodipodi:role="line"
           x="934.69531"
           y="67.757812"
           id="tspan1025" /></text>
      <text
         xml:space="preserve"
         style="font-style:normal;font-weight:normal;font-size:40px;line-height:1.25;font-family:sans-serif;fill:#4d4d4d;fill-opacity:1;stroke:none"
         x="1031.3438"
         y="18"
         id="text1033"><tspan
           sodipodi:role="line"
           id="tspan1029"
           x="1031.3438"
           y="18"
           style="font-size:16px;fill:#4d4d4d">11</tspan><tspan
           sodipodi:role="line"
           x="1031.3438"
           y="68"
           id="tspan1031" /></text>
      <text
         id="text1039"
         y="18"
         x="1126.6797"
         style="font-style:normal;font-weight:normal;font-size:40px;line-height:1.25;font-family:sans-serif;fill:#4d4d4d;fill-opacity:1;stroke:none"
         xml:space="preserve"><tspan
           style="font-size:16px;fill:#4d4d4d"
           y="18"
           x="1126.6797"
           id="tspan1035"
           sodipodi:role="line">12</tspan><tspan
           id="tspan1037"
           y="68"
           x="1126.6797"
           sodipodi:role="line" /></text>
      <text
         xml:space="preserve"
         style="font-style:normal;font-weight:normal;font-size:40px;line-height:1.25;font-family:sans-serif;fill:#4d4d4d;fill-opacity:1;stroke:none"
         x="9.2539062"
         y="90"
         id="text1045"><tspan
           sodipodi:role="line"
           id="tspan1041"
           x="9.2539062"
           y="90"
           style="font-size:16px;fill:#4d4d4d">1</tspan><tspan
           sodipodi:role="line"
           x="9.2539062"
           y="140"
           id="tspan1043" /></text>
      <text
         id="text1057"
         y="186"
         x="9.3789062"
         style="font-style:normal;font-weight:normal;font-size:40px;line-height:1.25;font-family:sans-serif;fill:#4d4d4d;fill-opacity:1;stroke:none"
         xml:space="preserve"><tspan
           style="font-size:16px;fill:#4d4d4d"
           y="186"
           x="9.3789062"
           id="tspan1053"
           sodipodi:role="line">2</tspan><tspan
           id="tspan1055"
           y="236"
           x="9.3789062"
           sodipodi:role="line" /></text>
      <text
         id="text1063"
         y="281.75781"
         x="9.4375"
         style="font-style:normal;font-weight:normal;font-size:40px;line-height:1.25;font-family:sans-serif;fill:#4d4d4d;fill-opacity:1;stroke:none"
         xml:space="preserve"><tspan
           style="font-size:16px;fill:#4d4d4d"
           y="281.75781"
           x="9.4375"
           id="tspan1059"
           sodipodi:role="line">3</tspan><tspan
           id="tspan1061"
           y="331.75781"
           x="9.4375"
           sodipodi:role="line" /></text>
      <text
         xml:space="preserve"
         style="font-style:normal;font-weight:normal;font-size:40px;line-height:1.25;font-family:sans-serif;fill:#4d4d4d;fill-opacity:1;stroke:none"
         x="9.5742188"
         y="378"
         id="text1069"><tspan
           sodipodi:role="line"
           id="tspan1065"
           x="9.5742188"
           y="378"
           style="font-size:16px;fill:#4d4d4d">4</tspan><tspan
           sodipodi:role="line"
           x="9.5742188"
           y="428"
           id="tspan1067" /></text>
      <text
         id="text1075"
         y="473.75781"
         x="9.3242188"
         style="font-style:normal;font-weight:normal;font-size:40px;line-height:1.25;font-family:sans-serif;fill:#4d4d4d;fill-opacity:1;stroke:none"
         xml:space="preserve"><tspan
           style="font-size:16px;fill:#4d4d4d"
           y="473.75781"
           x="9.3242188"
           id="tspan1071"
           sodipodi:role="line">5</tspan><tspan
           id="tspan1073"
           y="523.75781"
           x="9.3242188"
           sodipodi:role="line" /></text>
      <text
         xml:space="preserve"
         style="font-style:normal;font-weight:normal;font-size:40px;line-height:1.25;font-family:sans-serif;fill:#4d4d4d;fill-opacity:1;stroke:none"
         x="9.3867188"
         y="569.75781"
         id="text1081"><tspan
           sodipodi:role="line"
           id="tspan1077"
           x="9.3867188"
           y="569.75781"
           style="font-size:16px;fill:#4d4d4d">6</tspan><tspan
           sodipodi:role="line"
           x="9.3867188"
           y="619.75781"
           id="tspan1079" /></text>
      <text
         xml:space="preserve"
         style="font-style:normal;font-weight:normal;font-size:40px;line-height:1.25;font-family:sans-serif;fill:#4d4d4d;fill-opacity:1;stroke:none"
         x="9.390625"
         y="666"
         id="text1087"><tspan
           sodipodi:role="line"
           id="tspan1083"
           x="9.390625"
           y="666"
           style="font-size:16px;fill:#4d4d4d">7</tspan><tspan
           sodipodi:role="line"
           x="9.390625"
           y="716"
           id="tspan1085" /></text>
      <text
         id="text1093"
         y="761.73438"
         x="9.4882812"
         style="font-style:normal;font-weight:normal;font-size:40px;line-height:1.25;font-family:sans-serif;fill:#4d4d4d;fill-opacity:1;stroke:none"
         xml:space="preserve"><tspan
           style="font-size:16px;fill:#4d4d4d"
           y="761.73438"
           x="9.4882812"
           id="tspan1089"
           sodipodi:role="line">8</tspan><tspan
           id="tspan1091"
           y="811.73438"
           x="9.4882812"
           sodipodi:role="line" /></text>
      <text
         xml:space="preserve"
         style="font-style:normal;font-weight:normal;font-size:40px;line-height:1.25;font-family:sans-serif;fill:#4d4d4d;fill-opacity:1;stroke:none"
         x="9.5742188"
         y="857.77344"
         id="text1099"><tspan
           sodipodi:role="line"
           id="tspan1095"
           x="9.5742188"
           y="857.77344"
           style="font-size:16px;fill:#4d4d4d">9</tspan><tspan
           sodipodi:role="line"
           x="9.5742188"
           y="907.77344"
           id="tspan1097" /></text>
      <text
         id="text1105"
         y="953.75781"
         x="3.8359375"
         style="font-style:normal;font-weight:normal;font-size:40px;line-height:1.25;font-family:sans-serif;fill:#4d4d4d;fill-opacity:1;stroke:none"
         xml:space="preserve"><tspan
           style="font-size:16px;fill:#4d4d4d"
           y="953.75781"
           x="3.8359375"
           id="tspan1101"
           sodipodi:role="line">10</tspan><tspan
           id="tspan1103"
           y="1003.7578"
           x="3.8359375"
           sodipodi:role="line" /></text>
      <text
         id="text1111"
         y="1050"
         x="4.1601562"
         style="font-style:normal;font-weight:normal;font-size:40px;line-height:1.25;font-family:sans-serif;fill:#4d4d4d;fill-opacity:1;stroke:none"
         xml:space="preserve"><tspan
           style="font-size:16px;fill:#4d4d4d"
           y="1050"
           x="4.1601562"
           id="tspan1107"
           sodipodi:role="line">11</tspan><tspan
           id="tspan1109"
           y="1100"
           x="4.1601562"
           sodipodi:role="line" /></text>
      <text
         xml:space="preserve"
         style="font-style:normal;font-weight:normal;font-size:40px;line-height:1.25;font-family:sans-serif;fill:#4d4d4d;fill-opacity:1;stroke:none"
         x="3.828125"
         y="1146"
         id="text1117"><tspan
           sodipodi:role="line"
           id="tspan1113"
           x="3.828125"
           y="1146"
           style="font-size:16px;fill:#4d4d4d">12</tspan><tspan
           sodipodi:role="line"
           x="3.828125"
           y="1196"
           id="tspan1115" /></text>
    </g>
  </g>
  <g
     inkscape:label="Layer 1"
     inkscape:groupmode="layer"
     id="layer1"
     transform="translate(0, 181.417)"
     style="display:inline">
    <path
       d="m 487.02883,309.58347 c 13.52271,16.59656 23.12402,38.83781 25.75341,61.87492 2.62928,23.03698 -1.71337,46.86983 -11.14674,66.08653 -9.10537,19.37471 -24.99604,37.65981 -44.62274,50.0053 -19.62671,12.34546 -42.98946,18.75147 -64.39611,18.56913 -21.40675,0.18234 -44.7695,-6.22367 -64.3962,-18.56913 -19.62671,-12.34549 -35.51737,-30.63059 -44.62275,-50.0053 -9.43327,-19.2167 -13.77602,-43.04955 -11.14534,-66.08653 2.62939,-23.03711 12.22941,-45.27836 25.75211,-61.87492 z"
       stroke="#7FCFFF"
       stroke-width="0.24"
       fill="none"
       id="path114"
       style="display:inline;stroke:#00a6ff;stroke-width:0.720225;stroke-miterlimit:4;stroke-dasharray:none;stroke-opacity:1"
       sodipodi:nodetypes="cscscscccc"
       inkscape:label="Innenkreis" />
    <path
       d="m 290.21645,273.95366 c 12.52001,-11.55469 28.0054,-21.76991 45.56675,-28.87152 17.56135,-7.10162 37.19735,-11.08936 56.83345,-11.08936 19.636,0 39.27201,3.98774 56.83345,11.08936 17.56135,7.10161 33.04674,17.31683 45.56675,28.87152 l -20.48004,22.24404 c -19.51744,-18.77922 -50.71875,-31.96872 -81.92016,-31.96872 -31.20141,0 -62.40282,13.1895 -81.92016,31.96872 z"
       stroke="#7FCFFF"
       stroke-width="0.24"
       fill="none"
       id="path128"
       style="display:inline;stroke:#00a6ff;stroke-width:0.720225;stroke-miterlimit:4;stroke-dasharray:none;stroke-opacity:1"
       sodipodi:nodetypes="csssccscc"
       inkscape:label="Kreis-Segment-15" />
    <path
       d="m 524.85159,309.58347 c 12.69736,21.86831 20.16664,48.9869 20.07996,76.08108 -0.088,27.09419 -7.73199,54.16397 -20.56931,75.95015 -12.5427,21.95725 -32.25078,42.02812 -55.72949,55.55002 -23.47871,13.522 -50.72945,20.49504 -76.0161,20.32469 -25.28675,0.17035 -52.53749,-6.80269 -76.01619,-20.32469 -23.47871,-13.5219 -43.18539,-33.59277 -55.7281,-55.55002 -12.83871,-21.78618 -20.48274,-48.85596 -20.56941,-75.95015 -0.088,-27.09418 7.3827,-54.21277 20.07876,-76.08108 h 2.61869 c -12.74274,21.51231 -20.34278,48.29329 -20.43076,75.09908 -0.087,26.80565 7.33603,53.6361 19.93871,75.23148 12.30538,21.76541 31.74275,41.69492 54.94284,55.12305 23.2,13.42843 50.16272,20.35538 75.16546,20.18473 25.00274,0.17065 51.96537,-6.7563 75.16546,-20.18473 23.2,-13.42813 42.63746,-33.35764 54.94274,-55.12305 12.60269,-21.59538 20.02678,-48.42583 19.93871,-75.23148 -0.088,-26.80579 -7.68801,-53.58677 -20.43066,-75.09908 z"
       stroke="#7FCFFF"
       stroke-width="0.24"
       fill="none"
       id="path190"
       style="display:inline;stroke:#00a6ff;stroke-width:0.720225;stroke-miterlimit:4;stroke-dasharray:none;stroke-opacity:1"
       inkscape:label="Kreissegment-85" />
    <path
       d="m 128.77315,670.1887 q 2.43379,3.14087 5.26717,0.94535 1.97677,-1.53176 0.88752,-2.93746 -0.37443,-0.48321 -1.1755,-0.8819 l -0.068,-0.0878 q -1.14031,-1.4716 -0.84478,-3.17699 0.27357,-1.68837 1.76713,-2.8457 2.06463,-1.59984 5.05705,-1.45795 2.85351,0.14407 3.99382,1.61566 0.7829,1.01036 0.30234,2.61306 -0.30152,0.97183 -1.88856,3.9592 -3.0983,5.84572 -3.50433,9.3592 -0.49722,4.07626 2.12378,7.45873 2.39976,3.09694 6.31514,3.61337 4.01037,0.54828 8.07973,-1.86678 2.34327,1.98068 4.70358,3.98332 1.62846,1.05819 3.16595,-0.13318 2.26231,-1.75301 0.69651,-3.77371 -0.74886,-0.96642 -3.98981,-3.83336 4.83118,-5.92302 1.29112,-10.49156 -1.29348,-1.66927 -3.25969,-1.93846 -1.98322,-0.29116 -3.56464,0.93425 -0.94446,0.73184 -1.07796,1.78439 -0.15547,1.06959 0.54233,1.97011 0.39145,0.50518 1.62248,0.32463 1.23104,-0.18055 1.62248,0.32461 0.62972,0.81267 -0.0825,2.52463 -0.793,1.87996 -2.65995,3.32662 -2.37213,1.83811 -4.96264,1.80661 -2.60754,-0.0535 -4.07121,-1.94237 -2.33168,-3.00909 1.32516,-10.44762 2.82759,-5.74141 3.10001,-6.79616 0.85625,-3.15929 -1.20312,-5.81695 -1.97426,-2.54783 -5.68702,-3.25642 -3.88571,-0.75033 -7.93908,0.91415 -2.74566,-3.18043 -4.20888,-3.97998 -1.72621,-0.91215 -3.39549,0.38134 -1.01035,0.7829 -1.17075,1.89146 -0.1994,1.10361 0.53244,2.04807 0.32337,0.41732 1.31383,1.19653 1.29463,1.03565 1.87605,1.60453 -2.359,2.6716 -2.5569,5.63711 -0.21492,2.94355 1.72531,5.44747 z"
       style="font-size:42.6799px;line-height:1.25;font-family:'Kristen ITC';-inkscape-font-specification:'Kristen ITC';fill:none;stroke:#00a6ff;stroke-width:1.33375;stroke-opacity:1"
       id="path4855"
       inkscape:label="$-4" />
    <path
       d="m 653.44322,667.3432 q -2.43379,3.14087 -5.26717,0.94535 -1.97677,-1.53176 -0.88751,-2.93747 0.37442,-0.4832 1.17549,-0.88189 l 0.068,-0.0878 q 1.14031,-1.4716 0.84478,-3.17699 -0.27356,-1.68836 -1.76713,-2.8457 -2.06462,-1.59983 -5.05704,-1.45794 -2.85352,0.14407 -3.99382,1.61566 -0.78291,1.01036 -0.30235,2.61305 0.30153,0.97184 1.88856,3.9592 3.09831,5.84573 3.50433,9.35921 0.49723,4.07625 -2.12378,7.45873 -2.39975,3.09694 -6.31514,3.61336 -4.01037,0.54828 -8.07972,-1.86677 -2.34327,1.98067 -4.70358,3.98331 -1.62846,1.05819 -3.16596,-0.13318 -2.2623,-1.75301 -0.69651,-3.77371 0.74886,-0.96642 3.98981,-3.83336 -4.83117,-5.92301 -1.29111,-10.49155 1.29348,-1.66927 3.25968,-1.93847 1.98322,-0.29116 3.56464,0.93425 0.94446,0.73184 1.07796,1.78439 0.15547,1.06959 -0.54233,1.97012 -0.39145,0.50518 -1.62247,0.32462 -1.23104,-0.18055 -1.62249,0.32462 -0.62972,0.81267 0.0826,2.52463 0.79301,1.87995 2.65996,3.32661 2.37212,1.83811 4.96263,1.80661 2.60754,-0.0535 4.07122,-1.94237 2.33167,-3.00908 -1.32516,-10.44761 -2.8276,-5.74141 -3.10002,-6.79617 -0.85624,-3.15928 1.20312,-5.81694 1.97426,-2.54783 5.68702,-3.25642 3.88572,-0.75033 7.93909,0.91415 2.74566,-3.18043 4.20888,-3.97998 1.7262,-0.91215 3.39548,0.38134 1.01035,0.7829 1.17076,1.89146 0.19939,1.10361 -0.53245,2.04807 -0.32337,0.41732 -1.31383,1.19653 -1.29463,1.03565 -1.87605,1.60452 2.359,2.6716 2.5569,5.63712 0.21492,2.94355 -1.72531,5.44746 z"
       style="font-size:42.6799px;line-height:1.25;font-family:'Kristen ITC';-inkscape-font-specification:'Kristen ITC';fill:none;stroke:#00a6ff;stroke-width:1.33375;stroke-opacity:1"
       id="path5371"
       inkscape:label="$-3" />
    <path
       d="m 620.90603,424.77749 q 2.43379,3.14087 5.26717,0.94535 1.97677,-1.53176 0.88752,-2.93746 -0.37443,-0.48321 -1.1755,-0.8819 l -0.068,-0.0878 q -1.14031,-1.4716 -0.84478,-3.17699 0.27357,-1.68837 1.76713,-2.8457 2.06463,-1.59984 5.05705,-1.45795 2.85351,0.14407 3.99382,1.61566 0.7829,1.01036 0.30234,2.61306 -0.30152,0.97183 -1.88856,3.9592 -3.0983,5.84572 -3.50433,9.3592 -0.49722,4.07626 2.12378,7.45873 2.39976,3.09694 6.31514,3.61337 4.01037,0.54828 8.07973,-1.86678 2.34327,1.98068 4.70358,3.98332 1.62846,1.05819 3.16595,-0.13318 2.26231,-1.75301 0.69651,-3.77371 -0.74886,-0.96642 -3.98981,-3.83336 4.83118,-5.92302 1.29112,-10.49156 -1.29348,-1.66927 -3.25969,-1.93846 -1.98322,-0.29116 -3.56464,0.93425 -0.94446,0.73184 -1.07796,1.78439 -0.15547,1.06959 0.54233,1.97011 0.39145,0.50518 1.62248,0.32463 1.23104,-0.18055 1.62248,0.32461 0.62972,0.81267 -0.0825,2.52463 -0.793,1.87996 -2.65995,3.32662 -2.37213,1.83811 -4.96264,1.80661 -2.60754,-0.0535 -4.07121,-1.94237 -2.33168,-3.00909 1.32516,-10.44762 2.82759,-5.74141 3.10001,-6.79616 0.85625,-3.15929 -1.20312,-5.81695 -1.97426,-2.54783 -5.68702,-3.25642 -3.88571,-0.75033 -7.93908,0.91415 -2.74566,-3.18043 -4.20888,-3.97998 -1.72621,-0.91215 -3.39549,0.38134 -1.01035,0.7829 -1.17075,1.89146 -0.1994,1.10361 0.53244,2.04807 0.32337,0.41732 1.31383,1.19653 1.29463,1.03565 1.87605,1.60453 -2.359,2.6716 -2.5569,5.63711 -0.21492,2.94355 1.72531,5.44747 z"
       style="font-size:42.6799px;line-height:1.25;font-family:'Kristen ITC';-inkscape-font-specification:'Kristen ITC';fill:none;stroke:#00a6ff;stroke-width:1.33375;stroke-opacity:1"
       id="path5881"
       inkscape:label="$-2" />
    <path
       d="m 159.56648,425.40713 q -2.43379,3.14087 -5.26717,0.94535 -1.97677,-1.53176 -0.88751,-2.93747 0.37442,-0.4832 1.17549,-0.88189 l 0.068,-0.0878 q 1.14031,-1.4716 0.84478,-3.17699 -0.27356,-1.68836 -1.76713,-2.8457 -2.06462,-1.59983 -5.05704,-1.45794 -2.85352,0.14407 -3.99382,1.61566 -0.78291,1.01036 -0.30235,2.61305 0.30153,0.97184 1.88856,3.9592 3.09831,5.84573 3.50433,9.35921 0.49723,4.07625 -2.12378,7.45873 -2.39975,3.09694 -6.31514,3.61336 -4.01037,0.54828 -8.07972,-1.86677 -2.34327,1.98067 -4.70358,3.98331 -1.62846,1.05819 -3.16596,-0.13318 -2.2623,-1.75301 -0.69651,-3.77371 0.74886,-0.96642 3.98981,-3.83336 -4.83117,-5.92301 -1.29111,-10.49155 1.29348,-1.66927 3.25968,-1.93847 1.98322,-0.29116 3.56464,0.93425 0.94446,0.73184 1.07796,1.78439 0.15547,1.06959 -0.54233,1.97012 -0.39145,0.50518 -1.62247,0.32462 -1.23104,-0.18055 -1.62249,0.32462 -0.62972,0.81267 0.0825,2.52463 0.79301,1.87995 2.65996,3.32661 2.37212,1.83811 4.96263,1.80661 2.60754,-0.0535 4.07122,-1.94237 2.33167,-3.00908 -1.32516,-10.44761 -2.8276,-5.74141 -3.10002,-6.79617 -0.85624,-3.15928 1.20312,-5.81694 1.97426,-2.54783 5.68702,-3.25642 3.88572,-0.75033 7.93909,0.91415 2.74566,-3.18043 4.20888,-3.97998 1.7262,-0.91215 3.39548,0.38134 1.01035,0.7829 1.17076,1.89146 0.19939,1.10361 -0.53245,2.04807 -0.32337,0.41732 -1.31383,1.19653 -1.29463,1.03565 -1.87605,1.60452 2.359,2.6716 2.5569,5.63712 0.21492,2.94355 -1.72531,5.44746 z"
       style="font-size:42.6799px;line-height:1.25;font-family:'Kristen ITC';-inkscape-font-specification:'Kristen ITC';fill:none;stroke:#00a6ff;stroke-width:1.33375;stroke-opacity:1"
       id="path6391"
       inkscape:label="$-1" />
    <path
       id="path7100"
       style="font-stretch:semi-expanded;font-size:32.0099px;line-height:1.25;font-family:'Kristen ITC';-inkscape-font-specification:'Kristen ITC Semi-Expanded';fill:none;stroke:#00a6ff;stroke-width:1.33375;stroke-opacity:1"
       d="m 242.47199,719.8575 c -0.13871,0 -0.27862,0 -0.41933,0 -2.41382,-0.06 -4.3791,2.01303 -4.7072,4.31388 -0.45774,3.59419 -0.34557,7.23933 -0.47415,10.85753 0.0267,0.78824 0.16672,1.69399 -0.89601,1.41964 -4.40138,0.18979 -8.80809,0.20393 -13.21253,0.15632 0.19713,-3.73037 0.64247,-7.44953 0.79198,-11.17789 0.044,-2.30673 -1.70386,-4.58477 -4.08728,-4.72815 -2.41448,-0.36771 -4.84137,1.30348 -5.43143,3.66008 -0.58871,2.18722 -0.4468,4.49647 -0.71635,6.7365 -0.2062,2.16054 1.69906,3.57859 -0.50536,6.51497 -1.09848,2.27911 -2.0297,6.08644 -2.39395,10.09436 -2.6611,0.16405 -5.86957,1.32601 -6.85627,2.71431 -0.96484,1.40391 -2.08919,2.80554 -3.78505,3.33184 -2.90158,0.98818 -6.11578,1.10448 -9.09924,0.42467 -2.69965,-0.60112 -4.76709,-2.86143 -5.44437,-5.49919 -0.9663,-3.56725 -0.98164,-7.42805 -0.0187,-10.99823 0.9371,-3.5071 3.80159,-6.65342 7.52836,-7.09862 3.58672,-0.63847 7.16544,0.80812 9.98498,2.95412 1.87579,1.43392 4.73015,0.99244 6.17633,-0.83359 1.6956,-1.77629 1.47793,-4.76256 -0.2266,-6.45522 -3.81893,-4.04166 -9.64755,-5.50425 -15.05417,-5.26458 -5.19709,0.14218 -10.32523,2.46691 -13.65267,6.49937 -0.99777,1.14969 -1.83124,2.40608 -2.52172,3.73303 -0.1227,-1.10141 -0.27422,-2.2351 -0.41146,-3.34745 -0.82532,-4.29987 -1.74695,-5.76566 -4.09768,-6.9371 -0.72396,-0.37678 -1.55662,-0.52429 -2.36794,-0.48188 -1.14342,0.028 -2.2359,0.53377 -3.05042,1.32588 -4.57956,-1.81017 -9.99686,-1.26826 -14.22844,1.20878 -4.40818,2.59588 -7.25374,7.4834 -7.50235,12.57419 -0.30209,3.9507 0.43841,8.42944 3.64701,11.09467 0.66847,0.44147 1.04112,0.73303 0.13071,1.04979 -0.69115,0.49442 -1.18397,1.12022 -1.54222,1.82084 -1.51501,-0.62793 -3.38626,-0.57458 -5.30899,0.8544 -2.29378,0.7593 -4.33202,2.25417 -6.78852,2.53212 -2.58388,0.47615 -5.21603,0.615 -7.83845,0.68248 0.19673,-2.50598 0.30543,-5.01836 0.37252,-7.53102 3.08696,-0.0187 6.22701,0.21741 9.27116,-0.38812 2.26444,-0.4472 4.00205,-2.70698 3.60272,-5.02757 -0.13457,-2.31592 -2.35753,-4.03232 -4.60557,-3.95963 -2.69084,0.10803 -5.38861,0.34144 -8.08599,0.19806 0.0173,-2.18402 0.0427,-4.3675 0.0467,-6.55165 5.09653,0.75837 9.7057,1.12529 10.72735,0.60446 2.46811,-1.0474 3.66035,-4.467 1.96928,-6.67396 -3.66741,-4.43125 -13.91781,-3.75744 -20.36049,-3.68875 -2.15921,0.044 -4.71974,0.59699 -5.72579,2.74833 -1.1873,2.31472 -0.13071,5.64683 2.48784,6.39786 0.50323,0.33624 1.66546,-0.08 1.43005,0.79705 0.028,3.20073 0.0494,6.40614 0.0187,9.6098 -2.84448,-1.22331 -7.29628,-1.79429 -9.66702,-2.17001 -4.36163,-0.6334 -8.70311,-1.46632 -12.996323,-0.67728 -2.467971,0.49549 -5.309258,1.76242 -5.928919,4.45713 -0.618726,2.83315 1.878721,6.00681 4.853117,5.61896 1.766952,-0.24501 3.440408,-1.03219 5.246435,-1.03153 -0.800647,2.78967 -1.806961,5.98134 -4.498869,7.49968 -2.736721,1.33962 -6.560049,0.651 -8.184823,-2.08399 -2.009295,-3.24701 -1.985821,-7.28374 -1.604635,-10.95915 0.404393,-3.59593 2.247636,-7.30322 5.684043,-8.84903 3.371053,-1.4914 7.34336,-1.57596 10.823644,-0.40386 1.81337,0.71582 3.66381,2.19402 5.71806,1.45885 2.82515,-0.79425 4.33348,-4.52421 2.63095,-6.98658 -1.68813,-2.38968 -4.65385,-3.406 -7.3695,-4.12102 -1.91166,-0.44974 -3.87935,-0.6234 -5.840358,-0.62526 -5.702448,-0.056 -11.648839,1.73321 -15.663694,5.94199 -4.454591,4.45179 -6.078832,10.95435 -5.996673,17.09387 -0.02667,5.60869 1.530745,11.57415 5.754331,15.50484 4.213316,4.03993 10.795239,5.04025 16.208263,3.12591 1.466592,-0.5315 2.817151,-1.35469 4.006451,-2.36007 0.89681,2.15201 3.44068,3.5151 5.69445,2.68057 2.18468,-0.62846 2.48504,-3.08002 3.01921,-5.36887 0.64913,-4.35016 1.97635,-5.31753 2.09705,-8.32554 2.41822,1.13676 4.23492,1.5969 5.59282,1.5917 -0.0587,0.78598 -0.11871,1.57236 -0.19273,2.3574 -0.36091,0.34238 -1.2844,0.24035 -1.77922,0.65914 -2.63216,1.25586 -3.38666,5.28592 -1.13316,7.2496 2.25577,1.93887 5.43837,1.47219 8.19269,1.53955 7.1289,-0.0293 15.39001,0.91588 21.92605,-2.25844 0.31997,-0.15552 0.69249,-0.38652 1.08114,-0.64874 -0.0133,1.43432 0.0133,2.86757 0.10137,4.29561 0.18446,2.30752 2.22002,4.29748 4.56916,4.22532 2.20962,0.16699 4.41404,-1.43831 4.71507,-3.67568 0.11737,-0.70315 -0.1067,-1.62104 0.91949,-1.09661 4.34416,0.51403 6.9355,0.27742 9.98232,-3.12084 2.84715,-3.14325 2.92211,-8.03504 1.1697,-11.725 -1.61518,-3.36411 -2.85076,-5.61708 -6.20768,-6.7417 -2.0277,-0.79572 -4.28267,-1.26013 -6.02535,-2.61535 -0.95816,-1.64172 -0.79624,-3.76238 -0.22927,-5.51733 0.98538,-2.74912 4.06754,-4.274 6.88242,-3.8372 0.89521,0.1027 1.76095,0.40346 2.55546,0.82319 0.0574,2.37075 3.49616,7.86286 5.9472,8.71113 1.15222,0.41746 2.52012,0.33637 3.68341,-0.15378 -0.2102,1.8275 -0.24941,3.67448 -0.13337,5.48878 0.24901,5.59895 2.27644,11.4281 6.75984,15.02802 4.64252,3.84587 11.07786,4.57343 16.86474,3.71997 3.56404,-0.54271 9.03989,-2.68764 12.78519,-5.40529 0.87441,2.62362 2.37621,4.57303 4.73842,5.1344 2.30218,0.6306 5.07038,-0.55964 5.75179,-2.95145 0.80746,-2.74593 0.28729,-5.64963 0.4116,-8.46625 0.0133,-2.05984 0.048,-4.12049 0.12004,-6.179 4.8279,0.12404 9.65715,0.12404 14.48625,0.10137 0.064,4.18717 -0.15151,8.39035 0.19273,12.56646 0.12137,2.16854 1.79843,4.18797 4.02739,4.34762 1.63678,0.27836 3.95617,-0.10003 5.36355,-1.16436 0.70088,0.3293 1.46459,0.53777 2.21162,0.59125 3.92896,0.24448 12.89029,0.50296 16.82045,0.32824 3.73157,-0.26008 10.84072,-0.29223 16.15078,-1.29201 0.74584,1.50767 2.12067,2.69151 3.87361,2.7482 2.35874,0.29582 4.55903,-1.57983 4.88179,-3.88922 0.37279,-3.12191 1.55969,-6.83053 2.27418,-10.26094 0.7397,-3.55151 1.58556,-7.03033 2.08132,-10.68307 3.76998,7.11382 7.99423,14.02825 13.02754,20.32408 1.75468,2.19869 4.35722,4.31855 7.35389,3.83707 0.25608,-0.028 0.53244,-0.10137 0.81799,-0.19793 -0.35744,1.15329 -0.4364,2.17321 0.10937,2.78727 1.69906,2.10759 11.09707,-0.48588 12.81133,-2.49038 2.30606,-2.61055 2.72619,-6.24795 3.27183,-9.55498 0.34184,-2.32673 0.57618,-4.66813 0.78411,-7.01006 0.57618,-0.23887 1.11448,-0.93802 1.68799,-0.94043 5.65684,3.27436 10.0206,8.40183 13.36871,13.94196 1.14663,1.75228 5.68805,5.85036 7.95822,6.26756 2.22336,0.60512 4.6796,-0.69835 5.57734,-2.74566 0.18299,0.0293 0.36799,0.0627 0.54964,0.076 3.92883,0.24448 10.20973,-0.74223 14.13975,-0.91695 5.0984,-0.35451 10.34443,-1.19677 14.84331,-3.75371 1.91459,-1.08513 3.46094,-3.33517 2.74552,-5.59027 -0.65607,-2.52466 -3.66234,-3.96164 -6.06429,-2.98801 -2.27005,0.81386 -4.32776,2.24564 -6.78079,2.51906 -2.54559,0.45187 -7.30228,1.5945 -9.88335,1.65932 0.20446,-2.50545 1.45459,-5.58682 2.53986,-8.53387 3.0879,-0.0187 6.22874,0.21727 9.27383,-0.38812 2.25737,-0.44747 3.99711,-2.69511 3.60259,-5.01197 -0.12404,-2.31925 -2.35153,-4.05006 -4.60557,-3.97524 -2.69084,0.10804 -5.38862,0.34411 -8.08586,0.2006 0.0173,-2.18402 0.0427,-4.37003 0.0467,-6.55418 2.90491,0.24074 6.04736,0.41573 9.00281,1.12795 1.95995,0.56017 4.01206,2.01783 6.08004,1.01338 2.47117,-1.04419 3.66674,-4.47006 1.97194,-6.67648 -1.78322,-2.32566 -4.83324,-3.03322 -7.52848,-3.74344 -5.62296,-1.28827 -11.44211,-1.55462 -17.19284,-1.47966 -1.79056,0.82492 -2.13427,0.59685 -3.13898,2.74832 -1.16156,2.26911 -0.18326,5.52533 2.35234,6.35092 0.47414,0.37905 1.65891,-0.0347 1.56035,0.71116 0.068,7.74868 -4.78429,16.35657 -5.52519,24.07779 -0.87134,0.048 -1.68026,0.38452 -2.35754,0.90401 -0.02,-0.0347 -0.0427,-0.0707 -0.0627,-0.10403 -3.47682,-5.1264 -11.13467,-11.70566 -16.22386,-15.27557 3.91602,-3.34171 7.97062,-6.7041 10.81844,-11.04772 1.37283,-2.05771 2.17788,-5.07892 0.45855,-7.17411 -1.74788,-2.12706 -5.24244,-1.84177 -7.06995,0.0494 -2.33473,2.59948 -4.40324,5.45557 -6.98391,7.83578 -2.16321,2.10399 -4.47767,4.04993 -6.89029,5.8613 -0.16592,-3.52217 0.064,-7.09955 -0.64593,-10.57104 -0.50629,-2.51972 -2.40862,-4.96795 -5.21777,-4.78282 v 0 c -2.2619,-0.0574 -4.31895,1.76628 -4.52488,4.02205 -0.17032,2.2327 0.33064,4.4626 0.43241,6.69476 0.1227,1.33188 0.22927,2.99907 0.28395,4.12636 0.2078,5.14854 -1.19771,10.22852 -2.69097,15.27037 -0.1107,-0.47909 -0.21047,-0.92696 -0.35425,-1.49527 -0.98084,-5.08546 -2.13653,-9.68236 -3.03748,-14.55655 -0.5331,-2.88477 -0.89468,-5.72419 -1.40137,-8.68765 -0.35384,-2.06878 -0.86054,-4.65318 -3.19113,-5.2387 -0.52056,-0.13591 -1.0586,-0.20606 -1.5969,-0.17712 -2.39288,0.04 -4.72548,2.15401 -4.54048,4.24613 0.47134,5.32859 0.88094,7.90673 1.63597,11.80835 0.56165,2.90251 1.15917,5.95026 2.14654,8.60429 -4.81124,-7.07114 -9.48336,-13.83019 -12.87122,-21.61355 -0.8556,-2.07599 -3.27796,-3.38519 -5.46011,-2.65443 -2.74112,0.74957 -3.97124,3.63193 -4.59517,6.15299 -1.42711,5.74646 -3.0132,11.39075 -4.13675,17.16936 -0.36652,1.88539 -0.82466,3.81959 -1.23986,5.75446 -2.44903,0.86454 -9.47923,3.0883 -11.87357,3.35519 -2.54547,0.4516 -5.13494,0.59445 -7.71588,0.659 0.20126,-2.50571 0.30303,-5.02103 0.37252,-7.53355 3.08776,-0.0187 6.22861,0.21713 9.27369,-0.38812 2.25657,-0.44948 3.99765,-2.69364 3.60273,-5.01197 -0.12537,-2.31859 -2.35447,-4.04993 -4.60824,-3.97524 -2.69084,0.10803 -5.38608,0.34397 -8.08333,0.2006 0.0173,-2.18402 0.0427,-4.37004 0.0467,-6.55419 2.90504,0.24075 6.04736,0.41587 9.00282,1.12796 1.96021,0.56017 1.50833,1.01605 3.57658,0.0133 2.47171,-1.04459 3.66875,-4.46912 1.97462,-6.67648 -1.81497,-2.359 -2.42023,-2.05878 -5.15788,-2.7718 -5.58468,-1.26106 -11.35448,-1.52354 -17.06266,-1.44832 v 0 c -2.15161,0.0467 -2.88984,-0.23541 -3.90482,1.90166 -1.19891,2.31179 0.84693,5.65724 3.47241,6.41614 -0.72396,7.71801 -2.27191,13.9917 -2.93051,21.1394 -1.05166,0.0573 -2.69924,1.07381 -4.25133,2.41996 -0.10803,-5.35541 -1.31268,-11.24645 -1.18277,-16.57545 l 0.0414,-1.64638 c 0.0947,-2.94118 0.20579,-5.80861 0.35424,-8.76834 -0.0187,-0.41066 -0.001,-1.30507 -0.17712,-1.89646 -0.38812,-2.07264 -2.21203,-3.63473 -4.29308,-3.70942 z"
       inkscape:label="Geschenke-Schrift" />
    <path
       id="path7102"
       style="font-stretch:semi-expanded;font-size:32.0099px;line-height:1.25;font-family:'Kristen ITC';-inkscape-font-specification:'Kristen ITC Semi-Expanded';fill:none;stroke:#00a6ff;stroke-width:1.33375;stroke-opacity:1"
       d="m 470.47562,719.77668 c -2.86863,0.032 -4.69293,0.61165 -6.59326,2.98013 -0.57297,0.72769 -0.8572,1.65065 -0.87267,2.57107 l 0.28916,1.71147 c 0.59498,1.57542 0.56257,2.83221 2.27938,2.97759 0.50922,5.3262 0.76677,10.7595 -0.18499,16.05182 -0.66915,3.53257 -2.22377,7.44979 -5.75954,8.9612 -2.2479,0.88134 -4.89366,1.15622 -7.18197,0.27342 -2.28338,-1.08981 -2.61242,-3.94257 -2.65443,-6.18674 -0.0867,-6.4084 1.84617,-12.75852 5.16561,-18.21409 1.9302,1.19304 3.33024,-1.44992 3.75384,-2.99307 0.53844,-1.96208 0.18633,-4.31294 -2.16214,-5.70751 -1.63198,-0.96897 -1.9014,-1.41378 -4.87659,-1.72454 -2.96093,-0.14458 -3.74544,-0.0187 -6.25449,1.75842 -2.37567,1.68906 -2.78594,5.75553 -0.36211,7.56489 -1.7028,3.25955 -2.97747,6.76091 -3.77465,10.36257 -2.15854,-1.41244 -5.27218,-2.18935 -7.39297,-2.73005 -3.9267,-0.83146 -8.07479,-0.90041 -11.98548,0.0547 -2.29285,0.57418 -4.86832,2.07145 -5.11613,4.66039 -0.41773,2.87143 2.3734,5.83516 5.30112,5.15001 1.61464,-0.31663 3.17472,-0.9639 4.84004,-0.97164 -0.79985,2.79048 -1.80776,5.97987 -4.49887,7.49968 -2.73659,1.34015 -6.56045,0.651 -8.18482,-2.08398 -1.98942,-3.20621 -1.98142,-7.19172 -1.62024,-10.82632 0.37732,-3.64127 2.21963,-7.41311 5.69965,-8.97934 3.37105,-1.49086 7.34336,-1.57876 10.82364,-0.40639 1.81337,0.71582 3.66382,2.19402 5.71806,1.45885 2.82515,-0.79424 4.33348,-4.52421 2.63095,-6.98658 -1.68812,-2.38968 -4.65385,-3.40346 -7.3695,-4.11848 -1.9118,-0.44988 -3.87934,-0.62567 -5.84036,-0.6278 -5.70205,-0.0574 -11.6411,1.73294 -15.66116,5.93412 -2.60361,2.60588 -4.22318,5.91998 -5.1188,9.44575 -0.0707,-0.0333 -0.14457,-0.0653 -0.21873,-0.0934 -1.56089,-0.69822 -3.3093,-0.59245 -4.97556,-0.58605 v 0 c -2.60454,-10e-4 -5.65083,0.096 -7.47633,2.2455 -1.88766,2.23603 -1.06633,6.28676 1.83391,7.22106 2.6787,0.69755 5.43569,-0.36412 8.14841,0.0413 0.61632,0.0467 1.24279,-0.028 1.83657,-0.2058 0.15485,5.25698 1.6976,10.68027 5.57201,14.39784 4.21292,4.14622 10.88247,5.20576 16.36191,3.26395 1.46686,-0.53083 2.81648,-1.35549 4.00645,-2.36007 0.89628,2.1524 3.44068,3.5147 5.69445,2.68057 2.00076,-0.60152 3.83946,-2.91518 2.90984,-5.03024 0.45881,0.33851 -0.12804,-1.04046 -0.12537,-1.65158 -0.29023,-1.5869 -0.45041,-3.1966 -0.50016,-4.80884 -0.45201,0.68755 -0.98444,1.91273 -1.11235,0.41947 -0.38972,-1.35549 -0.77984,-2.71085 -1.16956,-4.06634 0.82879,0.036 1.48753,0.67381 2.28458,0.79451 1.15263,0.17433 2.89584,1.4e-4 3.49576,-0.12003 -0.0427,0.14551 0.0867,0.15378 0.28142,0.0987 0.0133,1.13916 0.06,2.27765 0.17979,3.41254 0.49722,4.48433 2.85649,8.95173 6.94483,11.11294 4.1529,2.22789 9.18487,2.28164 13.66827,1.13568 5.16789,-1.34748 9.29237,-5.40222 11.4073,-10.22186 2.31446,-5.17761 2.95066,-10.85179 2.91238,-16.49221 0.56457,0.19326 1.17076,0.26875 1.78696,0.18499 2.53799,-0.15819 4.18224,-2.58735 4.53781,-4.91554 1.71187,-0.70582 3.74517,-0.82119 5.62416,-0.97951 0.46881,0.33264 0.0974,1.57223 0.23968,2.25591 0.18085,7.18411 0.17112,14.37622 -0.33077,21.54833 -0.0627,2.47304 -0.75624,5.35061 1.01071,7.42685 2.01797,2.46384 6.53564,1.84858 7.73162,-1.14622 1.02245,-2.59801 0.76824,-5.46291 0.97937,-8.19789 0.28329,-7.24894 0.19606,-14.50667 0,-21.7568 2.42929,0.25928 4.94154,0.32597 7.26013,1.14369 0.74904,0.45054 1.62051,0.7485 2.49812,0.83613 -0.04,0.29902 -0.10003,0.59458 -0.12271,0.89614 -0.36865,4.00806 -0.072,9.54298 3.43854,11.38116 0.97057,0.50816 2.94626,1.64118 2.94626,1.64118 2.55213,1.25026 4.75908,2.29125 5.46264,2.5528 0.35878,0.12937 0.71715,0.25914 1.07593,0.38812 1.14023,0.51402 2.5384,0.80211 3.34211,1.8235 0.24715,0.48869 0.11604,1.13049 -0.51309,1.19571 -1.35442,0.34891 -2.8993,0.60579 -4.24092,0.1067 -0.56205,-0.92002 -3.48763,-1.75695 -5.90558,-2.17775 -2.60642,0.23687 -4.29508,0.19953 -4.40765,2.75606 -0.0907,3.13831 -0.18805,6.2905 -0.0307,9.42481 0.15578,2.30192 2.11012,4.36297 4.47019,4.33989 2.24604,0.22087 4.52995,-1.38563 4.83485,-3.67048 0.1187,-0.69862 -0.10804,-1.62144 0.91695,-1.09661 4.34829,0.5147 6.63807,-0.3149 9.68263,-3.72249 2.90157,-3.21834 2.91744,-8.23564 1.04726,-11.96468 -1.74135,-3.29222 -2.66564,-4.86005 -6.02015,-5.98893 -1.93501,-0.73903 -4.05607,-1.21812 -5.73353,-2.47464 -0.9815,-1.49087 -0.83266,-3.48042 -0.42199,-5.15014 0.77117,-2.81422 3.7469,-4.58744 6.59059,-4.29561 1.04379,0.056 2.06558,0.37131 2.98533,0.86227 0.0547,2.37114 0.95883,5.14534 3.40733,5.99667 1.21425,0.44054 3.15325,0.37545 4.81657,-0.14071 -0.60619,2.7702 -0.78691,5.64963 -0.58871,8.45064 0.29676,5.55627 2.3702,11.31727 6.85107,14.8509 4.67559,3.80319 11.11214,4.49581 16.89594,3.6158 4.20425,-0.66794 12.64222,-4.41565 16.46862,-8.03904 0,0.97443 0.0133,1.94887 0.0387,2.92278 0.06,2.13373 1.31867,4.40097 3.53763,4.86352 2.31179,0.6398 5.09546,-0.56458 5.76994,-2.9696 0.79918,-2.7858 0.27382,-5.72419 0.40386,-8.57828 0.0133,-2.01543 0.0494,-4.03206 0.12004,-6.04615 4.82884,0.12403 9.65888,0.12403 14.48892,0.10136 1.12956,4.88233 2.11893,10.46274 3.02175,15.39548 0.12137,2.16894 1.79869,4.19211 4.02992,4.34762 2.29672,0.38959 7.06288,0.90762 7.63519,-1.37283 0.056,-0.219 0.0747,-0.46041 0.0787,-0.71115 0.41493,0.096 0.83373,0.16698 1.24519,0.18232 4.30774,0.19113 12.40734,-0.98604 16.70828,-1.27373 3.62714,-0.36838 9.8036,-2.23203 14.30927,-4.19664 0.13071,1.8147 1.21505,3.84373 2.64923,4.65772 3.04749,1.78682 8.69885,1.12995 12.12352,0.94549 2.25297,-0.18699 6.58033,-0.43093 9.10711,-1.81817 0.73437,0.81853 1.70907,1.3871 2.8733,1.45873 2.34487,0.35544 4.61478,-1.43739 4.98583,-3.74597 0.40226,-2.80528 0.25168,-5.66737 0.42986,-8.49479 0.14632,-4.03873 0.41427,-8.07812 0.95604,-12.08458 3.74783,7.07862 7.95395,13.95063 12.94151,20.22766 1.75588,2.19802 4.31148,4.37416 7.32002,3.95176 2.43022,-0.20019 4.1781,-2.54319 4.15489,-4.89726 -0.0133,-3.38652 -0.45814,-6.77225 -0.23954,-10.16464 0.19646,-4.90207 0.56605,-9.80173 1.21131,-14.66605 0.17513,-1.2676 0.43521,-2.88263 0.66688,-4.28267 0.34971,-2.51985 1.22251,-5.4341 -0.43254,-7.6872 -0.87267,-1.21585 -2.40661,-1.81844 -3.87614,-1.73761 -2.38955,0.0413 -4.01645,2.25057 -4.49367,4.40511 -1.0566,4.28574 -1.52274,8.69712 -1.97195,13.08222 -0.26568,2.71765 -0.4176,5.44437 -0.53657,8.17175 -4.86565,-7.1493 -8.63016,-14.96694 -12.0767,-22.87688 -0.93856,-1.93514 -3.25956,-3.0831 -5.34287,-2.39141 -2.73979,0.7505 -3.97191,3.63207 -4.59517,6.15299 -1.41671,5.70324 -2.29925,11.53307 -2.95146,17.36996 -0.28222,2.82408 -0.51749,5.6643 -0.60165,8.50532 v 0 c -0.87054,-0.40253 -5.59268,0.77144 -6.52804,0.98217 0.7425,-7.37657 2.09225,-15.71611 0.57831,-23.00985 2.14534,0.5335 4.30615,-1.23252 4.52488,-3.44374 0.5203,-2.61976 -1.76241,-4.39978 -4.11328,-5.41836 -2.70791,-1.32668 -2.98253,-0.96764 -5.95239,-0.91696 -2.72792,0.0854 -5.97414,0.58685 -7.52062,3.11818 -1.59343,2.49824 -0.37358,6.40573 2.60241,7.16103 0.88174,0.20927 1.80297,0.092 2.64923,-0.2162 1.43898,5.70779 1.22798,6.63728 0.92215,12.49604 -1.3036,2.75126 -3.18006,6.5071 -3.37345,8.49492 v 0 c -0.0427,-0.25021 -0.1067,-0.49975 -0.20326,-0.7477 -0.78145,-2.40568 -3.70809,-3.67235 -6.03055,-2.72218 -2.25057,0.82666 -8.42717,4.35656 -10.86526,4.62904 -2.54333,0.45028 -8.05265,4.37777 -10.30016,1.71934 -1.95621,-2.31379 2.89558,-6.08137 2.96453,-8.59388 3.08777,-0.0187 6.22875,0.21753 9.2737,-0.38813 2.2575,-0.44747 3.99725,-2.6951 3.60259,-5.01196 -0.12404,-2.31926 -2.35153,-4.05007 -4.60557,-3.97524 -2.69071,0.10803 -5.38862,0.34157 -8.08586,0.19806 0.0173,-2.18402 0.0427,-4.3675 0.0467,-6.55165 2.91184,0.24354 6.04842,0.41226 9.00281,1.12795 1.96275,0.55898 1.88726,2.1356 3.95697,1.13062 2.41969,-1.03259 3.62793,-4.31854 2.07358,-6.55151 -1.80043,-2.44916 -2.84955,-3.29423 -5.63723,-4.01432 -5.58454,-1.26199 -11.35461,-1.52568 -17.06266,-1.45099 -2.15854,0.044 -4.71747,0.59819 -5.72312,2.74833 -1.16356,2.27164 -0.18166,5.53573 2.36007,6.35358 0.47375,0.37119 1.65278,-0.0347 1.55262,0.70849 0.068,7.74869 -3.63807,16.58332 -4.37897,24.30453 -0.91789,0.048 -1.75695,0.4256 -2.4513,0.98991 -0.0253,-0.21367 -0.0413,-0.4216 -0.0333,-0.61219 -3.84734,-13.30669 -5.70512,-12.86576 -2.38355,-29.66821 0.14111,-2.26577 -1.08033,-4.81257 -3.436,-5.36621 -0.47669,-0.1307 -0.97311,-0.18299 -1.46659,-0.17192 -2.41716,-0.0587 -4.37724,2.0217 -4.70201,4.32429 -0.45574,3.63527 -0.34651,7.32082 -0.47401,10.97996 0.13071,0.88961 -0.0133,1.52421 -1.03166,1.29201 -4.35696,0.18659 -8.71699,0.19752 -13.07688,0.15111 0.19579,-3.73383 0.6486,-7.45686 0.79184,-11.18843 0.0373,-2.30352 -1.71093,-4.57396 -4.08981,-4.71761 -2.40968,-0.36718 -4.83537,1.29467 -5.42622,3.64701 -0.59419,2.144 -0.44374,4.41751 -0.71116,6.61673 -0.21193,2.20389 -0.24781,4.49674 -0.51576,6.64781 -1.98836,1.5869 -2.1224,4.91621 -0.19273,6.60633 -0.0133,0.91402 -0.0427,1.82857 -0.0653,2.74299 -1.95061,-1.28613 -4.84685,-0.84653 -6.23115,1.10195 -0.96363,1.40577 -7.51688,5.16281 -9.21381,5.68924 -2.94305,0.99311 -6.20954,1.12142 -9.22688,0.38812 -2.70058,-0.63326 -4.69587,-2.95625 -5.35581,-5.59028 -0.93442,-3.63793 -0.94656,-7.56849 0.11737,-11.18056 1.00925,-3.42867 3.90215,-6.42094 7.5649,-6.80946 3.54937,-0.58911 3.41426,0.0334 6.20233,2.14907 1.74655,1.32202 4.34296,1.0646 5.85864,-0.48708 1.80736,-1.61357 1.98355,-4.58983 0.40119,-6.41867 -2.93985,-3.43481 -3.81933,-4.33816 -8.24218,-4.73068 -1.15302,-0.11604 -2.31485,-0.12804 -3.47242,-0.0907 -5.19402,0.14205 -10.31695,2.46424 -13.64493,6.49163 -0.34384,0.39599 -0.63926,0.82319 -0.94562,1.24252 0.0427,-0.34437 0.096,-0.68728 0.17725,-1.02632 0.46001,-2.39608 -0.0734,-5.45957 -2.50598,-6.58805 -0.69982,-0.32237 -3.48042,-0.69809 -4.2488,-0.65381 -1.14289,0.028 -2.24123,0.5299 -3.05308,1.32588 -4.53942,-1.79723 -9.89896,-1.2732 -14.11628,1.13836 -1.45432,0.84279 -2.72658,1.94954 -3.81372,3.2146 -2.09039,-2.07691 -5.25791,-2.57814 -8.06759,-3.02961 -4.35016,-0.57671 -8.75527,-0.63713 -13.13704,-0.56004 -3.83146,0.17378 -7.81337,0.446 -11.4149,1.84177 -0.0507,-0.2194 -0.11203,-0.438 -0.19539,-0.64607 -1.07114,-2.82995 -4.34896,-4.03059 -7.16891,-3.95963 z"
       inkscape:label="Gutschein-Schrift" />
    <path
       id="path40324"
       style="font-size:133.375px;line-height:1.25;font-family:'Kristen ITC';-inkscape-font-specification:'Kristen ITC';display:inline;fill:none;stroke:#00a6ff;stroke-width:1.33375;stroke-opacity:1"
       d="m 208.73315,6.9636656 c -9.3348,0.164 -18.78457,0.595935 -27.83766,3.0611504 -4.75772,1.368275 -9.74507,3.44447 -12.66236,7.655013 -2.32918,3.429055 -2.56831,8.17915 -0.62761,11.830746 1.67478,2.958732 5.27346,4.168666 8.51826,3.937518 4.24908,-0.479791 8.3655,-1.727434 12.57819,-2.434904 0.6421,-0.112795 1.75545,-0.308315 2.5807,-0.445322 6.05392,21.330916 11.07356,43.065877 13.00536,65.195566 0.3346,4.043404 0.56552,8.096557 0.6353,12.153557 -7.29213,-3.21848 -14.70523,-6.35591 -22.5277,-8.031408 -3.36606,-0.614439 -7.15848,-1.269695 -10.26921,0.565248 -3.07675,1.7929 -4.16161,5.56794 -4.15371,8.92945 -0.20164,3.81107 1.52742,7.85275 4.95846,9.74506 3.40424,1.82037 7.23235,2.90052 10.74446,4.16127 7.63223,2.65538 15.1437,5.64717 22.77333,8.3052 3.8466,1.23313 8.02891,2.58115 12.04436,1.28517 4.07074,-1.16455 6.84497,-4.86974 8.0466,-8.77858 2.03767,-6.43197 1.59531,-13.28677 1.2988,-19.92932 -1.01099,-16.023212 -3.91359,-31.857445 -7.23546,-47.543184 -1.98728,-9.295044 -4.20109,-18.540693 -6.54966,-27.750733 5.22977,-0.154133 10.36318,1.055442 15.35653,2.483698 2.18282,0.583609 4.45072,1.239865 6.71431,0.67767 3.36646,-0.530675 6.1291,-3.230627 6.96204,-6.502391 0.93181,-3.480099 1.08707,-7.565091 -1.18123,-10.588142 -2.78783,-3.786055 -7.50707,-5.3733724 -11.9089,-6.3911864 -6.97344,-1.492996 -14.15851,-1.651307 -21.2632,-1.591146 z" />
    <path
       id="path40330"
       style="font-size:133.375px;line-height:1.25;font-family:'Kristen ITC';-inkscape-font-specification:'Kristen ITC';display:inline;fill:none;stroke:#00a6ff;stroke-width:1.33375;stroke-opacity:1"
       d="m 562.23138,11.304818 c -9.55493,0.141097 -19.28821,2.723305 -26.98192,8.553774 -8.95032,6.652755 -14.78421,16.861814 -17.34681,27.604249 -0.46756,1.80252 -0.78896,3.66922 -1.12715,5.480078 -3.18921,1.039787 -5.74242,3.86476 -6.18198,7.227776 -0.63441,3.434923 0.45726,7.302382 3.36425,9.410278 0.59632,0.453629 1.24322,0.840979 1.91921,1.164068 0.072,1.995541 0.22453,3.987532 0.39857,5.976574 -2.98967,0.734572 -5.19178,3.462665 -5.57427,6.47475 -0.68018,3.612148 0.42397,7.622083 3.31128,10.010242 1.68297,1.491157 3.76203,2.468353 5.89317,3.140045 3.2096,10.530328 8.95971,20.482418 17.45148,27.618948 7.55195,6.4555 17.21365,10.15578 27.0547,11.10141 12.8713,1.30474 26.32262,-1.00433 37.47246,-7.75112 5.62895,-3.37646 10.49494,-8.57547 12.12174,-15.07246 0.92791,-3.8537 1.22092,-8.09896 -0.3376,-11.83069 -1.34248,-3.269096 -4.73923,-5.297096 -8.19066,-5.51053 -3.33356,-0.428957 -7.09019,0.556737 -9.07978,3.441831 -0.93211,1.487978 -1.43475,3.217169 -2.29708,4.754959 -0.9665,1.78493 -1.78135,3.69308 -2.95089,5.34455 -3.64257,3.55588 -8.88194,4.71167 -13.77902,5.26114 -6.95784,0.71035 -14.33975,0.40697 -20.64269,-2.934 -5.12611,-2.63432 -9.06918,-7.11303 -11.86951,-12.080287 10.12685,0.136748 20.2682,0.142346 30.38026,-0.477481 4.95986,-0.375114 10.22093,-0.798322 14.5112,-3.561494 2.83362,-1.744348 4.52239,-5.116101 4.13092,-8.432742 -0.14906,-3.433563 -2.38306,-6.597601 -5.53029,-7.95364 -4.30506,-1.96236 -9.17185,-1.67296 -13.76692,-1.290659 -10.16625,0.697993 -20.34369,1.639181 -30.54502,1.281512 -1.70727,-0.03449 -3.41454,-0.08787 -5.12021,-0.167088 -0.20433,-1.921513 -0.34109,-3.850344 -0.41407,-5.781265 11.65618,-0.357779 23.33905,-1.389848 34.74621,-3.885064 4.37724,-1.104417 9.05409,-2.774048 11.79814,-6.583705 2.39395,-3.38309 2.38176,-8.409069 -0.24743,-11.656281 -2.46573,-2.882165 -6.57046,-3.57351 -10.17444,-3.307303 -11.51942,1.567444 -22.83011,4.682836 -34.48449,5.205744 1.52713,-6.165926 4.76112,-12.268491 10.3013,-15.691748 5.90207,-3.687525 13.17851,-4.213711 19.94751,-3.526205 8.20425,0.819936 16.00283,4.57463 21.92809,10.280248 1.71847,1.645399 2.82802,3.809817 4.22929,5.717275 2.00867,3.042965 4.12782,6.393864 7.66942,7.806376 3.80471,1.61 8.32441,0.232758 11.11954,-2.662054 2.49093,-2.179853 3.63727,-5.674358 2.99347,-8.913272 -0.91921,-5.266734 -4.38214,-9.623932 -7.93683,-13.431099 -4.10913,-4.255469 -8.66091,-8.08476 -13.47732,-11.513665 -9.22483,-6.249739 -20.52063,-8.648695 -31.52491,-8.829728 -1.05377,-0.01729 -2.10704,-0.03449 -3.16092,-0.012 z" />
    <path
       id="path10432"
       style="font-stretch:semi-expanded;font-size:133.375px;line-height:1.25;font-family:'Kristen ITC';-inkscape-font-specification:'Kristen ITC Semi-Expanded';display:inline;fill:none;stroke:#00a6ff;stroke-width:1.33375;stroke-opacity:1"
       d="m 279.24955,96.518358 c -4.08953,-5.801688 -6.51047,-12.645193 -7.66802,-19.613979 -0.10526,-0.616639 -0.20963,-1.302856 -0.3033,-2.015564 -0.26322,-1.985904 -0.42607,-3.722704 -0.53224,-5.741298 -0.38118,-7.222887 0.092,-14.647931 2.74175,-21.44633 0.28561,-0.750827 0.78236,-1.886285 1.22342,-2.752126 3.15512,-6.355266 8.6966,-11.759008 15.62885,-13.715931 2.94599,-0.877107 6.03723,-1.193699 9.10347,-1.128329 5.84229,0.09317 11.39017,2.868569 15.4547,6.980212 7.37032,7.347369 11.41016,17.524529 12.44724,27.776115 0.75836,7.809885 0.44056,15.796735 -1.50763,23.419848 -1.83993,6.941275 -5.42722,13.809574 -11.47224,17.959394 -5.26706,3.61424 -3.72015,12.92762 0.62341,16.06842 6.17858,4.46764 16.15488,0.20706 21.98357,-6.31932 7.03751,-7.62604 10.9473,-17.676299 12.40305,-27.84968 1.2954,-8.994117 1.08706,-18.167289 -0.073,-27.164075 -1.62519,-12.195863 -5.91136,-24.273393 -13.74303,-33.891846 -5.812,-7.291396 -13.79562,-12.937433 -22.82681,-15.422151 -4.94577,-1.405484 -10.11286,-1.9372794 -15.24537,-1.8251844 h 7e-4 c -10.12895,0.149044 -20.42016,2.7957524 -28.73448,8.7385974 -8.74588,6.113671 -15.08171,15.383973 -18.05429,25.595742 -3.06485,10.356724 -3.2173,21.369135 -1.9223,32.025166 1.49373,11.802975 5.80499,23.393965 13.31006,32.711001 6.7724,8.52371 15.93306,15.33722 26.45389,18.40325 8.39419,2.45408 7.36161,-14.02775 4.87798,-20.65017 -2.03944,-5.43836 -10.13473,-4.29886 -14.16908,-10.141762 z"
       sodipodi:nodetypes="cccccccccccsacccccsscccccac" />
    <path
       id="path10844"
       style="font-stretch:semi-expanded;font-size:133.375px;line-height:1.25;font-family:'Kristen ITC';-inkscape-font-specification:'Kristen ITC Semi-Expanded';display:inline;fill:none;stroke:#00a6ff;stroke-width:1.33375;stroke-opacity:1"
       d="m 397.08206,96.524576 c -4.08953,-5.801688 -6.51047,-12.645203 -7.66801,-19.613989 -0.10527,-0.616639 -0.20974,-1.302856 -0.30331,-2.015564 -0.26322,-1.985894 -0.42617,-3.722694 -0.53223,-5.741288 -0.38119,-7.222897 0.092,-14.647931 2.74174,-21.44634 0.28562,-0.750827 0.78236,-1.886284 1.22342,-2.752126 3.15512,-6.355266 8.6966,-11.759008 15.62885,-13.715931 2.94599,-0.877107 6.03723,-1.193699 9.10347,-1.128319 5.84229,0.09317 11.39017,2.868569 15.45471,6.980212 7.37031,7.347359 11.41015,17.524529 12.44723,27.776105 0.75836,7.809885 0.44056,15.796745 -1.50763,23.419848 -1.83993,6.941285 -5.42722,13.809576 -11.47224,17.959396 -5.26706,3.61423 -3.72014,12.92762 0.62341,16.06842 6.17858,4.46765 16.15488,0.20705 21.98357,-6.31932 7.03742,-7.62604 10.9473,-17.676301 12.40305,-27.849682 1.2954,-8.994107 1.08706,-18.167289 -0.073,-27.164065 C 465.5099,48.78607 461.22373,36.70854 453.39206,27.090077 447.58006,19.798691 439.59644,14.152654 430.56525,11.667926 425.61948,10.262442 420.45239,9.7306566 415.31988,9.8427516 h 7e-4 c -10.12895,0.149034 -20.42016,2.7957524 -28.73448,8.7385874 -8.74588,6.113682 -15.08181,15.383983 -18.05429,25.595742 -3.06485,10.356734 -3.2174,21.369145 -1.9223,32.025176 1.49373,11.802965 5.80499,23.393965 13.31006,32.710993 6.7724,8.52371 15.93306,15.33722 26.45389,18.40325 8.39419,2.45409 7.36161,-14.02774 4.87798,-20.65017 -2.03944,-5.43835 -10.13473,-4.29885 -14.16908,-10.141754 z"
       sodipodi:nodetypes="cccccccccccsacccccsscccccac" />
    <path
       d="m 190.70155,392.73323 c 6.24536,2.51521 12.45203,8.50416 15.38272,15.80777 2.93069,7.30348 2.584,15.9215 -0.19064,22.05604 -2.45334,6.27041 -8.3801,12.53616 -15.65344,15.5391 -7.27464,3.00293 -15.89466,2.74293 -22.05735,0.0288 2.68397,6.15335 2.92539,14.73123 -0.067,21.97391 -2.99197,7.24254 -9.21604,13.14989 -15.46,15.61575 -6.1094,2.78254 -14.68134,3.16212 -21.97207,0.28792 -7.28934,-2.87431 -13.29598,-9.00246 -15.86268,-15.20553 v -8.18229 c 0.87063,8.00722 6.38002,16.1171 13.50401,19.87538 6.94934,4.07146 16.7467,4.47774 24.00804,0.99552 7.4107,-3.15553 13.57469,-10.78155 15.10401,-18.68916 1.88142,-7.83162 -0.57192,-17.32497 -6.01063,-23.26525 6.01863,5.43695 15.62935,7.81095 23.48801,5.80148 7.94133,-1.6496 15.53077,-8.00708 18.54674,-15.53656 3.35596,-7.38442 2.70266,-17.26297 -1.59471,-24.14166 -3.98126,-7.0672 -12.33997,-12.37081 -20.42935,-12.96122 z"
       stroke="#FFBF00"
       stroke-width="0.24"
       fill="none"
       id="path6"
       style="display:inline;stroke:#00a6ff;stroke-width:0.720225;stroke-miterlimit:4;stroke-dasharray:none;stroke-opacity:1"
       inkscape:label="Geldscheinhalter4" />
    <path
       d="m 594.53165,702.65492 c -6.24526,-2.51472 -12.45203,-8.50406 -15.38262,-15.80749 -2.93069,-7.30353 -2.584,-15.92155 0.19064,-22.05605 2.45334,-6.27055 8.38,-12.53631 15.65464,-15.53927 7.27344,-3.00277 15.89476,-2.74275 22.05605,-0.029 -2.68267,-6.15329 -2.92399,-14.73122 0.067,-21.97377 2.99207,-7.24265 9.21604,-13.15002 15.4601,-15.61575 6.1093,-2.78264 14.68264,-3.16212 21.97198,-0.28781 7.29073,2.8742 13.29737,9.0024 15.86407,15.20547 v 8.18226 c -0.87073,-8.00721 -6.38132,-16.11719 -13.50541,-19.87532 -6.94934,-4.07164 -16.7453,-4.47791 -24.00804,-0.9955 -7.4107,3.15542 -13.57329,10.78136 -15.10401,18.6891 -1.88132,7.83157 0.57202,17.32482 6.01073,23.26508 -6.01873,-5.43692 -15.62944,-7.81078 -23.4881,-5.8015 -7.94134,1.64979 -15.53068,8.00721 -18.54664,15.53657 -3.35476,7.38441 -2.70277,17.26304 1.5959,24.14171 3.98006,7.0672 12.34007,12.37036 20.42946,12.96107 z"
       stroke="#FFBF00"
       stroke-width="0.24"
       fill="none"
       id="path8"
       style="display:inline;stroke:#00a6ff;stroke-width:0.720225;stroke-miterlimit:4;stroke-dasharray:none;stroke-opacity:1"
       inkscape:label="Geldscheinhalter3" />
    <path
       d="m 594.53165,392.73323 c -6.24526,2.51521 -12.45203,8.50416 -15.38262,15.80777 -2.93069,7.30348 -2.584,15.9215 0.19064,22.05604 2.45334,6.27041 8.38,12.53616 15.65464,15.5391 7.27344,3.00293 15.89476,2.74293 22.05605,0.0288 -2.68267,6.15335 -2.92399,14.73123 0.067,21.97391 2.99207,7.24254 9.21604,13.14989 15.4601,15.61575 6.1093,2.78254 14.68264,3.16212 21.97198,0.28792 7.29073,-2.87431 13.29737,-9.00246 15.86407,-15.20553 v -8.18229 c -0.87073,8.00722 -6.38132,16.1171 -13.50541,19.87538 -6.94934,4.07146 -16.7453,4.47774 -24.00804,0.99552 -7.4107,-3.15553 -13.57329,-10.78155 -15.10401,-18.68916 -1.88132,-7.83162 0.57202,-17.32497 6.01073,-23.26525 -6.01873,5.43695 -15.62944,7.81095 -23.4881,5.80148 -7.94134,-1.6496 -15.53068,-8.00708 -18.54664,-15.53656 -3.35476,-7.38442 -2.70277,-17.26297 1.5959,-24.14166 3.98006,-7.0672 12.34007,-12.37081 20.42946,-12.96122 z"
       stroke="#FFBF00"
       stroke-width="0.24"
       fill="none"
       id="path50"
       style="display:inline;stroke:#00a6ff;stroke-width:0.720225;stroke-miterlimit:4;stroke-dasharray:none;stroke-opacity:1"
       inkscape:label="Geldscheinhalter2" />
    <path
       d="m 190.70155,702.65492 c 6.24536,-2.51472 12.45203,-8.50406 15.38272,-15.80749 2.93069,-7.30353 2.584,-15.92155 -0.19064,-22.05605 -2.45334,-6.27055 -8.3801,-12.53631 -15.65344,-15.53927 -7.27464,-3.00277 -15.89466,-2.74275 -22.05735,-0.029 2.68397,-6.15329 2.92539,-14.73122 -0.067,-21.97377 -2.99197,-7.24265 -9.21604,-13.15002 -15.46,-15.61575 -6.1094,-2.78264 -14.68134,-3.16212 -21.97207,-0.28781 -7.28934,2.8742 -13.29598,9.0024 -15.86268,15.20547 v 8.18226 c 0.87063,-8.00721 6.38002,-16.11719 13.50401,-19.87532 6.94934,-4.07164 16.7467,-4.47791 24.00804,-0.9955 7.4107,3.15542 13.57469,10.78136 15.10401,18.6891 1.88142,7.83157 -0.57192,17.32482 -6.01063,23.26508 6.01863,-5.43692 15.62935,-7.81078 23.48801,-5.8015 7.94133,1.64979 15.53077,8.00721 18.54674,15.53657 3.35596,7.38441 2.70266,17.26304 -1.59471,24.14171 -3.98126,7.0672 -12.33997,12.37036 -20.42935,12.96107 z"
       stroke="#FFBF00"
       stroke-width="0.24"
       fill="none"
       id="path108"
       style="display:inline;stroke:#00a6ff;stroke-width:0.720225;stroke-miterlimit:4;stroke-dasharray:none;stroke-opacity:1"
       inkscape:label="Geldscheinhalter1" />
    <g
       id="g3065"
       style="display:inline"
       inkscape:label="Umrandung">
      <path
         id="path39250"
         style="font-size:133.375px;line-height:1.25;font-family:'Kristen ITC';-inkscape-font-specification:'Kristen ITC';display:inline;fill:none;stroke:#00a6ff;stroke-width:0.544357;stroke-opacity:1"
         d="m 770.56969,214.22912 c -0.19624,-0.63786 -0.46446,-1.25443 -0.81335,-1.83648 -0.84463,-1.37974 -1.98528,-2.69021 -3.51171,-3.31755 -1.33108,-0.55587 -2.8968,-0.15999 -3.95457,0.77442 -1.08566,0.83815 -1.88541,2.2063 -1.62679,3.61309 0.16035,0.69844 0.51384,1.34251 0.70878,2.03521 0.23632,0.79402 0.55183,1.58029 0.69088,2.39452 -0.025,2.07735 -1.20292,3.92299 -2.45763,5.49484 -1.80304,2.21301 -4.02186,4.25576 -6.80529,5.11072 -2.23951,0.71897 -4.66965,0.56448 -6.91116,-0.0611 2.96208,-2.88307 5.89028,-5.8077 8.62982,-8.90495 1.32319,-1.53965 2.71916,-3.18107 3.15992,-5.21672 0.31421,-1.3212 -0.17124,-2.78161 -1.24121,-3.62593 -1.03408,-0.94794 -2.5917,-1.216 -3.89129,-0.69914 -1.80874,0.67599 -3.13053,2.16391 -4.34615,3.6003 -2.73245,3.13536 -5.39843,6.34461 -8.44578,9.18545 -0.50254,0.48271 -1.00999,0.95979 -1.52523,1.42921 -0.61451,-0.4948 -1.20942,-1.01256 -1.78844,-1.54814 3.26059,-3.4671 6.33433,-7.13605 8.90633,-11.14829 0.94471,-1.5821 1.81194,-3.41398 1.50434,-5.30539 -0.28552,-1.66705 -1.73926,-3.11342 -3.43504,-3.29191 -1.54342,-0.12017 -2.92809,0.86485 -3.89149,1.98181 -2.87211,3.7769 -5.23677,7.93926 -8.44928,11.45356 -1.33878,-2.22016 -2.16642,-4.91378 -1.55541,-7.50076 0.639,-2.76749 2.58639,-5.01907 4.73843,-6.77426 2.60439,-2.13114 5.93845,-3.29867 9.29531,-3.36202 0.9707,-0.0212 1.9163,0.28305 2.87101,0.42923 1.45805,0.29842 3.03676,0.65421 4.46661,0.0398 1.56262,-0.63334 2.46953,-2.33487 2.44024,-3.97699 0.089,-1.34801 -0.58771,-24.81412 -1.70807,-25.56315 -1.78534,-1.25467 -4.04244,-1.51268 -6.16708,-1.58551 -2.41385,-0.0424 -4.8331,22.29226 -7.21276,22.69286 -4.46601,0.85854 -8.41789,3.42656 -11.64609,6.55036 -0.3086,0.29943 -0.619,0.59643 -0.91561,0.90803 -2.71686,2.79834 -4.78052,6.35295 -5.31815,10.25614 -0.49105,3.33395 0.075,6.73694 1.35908,9.83797 -2.83042,-1.67419 -6.00254,-2.78897 -9.30271,-2.92154 -3.5655,-0.20137 -7.67432,1.44802 -8.16827,4.52061 -0.34699,2.15989 1.89432,5.29371 4.45742,4.81677 2.94229,-0.54693 5.96035,0.40042 8.49466,1.87267 2.76214,1.63783 5.1589,3.8505 7.19387,6.32335 2.65917,3.25804 4.43762,7.36099 4.42432,11.60861 0.013,2.35955 -0.78705,4.76122 -2.44624,6.47431 -0.86603,0.90378 -1.84972,1.70488 -2.95318,2.30206 -2.5654,1.43579 -5.72352,1.47541 -8.46817,0.55175 -0.37728,-0.12257 -0.84774,-0.30672 -1.14724,-0.44044 -2.72726,-1.19683 -5.00705,-3.20302 -6.98124,-5.39795 -0.55182,-0.61328 -1.00518,-1.16255 -1.50283,-1.8111 -0.17824,-0.23305 -0.34649,-0.46145 -0.49415,-0.66958 -1.67718,-2.34521 -2.95288,-5.01894 -3.44703,-7.87352 -0.52193,-2.85062 2.14244,-4.85835 1.16174,-7.01675 -1.19443,-2.62795 -5.65344,-7.68199 -7.36781,-4.55121 -2.15143,3.92121 -2.82832,8.53149 -2.32298,12.94596 0.38038,3.53118 1.60311,6.91699 3.38235,9.98 -1.99098,-0.80684 -4.09593,-1.31456 -6.25496,-1.40125 -3.56559,-0.20148 -7.67461,1.44811 -8.16836,4.52051 -0.34699,2.15989 1.89441,5.2953 4.45742,4.81828 2.94228,-0.54695 5.95965,0.39975 8.49386,1.87192 2.76234,1.63783 5.159,3.8505 7.19397,6.32335 2.65927,3.25794 4.42432,7.36097 4.42432,11.60851 0.013,2.35965 -0.78635,4.76222 -2.44564,6.47524 -0.86603,0.9038 -1.84902,1.70413 -2.95228,2.30124 -2.56541,1.43579 -5.72512,1.47549 -8.46987,0.55184 -0.37718,-0.12258 -0.84744,-0.30692 -1.14705,-0.44065 -2.72745,-1.19655 -5.00634,-3.20367 -6.98053,-5.3986 -0.55193,-0.6131 -1.00579,-1.1617 -1.50353,-1.81026 -0.17755,-0.23397 -0.34549,-0.46239 -0.49335,-0.6705 -1.67708,-2.34535 -2.95348,-5.0183 -3.44763,-7.87288 -0.52204,-2.85053 2.14304,-4.8576 1.16224,-7.01571 -1.19453,-2.62803 -5.65324,-7.68381 -7.36751,-4.553 -2.15163,3.92127 -2.82862,8.53157 -2.32298,12.94595 0.42047,3.9052 1.87312,7.63165 3.96937,10.9402 -1.72587,-1.18989 -3.47082,-2.35248 -5.22648,-3.49435 -3.25619,-2.10904 -6.56326,-4.13861 -9.89893,-6.11883 1.46475,-1.55384 2.6067,-3.39662 3.48842,-5.32729 0.76326,-1.67149 1.41586,-3.56476 1.50793,-5.30165 0.30851,-2.94865 -1.98638,-5.25215 -4.46701,-5.013 -1.71117,0.23389 -2.69506,2.07707 -3.38075,3.92507 -1.01958,2.7474 -2.97478,4.86158 -5.00784,6.92936 -2.64668,2.74131 -5.24907,5.59285 -7.15028,8.91703 -0.9783,1.768 -1.81894,3.80612 -1.44586,5.86331 0.31751,1.66174 1.6195,3.10213 3.2337,3.59576 1.33729,0.37052 2.72435,-0.31918 3.59418,-1.32232 1.08787,-1.36477 1.91671,-2.91272 2.9282,-4.33266 0.15295,-0.218 0.41717,-0.59506 0.6158,-0.8728 7.90345,4.40887 15.62485,9.23225 22.5688,15.06147 1.2629,1.07114 2.50092,2.17339 3.69145,3.32443 -3.03326,1.17558 -6.07901,2.40898 -8.82026,4.18308 -1.14864,0.79405 -2.43215,1.69938 -2.80023,3.12657 -0.37059,1.40549 0.40797,2.80611 1.37817,3.77624 0.18474,0.20548 0.25422,0.28643 0.47405,0.45752 H 770.56879 V 785.8038 H 14.661912 l -0.0011,-476.16997 95.478488,-0.051 c 0.9376,-0.19389 1.61179,-0.47744 2.44664,-0.97792 1.37957,-0.84463 2.69016,-1.98517 3.31757,-3.51177 0.55592,-1.33105 0.15985,-2.8968 -0.77436,-3.95454 -0.83834,-1.08573 -2.20642,-1.88532 -3.61328,-1.62685 -0.69839,0.16045 -1.34249,0.51396 -2.03517,0.70886 -0.79405,0.23623 -1.58021,0.55186 -2.39446,0.69085 -2.07745,-0.0249 -3.92298,-1.20288 -5.49499,-2.45758 -2.212918,-1.803 -4.255684,-4.02192 -5.110619,-6.80527 -0.718776,-2.23954 -0.564324,-4.6696 0.06098,-6.91113 2.883005,2.96199 5.807499,5.89031 8.904839,8.62981 1.53972,1.32312 3.18111,2.71905 5.21668,3.15979 1.32129,0.31439 2.78174,-0.17114 3.62608,-1.24118 0.9478,-1.03391 1.21592,-2.59177 0.69908,-3.89131 -0.67599,-1.80869 -2.16393,-3.13034 -3.60038,-4.34609 -3.13523,-2.7325 -6.34463,-5.39829 -9.18535,-8.44568 -0.48275,-0.50271 -0.9598,-1.01012 -1.42926,-1.52538 0.49485,-0.61434 1.01259,-1.2094 1.54812,-1.78836 3.46702,3.26059 7.13608,6.33445 11.14834,8.90643 1.58211,0.94464 3.41404,1.81183 5.30525,1.50433 1.66709,-0.28565 3.11354,-1.73936 3.29208,-3.43519 0.12006,-1.54343 -0.86493,-2.92809 -1.98188,-3.89135 -3.77693,-2.87216 -7.93914,-5.23688 -11.45346,-8.44937 2.22012,-1.33882 4.91368,-2.16643 7.50057,-1.55537 2.76754,0.63886 5.01915,2.58637 6.7744,4.73837 2.13125,2.60444 3.29798,5.93861 3.36196,9.29523 0.021,0.97086 -0.28312,1.91636 -0.42917,2.87113 -0.29881,1.45791 -0.6545,3.03671 -0.04,4.46646 0.63341,1.56265 2.33488,2.46914 3.97707,2.44033 1.34788,0.0898 2.68806,-0.5876 3.43723,-1.70808 1.25461,-1.78528 1.51203,-4.0423 1.58541,-6.167 0.043,-2.4139 -0.16635,-4.83303 -0.56693,-7.2128 -0.85853,-4.46588 -3.42653,-8.41797 -6.55036,-11.64604 -0.29941,-0.30871 -0.59642,-0.61906 -0.90802,-0.91558 -2.79833,-2.71692 -6.35293,-4.78052 -10.25612,-5.31833 -3.33396,-0.49086 -6.7369,0.0748 -9.83804,1.35927 1.67418,-2.83046 2.78953,-6.00261 2.92159,-9.30266 0.20144,-3.56553 -1.44805,-7.67446 -4.52059,-8.16832 -2.15983,-0.34704 -5.293756,1.89429 -4.81681,4.45737 0.54693,2.94222 -0.40037,5.96035 -1.872613,8.49458 -1.637891,2.76224 -3.850404,5.15895 -6.323436,7.19396 -3.257989,2.65916 -7.361015,4.43086 -11.608596,4.42419 -2.359467,0.0136 -4.761221,-0.78703 -6.474289,-2.44618 -0.90372,-0.86607 -1.704871,-1.84969 -2.301986,-2.95317 -1.435854,-2.56531 -1.475441,-5.72352 -0.551828,-8.46811 0.122762,-0.37726 0.306605,-0.84772 0.440463,-1.14738 1.196828,-2.7272 3.203105,-5.00699 5.398024,-6.98111 0.613309,-0.55182 1.162539,-1.00512 1.811037,-1.5028 0.233128,-0.17836 0.461457,-0.34641 0.669593,-0.49423 2.345171,-1.67715 5.018941,-2.95285 7.873455,-3.44701 2.850714,-0.52187 4.858391,2.1424 7.016821,1.16177 2.627884,-1.19452 7.682015,-5.65346 4.551187,-7.36778 -3.921083,-2.15145 -8.531451,-2.82844 -12.94588,-2.32306 -3.531304,0.38031 -6.917053,1.60312 -9.980002,3.38239 0.80685,-1.991 1.314592,-4.09588 1.401265,-6.25501 0.201438,-3.56561 -1.44815,-7.67453 -4.520596,-8.16822 -2.159929,-0.34705 -5.295356,1.89421 -4.818304,4.45737 0.54693,2.94221 -0.399776,5.95952 -1.871819,8.49385 -1.637991,2.76221 -3.850504,5.15895 -6.323436,7.19392 -3.257888,2.65927 -7.360914,4.43098 -11.608495,4.42431 -2.359568,0.0136 -4.762222,-0.78638 -6.47509,-2.44564 -0.903919,-0.86605 -1.704271,-1.84893 -2.301385,-2.95228 -1.435854,-2.56532 -1.475542,-5.72516 -0.551829,-8.46973 0.122762,-0.37727 0.306905,-0.84752 0.440663,-1.14719 1.196529,-2.72747 3.203706,-5.00633 5.398624,-6.98046 0.61301,-0.552 1.161739,-1.00594 1.810138,-1.50365 0.234127,-0.17742 0.462456,-0.34549 0.670692,-0.49325 2.345271,-1.67709 5.018241,-2.95355 7.872655,-3.4477 2.850615,-0.52198 4.857692,2.14315 7.015822,1.16223 2.627984,-1.1944 7.683714,-5.65317 4.552986,-7.36748 -3.921183,-2.15155 -8.531551,-2.82856 -12.94588,-2.32306 -3.905188,0.42058 -7.63173,1.87315 -10.940303,3.96943 1.18993,-1.72598 2.352569,-3.47085 3.494415,-5.22649 2.109045,-3.25605 4.138615,-6.56312 6.1188,-9.89893 1.553817,1.46486 3.396645,2.60664 5.327246,3.48837 1.671481,0.76341 3.564793,1.41606 5.301653,1.50808 2.948685,0.30841 5.252169,-1.98644 5.013044,-4.46711 -0.233928,-1.71114 -2.077055,-2.69505 -3.925081,-3.38078 -2.747347,-1.0195 -4.861491,-2.97467 -6.929249,-5.00776 -2.741349,-2.64665 -5.592963,-5.24906 -8.917131,-7.15033 -1.768051,-0.97821 -3.806118,-1.81887 -5.863279,-1.44576 -1.661784,0.3175 -3.102237,1.61948 -3.595884,3.23355 -0.370485,1.33728 0.319301,2.72461 1.32229,3.59424 1.364876,1.08788 2.912995,1.91675 4.332754,2.92831 0.218033,0.15291 0.595116,0.41716 0.872729,0.6157 -4.408831,7.90331 -9.232133,15.6249 -15.061423,22.56892 -1.071067,1.26269 -2.173425,2.5007 -3.324368,3.69134 -1.175635,-3.03331 -2.408952,-6.07895 -4.183101,-8.82015 -0.793953,-1.14871 -1.699272,-2.43223 -3.126529,-2.80033 -1.405563,-0.37059 -2.806128,0.40798 -3.776227,1.37811 -0.524437,0.47168 -0.925113,1.01532 -1.19073,1.67303 V -80.185797 H 770.61396 l -0.044,294.412637"
         sodipodi:nodetypes="cccccccccccccccccccccccccccccccccccccsscccccccscccsccccsscccccccccccscccccsccsccccccccccccccccccccccccccccccccccccccccccccccccccccccsscccccccccccsccccsscccccccccccscccccsccscccccccccccccccc" />
    </g>
  </g>
  <g
     inkscape:groupmode="layer"
     id="layer5"
     inkscape:label="Falz"
     style="display:none">
    <path
       d="M 3362.4692,828.01419 H 2802.7688"
       stroke="#7FCFFF"
       stroke-width="0.24"
       fill="none"
       id="path154"
       style="display:inline;overflow:visible;stroke:#ffbf00;stroke-width:0.53328;stroke-miterlimit:4;stroke-dasharray:none;stroke-opacity:1"
       transform="matrix(0.99968958,0,0,0.99968958,-2691.7576,-336.75669)" />
    <path
       id="path104"
       style="display:inline;overflow:visible;stroke:#ffbf00;stroke-width:0.720449;stroke-miterlimit:4;stroke-dasharray:none;stroke-opacity:1"
       d="m 2933.1578,911.18977 h -125.7073 m 0,310.01793 h 555.7643 m 0,-310.01793 h -125.7073 m 125.7073,310.01793 V 911.18977 M 2807.4505,1221.2077 V 911.18977"
       transform="matrix(0.99968958,0,0,0.99968958,-2691.7576,-336.75669)" />
  </g>
</svg>
