<?xml version="1.0" encoding="UTF-8" standalone="no"?>
<svg
   width="12in"
   height="12in"
   viewBox="0 0 1152 1152"
   version="1.1"
   id="svg64"
   inkscape:version="1.1.2 (b8e25be833, 2022-02-05)"
   sodipodi:docname="Cameo-Geldscheinrahmen-200.svg"
   xmlns:inkscape="http://www.inkscape.org/namespaces/inkscape"
   xmlns:sodipodi="http://sodipodi.sourceforge.net/DTD/sodipodi-0.dtd"
   xmlns="http://www.w3.org/2000/svg"
   xmlns:svg="http://www.w3.org/2000/svg"
   xmlns:rdf="http://www.w3.org/1999/02/22-rdf-syntax-ns#"
   xmlns:cc="http://creativecommons.org/ns#"
   xmlns:dc="http://purl.org/dc/elements/1.1/">
  <defs
     id="defs58">
    <inkscape:path-effect
       effect="skeletal"
       id="path-effect4720"
       is_visible="true"
       lpeversion="1"
       pattern="m 663.36239,534.93771 q 0,2.98009 -2.68834,2.98009 -1.87558,0 -1.87558,-1.33375 0,-0.45847 0.29176,-1.06283 v -0.0833 q 0,-1.39627 -0.95863,-2.27154 -0.93779,-0.87527 -2.3549,-0.87527 -1.95894,0 -3.6678,1.45878 -1.62551,1.39627 -1.62551,2.79253 0,0.95864 1.02115,1.68803 0.6252,0.43763 2.93841,1.47962 4.52224,2.0423 6.37698,3.93873 2.16734,2.18817 2.16734,5.3975 0,2.93841 -2.08398,5.04323 -2.12566,2.16734 -5.64759,2.60498 -0.47931,2.25069 -0.95863,4.52223 -0.47931,1.37543 -1.9381,1.37543 -2.1465,0 -2.1465,-1.91726 0,-0.91695 0.60436,-4.10544 -5.58507,-1.29207 -5.58507,-5.62675 0,-1.58382 1.04199,-2.64665 1.04199,-1.08367 2.54246,-1.08367 0.89611,0 1.45878,0.56267 0.58352,0.56268 0.58352,1.41711 0,0.47932 -0.81275,0.93779 -0.81276,0.45848 -0.81276,0.93779 0,0.77107 1.20871,1.45879 1.33375,0.75023 3.10513,0.75023 2.2507,0 3.772,-1.20871 1.52131,-1.22955 1.52131,-3.02177 0,-2.85505 -5.58507,-5.58506 -4.31383,-2.10482 -4.95987,-2.60498 -1.95894,-1.47962 -1.95894,-4.00124 0,-2.41741 1.87558,-4.54307 1.95894,-2.22986 5.12659,-3.10513 0.16672,-3.14681 0.66688,-4.293 0.60435,-1.33375 2.18818,-1.33375 0.95863,0 1.56298,0.58352 0.62519,0.56267 0.62519,1.45878 0,0.39596 -0.22923,1.31291 -0.29176,1.20871 -0.37512,1.81306 2.62581,0.50016 4.10544,2.16734 1.47963,1.64634 1.47963,4.02208 z"
       copytype="single_stretched"
       prop_scale="1"
       scale_y_rel="false"
       spacing="0"
       normal_offset="0"
       tang_offset="0"
       prop_units="false"
       vertical_pattern="false"
       hide_knot="false"
       fuse_tolerance="0" />
    <inkscape:path-effect
       effect="skeletal"
       id="path-effect4720-2"
       is_visible="true"
       lpeversion="1"
       pattern="m 663.36239,534.93771 q 0,2.98009 -2.68834,2.98009 -1.87558,0 -1.87558,-1.33375 0,-0.45847 0.29176,-1.06283 v -0.0833 q 0,-1.39627 -0.95863,-2.27154 -0.93779,-0.87527 -2.3549,-0.87527 -1.95894,0 -3.6678,1.45878 -1.62551,1.39627 -1.62551,2.79253 0,0.95864 1.02115,1.68803 0.6252,0.43763 2.93841,1.47962 4.52224,2.0423 6.37698,3.93873 2.16734,2.18817 2.16734,5.3975 0,2.93841 -2.08398,5.04323 -2.12566,2.16734 -5.64759,2.60498 -0.47931,2.25069 -0.95863,4.52223 -0.47931,1.37543 -1.9381,1.37543 -2.1465,0 -2.1465,-1.91726 0,-0.91695 0.60436,-4.10544 -5.58507,-1.29207 -5.58507,-5.62675 0,-1.58382 1.04199,-2.64665 1.04199,-1.08367 2.54246,-1.08367 0.89611,0 1.45878,0.56267 0.58352,0.56268 0.58352,1.41711 0,0.47932 -0.81275,0.93779 -0.81276,0.45848 -0.81276,0.93779 0,0.77107 1.20871,1.45879 1.33375,0.75023 3.10513,0.75023 2.2507,0 3.772,-1.20871 1.52131,-1.22955 1.52131,-3.02177 0,-2.85505 -5.58507,-5.58506 -4.31383,-2.10482 -4.95987,-2.60498 -1.95894,-1.47962 -1.95894,-4.00124 0,-2.41741 1.87558,-4.54307 1.95894,-2.22986 5.12659,-3.10513 0.16672,-3.14681 0.66688,-4.293 0.60435,-1.33375 2.18818,-1.33375 0.95863,0 1.56298,0.58352 0.62519,0.56267 0.62519,1.45878 0,0.39596 -0.22923,1.31291 -0.29176,1.20871 -0.37512,1.81306 2.62581,0.50016 4.10544,2.16734 1.47963,1.64634 1.47963,4.02208 z"
       copytype="single_stretched"
       prop_scale="1"
       scale_y_rel="false"
       spacing="0"
       normal_offset="0"
       tang_offset="0"
       prop_units="false"
       vertical_pattern="false"
       hide_knot="false"
       fuse_tolerance="0" />
    <inkscape:path-effect
       effect="skeletal"
       id="path-effect4720-24"
       is_visible="true"
       lpeversion="1"
       pattern="m 663.36239,534.93771 q 0,2.98009 -2.68834,2.98009 -1.87558,0 -1.87558,-1.33375 0,-0.45847 0.29176,-1.06283 v -0.0833 q 0,-1.39627 -0.95863,-2.27154 -0.93779,-0.87527 -2.3549,-0.87527 -1.95894,0 -3.6678,1.45878 -1.62551,1.39627 -1.62551,2.79253 0,0.95864 1.02115,1.68803 0.6252,0.43763 2.93841,1.47962 4.52224,2.0423 6.37698,3.93873 2.16734,2.18817 2.16734,5.3975 0,2.93841 -2.08398,5.04323 -2.12566,2.16734 -5.64759,2.60498 -0.47931,2.25069 -0.95863,4.52223 -0.47931,1.37543 -1.9381,1.37543 -2.1465,0 -2.1465,-1.91726 0,-0.91695 0.60436,-4.10544 -5.58507,-1.29207 -5.58507,-5.62675 0,-1.58382 1.04199,-2.64665 1.04199,-1.08367 2.54246,-1.08367 0.89611,0 1.45878,0.56267 0.58352,0.56268 0.58352,1.41711 0,0.47932 -0.81275,0.93779 -0.81276,0.45848 -0.81276,0.93779 0,0.77107 1.20871,1.45879 1.33375,0.75023 3.10513,0.75023 2.2507,0 3.772,-1.20871 1.52131,-1.22955 1.52131,-3.02177 0,-2.85505 -5.58507,-5.58506 -4.31383,-2.10482 -4.95987,-2.60498 -1.95894,-1.47962 -1.95894,-4.00124 0,-2.41741 1.87558,-4.54307 1.95894,-2.22986 5.12659,-3.10513 0.16672,-3.14681 0.66688,-4.293 0.60435,-1.33375 2.18818,-1.33375 0.95863,0 1.56298,0.58352 0.62519,0.56267 0.62519,1.45878 0,0.39596 -0.22923,1.31291 -0.29176,1.20871 -0.37512,1.81306 2.62581,0.50016 4.10544,2.16734 1.47963,1.64634 1.47963,4.02208 z"
       copytype="single_stretched"
       prop_scale="1"
       scale_y_rel="false"
       spacing="0"
       normal_offset="0"
       tang_offset="0"
       prop_units="false"
       vertical_pattern="false"
       hide_knot="false"
       fuse_tolerance="0" />
    <inkscape:path-effect
       effect="skeletal"
       id="path-effect4720-3"
       is_visible="true"
       lpeversion="1"
       pattern="m 663.36239,534.93771 q 0,2.98009 -2.68834,2.98009 -1.87558,0 -1.87558,-1.33375 0,-0.45847 0.29176,-1.06283 v -0.0833 q 0,-1.39627 -0.95863,-2.27154 -0.93779,-0.87527 -2.3549,-0.87527 -1.95894,0 -3.6678,1.45878 -1.62551,1.39627 -1.62551,2.79253 0,0.95864 1.02115,1.68803 0.6252,0.43763 2.93841,1.47962 4.52224,2.0423 6.37698,3.93873 2.16734,2.18817 2.16734,5.3975 0,2.93841 -2.08398,5.04323 -2.12566,2.16734 -5.64759,2.60498 -0.47931,2.25069 -0.95863,4.52223 -0.47931,1.37543 -1.9381,1.37543 -2.1465,0 -2.1465,-1.91726 0,-0.91695 0.60436,-4.10544 -5.58507,-1.29207 -5.58507,-5.62675 0,-1.58382 1.04199,-2.64665 1.04199,-1.08367 2.54246,-1.08367 0.89611,0 1.45878,0.56267 0.58352,0.56268 0.58352,1.41711 0,0.47932 -0.81275,0.93779 -0.81276,0.45848 -0.81276,0.93779 0,0.77107 1.20871,1.45879 1.33375,0.75023 3.10513,0.75023 2.2507,0 3.772,-1.20871 1.52131,-1.22955 1.52131,-3.02177 0,-2.85505 -5.58507,-5.58506 -4.31383,-2.10482 -4.95987,-2.60498 -1.95894,-1.47962 -1.95894,-4.00124 0,-2.41741 1.87558,-4.54307 1.95894,-2.22986 5.12659,-3.10513 0.16672,-3.14681 0.66688,-4.293 0.60435,-1.33375 2.18818,-1.33375 0.95863,0 1.56298,0.58352 0.62519,0.56267 0.62519,1.45878 0,0.39596 -0.22923,1.31291 -0.29176,1.20871 -0.37512,1.81306 2.62581,0.50016 4.10544,2.16734 1.47963,1.64634 1.47963,4.02208 z"
       copytype="single_stretched"
       prop_scale="1"
       scale_y_rel="false"
       spacing="0"
       normal_offset="0"
       tang_offset="0"
       prop_units="false"
       vertical_pattern="false"
       hide_knot="false"
       fuse_tolerance="0" />
    <inkscape:path-effect
       effect="skeletal"
       id="path-effect4720-0"
       is_visible="true"
       lpeversion="1"
       pattern="m 663.36239,534.93771 q 0,2.98009 -2.68834,2.98009 -1.87558,0 -1.87558,-1.33375 0,-0.45847 0.29176,-1.06283 v -0.0833 q 0,-1.39627 -0.95863,-2.27154 -0.93779,-0.87527 -2.3549,-0.87527 -1.95894,0 -3.6678,1.45878 -1.62551,1.39627 -1.62551,2.79253 0,0.95864 1.02115,1.68803 0.6252,0.43763 2.93841,1.47962 4.52224,2.0423 6.37698,3.93873 2.16734,2.18817 2.16734,5.3975 0,2.93841 -2.08398,5.04323 -2.12566,2.16734 -5.64759,2.60498 -0.47931,2.25069 -0.95863,4.52223 -0.47931,1.37543 -1.9381,1.37543 -2.1465,0 -2.1465,-1.91726 0,-0.91695 0.60436,-4.10544 -5.58507,-1.29207 -5.58507,-5.62675 0,-1.58382 1.04199,-2.64665 1.04199,-1.08367 2.54246,-1.08367 0.89611,0 1.45878,0.56267 0.58352,0.56268 0.58352,1.41711 0,0.47932 -0.81275,0.93779 -0.81276,0.45848 -0.81276,0.93779 0,0.77107 1.20871,1.45879 1.33375,0.75023 3.10513,0.75023 2.2507,0 3.772,-1.20871 1.52131,-1.22955 1.52131,-3.02177 0,-2.85505 -5.58507,-5.58506 -4.31383,-2.10482 -4.95987,-2.60498 -1.95894,-1.47962 -1.95894,-4.00124 0,-2.41741 1.87558,-4.54307 1.95894,-2.22986 5.12659,-3.10513 0.16672,-3.14681 0.66688,-4.293 0.60435,-1.33375 2.18818,-1.33375 0.95863,0 1.56298,0.58352 0.62519,0.56267 0.62519,1.45878 0,0.39596 -0.22923,1.31291 -0.29176,1.20871 -0.37512,1.81306 2.62581,0.50016 4.10544,2.16734 1.47963,1.64634 1.47963,4.02208 z"
       copytype="single_stretched"
       prop_scale="1"
       scale_y_rel="false"
       spacing="0"
       normal_offset="0"
       tang_offset="0"
       prop_units="false"
       vertical_pattern="false"
       hide_knot="false"
       fuse_tolerance="0" />
  </defs>
  <sodipodi:namedview
     inkscape:snap-page="false"
     id="base"
     pagecolor="#ffffff"
     bordercolor="#666666"
     borderopacity="1.0"
     inkscape:pageopacity="0.0"
     inkscape:pageshadow="2"
     inkscape:zoom="0.56204841"
     inkscape:cx="543.81784"
     inkscape:cy="576.15643"
     inkscape:document-units="mm"
     inkscape:current-layer="layer1"
     inkscape:document-rotation="0"
     showgrid="true"
     inkscape:pagecheckerboard="false"
     inkscape:showpageshadow="false"
     showborder="true"
     inkscape:snap-bbox="false"
     inkscape:bbox-nodes="true"
     inkscape:snap-nodes="true"
     inkscape:bbox-paths="true"
     inkscape:snap-grids="false"
     inkscape:snap-bbox-midpoints="true"
     inkscape:snap-bbox-edge-midpoints="true"
     units="in"
     inkscape:snap-smooth-nodes="true"
     inkscape:window-width="1400"
     inkscape:window-height="943"
     inkscape:window-x="0"
     inkscape:window-y="22"
     inkscape:window-maximized="0"
     inkscape:snap-global="true"
     inkscape:snap-intersection-paths="true"
     inkscape:object-paths="true">
    <inkscape:grid
       originy="1152"
       originx="0"
       visible="true"
       enabled="false"
       opacity="0.1254902"
       color="#ff3fff"
       empspacing="10"
       spacingy="3.7795276"
       spacingx="3.7795276"
       units="mm"
       id="grid42"
       type="xygrid" />
    <inkscape:grid
       originy="1152"
       originx="0"
       opacity="0.1254902"
       color="#fd3fff"
       empspacing="16"
       enabled="true"
       spacingy="6"
       spacingx="6"
       units="in"
       id="grid890"
       type="xygrid" />
  </sodipodi:namedview>
  <metadata
     id="metadata61">
    <rdf:RDF>
      <cc:Work
         rdf:about="">
        <dc:format>image/svg+xml</dc:format>
        <dc:type
           rdf:resource="http://purl.org/dc/dcmitype/StillImage" />
      </cc:Work>
    </rdf:RDF>
  </metadata>
  <g
     inkscape:groupmode="layer"
     id="layer2"
     inkscape:label="Mat_12&quot;x12&quot;"
     style="display:none"
     sodipodi:insensitive="true">
    <rect
       ry="18.897638"
       rx="18.897638"
       y="-76.124939"
       x="-38.329662"
       height="1303.937"
       width="1228.3464"
       id="rect150"
       style="fill:#b3b3b3;stroke:#4d4d4d;stroke-width:3.77953;stroke-miterlimit:4;stroke-dasharray:none" />
    <rect
       y="0"
       x="0"
       height="1150.9313"
       width="1150.9312"
       id="rect152"
       style="fill:#ffffff;stroke:#4d4d4d;stroke-width:1.88976;stroke-miterlimit:4;stroke-dasharray:none" />
    <path
       style="fill:#4d4d4d;stroke:#4d4d4d;stroke-width:1px;stroke-linecap:butt;stroke-linejoin:miter;stroke-opacity:1"
       d="m 563.14961,-34.015748 v 18.897638 h 26.4567 v -18.897638 h 15.11811 l -28.34646,-26.456694 -28.34646,26.456694 z"
       id="path44"
       sodipodi:nodetypes="cccccccc" />
    <text
       xml:space="preserve"
       style="font-style:normal;font-weight:normal;font-size:40px;line-height:1.25;font-family:sans-serif;fill:#4d4d4d;fill-opacity:1;stroke:none"
       x="714.51276"
       y="1200.3906"
       id="text1121"><tspan
         sodipodi:role="line"
         id="tspan1119"
         x="714.51276"
         y="1200.3906">12&quot; x 12&quot; Cutting Mat</tspan></text>
  </g>
  <g
     inkscape:groupmode="layer"
     id="layer3"
     inkscape:label="Grid_1&quot;x1&quot;"
     style="display:none"
     sodipodi:insensitive="true">
    <g
       id="g958"
       style="stroke:#4d4d4d">
      <path
         id="path892"
         d="M 96,0 V 1152"
         style="fill:#808080;stroke:#4d4d4d;stroke-width:1.88976;stroke-linecap:butt;stroke-linejoin:miter;stroke-miterlimit:4;stroke-dasharray:none;stroke-opacity:1" />
      <path
         id="path894"
         d="M 192,0 V 1152"
         style="fill:#808080;stroke:#4d4d4d;stroke-width:1.88976;stroke-linecap:butt;stroke-linejoin:miter;stroke-miterlimit:4;stroke-dasharray:none;stroke-opacity:1" />
      <path
         id="path896"
         d="M 288,0 V 1152"
         style="fill:#808080;stroke:#4d4d4d;stroke-width:1.88976;stroke-linecap:butt;stroke-linejoin:miter;stroke-miterlimit:4;stroke-dasharray:none;stroke-opacity:1" />
      <path
         id="path898"
         d="M 384,0 V 1152"
         style="fill:#808080;stroke:#4d4d4d;stroke-width:1.88976;stroke-linecap:butt;stroke-linejoin:miter;stroke-miterlimit:4;stroke-dasharray:none;stroke-opacity:1" />
      <path
         id="path900"
         d="M 480,0 V 1152"
         style="fill:#808080;stroke:#4d4d4d;stroke-width:1.88976;stroke-linecap:butt;stroke-linejoin:miter;stroke-miterlimit:4;stroke-dasharray:none;stroke-opacity:1" />
      <path
         id="path902"
         d="M 576,0 V 1152"
         style="fill:#808080;stroke:#4d4d4d;stroke-width:1.88976;stroke-linecap:butt;stroke-linejoin:miter;stroke-miterlimit:4;stroke-dasharray:none;stroke-opacity:1" />
      <path
         id="path904"
         d="M 672,0 V 1152"
         style="fill:#808080;stroke:#4d4d4d;stroke-width:1.88976;stroke-linecap:butt;stroke-linejoin:miter;stroke-miterlimit:4;stroke-dasharray:none;stroke-opacity:1" />
      <path
         id="path906"
         d="M 768,0 V 1152"
         style="fill:#808080;stroke:#4d4d4d;stroke-width:1.88976;stroke-linecap:butt;stroke-linejoin:miter;stroke-miterlimit:4;stroke-dasharray:none;stroke-opacity:1" />
      <path
         id="path908"
         d="M 864,0 V 1152"
         style="fill:#808080;stroke:#4d4d4d;stroke-width:1.88976;stroke-linecap:butt;stroke-linejoin:miter;stroke-miterlimit:4;stroke-dasharray:none;stroke-opacity:1" />
      <path
         id="path910"
         d="M 960,0 V 1152"
         style="fill:#808080;stroke:#4d4d4d;stroke-width:1.88976;stroke-linecap:butt;stroke-linejoin:miter;stroke-miterlimit:4;stroke-dasharray:none;stroke-opacity:1" />
      <path
         id="path912"
         d="M 1056,0 V 1152"
         style="fill:#808080;stroke:#4d4d4d;stroke-width:1.88976;stroke-linecap:butt;stroke-linejoin:miter;stroke-miterlimit:4;stroke-dasharray:none;stroke-opacity:1" />
      <path
         id="path914"
         d="M 1152,96 H 0"
         style="fill:#808080;stroke:#4d4d4d;stroke-width:1.88976;stroke-linecap:butt;stroke-linejoin:miter;stroke-miterlimit:4;stroke-dasharray:none;stroke-opacity:1" />
      <path
         id="path916"
         d="M 1152,192 H 0"
         style="fill:#808080;stroke:#4d4d4d;stroke-width:1.88976;stroke-linecap:butt;stroke-linejoin:miter;stroke-miterlimit:4;stroke-dasharray:none;stroke-opacity:1" />
      <path
         id="path918"
         d="M 1152,288 H 0"
         style="fill:#808080;stroke:#4d4d4d;stroke-width:1.88976;stroke-linecap:butt;stroke-linejoin:miter;stroke-miterlimit:4;stroke-dasharray:none;stroke-opacity:1" />
      <path
         id="path920"
         d="M 1152,384 H 0"
         style="fill:#808080;stroke:#4d4d4d;stroke-width:1.88976;stroke-linecap:butt;stroke-linejoin:miter;stroke-miterlimit:4;stroke-dasharray:none;stroke-opacity:1" />
      <path
         id="path922"
         d="M 1152,480 H 0"
         style="fill:#808080;stroke:#4d4d4d;stroke-width:1.88976;stroke-linecap:butt;stroke-linejoin:miter;stroke-miterlimit:4;stroke-dasharray:none;stroke-opacity:1" />
      <path
         id="path924"
         d="M 1152,576 H 0"
         style="fill:#808080;stroke:#4d4d4d;stroke-width:1.88976;stroke-linecap:butt;stroke-linejoin:miter;stroke-miterlimit:4;stroke-dasharray:none;stroke-opacity:1" />
      <path
         id="path926"
         d="M 1152,672 H 0"
         style="fill:#808080;stroke:#4d4d4d;stroke-width:1.88976;stroke-linecap:butt;stroke-linejoin:miter;stroke-miterlimit:4;stroke-dasharray:none;stroke-opacity:1" />
      <path
         id="path928"
         d="M 1152,768 H 0"
         style="fill:#808080;stroke:#4d4d4d;stroke-width:1.88976;stroke-linecap:butt;stroke-linejoin:miter;stroke-miterlimit:4;stroke-dasharray:none;stroke-opacity:1" />
      <path
         id="path930"
         d="M 1152,864 H 0"
         style="fill:#808080;stroke:#4d4d4d;stroke-width:1.88976;stroke-linecap:butt;stroke-linejoin:miter;stroke-miterlimit:4;stroke-dasharray:none;stroke-opacity:1" />
      <path
         id="path932"
         d="M 1152,960 H 0"
         style="fill:#808080;stroke:#4d4d4d;stroke-width:1.88976;stroke-linecap:butt;stroke-linejoin:miter;stroke-miterlimit:4;stroke-dasharray:none;stroke-opacity:1" />
      <path
         id="path934"
         d="M 1152,1056 H 0"
         style="fill:#808080;stroke:#4d4d4d;stroke-width:1.88976;stroke-linecap:butt;stroke-linejoin:miter;stroke-miterlimit:4;stroke-dasharray:none;stroke-opacity:1" />
    </g>
    <g
       id="g1197">
      <text
         id="text962"
         y="18"
         x="81.53125"
         style="font-style:normal;font-weight:normal;font-size:40px;line-height:1.25;font-family:sans-serif;fill:#4d4d4d;fill-opacity:1;stroke:none"
         xml:space="preserve"><tspan
           style="font-size:16px;fill:#4d4d4d"
           y="18"
           x="81.53125"
           id="tspan960"
           sodipodi:role="line">1</tspan><tspan
           id="tspan964"
           y="68"
           x="81.53125"
           sodipodi:role="line" /></text>
      <text
         xml:space="preserve"
         style="font-style:normal;font-weight:normal;font-size:40px;line-height:1.25;font-family:sans-serif;fill:#4d4d4d;fill-opacity:1;stroke:none"
         x="176.86719"
         y="18"
         id="text979"><tspan
           sodipodi:role="line"
           id="tspan975"
           x="176.86719"
           y="18"
           style="font-size:16px;fill:#4d4d4d">2</tspan><tspan
           sodipodi:role="line"
           x="176.86719"
           y="68"
           id="tspan977" /></text>
      <text
         xml:space="preserve"
         style="font-style:normal;font-weight:normal;font-size:40px;line-height:1.25;font-family:sans-serif;fill:#4d4d4d;fill-opacity:1;stroke:none"
         x="273.03125"
         y="17.757812"
         id="text985"><tspan
           sodipodi:role="line"
           id="tspan981"
           x="273.03125"
           y="17.757812"
           style="font-size:16px;fill:#4d4d4d">3</tspan><tspan
           sodipodi:role="line"
           x="273.03125"
           y="67.757812"
           id="tspan983" /></text>
      <text
         id="text991"
         y="18"
         x="368.60156"
         style="font-style:normal;font-weight:normal;font-size:40px;line-height:1.25;font-family:sans-serif;fill:#4d4d4d;fill-opacity:1;stroke:none"
         xml:space="preserve"><tspan
           style="font-size:16px;fill:#4d4d4d"
           y="18"
           x="368.60156"
           id="tspan987"
           sodipodi:role="line">4</tspan><tspan
           id="tspan989"
           y="68"
           x="368.60156"
           sodipodi:role="line" /></text>
      <text
         xml:space="preserve"
         style="font-style:normal;font-weight:normal;font-size:40px;line-height:1.25;font-family:sans-serif;fill:#4d4d4d;fill-opacity:1;stroke:none"
         x="464.96094"
         y="17.757812"
         id="text997"><tspan
           sodipodi:role="line"
           id="tspan993"
           x="464.96094"
           y="17.757812"
           style="font-size:16px;fill:#4d4d4d">5</tspan><tspan
           sodipodi:role="line"
           x="464.96094"
           y="67.757812"
           id="tspan995" /></text>
      <text
         id="text1003"
         y="17.757812"
         x="560.69531"
         style="font-style:normal;font-weight:normal;font-size:40px;line-height:1.25;font-family:sans-serif;fill:#4d4d4d;fill-opacity:1;stroke:none"
         xml:space="preserve"><tspan
           style="font-size:16px;fill:#4d4d4d"
           y="17.757812"
           x="560.69531"
           id="tspan999"
           sodipodi:role="line">6</tspan><tspan
           id="tspan1001"
           y="67.757812"
           x="560.69531"
           sodipodi:role="line" /></text>
      <text
         id="text1009"
         y="18"
         x="656.83594"
         style="font-style:normal;font-weight:normal;font-size:40px;line-height:1.25;font-family:sans-serif;fill:#4d4d4d;fill-opacity:1;stroke:none"
         xml:space="preserve"><tspan
           style="font-size:16px;fill:#4d4d4d"
           y="18"
           x="656.83594"
           id="tspan1005"
           sodipodi:role="line">7</tspan><tspan
           id="tspan1007"
           y="68"
           x="656.83594"
           sodipodi:role="line" /></text>
      <text
         xml:space="preserve"
         style="font-style:normal;font-weight:normal;font-size:40px;line-height:1.25;font-family:sans-serif;fill:#4d4d4d;fill-opacity:1;stroke:none"
         x="752.78125"
         y="17.734375"
         id="text1015"><tspan
           sodipodi:role="line"
           id="tspan1011"
           x="752.78125"
           y="17.734375"
           style="font-size:16px;fill:#4d4d4d">8</tspan><tspan
           sodipodi:role="line"
           x="752.78125"
           y="67.734375"
           id="tspan1013" /></text>
      <text
         id="text1021"
         y="17.773438"
         x="848.88281"
         style="font-style:normal;font-weight:normal;font-size:40px;line-height:1.25;font-family:sans-serif;fill:#4d4d4d;fill-opacity:1;stroke:none"
         xml:space="preserve"><tspan
           style="font-size:16px;fill:#4d4d4d"
           y="17.773438"
           x="848.88281"
           id="tspan1017"
           sodipodi:role="line">9</tspan><tspan
           id="tspan1019"
           y="67.773438"
           x="848.88281"
           sodipodi:role="line" /></text>
      <text
         xml:space="preserve"
         style="font-style:normal;font-weight:normal;font-size:40px;line-height:1.25;font-family:sans-serif;fill:#4d4d4d;fill-opacity:1;stroke:none"
         x="934.69531"
         y="17.757812"
         id="text1027"><tspan
           sodipodi:role="line"
           id="tspan1023"
           x="934.69531"
           y="17.757812"
           style="font-size:16px;fill:#4d4d4d">10</tspan><tspan
           sodipodi:role="line"
           x="934.69531"
           y="67.757812"
           id="tspan1025" /></text>
      <text
         xml:space="preserve"
         style="font-style:normal;font-weight:normal;font-size:40px;line-height:1.25;font-family:sans-serif;fill:#4d4d4d;fill-opacity:1;stroke:none"
         x="1031.3438"
         y="18"
         id="text1033"><tspan
           sodipodi:role="line"
           id="tspan1029"
           x="1031.3438"
           y="18"
           style="font-size:16px;fill:#4d4d4d">11</tspan><tspan
           sodipodi:role="line"
           x="1031.3438"
           y="68"
           id="tspan1031" /></text>
      <text
         id="text1039"
         y="18"
         x="1126.6797"
         style="font-style:normal;font-weight:normal;font-size:40px;line-height:1.25;font-family:sans-serif;fill:#4d4d4d;fill-opacity:1;stroke:none"
         xml:space="preserve"><tspan
           style="font-size:16px;fill:#4d4d4d"
           y="18"
           x="1126.6797"
           id="tspan1035"
           sodipodi:role="line">12</tspan><tspan
           id="tspan1037"
           y="68"
           x="1126.6797"
           sodipodi:role="line" /></text>
      <text
         xml:space="preserve"
         style="font-style:normal;font-weight:normal;font-size:40px;line-height:1.25;font-family:sans-serif;fill:#4d4d4d;fill-opacity:1;stroke:none"
         x="9.2539062"
         y="90"
         id="text1045"><tspan
           sodipodi:role="line"
           id="tspan1041"
           x="9.2539062"
           y="90"
           style="font-size:16px;fill:#4d4d4d">1</tspan><tspan
           sodipodi:role="line"
           x="9.2539062"
           y="140"
           id="tspan1043" /></text>
      <text
         id="text1057"
         y="186"
         x="9.3789062"
         style="font-style:normal;font-weight:normal;font-size:40px;line-height:1.25;font-family:sans-serif;fill:#4d4d4d;fill-opacity:1;stroke:none"
         xml:space="preserve"><tspan
           style="font-size:16px;fill:#4d4d4d"
           y="186"
           x="9.3789062"
           id="tspan1053"
           sodipodi:role="line">2</tspan><tspan
           id="tspan1055"
           y="236"
           x="9.3789062"
           sodipodi:role="line" /></text>
      <text
         id="text1063"
         y="281.75781"
         x="9.4375"
         style="font-style:normal;font-weight:normal;font-size:40px;line-height:1.25;font-family:sans-serif;fill:#4d4d4d;fill-opacity:1;stroke:none"
         xml:space="preserve"><tspan
           style="font-size:16px;fill:#4d4d4d"
           y="281.75781"
           x="9.4375"
           id="tspan1059"
           sodipodi:role="line">3</tspan><tspan
           id="tspan1061"
           y="331.75781"
           x="9.4375"
           sodipodi:role="line" /></text>
      <text
         xml:space="preserve"
         style="font-style:normal;font-weight:normal;font-size:40px;line-height:1.25;font-family:sans-serif;fill:#4d4d4d;fill-opacity:1;stroke:none"
         x="9.5742188"
         y="378"
         id="text1069"><tspan
           sodipodi:role="line"
           id="tspan1065"
           x="9.5742188"
           y="378"
           style="font-size:16px;fill:#4d4d4d">4</tspan><tspan
           sodipodi:role="line"
           x="9.5742188"
           y="428"
           id="tspan1067" /></text>
      <text
         id="text1075"
         y="473.75781"
         x="9.3242188"
         style="font-style:normal;font-weight:normal;font-size:40px;line-height:1.25;font-family:sans-serif;fill:#4d4d4d;fill-opacity:1;stroke:none"
         xml:space="preserve"><tspan
           style="font-size:16px;fill:#4d4d4d"
           y="473.75781"
           x="9.3242188"
           id="tspan1071"
           sodipodi:role="line">5</tspan><tspan
           id="tspan1073"
           y="523.75781"
           x="9.3242188"
           sodipodi:role="line" /></text>
      <text
         xml:space="preserve"
         style="font-style:normal;font-weight:normal;font-size:40px;line-height:1.25;font-family:sans-serif;fill:#4d4d4d;fill-opacity:1;stroke:none"
         x="9.3867188"
         y="569.75781"
         id="text1081"><tspan
           sodipodi:role="line"
           id="tspan1077"
           x="9.3867188"
           y="569.75781"
           style="font-size:16px;fill:#4d4d4d">6</tspan><tspan
           sodipodi:role="line"
           x="9.3867188"
           y="619.75781"
           id="tspan1079" /></text>
      <text
         xml:space="preserve"
         style="font-style:normal;font-weight:normal;font-size:40px;line-height:1.25;font-family:sans-serif;fill:#4d4d4d;fill-opacity:1;stroke:none"
         x="9.390625"
         y="666"
         id="text1087"><tspan
           sodipodi:role="line"
           id="tspan1083"
           x="9.390625"
           y="666"
           style="font-size:16px;fill:#4d4d4d">7</tspan><tspan
           sodipodi:role="line"
           x="9.390625"
           y="716"
           id="tspan1085" /></text>
      <text
         id="text1093"
         y="761.73438"
         x="9.4882812"
         style="font-style:normal;font-weight:normal;font-size:40px;line-height:1.25;font-family:sans-serif;fill:#4d4d4d;fill-opacity:1;stroke:none"
         xml:space="preserve"><tspan
           style="font-size:16px;fill:#4d4d4d"
           y="761.73438"
           x="9.4882812"
           id="tspan1089"
           sodipodi:role="line">8</tspan><tspan
           id="tspan1091"
           y="811.73438"
           x="9.4882812"
           sodipodi:role="line" /></text>
      <text
         xml:space="preserve"
         style="font-style:normal;font-weight:normal;font-size:40px;line-height:1.25;font-family:sans-serif;fill:#4d4d4d;fill-opacity:1;stroke:none"
         x="9.5742188"
         y="857.77344"
         id="text1099"><tspan
           sodipodi:role="line"
           id="tspan1095"
           x="9.5742188"
           y="857.77344"
           style="font-size:16px;fill:#4d4d4d">9</tspan><tspan
           sodipodi:role="line"
           x="9.5742188"
           y="907.77344"
           id="tspan1097" /></text>
      <text
         id="text1105"
         y="953.75781"
         x="3.8359375"
         style="font-style:normal;font-weight:normal;font-size:40px;line-height:1.25;font-family:sans-serif;fill:#4d4d4d;fill-opacity:1;stroke:none"
         xml:space="preserve"><tspan
           style="font-size:16px;fill:#4d4d4d"
           y="953.75781"
           x="3.8359375"
           id="tspan1101"
           sodipodi:role="line">10</tspan><tspan
           id="tspan1103"
           y="1003.7578"
           x="3.8359375"
           sodipodi:role="line" /></text>
      <text
         id="text1111"
         y="1050"
         x="4.1601562"
         style="font-style:normal;font-weight:normal;font-size:40px;line-height:1.25;font-family:sans-serif;fill:#4d4d4d;fill-opacity:1;stroke:none"
         xml:space="preserve"><tspan
           style="font-size:16px;fill:#4d4d4d"
           y="1050"
           x="4.1601562"
           id="tspan1107"
           sodipodi:role="line">11</tspan><tspan
           id="tspan1109"
           y="1100"
           x="4.1601562"
           sodipodi:role="line" /></text>
      <text
         xml:space="preserve"
         style="font-style:normal;font-weight:normal;font-size:40px;line-height:1.25;font-family:sans-serif;fill:#4d4d4d;fill-opacity:1;stroke:none"
         x="3.828125"
         y="1146"
         id="text1117"><tspan
           sodipodi:role="line"
           id="tspan1113"
           x="3.828125"
           y="1146"
           style="font-size:16px;fill:#4d4d4d">12</tspan><tspan
           sodipodi:role="line"
           x="3.828125"
           y="1196"
           id="tspan1115" /></text>
    </g>
  </g>
  <g
     inkscape:label="Layer 1"
     inkscape:groupmode="layer"
     id="layer1"
     transform="translate(0, 181.417)"
     style="display:inline">
    <g
       id="layer2-2"
       inkscape:label="Falz"
       style="display:inline"
       transform="matrix(0.99969 0 0 0.99969 -4862.37 -466.493)" />
    <g
       id="layer4"
       inkscape:label="Randzahlen"
       transform="matrix(0.99969 0 0 0.99969 -4862.37 -466.493)" />
    <g
       id="g2275">
      <path
         d="m 178.1306,396.70771 c 6.24536,2.51521 12.45203,8.50416 15.38132,15.80777 2.93069,7.30348 2.5854,15.9215 -0.19064,22.05604 -2.45204,6.27041 -8.38,12.53616 -15.65334,15.5391 -7.27334,3.00293 -15.89476,2.74293 -22.05745,0.0288 2.68407,6.15335 2.92539,14.73123 -0.067,21.97391 -2.99067,7.24254 -9.21594,13.14989 -15.4586,15.61575 -6.1094,2.78254 -14.68274,3.16212 -21.97208,0.28792 -7.29073,-2.87431 -13.29737,-9.00246 -15.86407,-15.20553 v -8.18229 c 0.87073,8.00722 6.38142,16.1171 13.50541,19.87538 6.94934,4.07146 16.7453,4.47774 24.00804,0.99552 7.4107,-3.15553 13.57339,-10.78155 15.10401,-18.68916 1.88002,-7.83162 -0.57202,-17.32497 -6.01203,-23.26525 6.01873,5.43695 15.63074,7.81095 23.4894,5.80148 7.94134,-1.6496 15.52938,-8.00708 18.54535,-15.53656 3.35605,-7.38442 2.70406,-17.26297 -1.59461,-24.14166 -3.98006,-7.0672 -12.34007,-12.37081 -20.42946,-12.96122 z"
         stroke="#FFBF00"
         stroke-width="0.24"
         fill="none"
         id="path74"
         style="display:inline;stroke:#00a6ff;stroke-width:0.720225;stroke-miterlimit:4;stroke-dasharray:none;stroke-opacity:1" />
      <path
         d="m 604.63676,706.6294 c -6.24536,-2.51472 -12.45203,-8.50406 -15.38272,-15.80749 -2.92929,-7.30353 -2.584,-15.92155 0.19204,-22.05605 2.45194,-6.27055 8.3787,-12.53631 15.65334,-15.53927 7.27334,-3.00277 15.89466,-2.74275 22.05605,-0.029 -2.68267,-6.15329 -2.92399,-14.73122 0.068,-21.97377 2.99067,-7.24265 9.21604,-13.15002 15.4587,-15.61575 6.1094,-2.78264 14.68274,-3.16212 21.97207,-0.28781 7.29064,2.8742 13.29738,9.0024 15.86398,15.20547 v 8.18226 c -0.87063,-8.00721 -6.38132,-16.11719 -13.50531,-19.87532 -6.94934,-4.07164 -16.7454,-4.47791 -24.00804,-0.9955 -7.4107,3.15542 -13.57339,10.78136 -15.10401,18.6891 -1.88002,7.83157 0.57192,17.32482 6.01193,23.26508 -6.01993,-5.43692 -15.63065,-7.81078 -23.48931,-5.8015 -7.94133,1.64979 -15.53077,8.00721 -18.54674,15.53657 -3.35466,7.38441 -2.70266,17.26304 1.59601,24.14171 3.97996,7.0672 12.34007,12.37036 20.42935,12.96107 z"
         stroke="#FFBF00"
         stroke-width="0.24"
         fill="none"
         id="path78"
         style="display:inline;stroke:#00a6ff;stroke-width:0.720225;stroke-miterlimit:4;stroke-dasharray:none;stroke-opacity:1" />
      <path
         d="m 604.63676,396.70771 c -6.24536,2.51521 -12.45203,8.50416 -15.38272,15.80777 -2.92929,7.30348 -2.584,15.9215 0.19204,22.05604 2.45194,6.27041 8.3787,12.53616 15.65334,15.5391 7.27334,3.00293 15.89466,2.74293 22.05605,0.0288 -2.68267,6.15335 -2.92399,14.73123 0.068,21.97391 2.99067,7.24254 9.21604,13.14989 15.4587,15.61575 6.1094,2.78254 14.68274,3.16212 21.97207,0.28792 7.29064,-2.87431 13.29738,-9.00246 15.86398,-15.20553 v -8.18229 c -0.87063,8.00722 -6.38132,16.1171 -13.50531,19.87538 -6.94934,4.07146 -16.7454,4.47774 -24.00804,0.99552 -7.4107,-3.15553 -13.57339,-10.78155 -15.10401,-18.68916 -1.88002,-7.83162 0.57192,-17.32497 6.01193,-23.26525 -6.01993,5.43695 -15.63065,7.81095 -23.48931,5.80148 -7.94133,-1.6496 -15.53077,-8.00708 -18.54674,-15.53656 -3.35466,-7.38442 -2.70266,-17.26297 1.59601,-24.14166 3.97996,-7.0672 12.34007,-12.37081 20.42935,-12.96122 z"
         stroke="#FFBF00"
         stroke-width="0.24"
         fill="none"
         id="path90"
         style="display:inline;stroke:#00a6ff;stroke-width:0.720225;stroke-miterlimit:4;stroke-dasharray:none;stroke-opacity:1" />
      <path
         d="m 178.1306,706.6294 c 6.24536,-2.51472 12.45203,-8.50406 15.38132,-15.80749 2.93069,-7.30353 2.5854,-15.92155 -0.19064,-22.05605 -2.45204,-6.27055 -8.38,-12.53631 -15.65334,-15.53927 -7.27334,-3.00277 -15.89476,-2.74275 -22.05745,-0.029 2.68407,-6.15329 2.92539,-14.73122 -0.067,-21.97377 -2.99067,-7.24265 -9.21594,-13.15002 -15.4586,-15.61575 -6.1094,-2.78264 -14.68274,-3.16212 -21.97208,-0.28781 -7.29073,2.8742 -13.29737,9.0024 -15.86407,15.20547 v 8.18226 c 0.87073,-8.00721 6.38142,-16.11719 13.50541,-19.87532 6.94934,-4.07164 16.7453,-4.47791 24.00804,-0.9955 7.4107,3.15542 13.57339,10.78136 15.10401,18.6891 1.88002,7.83157 -0.57202,17.32482 -6.01203,23.26508 6.01873,-5.43692 15.63074,-7.81078 23.4894,-5.8015 7.94134,1.64979 15.52938,8.00721 18.54535,15.53657 3.35605,7.38441 2.70406,17.26304 -1.59461,24.14171 -3.98006,7.0672 -12.34007,12.37036 -20.42946,12.96107 z"
         stroke="#FFBF00"
         stroke-width="0.24"
         fill="none"
         id="path102"
         style="display:inline;stroke:#00a6ff;stroke-width:0.720225;stroke-miterlimit:4;stroke-dasharray:none;stroke-opacity:1" />
      <path
         d="m 485.79656,313.55795 c 13.5213,16.59656 23.12262,38.83781 25.75201,61.87492 2.62938,23.03698 -1.71337,46.86983 -11.14664,66.08653 -9.10538,19.37471 -24.99474,37.65981 -44.62285,50.0053 -19.6267,12.34546 -42.98935,18.75147 -64.3961,18.56913 -21.40665,0.18234 -44.7694,-6.22367 -64.3961,-18.56913 -19.62671,-12.34549 -35.51738,-30.63059 -44.62145,-50.0053 -9.43467,-19.2167 -13.77602,-43.04955 -11.14664,-66.08653 2.62929,-23.03711 12.2307,-45.27836 25.75201,-61.87492 z"
         stroke="#7FCFFF"
         stroke-width="0.24"
         fill="none"
         id="path112"
         style="display:inline;stroke:#00a6ff;stroke-width:0.720225;stroke-miterlimit:4;stroke-dasharray:none;stroke-opacity:1"
         sodipodi:nodetypes="cscccscscc" />
      <path
         d="m 391.38298,268.20346 c 31.20271,0 62.40412,13.1895 81.92016,31.96872 l 20.48004,-22.24404 c -12.52001,-11.55469 -28.0054,-21.76991 -45.56545,-28.87152 -17.56135,-7.10162 -37.19735,-11.08936 -56.83475,-11.08936 -19.636,0 -39.27211,3.98774 -56.83345,11.08936 -17.56005,7.10161 -33.04534,17.31683 -45.56605,28.87152 l 20.47934,22.24404 c 19.51734,-18.77922 50.71875,-31.96872 81.92016,-31.96872 z"
         stroke="#7FCFFF"
         stroke-width="0.24"
         fill="none"
         id="path136"
         style="display:inline;stroke:#00a6ff;stroke-width:0.720225;stroke-miterlimit:4;stroke-dasharray:none;stroke-opacity:1"
         sodipodi:nodetypes="scccscccs" />
      <path
         d="m 523.61792,313.55795 c 12.69736,21.86831 20.16674,48.9869 20.08006,76.08108 -0.087,27.09419 -7.732,54.16397 -20.56941,75.95015 -12.54271,21.95725 -32.24939,42.02812 -55.72939,55.55002 -23.47871,13.522 -50.72945,20.49504 -76.0162,20.32469 -25.28675,0.17035 -52.53609,-6.80269 -76.0161,-20.32469 -23.47871,-13.5219 -43.18549,-33.59277 -55.72819,-55.55002 -12.83732,-21.78618 -20.48264,-48.85596 -20.56931,-75.95015 -0.088,-27.09418 7.3827,-54.21277 20.08006,-76.08108 h 2.61859 c -12.74395,21.51231 -20.34399,48.29329 -20.43066,75.09908 -0.088,26.80565 7.33602,53.6361 19.93741,75.23148 12.30668,21.76541 31.74264,41.69492 54.94274,55.12305 23.2,13.42843 50.16272,20.35538 75.16546,20.18473 25.00404,0.17065 51.96676,-6.7563 75.16686,-20.18473 23.1987,-13.42813 42.63606,-33.35764 54.94274,-55.12305 12.60139,-21.59538 20.02538,-48.42583 19.93741,-75.23148 -0.088,-26.80579 -7.68672,-53.58677 -20.43076,-75.09908 z"
         stroke="#7FCFFF"
         stroke-width="0.24"
         fill="none"
         id="path260"
         style="display:inline;stroke:#00a6ff;stroke-width:0.720225;stroke-miterlimit:4;stroke-dasharray:none;stroke-opacity:1" />
      <path
         d="m 116.2008,674.16318 q 2.43379,3.14087 5.26717,0.94535 1.97677,-1.53176 0.88752,-2.93746 -0.37443,-0.48321 -1.1755,-0.8819 l -0.068,-0.0878 q -1.14031,-1.4716 -0.84478,-3.17699 0.27357,-1.68837 1.76713,-2.8457 2.06463,-1.59984 5.05705,-1.45795 2.85351,0.14407 3.99382,1.61566 0.7829,1.01036 0.30234,2.61306 -0.30152,0.97183 -1.88856,3.9592 -3.0983,5.84572 -3.50433,9.3592 -0.49722,4.07626 2.12378,7.45873 2.39976,3.09694 6.31514,3.61337 4.01037,0.54828 8.07973,-1.86678 2.34327,1.98068 4.70358,3.98332 1.62846,1.05819 3.16595,-0.13318 2.26231,-1.75301 0.69651,-3.77371 -0.74886,-0.96642 -3.98981,-3.83336 4.83118,-5.92302 1.29112,-10.49156 -1.29348,-1.66927 -3.25969,-1.93846 -1.98322,-0.29116 -3.56464,0.93425 -0.94446,0.73184 -1.07796,1.78439 -0.15547,1.06959 0.54233,1.97011 0.39145,0.50518 1.62248,0.32463 1.23104,-0.18055 1.62248,0.32461 0.62972,0.81267 -0.0825,2.52463 -0.793,1.87996 -2.65995,3.32662 -2.37213,1.83811 -4.96264,1.80661 -2.60754,-0.0535 -4.07121,-1.94237 -2.33168,-3.00909 1.32516,-10.44762 2.82759,-5.74141 3.10001,-6.79616 0.85625,-3.15929 -1.20312,-5.81695 -1.97426,-2.54783 -5.68702,-3.25642 -3.88571,-0.75033 -7.93908,0.91415 -2.74566,-3.18043 -4.20888,-3.97998 -1.72621,-0.91215 -3.39549,0.38134 -1.01035,0.7829 -1.17075,1.89146 -0.1994,1.10361 0.53244,2.04807 0.32337,0.41732 1.31383,1.19653 1.29463,1.03565 1.87605,1.60453 -2.359,2.6716 -2.5569,5.63711 -0.21492,2.94355 1.72531,5.44747 z"
         style="font-size:42.6799px;line-height:1.25;font-family:'Kristen ITC';-inkscape-font-specification:'Kristen ITC';fill:none;stroke:#00a6ff;stroke-width:1.33375;stroke-opacity:1"
         id="path4861" />
      <path
         d="m 663.54833,671.31768 q -2.43379,3.14087 -5.26717,0.94535 -1.97677,-1.53176 -0.88751,-2.93747 0.37442,-0.4832 1.17549,-0.88189 l 0.068,-0.0878 q 1.14031,-1.4716 0.84478,-3.17699 -0.27356,-1.68836 -1.76713,-2.8457 -2.06462,-1.59983 -5.05704,-1.45794 -2.85352,0.14407 -3.99382,1.61566 -0.78291,1.01036 -0.30235,2.61305 0.30153,0.97184 1.88856,3.9592 3.09831,5.84573 3.50433,9.35921 0.49723,4.07625 -2.12378,7.45873 -2.39975,3.09694 -6.31514,3.61336 -4.01037,0.54828 -8.07972,-1.86677 -2.34327,1.98067 -4.70358,3.98331 -1.62846,1.05819 -3.16596,-0.13318 -2.2623,-1.75301 -0.69651,-3.77371 0.74886,-0.96642 3.98981,-3.83336 -4.83117,-5.92301 -1.29111,-10.49155 1.29348,-1.66927 3.25968,-1.93847 1.98322,-0.29116 3.56464,0.93425 0.94446,0.73184 1.07796,1.78439 0.15547,1.06959 -0.54233,1.97012 -0.39145,0.50518 -1.62247,0.32462 -1.23104,-0.18055 -1.62249,0.32462 -0.62972,0.81267 0.0825,2.52463 0.79301,1.87995 2.65996,3.32661 2.37212,1.83811 4.96263,1.80661 2.60754,-0.0535 4.07122,-1.94237 2.33167,-3.00908 -1.32516,-10.44761 -2.8276,-5.74141 -3.10002,-6.79617 -0.85624,-3.15928 1.20312,-5.81694 1.97426,-2.54783 5.68702,-3.25642 3.88572,-0.75033 7.93909,0.91415 2.74566,-3.18043 4.20888,-3.97998 1.7262,-0.91215 3.39548,0.38134 1.01035,0.7829 1.17076,1.89146 0.19939,1.10361 -0.53245,2.04807 -0.32337,0.41732 -1.31383,1.19653 -1.29463,1.03565 -1.87605,1.60452 2.359,2.6716 2.5569,5.63712 0.21492,2.94355 -1.72531,5.44746 z"
         style="font-size:42.6799px;line-height:1.25;font-family:'Kristen ITC';-inkscape-font-specification:'Kristen ITC';fill:none;stroke:#00a6ff;stroke-width:1.33375;stroke-opacity:1"
         id="path5377" />
      <path
         d="m 631.01114,428.75197 q 2.43379,3.14087 5.26717,0.94535 1.97677,-1.53176 0.88752,-2.93746 -0.37443,-0.48321 -1.1755,-0.8819 l -0.068,-0.0878 q -1.14031,-1.4716 -0.84478,-3.17699 0.27357,-1.68837 1.76713,-2.8457 2.06463,-1.59984 5.05705,-1.45795 2.85351,0.14407 3.99382,1.61566 0.7829,1.01036 0.30234,2.61306 -0.30152,0.97183 -1.88856,3.9592 -3.0983,5.84572 -3.50433,9.3592 -0.49722,4.07626 2.12378,7.45873 2.39976,3.09694 6.31514,3.61337 4.01037,0.54828 8.07973,-1.86678 2.34327,1.98068 4.70358,3.98332 1.62846,1.05819 3.16595,-0.13318 2.26231,-1.75301 0.69651,-3.77371 -0.74886,-0.96642 -3.98981,-3.83336 4.83118,-5.92302 1.29112,-10.49156 -1.29348,-1.66927 -3.25969,-1.93846 -1.98322,-0.29116 -3.56464,0.93425 -0.94446,0.73184 -1.07796,1.78439 -0.15547,1.06959 0.54233,1.97011 0.39145,0.50518 1.62248,0.32463 1.23104,-0.18055 1.62248,0.32461 0.62972,0.81267 -0.0825,2.52463 -0.793,1.87996 -2.65995,3.32662 -2.37213,1.83811 -4.96264,1.80661 -2.60754,-0.0535 -4.07121,-1.94237 -2.33168,-3.00909 1.32516,-10.44762 2.82759,-5.74141 3.10001,-6.79616 0.85625,-3.15929 -1.20312,-5.81695 -1.97426,-2.54783 -5.68702,-3.25642 -3.88571,-0.75033 -7.93908,0.91415 -2.74566,-3.18043 -4.20888,-3.97998 -1.72621,-0.91215 -3.39549,0.38134 -1.01035,0.7829 -1.17075,1.89146 -0.1994,1.10361 0.53244,2.04807 0.32337,0.41732 1.31383,1.19653 1.29463,1.03565 1.87605,1.60453 -2.359,2.6716 -2.5569,5.63711 -0.21492,2.94355 1.72531,5.44747 z"
         style="font-size:42.6799px;line-height:1.25;font-family:'Kristen ITC';-inkscape-font-specification:'Kristen ITC';fill:none;stroke:#00a6ff;stroke-width:1.33375;stroke-opacity:1"
         id="path5887" />
      <path
         d="m 146.99403,429.38162 q -2.43379,3.14087 -5.26717,0.94535 -1.97677,-1.53176 -0.88751,-2.93747 0.37442,-0.4832 1.17549,-0.88189 l 0.068,-0.0878 q 1.14031,-1.4716 0.84478,-3.17699 -0.27356,-1.68836 -1.76713,-2.8457 -2.06462,-1.59983 -5.05704,-1.45794 -2.85352,0.14407 -3.99382,1.61566 -0.78291,1.01036 -0.30235,2.61305 0.30153,0.97184 1.88856,3.9592 3.09831,5.84573 3.50433,9.35921 0.49723,4.07625 -2.12378,7.45873 -2.39975,3.09694 -6.31514,3.61336 -4.01037,0.54828 -8.07972,-1.86677 -2.34327,1.98067 -4.70358,3.98331 -1.62846,1.05819 -3.16596,-0.13318 -2.2623,-1.75301 -0.69651,-3.77371 0.74886,-0.96642 3.98981,-3.83336 -4.83117,-5.92301 -1.29111,-10.49155 1.29348,-1.66927 3.25968,-1.93847 1.98322,-0.29116 3.56464,0.93425 0.94446,0.73184 1.07796,1.78439 0.15547,1.06959 -0.54233,1.97012 -0.39145,0.50518 -1.62247,0.32462 -1.23104,-0.18055 -1.62249,0.32462 -0.62972,0.81267 0.0826,2.52463 0.79301,1.87995 2.65996,3.32661 2.37212,1.83811 4.96263,1.80661 2.60754,-0.0535 4.07122,-1.94237 2.33167,-3.00908 -1.32516,-10.44761 -2.8276,-5.74141 -3.10002,-6.79617 -0.85624,-3.15928 1.20312,-5.81694 1.97426,-2.54783 5.68702,-3.25642 3.88572,-0.75033 7.93909,0.91415 2.74566,-3.18043 4.20888,-3.97998 1.7262,-0.91215 3.39548,0.38134 1.01035,0.7829 1.17076,1.89146 0.19939,1.10361 -0.53245,2.04807 -0.32337,0.41732 -1.31383,1.19653 -1.29463,1.03565 -1.87605,1.60452 2.359,2.6716 2.5569,5.63712 0.21492,2.94355 -1.72531,5.44746 z"
         style="font-size:42.6799px;line-height:1.25;font-family:'Kristen ITC';-inkscape-font-specification:'Kristen ITC';fill:none;stroke:#00a6ff;stroke-width:1.33375;stroke-opacity:1"
         id="path6397" />
      <path
         id="path7108"
         style="font-stretch:semi-expanded;font-size:32.0099px;line-height:1.25;font-family:'Kristen ITC';-inkscape-font-specification:'Kristen ITC Semi-Expanded';fill:none;stroke:#00a6ff;stroke-width:1.33375;stroke-opacity:1"
         d="m 241.23839,723.83198 c -0.13871,0 -0.27862,0 -0.41933,0 -2.41382,-0.06 -4.3791,2.01303 -4.7072,4.31388 -0.45774,3.59419 -0.34557,7.23933 -0.47415,10.85753 0.0267,0.78824 0.16672,1.69399 -0.89601,1.41964 -4.40138,0.18979 -8.80809,0.20393 -13.21253,0.15632 0.19713,-3.73037 0.64247,-7.44953 0.79198,-11.17789 0.044,-2.30673 -1.70386,-4.58477 -4.08728,-4.72815 -2.41448,-0.36771 -4.84137,1.30348 -5.43143,3.66008 -0.58871,2.18722 -0.4468,4.49647 -0.71635,6.7365 -0.2062,2.16054 1.69906,3.57859 -0.50536,6.51497 -1.09848,2.27911 -2.0297,6.08644 -2.39395,10.09436 -2.6611,0.16405 -5.86957,1.32601 -6.85627,2.71431 -0.96484,1.40391 -2.08919,2.80554 -3.78505,3.33184 -2.90158,0.98818 -6.11578,1.10448 -9.09925,0.42467 -2.69964,-0.60112 -4.76708,-2.86143 -5.44436,-5.49919 -0.9663,-3.56725 -0.98164,-7.42805 -0.0187,-10.99823 0.9371,-3.5071 3.80159,-6.65342 7.52836,-7.09862 3.58672,-0.63847 7.16544,0.80812 9.98498,2.95412 1.87579,1.43392 4.73015,0.99244 6.17633,-0.83359 1.6956,-1.77629 1.47793,-4.76256 -0.2266,-6.45522 -3.81893,-4.04166 -9.64755,-5.50425 -15.05417,-5.26458 -5.19709,0.14218 -10.32523,2.46691 -13.65267,6.49937 -0.99777,1.14969 -1.83124,2.40608 -2.52172,3.73303 -0.1227,-1.10141 -0.27422,-2.2351 -0.41146,-3.34745 -0.82532,-4.29987 -1.74695,-5.76566 -4.09768,-6.9371 -0.72396,-0.37678 -1.55662,-0.52429 -2.36794,-0.48188 -1.14342,0.028 -2.2359,0.53377 -3.05042,1.32588 -4.57956,-1.81017 -9.99686,-1.26826 -14.22844,1.20878 -4.40818,2.59588 -7.25374,7.4834 -7.50235,12.57419 -0.30209,3.9507 0.43841,8.42944 3.64701,11.09467 0.66847,0.44147 1.04112,0.73303 0.13071,1.04979 -0.69115,0.49442 -1.18397,1.12022 -1.54222,1.82084 -1.51501,-0.62793 -3.38626,-0.57458 -5.30899,0.8544 -2.29378,0.7593 -4.33202,2.25417 -6.78852,2.53212 -2.58388,0.47615 -5.21603,0.615 -7.83845,0.68248 0.19673,-2.50598 0.30543,-5.01836 0.37252,-7.53102 3.08696,-0.0187 6.22701,0.21741 9.27116,-0.38812 2.26444,-0.4472 4.00205,-2.70698 3.60272,-5.02757 -0.13457,-2.31592 -2.35753,-4.03232 -4.60557,-3.95963 -2.69084,0.10803 -5.38861,0.34144 -8.08599,0.19806 0.0173,-2.18402 0.0427,-4.3675 0.0467,-6.55165 5.09653,0.75837 9.7057,1.12529 10.72735,0.60446 2.46811,-1.0474 3.66035,-4.467 1.96928,-6.67396 -3.66741,-4.43125 -13.91781,-3.75744 -20.36049,-3.68875 -2.15921,0.044 -4.71974,0.59699 -5.72579,2.74833 -1.1873,2.31472 -0.13071,5.64683 2.48784,6.39786 0.50323,0.33624 1.66546,-0.08 1.43005,0.79705 0.028,3.20073 0.0493,6.40614 0.0187,9.6098 -2.84448,-1.22331 -7.29628,-1.79429 -9.66702,-2.17001 -4.36163,-0.6334 -8.703115,-1.46632 -12.996323,-0.67728 -2.467971,0.49549 -5.309258,1.76242 -5.928919,4.45713 -0.618726,2.83315 1.878721,6.00681 4.853117,5.61896 1.766952,-0.24501 3.440408,-1.03219 5.246439,-1.03153 -0.800651,2.78967 -1.806965,5.98134 -4.498873,7.49968 -2.736721,1.33962 -6.560049,0.651 -8.184823,-2.08399 -2.009295,-3.24701 -1.985821,-7.28374 -1.604635,-10.95915 0.404393,-3.59593 2.247636,-7.30322 5.684043,-8.84903 3.371053,-1.4914 7.34336,-1.57596 10.823644,-0.40386 1.81337,0.71582 3.66381,2.19402 5.71806,1.45885 2.82515,-0.79425 4.33348,-4.52421 2.63095,-6.98658 -1.68813,-2.38968 -4.65385,-3.406 -7.3695,-4.12102 -1.91166,-0.44974 -3.879346,-0.6234 -5.840358,-0.62526 -5.702448,-0.056 -11.648839,1.73321 -15.663694,5.94199 -4.454591,4.45179 -6.078832,10.95435 -5.996673,17.09387 -0.02667,5.60869 1.530745,11.57415 5.754331,15.50484 4.213316,4.03993 10.795239,5.04025 16.208263,3.12591 1.466592,-0.5315 2.817147,-1.35469 4.006451,-2.36007 0.89681,2.15201 3.44068,3.5151 5.69445,2.68057 2.18468,-0.62846 2.48504,-3.08002 3.01921,-5.36887 0.64913,-4.35016 1.97635,-5.31753 2.09705,-8.32554 2.41822,1.13676 4.23492,1.5969 5.59282,1.5917 -0.0587,0.78598 -0.11871,1.57236 -0.19273,2.3574 -0.36091,0.34238 -1.2844,0.24035 -1.77922,0.65914 -2.63216,1.25586 -3.38666,5.28592 -1.13316,7.2496 2.25577,1.93887 5.43837,1.47219 8.19269,1.53955 7.1289,-0.0293 15.39001,0.91588 21.92605,-2.25844 0.31997,-0.15552 0.69249,-0.38652 1.08114,-0.64874 -0.0133,1.43432 0.0133,2.86757 0.10137,4.29561 0.18446,2.30752 2.22002,4.29748 4.56916,4.22532 2.20962,0.16699 4.41404,-1.43831 4.71507,-3.67568 0.11737,-0.70315 -0.1067,-1.62104 0.91949,-1.09661 4.34416,0.51403 6.9355,0.27742 9.98232,-3.12084 2.84715,-3.14325 2.92211,-8.03504 1.1697,-11.725 -1.61518,-3.36411 -2.85076,-5.61708 -6.20768,-6.7417 -2.0277,-0.79572 -4.28267,-1.26013 -6.02535,-2.61535 -0.95816,-1.64172 -0.79624,-3.76238 -0.22927,-5.51733 0.98538,-2.74912 4.06754,-4.274 6.88242,-3.8372 0.89521,0.1027 1.76095,0.40346 2.55546,0.82319 0.0574,2.37075 3.49616,7.86286 5.9472,8.71113 1.15222,0.41746 2.52012,0.33637 3.68341,-0.15378 -0.2102,1.8275 -0.24941,3.67448 -0.13337,5.48878 0.24901,5.59895 2.27644,11.4281 6.75984,15.02802 4.64252,3.84587 11.07786,4.57343 16.86474,3.71997 3.56404,-0.54271 9.03989,-2.68764 12.78519,-5.40529 0.87441,2.62362 2.37621,4.57303 4.73842,5.1344 2.30218,0.6306 5.07038,-0.55964 5.75179,-2.95145 0.80746,-2.74593 0.28729,-5.64963 0.4116,-8.46625 0.0133,-2.05984 0.048,-4.12049 0.12004,-6.179 4.8279,0.12404 9.65715,0.12404 14.48625,0.10137 0.064,4.18717 -0.15151,8.39035 0.19273,12.56646 0.12137,2.16854 1.79843,4.18797 4.02739,4.34762 1.63678,0.27836 3.95617,-0.10003 5.36355,-1.16436 0.70088,0.3293 1.46459,0.53777 2.21162,0.59125 3.92896,0.24448 12.89029,0.50296 16.82045,0.32824 3.73157,-0.26008 10.84072,-0.29223 16.15078,-1.29201 0.74584,1.50767 2.12067,2.69151 3.87361,2.7482 2.35874,0.29582 4.55903,-1.57983 4.88179,-3.88922 0.37279,-3.12191 1.55969,-6.83053 2.27418,-10.26094 0.7397,-3.55151 1.58556,-7.03033 2.08132,-10.68307 3.76998,7.11382 7.99423,14.02825 13.02754,20.32408 1.75468,2.19869 4.35722,4.31855 7.35389,3.83707 0.25608,-0.028 0.53244,-0.10137 0.81799,-0.19793 -0.35744,1.15329 -0.4364,2.17321 0.10937,2.78727 1.69906,2.10759 11.09707,-0.48588 12.81133,-2.49038 2.30606,-2.61055 2.72619,-6.24795 3.27183,-9.55498 0.34184,-2.32673 0.57618,-4.66813 0.78411,-7.01006 0.57618,-0.23887 1.11448,-0.93802 1.68799,-0.94043 5.65684,3.27436 10.0206,8.40183 13.36871,13.94196 1.14663,1.75228 5.68805,5.85036 7.95822,6.26756 2.22336,0.60512 4.6796,-0.69835 5.57734,-2.74566 0.18299,0.0293 0.36799,0.0627 0.54964,0.076 3.92883,0.24448 10.20973,-0.74223 14.13975,-0.91695 5.0984,-0.35451 10.34443,-1.19677 14.84331,-3.75371 1.91459,-1.08513 3.46094,-3.33517 2.74552,-5.59027 -0.65607,-2.52466 -3.66234,-3.96164 -6.06429,-2.98801 -2.27005,0.81386 -4.32776,2.24564 -6.78079,2.51906 -2.54559,0.45187 -7.30228,1.5945 -9.88335,1.65932 0.20446,-2.50545 1.45459,-5.58682 2.53986,-8.53387 3.0879,-0.0187 6.22874,0.21727 9.27383,-0.38812 2.25737,-0.44747 3.99711,-2.69511 3.60259,-5.01197 -0.12404,-2.31925 -2.35153,-4.05006 -4.60557,-3.97524 -2.69084,0.10804 -5.38862,0.34411 -8.08586,0.2006 0.0173,-2.18402 0.0427,-4.37003 0.0467,-6.55418 2.90491,0.24074 6.04736,0.41573 9.00281,1.12795 1.95995,0.56017 4.01206,2.01783 6.08004,1.01338 2.47117,-1.04419 3.66674,-4.47006 1.97194,-6.67648 -1.78322,-2.32566 -4.83324,-3.03322 -7.52848,-3.74344 -5.62296,-1.28827 -11.44211,-1.55462 -17.19284,-1.47966 -1.79056,0.82492 -2.13427,0.59685 -3.13898,2.74832 -1.16156,2.26911 -0.18326,5.52533 2.35234,6.35092 0.47414,0.37905 1.65891,-0.0347 1.56035,0.71116 0.068,7.74868 -4.78429,16.35657 -5.52519,24.07779 -0.87134,0.048 -1.68026,0.38452 -2.35754,0.90401 -0.02,-0.0347 -0.0427,-0.0707 -0.0627,-0.10403 -3.47682,-5.1264 -11.13467,-11.70566 -16.22386,-15.27557 3.91602,-3.34171 7.97062,-6.7041 10.81844,-11.04772 1.37283,-2.05771 2.17788,-5.07892 0.45855,-7.17411 -1.74788,-2.12706 -5.24244,-1.84177 -7.06995,0.0494 -2.33473,2.59948 -4.40324,5.45557 -6.98391,7.83578 -2.16321,2.10399 -4.47767,4.04993 -6.89029,5.8613 -0.16592,-3.52217 0.064,-7.09955 -0.64593,-10.57104 -0.50629,-2.51972 -2.40862,-4.96795 -5.21777,-4.78282 v 0 c -2.2619,-0.0574 -4.31895,1.76628 -4.52488,4.02205 -0.17032,2.2327 0.33064,4.4626 0.43241,6.69476 0.1227,1.33188 0.22927,2.99907 0.28395,4.12636 0.2078,5.14854 -1.19771,10.22852 -2.69097,15.27037 -0.1107,-0.47909 -0.21047,-0.92696 -0.35425,-1.49527 -0.98084,-5.08546 -2.13653,-9.68236 -3.03748,-14.55655 -0.5331,-2.88477 -0.89468,-5.72419 -1.40137,-8.68765 -0.35384,-2.06878 -0.86054,-4.65318 -3.19113,-5.2387 -0.52056,-0.13591 -1.0586,-0.20606 -1.5969,-0.17712 -2.39288,0.04 -4.72548,2.15401 -4.54048,4.24613 0.47134,5.32859 0.88094,7.90673 1.63597,11.80835 0.56165,2.90251 1.15917,5.95026 2.14654,8.60429 -4.81124,-7.07114 -9.48336,-13.83019 -12.87122,-21.61355 -0.8556,-2.07599 -3.27796,-3.38519 -5.46011,-2.65443 -2.74112,0.74957 -3.97124,3.63193 -4.59517,6.15299 -1.42711,5.74646 -3.0132,11.39075 -4.13675,17.16936 -0.36652,1.88539 -0.82466,3.81959 -1.23986,5.75446 -2.44903,0.86454 -9.47923,3.0883 -11.87357,3.35519 -2.54547,0.4516 -5.13494,0.59445 -7.71588,0.659 0.20126,-2.50571 0.30303,-5.02103 0.37252,-7.53355 3.08776,-0.0187 6.22861,0.21713 9.27369,-0.38812 2.25657,-0.44948 3.99765,-2.69364 3.60273,-5.01197 -0.12537,-2.31859 -2.35447,-4.04993 -4.60824,-3.97524 -2.69084,0.10803 -5.38608,0.34397 -8.08333,0.2006 0.0173,-2.18402 0.0427,-4.37004 0.0467,-6.55419 2.90504,0.24075 6.04736,0.41587 9.00282,1.12796 1.96021,0.56017 1.50833,1.01605 3.57658,0.0133 2.47171,-1.04459 3.66875,-4.46912 1.97462,-6.67648 -1.81497,-2.359 -2.42023,-2.05878 -5.15788,-2.7718 -5.58468,-1.26106 -11.35448,-1.52354 -17.06266,-1.44832 v 0 c -2.15161,0.0467 -2.88984,-0.23541 -3.90482,1.90166 -1.19891,2.31179 0.84693,5.65724 3.47241,6.41614 -0.72396,7.71801 -2.27191,13.9917 -2.93051,21.1394 -1.05166,0.0574 -2.69924,1.07381 -4.25133,2.41996 -0.10803,-5.35541 -1.31268,-11.24645 -1.18277,-16.57545 l 0.0413,-1.64638 c 0.0947,-2.94118 0.20579,-5.80861 0.35424,-8.76834 -0.0187,-0.41066 -0.001,-1.30507 -0.17712,-1.89646 -0.38812,-2.07264 -2.21203,-3.63473 -4.29308,-3.70942 z" />
      <path
         id="path7110"
         style="font-stretch:semi-expanded;font-size:32.0099px;line-height:1.25;font-family:'Kristen ITC';-inkscape-font-specification:'Kristen ITC Semi-Expanded';fill:none;stroke:#00a6ff;stroke-width:1.33375;stroke-opacity:1"
         d="m 469.24202,723.75116 c -2.86863,0.032 -4.69293,0.61165 -6.59326,2.98013 -0.57297,0.72769 -0.8572,1.65065 -0.87267,2.57107 l 0.28916,1.71147 c 0.59498,1.57542 0.56257,2.83221 2.27938,2.97759 0.50922,5.3262 0.76677,10.7595 -0.18499,16.05182 -0.66915,3.53257 -2.22377,7.44979 -5.75954,8.9612 -2.2479,0.88134 -4.89366,1.15622 -7.18197,0.27342 -2.28338,-1.08981 -2.61242,-3.94257 -2.65443,-6.18674 -0.0867,-6.4084 1.84617,-12.75852 5.16561,-18.21409 1.9302,1.19304 3.33024,-1.44992 3.75384,-2.99307 0.53844,-1.96208 0.18633,-4.31294 -2.16214,-5.70751 -1.63198,-0.96897 -1.9014,-1.41378 -4.87659,-1.72454 -2.96093,-0.14458 -3.74544,-0.0187 -6.25449,1.75842 -2.37567,1.68906 -2.78594,5.75553 -0.36211,7.56489 -1.7028,3.25955 -2.97747,6.76091 -3.77465,10.36257 -2.15854,-1.41244 -5.27218,-2.18935 -7.39297,-2.73005 -3.9267,-0.83146 -8.07479,-0.90041 -11.98548,0.0547 -2.29285,0.57418 -4.86832,2.07145 -5.11613,4.66039 -0.41773,2.87143 2.3734,5.83516 5.30112,5.15001 1.61464,-0.31663 3.17472,-0.9639 4.84004,-0.97164 -0.79985,2.79048 -1.80776,5.97987 -4.49887,7.49968 -2.73659,1.34015 -6.56045,0.651 -8.18482,-2.08398 -1.98942,-3.20621 -1.98142,-7.19172 -1.62024,-10.82632 0.37732,-3.64127 2.21963,-7.41311 5.69965,-8.97934 3.37105,-1.49086 7.34336,-1.57876 10.82364,-0.40639 1.81337,0.71582 3.66382,2.19402 5.71806,1.45885 2.82515,-0.79424 4.33348,-4.52421 2.63095,-6.98658 -1.68812,-2.38968 -4.65385,-3.40346 -7.3695,-4.11848 -1.9118,-0.44988 -3.87934,-0.62567 -5.84036,-0.6278 -5.70205,-0.0574 -11.6411,1.73294 -15.66116,5.93412 -2.60361,2.60588 -4.22318,5.91998 -5.1188,9.44575 -0.0707,-0.0333 -0.14457,-0.0653 -0.21873,-0.0934 -1.56089,-0.69822 -3.3093,-0.59245 -4.97556,-0.58605 v 0 c -2.60454,-10e-4 -5.65083,0.096 -7.47633,2.2455 -1.88766,2.23603 -1.06633,6.28676 1.83391,7.22106 2.6787,0.69755 5.43569,-0.36412 8.14841,0.0413 0.61632,0.0467 1.24279,-0.028 1.83657,-0.2058 0.15485,5.25698 1.6976,10.68027 5.57201,14.39784 4.21292,4.14622 10.88247,5.20576 16.36191,3.26395 1.46686,-0.53083 2.81648,-1.35549 4.00645,-2.36007 0.89628,2.1524 3.44068,3.5147 5.69445,2.68057 2.00076,-0.60152 3.83946,-2.91518 2.90984,-5.03024 0.45881,0.33851 -0.12804,-1.04046 -0.12537,-1.65158 -0.29023,-1.5869 -0.45041,-3.1966 -0.50016,-4.80884 -0.45201,0.68755 -0.98444,1.91273 -1.11235,0.41947 -0.38972,-1.35549 -0.77984,-2.71085 -1.16956,-4.06634 0.82879,0.036 1.48753,0.67381 2.28458,0.79451 1.15263,0.17433 2.89584,1.4e-4 3.49576,-0.12003 -0.0427,0.14551 0.0867,0.15378 0.28142,0.0987 0.0133,1.13916 0.06,2.27765 0.17979,3.41254 0.49722,4.48433 2.85649,8.95173 6.94483,11.11294 4.1529,2.22789 9.18487,2.28164 13.66827,1.13568 5.16789,-1.34748 9.29237,-5.40222 11.4073,-10.22186 2.31446,-5.17761 2.95066,-10.85179 2.91238,-16.49221 0.56457,0.19326 1.17076,0.26875 1.78696,0.18499 2.53799,-0.15819 4.18224,-2.58735 4.53781,-4.91554 1.71187,-0.70582 3.74517,-0.82119 5.62416,-0.97951 0.46881,0.33264 0.0974,1.57223 0.23968,2.25591 0.18085,7.18411 0.17112,14.37622 -0.33077,21.54833 -0.0627,2.47304 -0.75624,5.35061 1.01071,7.42685 2.01797,2.46384 6.53564,1.84858 7.73162,-1.14622 1.02245,-2.59801 0.76824,-5.46291 0.97937,-8.19789 0.28329,-7.24894 0.19606,-14.50667 0,-21.7568 2.42929,0.25928 4.94154,0.32597 7.26013,1.14369 0.74904,0.45054 1.62051,0.7485 2.49812,0.83613 -0.04,0.29902 -0.10003,0.59458 -0.12271,0.89614 -0.36865,4.00806 -0.072,9.54298 3.43854,11.38116 0.97057,0.50816 2.94626,1.64118 2.94626,1.64118 2.55213,1.25026 4.75908,2.29125 5.46264,2.5528 0.35878,0.12937 0.71715,0.25914 1.07593,0.38812 1.14023,0.51402 2.5384,0.80211 3.34211,1.8235 0.24715,0.48869 0.11604,1.13049 -0.51309,1.19571 -1.35442,0.34891 -2.8993,0.60579 -4.24092,0.1067 -0.56205,-0.92002 -3.48763,-1.75695 -5.90558,-2.17775 -2.60642,0.23687 -4.29508,0.19953 -4.40765,2.75606 -0.0907,3.13831 -0.18805,6.2905 -0.0307,9.42481 0.15578,2.30192 2.11012,4.36297 4.47019,4.33989 2.24604,0.22087 4.52995,-1.38563 4.83485,-3.67048 0.1187,-0.69862 -0.10804,-1.62144 0.91695,-1.09661 4.34829,0.5147 6.63807,-0.3149 9.68263,-3.72249 2.90157,-3.21834 2.91744,-8.23564 1.04726,-11.96468 -1.74135,-3.29222 -2.66564,-4.86005 -6.02015,-5.98893 -1.93501,-0.73903 -4.05607,-1.21812 -5.73353,-2.47464 -0.9815,-1.49087 -0.83266,-3.48042 -0.42199,-5.15014 0.77117,-2.81422 3.7469,-4.58744 6.59059,-4.29561 1.04379,0.056 2.06558,0.37131 2.98533,0.86227 0.0547,2.37114 0.95883,5.14534 3.40733,5.99667 1.21425,0.44054 3.15325,0.37545 4.81657,-0.14071 -0.60619,2.7702 -0.78691,5.64963 -0.58871,8.45064 0.29676,5.55627 2.3702,11.31727 6.85107,14.8509 4.67559,3.80319 11.11214,4.49581 16.89594,3.6158 4.20425,-0.66794 12.64222,-4.41565 16.46862,-8.03904 0,0.97443 0.0133,1.94887 0.0387,2.92278 0.06,2.13373 1.31867,4.40097 3.53763,4.86352 2.31179,0.6398 5.09546,-0.56458 5.76994,-2.9696 0.79918,-2.7858 0.27382,-5.72419 0.40386,-8.57828 0.0133,-2.01543 0.0494,-4.03206 0.12004,-6.04615 4.82884,0.12403 9.65888,0.12403 14.48892,0.10136 1.12956,4.88233 2.11893,10.46274 3.02175,15.39548 0.12137,2.16894 1.79869,4.19211 4.02992,4.34762 2.29672,0.38959 7.06288,0.90762 7.63519,-1.37283 0.056,-0.219 0.0747,-0.46041 0.0787,-0.71115 0.41493,0.096 0.83373,0.16698 1.24519,0.18232 4.30774,0.19113 12.40734,-0.98604 16.70828,-1.27373 3.62714,-0.36838 9.8036,-2.23203 14.30927,-4.19664 0.13071,1.8147 1.21505,3.84373 2.64923,4.65772 3.04749,1.78682 8.69885,1.12995 12.12352,0.94549 2.25297,-0.18699 6.58033,-0.43093 9.10711,-1.81817 0.73437,0.81853 1.70907,1.3871 2.8733,1.45873 2.34487,0.35544 4.61478,-1.43739 4.98583,-3.74597 0.40226,-2.80528 0.25168,-5.66737 0.42986,-8.49479 0.14632,-4.03873 0.41427,-8.07812 0.95604,-12.08458 3.74783,7.07862 7.95395,13.95063 12.94151,20.22766 1.75588,2.19802 4.31148,4.37416 7.32002,3.95176 2.43022,-0.20019 4.1781,-2.54319 4.15489,-4.89726 -0.0133,-3.38652 -0.45814,-6.77225 -0.23954,-10.16464 0.19646,-4.90207 0.56605,-9.80173 1.21131,-14.66605 0.17513,-1.2676 0.43521,-2.88263 0.66688,-4.28267 0.34971,-2.51985 1.22251,-5.4341 -0.43254,-7.6872 -0.87267,-1.21585 -2.40661,-1.81844 -3.87614,-1.73761 -2.38955,0.0413 -4.01645,2.25057 -4.49367,4.40511 -1.0566,4.28574 -1.52274,8.69712 -1.97195,13.08222 -0.26568,2.71765 -0.4176,5.44437 -0.53657,8.17175 -4.86565,-7.1493 -8.63016,-14.96694 -12.0767,-22.87688 -0.93856,-1.93514 -3.25956,-3.0831 -5.34287,-2.39141 -2.73979,0.7505 -3.97191,3.63207 -4.59517,6.15299 -1.41671,5.70324 -2.29925,11.53307 -2.95146,17.36996 -0.28222,2.82408 -0.51749,5.6643 -0.60165,8.50532 v 0 c -0.87054,-0.40253 -5.59268,0.77144 -6.52804,0.98217 0.7425,-7.37657 2.09225,-15.71611 0.57831,-23.00985 2.14534,0.5335 4.30615,-1.23252 4.52488,-3.44374 0.5203,-2.61976 -1.76241,-4.39978 -4.11328,-5.41836 -2.70791,-1.32668 -2.98253,-0.96764 -5.95239,-0.91696 -2.72792,0.0854 -5.97414,0.58685 -7.52062,3.11818 -1.59343,2.49824 -0.37358,6.40573 2.60241,7.16103 0.88174,0.20927 1.80297,0.092 2.64923,-0.2162 1.43898,5.70779 1.22798,6.63728 0.92215,12.49604 -1.3036,2.75126 -3.18006,6.5071 -3.37345,8.49492 v 0 c -0.0427,-0.25021 -0.1067,-0.49975 -0.20326,-0.7477 -0.78145,-2.40568 -3.70809,-3.67235 -6.03055,-2.72218 -2.25057,0.82666 -8.42717,4.35656 -10.86526,4.62904 -2.54333,0.45028 -8.05265,4.37777 -10.30016,1.71934 -1.95621,-2.31379 2.89558,-6.08137 2.96453,-8.59388 3.08777,-0.0187 6.22875,0.21753 9.2737,-0.38813 2.2575,-0.44747 3.99725,-2.6951 3.60259,-5.01196 -0.12404,-2.31926 -2.35153,-4.05007 -4.60557,-3.97524 -2.69071,0.10803 -5.38862,0.34157 -8.08586,0.19806 0.0173,-2.18402 0.0427,-4.3675 0.0467,-6.55165 2.91184,0.24354 6.04842,0.41226 9.00281,1.12795 1.96275,0.55898 1.88726,2.1356 3.95697,1.13062 2.41969,-1.03259 3.62793,-4.31854 2.07358,-6.55151 -1.80043,-2.44916 -2.84955,-3.29423 -5.63723,-4.01432 -5.58454,-1.26199 -11.35461,-1.52568 -17.06266,-1.45099 -2.15854,0.044 -4.71747,0.59819 -5.72312,2.74833 -1.16356,2.27164 -0.18166,5.53573 2.36007,6.35358 0.47375,0.37119 1.65278,-0.0347 1.55262,0.70849 0.068,7.74869 -3.63807,16.58332 -4.37897,24.30453 -0.91789,0.048 -1.75695,0.4256 -2.4513,0.98991 -0.0253,-0.21367 -0.0413,-0.4216 -0.0333,-0.61219 -3.84734,-13.30669 -5.70512,-12.86576 -2.38355,-29.66821 0.14111,-2.26577 -1.08033,-4.81257 -3.436,-5.36621 -0.47669,-0.1307 -0.97311,-0.18299 -1.46659,-0.17192 -2.41716,-0.0587 -4.37724,2.0217 -4.70201,4.32429 -0.45574,3.63527 -0.34651,7.32082 -0.47401,10.97996 0.13071,0.88961 -0.0133,1.52421 -1.03166,1.29201 -4.35696,0.18659 -8.71699,0.19752 -13.07688,0.15111 0.19579,-3.73383 0.6486,-7.45686 0.79184,-11.18843 0.0374,-2.30352 -1.71093,-4.57396 -4.08981,-4.71761 -2.40968,-0.36718 -4.83537,1.29467 -5.42622,3.64701 -0.59419,2.144 -0.44374,4.41751 -0.71116,6.61673 -0.21193,2.20389 -0.24781,4.49674 -0.51576,6.64781 -1.98836,1.5869 -2.1224,4.91621 -0.19273,6.60633 -0.0133,0.91402 -0.0427,1.82857 -0.0653,2.74299 -1.95061,-1.28613 -4.84685,-0.84653 -6.23115,1.10195 -0.96363,1.40577 -7.51688,5.16281 -9.21381,5.68924 -2.94305,0.99311 -6.20954,1.12142 -9.22688,0.38812 -2.70058,-0.63326 -4.69587,-2.95625 -5.35581,-5.59028 -0.93442,-3.63793 -0.94656,-7.56849 0.11737,-11.18056 1.00925,-3.42867 3.90215,-6.42094 7.5649,-6.80946 3.54937,-0.58911 3.41426,0.0333 6.20233,2.14907 1.74655,1.32202 4.34296,1.0646 5.85863,-0.48708 1.80737,-1.61357 1.98356,-4.58983 0.4012,-6.41867 -2.93985,-3.43481 -3.81933,-4.33816 -8.24218,-4.73068 -1.15302,-0.11604 -2.31485,-0.12804 -3.47242,-0.0907 -5.19402,0.14205 -10.31695,2.46424 -13.64493,6.49163 -0.34384,0.39599 -0.63926,0.82319 -0.94562,1.24252 0.0427,-0.34437 0.096,-0.68728 0.17725,-1.02632 0.46001,-2.39608 -0.0734,-5.45957 -2.50598,-6.58805 -0.69982,-0.32237 -3.48042,-0.69809 -4.2488,-0.65381 -1.14289,0.028 -2.24123,0.5299 -3.05308,1.32588 -4.53942,-1.79723 -9.89896,-1.2732 -14.11628,1.13836 -1.45432,0.84279 -2.72658,1.94954 -3.81372,3.2146 -2.09039,-2.07691 -5.25791,-2.57814 -8.06759,-3.02961 -4.35016,-0.57671 -8.75527,-0.63713 -13.13704,-0.56004 -3.83146,0.17378 -7.81337,0.446 -11.4149,1.84177 -0.0507,-0.2194 -0.11203,-0.438 -0.19539,-0.64607 -1.07114,-2.82995 -4.34896,-4.03059 -7.16891,-3.95963 z" />
      <path
         id="path39193"
         style="font-size:133.375px;line-height:1.25;font-family:'Kristen ITC';-inkscape-font-specification:'Kristen ITC';display:inline;fill:none;stroke:#00a6ff;stroke-width:1.33375;stroke-opacity:1"
         d="m 189.96672,5.8024732 c -7.21556,0.155851 -14.58327,0.51311 -21.45753,2.906887 -3.91089,1.3770718 -7.87936,3.9648488 -9.11827,8.1422018 -1.06037,3.246741 -0.14116,6.918031 2.12494,9.43377 2.42065,2.903639 5.90546,4.556735 8.93322,6.718624 4.45272,2.875787 8.82216,5.878795 12.99537,9.150149 8.51185,6.63277 16.76469,13.84836 23.05374,22.689464 2.239,3.184681 4.172,6.589644 5.69263,10.175191 0.18544,0.464785 0.52894,1.283591 0.70568,1.778657 0.68059,1.777638 1.32019,3.891402 1.72397,5.557305 1.46714,6.217759 1.90461,12.770365 0.68428,19.067638 -0.80535,4.14216 -3.04585,8.35312 -7.0582,10.14139 -1.22982,0.5836 -2.55181,0.95391 -3.8918,1.17905 -6.44929,-4.16232 -13.04534,-8.27609 -20.31709,-10.84794 -4.02855,-1.4162 -8.73278,-1.994676 -12.65167,0.0563 -2.8896,1.51057 -4.33895,4.84067 -4.26827,8.00001 0.049,3.80249 2.69816,6.89043 5.21208,9.47765 7.06041,7.15227 16.33603,12.08215 26.24425,13.81443 6.10061,1.03515 12.43614,1.40489 18.52225,0.082 6.18688,-1.31613 11.84482,-5.03332 15.32834,-10.33726 4.55298,-6.81405 6.01683,-15.15033 6.4403,-23.196067 0.54773,-9.730519 -0.89162,-19.590208 -4.48341,-28.66492 -5.30035,-13.62167 -14.8202,-25.200465 -25.71351,-34.768284 -3.59109,-3.175764 -7.36622,-6.138664 -11.24291,-8.957138 4.76402,-0.495866 9.59422,-0.09657 14.22188,1.132028 7.83357,1.938658 15.11741,5.493984 22.32837,9.027647 3.38944,1.57687 7.10509,3.320659 10.9371,2.541921 3.14492,-0.464006 5.75741,-2.984474 6.4587,-6.065447 1.07716,-3.979814 0.21933,-8.412148 -2.35427,-11.648283 -3.569,-4.60603 -8.91673,-7.365823 -14.1734,-9.604118 -11.77225,-4.8611598 -24.59716,-6.4728998 -37.24114,-6.9009068 -2.54431,-0.07678 -5.09012,-0.103608 -7.63563,-0.08187 z" />
      <path
         id="path39199"
         style="font-size:133.375px;line-height:1.25;font-family:'Kristen ITC';-inkscape-font-specification:'Kristen ITC';display:inline;fill:none;stroke:#00a6ff;stroke-width:1.33375;stroke-opacity:1"
         d="m 567.11331,11.190509 c -9.50914,0.141327 -19.19304,2.697593 -26.87015,8.47087 -8.67451,6.402562 -14.45322,16.155244 -17.15788,26.492304 -0.58332,2.197697 -1.04267,4.44471 -1.41986,6.674927 -3.23439,1.040637 -5.7926,3.931149 -6.20847,7.333343 -0.59241,3.410301 0.50844,7.225326 3.39065,9.309929 0.59631,0.448681 1.23682,0.83897 1.91151,1.15885 0.072,1.99641 0.22483,3.989222 0.39837,5.979174 -2.98827,0.731493 -5.19249,3.460125 -5.57157,6.47215 -0.68099,3.611898 0.41907,7.622263 3.30867,10.010242 1.68308,1.493846 3.76524,2.465634 5.89577,3.142644 3.30168,10.853528 9.32651,21.102848 18.24374,28.267018 7.81587,6.40633 17.75609,9.86728 27.77517,10.59032 12.55851,0.98728 25.59026,-1.46943 36.37711,-8.14894 5.48929,-3.39054 10.18384,-8.56205 11.73865,-14.95155 0.89443,-3.81424 1.16854,-8.00753 -0.37448,-11.69336 -1.34038,-3.269884 -4.73803,-5.294876 -8.18816,-5.510529 -3.32806,-0.426867 -7.0834,0.550989 -9.07188,3.431425 -0.93271,1.458517 -1.41546,3.170994 -2.2675,4.685794 -0.98009,1.81139 -1.80574,3.74737 -2.99077,5.42413 -3.60748,3.52395 -8.79167,4.68924 -13.64396,5.24683 -6.97134,0.72307 -14.37444,0.4502 -20.69997,-2.88267 -5.1639,-2.62616 -9.13177,-7.12679 -11.94739,-12.117315 10.12685,0.136698 20.2682,0.142426 30.38036,-0.477372 4.95926,-0.376093 10.22163,-0.796252 14.5111,-3.561604 2.83622,-1.740819 4.52409,-5.116961 4.13101,-8.432742 -0.14585,-3.435683 -2.38496,-6.6004 -5.53328,-7.955369 -4.30486,-1.959012 -9.16995,-1.671501 -13.76402,-1.2889 -10.16625,0.698203 -20.34369,1.639151 -30.54502,1.281482 -1.70647,-0.03449 -3.41274,-0.08777 -5.11761,-0.167088 -0.20514,-1.921573 -0.34359,-3.850255 -0.41667,-5.781265 11.65708,-0.357349 23.34055,-1.390458 34.74881,-3.885064 4.37644,-1.104697 9.05259,-2.773898 11.79554,-6.583705 2.41015,-3.404103 2.38696,-8.477528 -0.29951,-11.718771 -2.47703,-2.831211 -6.54247,-3.508421 -10.12236,-3.244813 -11.51872,1.566564 -22.82831,4.683036 -34.48199,5.205744 1.51693,-6.123449 4.71164,-12.182797 10.18724,-15.6186 5.83708,-3.710098 13.06724,-4.271914 19.79645,-3.627554 8.25084,0.768961 16.1164,4.496454 22.09074,10.212179 1.77675,1.656016 2.9021,3.869838 4.33186,5.813545 2.00827,3.042405 4.12541,6.394244 7.66681,7.806376 3.80642,1.61066 8.32852,0.231658 11.12415,-2.665273 2.49023,-2.183612 3.63537,-5.679836 2.98707,-8.92022 -0.92031,-5.262966 -4.38264,-9.614064 -7.93243,-13.420932 -4.14222,-4.28549 -8.72679,-8.14795 -13.59038,-11.588332 -9.24323,-6.219929 -20.54153,-8.593212 -31.54521,-8.756921 -1.01009,-0.01769 -2.01997,-0.03109 -3.03026,-0.0107 z" />
      <path
         id="path10434"
         style="font-stretch:semi-expanded;font-size:133.375px;line-height:1.25;font-family:'Kristen ITC';-inkscape-font-specification:'Kristen ITC Semi-Expanded';display:inline;fill:none;stroke:#00a6ff;stroke-width:1.33375;stroke-opacity:1"
         d="m 286.75707,96.410268 c -4.08963,-5.801689 -6.51058,-12.645204 -7.66802,-19.61399 -0.10537,-0.616639 -0.20974,-1.302856 -0.30331,-2.015564 -0.26322,-1.985894 -0.42616,-3.722694 -0.53233,-5.741288 -0.38118,-7.222897 0.092,-14.647931 2.74175,-21.44634 0.28561,-0.750827 0.78245,-1.886284 1.22352,-2.752126 3.15502,-6.355266 8.6965,-11.759008 15.62884,-13.715931 2.94599,-0.877107 6.03713,-1.193699 9.10348,-1.128319 5.84228,0.09317 11.39016,2.868569 15.4547,6.980212 7.37021,7.347359 11.41015,17.524529 12.44723,27.776105 0.75837,7.809885 0.44047,15.796745 -1.50763,23.419848 -1.84003,6.941285 -5.42721,13.809575 -11.47234,17.959395 -5.26706,3.61424 -3.72014,12.92762 0.62351,16.06842 6.17858,4.46765 16.15478,0.20706 21.98347,-6.31932 7.03752,-7.62604 10.9474,-17.6763 12.40315,-27.849681 1.2953,-8.994107 1.08706,-18.167289 -0.073,-27.164065 C 355.1849,48.671761 350.89873,36.594231 343.06716,26.975768 337.25517,19.684382 329.27155,14.038345 320.24035,11.553617 315.29459,10.148133 310.12749,9.6163482 304.99498,9.7284432 h 6e-4 c -10.12895,0.149034 -20.42016,2.7957518 -28.73447,8.7385868 -8.74589,6.113682 -15.08172,15.383983 -18.0543,25.595742 -3.06475,10.356734 -3.2173,21.369145 -1.9222,32.025176 1.49374,11.802965 5.8049,23.393966 13.30997,32.710992 6.77239,8.52371 15.93315,15.33722 26.45398,18.40326 8.3941,2.45408 7.36162,-14.02775 4.87799,-20.65018 -2.03947,-5.43835 -10.13486,-4.29885 -14.1691,-10.141752 z"
         sodipodi:nodetypes="cccccccccccsacccccsscccccac" />
      <path
         id="path10682"
         style="font-stretch:semi-expanded;font-size:133.375px;line-height:1.25;font-family:'Kristen ITC';-inkscape-font-specification:'Kristen ITC Semi-Expanded';display:inline;fill:none;stroke:#00a6ff;stroke-width:1.33375;stroke-opacity:1"
         d="m 401.69608,96.404049 c -4.08963,-5.801688 -6.51058,-12.645193 -7.66802,-19.613979 -0.10537,-0.616639 -0.20974,-1.302856 -0.30331,-2.015564 -0.26322,-1.985904 -0.42617,-3.722704 -0.53233,-5.741298 -0.38118,-7.222887 0.092,-14.647931 2.74175,-21.44633 0.28561,-0.750827 0.78245,-1.886285 1.22352,-2.752126 3.15502,-6.355266 8.6965,-11.759008 15.62884,-13.715931 2.94599,-0.877107 6.03723,-1.193699 9.10348,-1.128329 5.84228,0.09317 11.39016,2.868569 15.4547,6.980212 7.37021,7.347369 11.41015,17.524529 12.44723,27.776115 0.75837,7.809885 0.44047,15.796735 -1.50763,23.419848 -1.84003,6.941275 -5.42721,13.809573 -11.47234,17.959393 -5.26706,3.61424 -3.72014,12.92763 0.62351,16.06842 6.17858,4.46764 16.15488,0.20706 21.98347,-6.31932 7.03752,-7.62604 10.9474,-17.676298 12.40315,-27.849679 1.2953,-8.994117 1.08706,-18.167289 -0.073,-27.164075 C 470.12391,48.665543 465.83774,36.588013 458.00617,26.96956 452.19418,19.678164 444.21056,14.032127 435.17936,11.547409 430.2336,10.141925 425.0665,9.6101302 419.93399,9.7222252 h 6e-4 c -10.12895,0.149044 -20.42016,2.7957518 -28.73437,8.7385968 -8.74589,6.113671 -15.08182,15.383973 -18.0544,25.595742 -3.06475,10.356724 -3.2173,21.369135 -1.9222,32.025166 1.49374,11.802975 5.8049,23.393966 13.30997,32.711 6.77249,8.52372 15.93315,15.33722 26.45398,18.40325 8.3941,2.45409 7.36162,-14.02775 4.87799,-20.65017 -2.03947,-5.43836 -10.13486,-4.29885 -14.1691,-10.141761 z"
         sodipodi:nodetypes="cccccccccccsacccccsscccccac" />
      <path
         style="fill:none;stroke:#00a6ff;stroke-width:0.72189;stroke-linecap:round;stroke-linejoin:round;stroke-miterlimit:4;stroke-dasharray:none"
         d="m 769.33754,-80.084789 -4.2e-4,292.730409 c -0.18414,-0.93239 -0.46636,-1.60856 -0.9682,-2.43277 -0.79455,-1.28242 -1.86172,-2.49871 -3.28548,-3.08221 -1.25541,-0.52515 -2.73145,-0.15142 -3.72944,0.72927 -1.02229,0.78982 -1.77845,2.07807 -1.53573,3.4039 0.14316,0.65113 0.47776,1.24937 0.6583,1.89368 0.22623,0.76011 0.52824,1.51179 0.66249,2.29099 -0.0227,1.94171 -1.11735,3.67058 -2.28679,5.14375 -1.70117,2.09493 -3.79052,4.03654 -6.4206,4.85154 -2.12104,0.69079 -4.42703,0.54539 -6.55197,-0.047 2.79443,-2.72001 5.55718,-5.47918 8.14187,-8.40141 1.24792,-1.45273 2.56671,-3.00008 2.98158,-4.9209 0.29841,-1.24631 -0.16305,-2.62454 -1.17234,-3.42096 -0.97509,-0.89581 -2.44644,-1.14796 -3.67286,-0.6595 -1.70517,0.63852 -2.95048,2.04156 -4.09722,3.39668 -2.5781,2.95818 -5.09332,5.9857 -7.96823,8.66603 -0.47415,0.45519 -0.9543,0.90491 -1.43975,1.34747 -0.57982,-0.46652 -1.14065,-0.95556 -1.68718,-1.46058 3.07635,-3.27104 5.97594,-6.73278 8.40349,-10.5184 0.89092,-1.49257 1.70927,-3.22073 1.41866,-5.00477 -0.27112,-1.5827 -1.65838,-2.9574 -3.27238,-3.10838 -1.44555,-0.0965 -2.73715,0.82588 -3.64007,1.87231 -2.70976,3.56294 -4.94017,7.49152 -7.97093,10.8068 -1.25431,-2.08036 -2.03427,-4.60042 -1.47884,-7.02691 0.57892,-2.59944 2.39416,-4.72103 4.40163,-6.37775 2.45604,-2.03722 5.61376,-3.16391 8.79667,-3.23451 0.93471,-0.0328 1.84333,0.2632 2.76165,0.4031 1.37537,0.28151 2.86481,0.61796 4.21329,0.0384 1.47524,-0.59815 2.33108,-2.20447 2.30308,-3.75433 0.0828,-1.27194 -0.55623,-2.53632 -1.6149,-3.24229 -1.68357,-1.18241 -3.81091,-1.42444 -5.81399,-1.49444 -2.29469,-0.0389 -4.59577,0.15798 -6.85657,0.54542 -4.21039,0.8232 -7.93294,3.2527 -10.97349,6.20418 -0.27992,0.27039 -0.55933,0.54031 -0.82885,0.82127 -2.55051,2.62754 -4.4914,5.96074 -5.00944,9.62278 -0.61841,4.10504 0.46335,8.33444 2.54131,11.88548 0.0697,0.11675 0.14343,0.23225 0.21443,0.34852 -3.08494,-2.2185 -6.73001,-3.76933 -10.55732,-3.92314 -3.36415,-0.18995 -7.24075,1.36636 -7.70641,4.26493 -0.32749,2.03786 1.78775,4.99528 4.206,4.54524 2.77594,-0.51608 5.62255,0.37703 8.01301,1.76623 2.60659,1.54469 4.86689,3.63331 6.78689,5.96619 2.50892,3.07377 4.17411,6.94467 4.17401,10.95211 0.0129,2.22622 -0.74177,4.49287 -2.30739,6.10913 -0.81704,0.85267 -1.74476,1.60677 -2.78603,2.17038 -2.42025,1.3545 -5.40053,1.39253 -7.99012,0.52129 -0.35549,-0.11581 -0.79945,-0.28958 -1.08217,-0.41571 -2.5717,-1.13023 -4.72303,-3.02263 -6.58585,-5.09336 -0.52134,-0.57787 -0.95001,-1.095 -1.41916,-1.70739 -0.16845,-0.21946 -0.3251,-0.43646 -0.46586,-0.63194 -1.582,-2.21278 -2.78653,-4.73443 -3.25269,-7.42762 -0.49214,-2.68956 2.02188,-4.58297 1.09676,-6.61908 -1.12715,-2.47928 -5.33394,-7.24899 -6.95104,-4.29548 -2.03017,3.6995 -2.66867,8.04919 -2.19172,12.21384 0.44636,4.14478 2.11835,8.07902 4.5106,11.47351 -0.59411,-0.0907 -1.19303,-0.15374 -1.79774,-0.17814 -3.36405,-0.18995 -7.24045,1.36621 -7.70641,4.26493 -0.32729,2.03787 1.78715,4.9945 4.2057,4.54426 2.77574,-0.51594 5.62225,0.37732 8.01331,1.76627 2.60629,1.54493 4.86689,3.63437 6.78709,5.96714 2.50862,3.0737 4.17411,6.94478 4.17411,10.95194 0.0128,2.2263 -0.74257,4.49218 -2.30829,6.10862 -0.81694,0.85256 -1.74426,1.60764 -2.78533,2.17094 -2.41995,1.35461 -5.40023,1.39267 -7.98972,0.52129 -0.35599,-0.1155 -0.80045,-0.29017 -1.08336,-0.41644 -2.57201,-1.13007 -4.72214,-3.02356 -6.58576,-5.09306 -0.52114,-0.57785 -0.94981,-1.0951 -1.41886,-1.70749 -0.16885,-0.21952 -0.3246,-0.43581 -0.46535,-0.63125 -1.58241,-2.21256 -2.78754,-4.7349 -3.25359,-7.42832 -0.49245,-2.68934 2.02207,-4.583 1.09665,-6.61908 -1.12685,-2.47941 -5.33284,-7.24843 -6.95054,-4.29456 -2.03027,3.69942 -2.66867,8.04822 -2.19232,12.21297 0.49335,4.58039 2.47604,8.91128 5.28296,12.53167 0.31411,0.40683 0.6401,0.80431 0.972,1.19847 -0.43636,-0.22104 -0.87893,-0.43071 -1.32779,-0.6257 -5.1524,-2.26552 -10.89731,-2.82618 -16.46848,-2.46512 -1.84243,0.11305 -3.67656,0.33446 -5.49949,0.62253 1.16193,-1.43215 4.92257,-4.79715 6.61884,-7.73666 1.86462,-3.23113 2.69716,-6.92518 3.72314,-10.55494 0.6495,-4.50143 -4.84749,-5.25781 -7.34372,-1.71799 -3.77482,4.05868 -5.24947,10.77668 -8.80896,14.10288 -0.71478,0.6709 -1.41426,1.35727 -2.10175,2.05617 -1.922,2.00692 -3.83051,4.11022 -5.05083,6.6338 -0.68969,1.43992 -1.06567,3.2256 -0.26582,4.70038 0.59542,1.17268 1.84503,1.92166 3.14703,1.98966 1.44975,0.13128 2.84861,-0.36757 4.26167,-0.60315 1.99528,-0.42931 4.00306,-0.8013 6.03013,-1.04673 4.12372,-0.51197 8.33511,-0.79414 12.45503,-0.0995 1.47654,0.2575 2.93019,0.65822 4.32036,1.2207 0.17755,0.0753 0.49265,0.20639 0.67659,0.29219 0.66909,0.2987 1.41866,0.69973 1.98219,1.04348 2.09265,1.29322 3.99555,2.95912 5.37823,5.00573 0.90853,1.34736 1.44525,3.10343 0.83953,4.6829 -0.17614,0.49384 -0.43456,0.95467 -0.73857,1.38112 -2.8893,0.62271 -5.80529,1.29754 -8.48586,2.57743 -1.48224,0.71145 -2.92039,1.83531 -3.42914,3.46059 -0.37538,1.19807 0.13656,2.49961 1.01569,3.34095 h -3e-4 c 0.45436,0.44269 0.81894,0.6587 1.41006,0.82786 h 90.95266 V 789.77888 H 13.429899 V 313.55826 l 100.471901,-4e-5 c 1.15284,-0.14791 2.11245,-0.48183 3.11833,-1.09415 1.28251,-0.79461 2.49883,-1.86191 3.08215,-3.28565 0.52533,-1.25545 0.15155,-2.73132 -0.72908,-3.72947 -0.78985,-1.02226 -2.07815,-1.77842 -3.40394,-1.53569 -0.6513,0.14317 -1.24931,0.47778 -1.89381,0.65823 -0.76017,0.2263 -1.51163,0.52843 -2.29079,0.66256 -1.942,-0.0227 -3.67086,-1.11738 -5.1438,-2.28672 -2.09495,-1.7012 -4.03655,-3.7905 -4.8516,-6.42053 -0.69077,-2.12097 -0.54572,-4.42711 0.047,-6.55215 2.71995,2.79451 5.4792,5.5572 8.40119,8.14192 1.45295,1.24786 3.00017,2.56667 4.92107,2.98155 1.24641,0.2984 2.62459,-0.16303 3.42094,-1.17216 0.89592,-0.9752 1.14794,-2.44659 0.65949,-3.67292 -0.6384,-1.7053 -2.04146,-2.95061 -3.39684,-4.09733 -2.95808,-2.57802 -5.98554,-5.09309 -8.66581,-7.96817 -0.45526,-0.47423 -0.90482,-0.95413 -1.34738,-1.43968 0.46625,-0.58003 0.9553,-1.14072 1.46045,-1.68723 3.27118,3.07634 6.7328,5.97612 10.51853,8.40345 1.49244,0.89084 3.2205,1.70923 5.00464,1.4186 1.58271,-0.27107 2.95739,-1.65822 3.10844,-3.27244 0.0966,-1.44532 -0.82584,-2.737 -1.87242,-3.63992 -3.56289,-2.70978 -7.49137,-4.9402 -10.80694,-7.97098 2.08055,-1.25427 4.60067,-2.03428 7.02721,-1.47885 2.5995,0.57916 4.72094,2.39419 6.37772,4.40179 2.03707,2.45585 3.1636,5.61373 3.2346,8.7965 0.0326,0.93471 -0.26342,1.84335 -0.40337,2.76181 -0.28223,1.37532 -0.61862,2.86464 -0.039,4.21314 0.59801,1.47528 2.20431,2.3312 3.75433,2.3032 1.27201,0.0827 2.53641,-0.5564 3.24209,-1.61499 1.18254,-1.68361 1.42364,-3.811 1.49464,-5.81401 0.039,-2.29468 -0.15805,-4.59568 -0.54543,-6.85658 -0.82314,-4.2103 -3.25269,-7.93301 -6.20417,-10.97349 -0.27052,-0.27982 -0.54034,-0.55916 -0.82145,-0.82882 -2.62728,-2.55057 -5.96065,-4.49128 -9.62251,-5.00946 -4.10523,-0.61844 -8.33471,0.46327 -11.88551,2.54128 -0.11676,0.0696 -0.23263,0.14375 -0.34869,0.21465 2.21841,-3.08495 3.76953,-6.73014 3.92308,-10.55752 0.19014,-3.3642 -1.36628,-7.24073 -4.26498,-7.7065 -2.03766,-0.32746 -4.99504,1.78784 -4.54498,4.20601 0.51594,2.77602 -0.37709,5.62264 -1.76636,8.0133 -1.54472,2.60648 -3.633468,4.8667 -5.966144,6.78662 -3.073745,2.50902 -6.944643,4.17413 -10.952399,4.17406 -2.226009,0.0129 -4.492505,-0.74181 -6.108903,-2.30735 -0.852735,-0.81704 -1.606801,-1.74472 -2.170426,-2.78596 -1.35428,-2.42015 -1.392368,-5.40044 -0.521038,-7.99004 0.115564,-0.35567 0.28891,-0.79961 0.415571,-1.08228 1.130249,-2.57179 3.022661,-4.72308 5.093518,-6.58583 0.577821,-0.5213 1.09476,-0.94999 1.70727,-1.41907 0.219332,-0.16856 0.436464,-0.32522 0.631904,-0.46602 2.212513,-1.58204 4.73443,-2.78657 7.427493,-3.25266 2.689665,-0.49225 4.583077,2.02199 6.619345,1.0967 2.479129,-1.12713 7.248949,-5.33394 4.295469,-6.951 -3.699754,-2.02998 -8.049403,-2.66867 -12.21401,-2.19174 -4.144713,0.44631 -8.078992,2.11837 -11.473438,4.51084 0.09107,-0.59427 0.154055,-1.19325 0.178045,-1.79787 0.190041,-3.36404 -1.366176,-7.24054 -4.264976,-7.70634 -2.037867,-0.32744 -4.994349,1.78707 -4.544089,4.20543 0.51594,2.77577 -0.377382,5.62236 -1.766251,8.01333 -1.54502,2.60634 -3.634472,4.867 -5.967147,6.78719 -3.073846,2.50877 -6.944944,4.17424 -10.952099,4.17425 -2.226209,0.0128 -4.492006,-0.74267 -6.108404,-2.3084 -0.852735,-0.81696 -1.6079,-1.74424 -2.170926,-2.78523 -1.354679,-2.4202 -1.392667,-5.40048 -0.521338,-7.98983 0.115465,-0.35612 0.28971,-0.80048 0.416371,-1.0832 1.129949,-2.57199 3.023561,-4.72213 5.092919,-6.58591 0.57802,-0.52128 1.09526,-0.94991 1.707469,-1.41897 0.219732,-0.16862 0.435865,-0.32458 0.631504,-0.46534 2.212513,-1.58239 4.73483,-2.78742 7.428094,-3.25355 2.689365,-0.49241 4.583077,2.02214 6.619244,1.09668 2.479231,-1.12684 7.24845,-5.33281 4.294567,-6.95045 -3.699451,-2.03042 -8.048301,-2.66889 -12.213108,-2.19224 -4.580277,0.4933 -8.911333,2.47585 -12.531508,5.28278 -0.406874,0.31423 -0.804551,0.64008 -1.198628,0.97201 0.221131,-0.43638 0.430666,-0.87891 0.625805,-1.32772 2.265497,-5.15241 2.826023,-10.8972 2.464935,-16.4685 -0.113065,-1.84252 -0.334196,-3.67664 -0.622407,-5.49953 1.431956,1.16209 4.797111,4.92249 7.736698,6.61876 3.231097,1.86478 6.925149,2.69736 10.555022,3.72319 4.501403,0.64954 5.257868,-4.84731 1.717967,-7.34375 -4.05884,-3.77475 -10.776854,-5.24939 -14.102921,-8.80893 -0.670992,-0.71464 -1.357278,-1.41422 -2.056161,-2.10181 -2.007077,-1.92196 -4.110424,-3.83051 -6.633741,-5.05065 -1.440052,-0.68989 -3.225598,-1.06588 -4.70044,-0.26595 -1.172636,0.59549 -1.921602,1.84505 -1.989582,3.14705 -0.131359,1.44988 0.367486,2.84854 0.602813,4.26157 0.429266,1.99539 0.801451,4.00325 1.047074,6.0302 0.512542,4.12373 0.794655,8.33516 0.09997,12.45502 -0.25772,1.47658 -0.658295,2.93022 -1.22082,4.32029 -0.07508,0.17767 -0.20714,0.49286 -0.29211,0.67667 -0.298507,0.66921 -0.699583,1.41872 -1.043376,1.98233 -1.293298,2.09254 -2.959281,3.99547 -5.005945,5.37815 -1.347382,0.90873 -3.103337,1.44521 -4.682746,0.83943 -0.494147,-0.17592 -0.954804,-0.43445 -1.381171,-0.7385 -0.622707,-2.88925 -1.297597,-5.8054 -2.5775,-8.4857 -0.711279,-1.48247 -1.83513,-2.92061 -3.460525,-3.42911 -1.198128,-0.37547 -2.499724,0.13637 -3.341063,1.01542 -0.798952,0.82027 -0.993687,1.41675 -1.072667,2.53663 l 0,-303.690759 z"
         id="path1050"
         sodipodi:nodetypes="cccccccccccccccccccccccccccccccccccccccssccccccccccccccccsccccccccccccscccccccscccccccccccccccccccccccccccccccccccccccccccccccccccccccccccccccscccccccccccccccccsccccccccccccscccccccscccccccccccccccccccccc" />
    </g>
  </g>
  <g
     inkscape:groupmode="layer"
     id="layer5"
     inkscape:label="Falz"
     style="display:none">
    <path
       d="M 2130.1438,828.01419 H 1565.4862"
       stroke="#7FCFFF"
       stroke-width="0.24"
       fill="none"
       id="path142"
       style="display:inline;overflow:visible;stroke:#ffbf00;stroke-width:0.538004;stroke-miterlimit:4;stroke-dasharray:none;stroke-opacity:1"
       transform="matrix(0.99968958,0,0,0.99968958,-1451.0981,-332.78221)" />
    <path
       id="path110"
       style="display:inline;overflow:visible;stroke:#ffbf00;stroke-width:0.720449;stroke-miterlimit:4;stroke-dasharray:none;stroke-opacity:1"
       d="M 1553.8295,911.18977 V 1221.2077 M 1690.879,911.18977 h -137.0495 m 578.4487,310.01793 V 911.18977 m 0,0 h -137.0494 m -441.3993,310.01793 h 578.4487"
       transform="matrix(0.99968958,0,0,0.99968958,-1451.0981,-332.78221)" />
  </g>
</svg>
