<?xml version="1.0" encoding="UTF-8" standalone="no"?>
<svg
   width="12in"
   height="12in"
   viewBox="0 0 1152 1152"
   version="1.1"
   id="svg64"
   inkscape:version="1.3.2 (091e20e, 2023-11-25, custom)"
   sodipodi:docname="Cameo-Geldscheinrahmen-50.svg"
   xmlns:inkscape="http://www.inkscape.org/namespaces/inkscape"
   xmlns:sodipodi="http://sodipodi.sourceforge.net/DTD/sodipodi-0.dtd"
   xmlns="http://www.w3.org/2000/svg"
   xmlns:svg="http://www.w3.org/2000/svg"
   xmlns:rdf="http://www.w3.org/1999/02/22-rdf-syntax-ns#"
   xmlns:cc="http://creativecommons.org/ns#"
   xmlns:dc="http://purl.org/dc/elements/1.1/">
  <defs
     id="defs58">
    <inkscape:path-effect
       effect="skeletal"
       id="path-effect4720"
       is_visible="true"
       lpeversion="1"
       pattern="m 663.36239,534.93771 q 0,2.98009 -2.68834,2.98009 -1.87558,0 -1.87558,-1.33375 0,-0.45847 0.29176,-1.06283 v -0.0833 q 0,-1.39627 -0.95863,-2.27154 -0.93779,-0.87527 -2.3549,-0.87527 -1.95894,0 -3.6678,1.45878 -1.62551,1.39627 -1.62551,2.79253 0,0.95864 1.02115,1.68803 0.6252,0.43763 2.93841,1.47962 4.52224,2.0423 6.37698,3.93873 2.16734,2.18817 2.16734,5.3975 0,2.93841 -2.08398,5.04323 -2.12566,2.16734 -5.64759,2.60498 -0.47931,2.25069 -0.95863,4.52223 -0.47931,1.37543 -1.9381,1.37543 -2.1465,0 -2.1465,-1.91726 0,-0.91695 0.60436,-4.10544 -5.58507,-1.29207 -5.58507,-5.62675 0,-1.58382 1.04199,-2.64665 1.04199,-1.08367 2.54246,-1.08367 0.89611,0 1.45878,0.56267 0.58352,0.56268 0.58352,1.41711 0,0.47932 -0.81275,0.93779 -0.81276,0.45848 -0.81276,0.93779 0,0.77107 1.20871,1.45879 1.33375,0.75023 3.10513,0.75023 2.2507,0 3.772,-1.20871 1.52131,-1.22955 1.52131,-3.02177 0,-2.85505 -5.58507,-5.58506 -4.31383,-2.10482 -4.95987,-2.60498 -1.95894,-1.47962 -1.95894,-4.00124 0,-2.41741 1.87558,-4.54307 1.95894,-2.22986 5.12659,-3.10513 0.16672,-3.14681 0.66688,-4.293 0.60435,-1.33375 2.18818,-1.33375 0.95863,0 1.56298,0.58352 0.62519,0.56267 0.62519,1.45878 0,0.39596 -0.22923,1.31291 -0.29176,1.20871 -0.37512,1.81306 2.62581,0.50016 4.10544,2.16734 1.47963,1.64634 1.47963,4.02208 z"
       copytype="single_stretched"
       prop_scale="1"
       scale_y_rel="false"
       spacing="0"
       normal_offset="0"
       tang_offset="0"
       prop_units="false"
       vertical_pattern="false"
       hide_knot="false"
       fuse_tolerance="0" />
    <inkscape:path-effect
       effect="skeletal"
       id="path-effect4720-2"
       is_visible="true"
       lpeversion="1"
       pattern="m 663.36239,534.93771 q 0,2.98009 -2.68834,2.98009 -1.87558,0 -1.87558,-1.33375 0,-0.45847 0.29176,-1.06283 v -0.0833 q 0,-1.39627 -0.95863,-2.27154 -0.93779,-0.87527 -2.3549,-0.87527 -1.95894,0 -3.6678,1.45878 -1.62551,1.39627 -1.62551,2.79253 0,0.95864 1.02115,1.68803 0.6252,0.43763 2.93841,1.47962 4.52224,2.0423 6.37698,3.93873 2.16734,2.18817 2.16734,5.3975 0,2.93841 -2.08398,5.04323 -2.12566,2.16734 -5.64759,2.60498 -0.47931,2.25069 -0.95863,4.52223 -0.47931,1.37543 -1.9381,1.37543 -2.1465,0 -2.1465,-1.91726 0,-0.91695 0.60436,-4.10544 -5.58507,-1.29207 -5.58507,-5.62675 0,-1.58382 1.04199,-2.64665 1.04199,-1.08367 2.54246,-1.08367 0.89611,0 1.45878,0.56267 0.58352,0.56268 0.58352,1.41711 0,0.47932 -0.81275,0.93779 -0.81276,0.45848 -0.81276,0.93779 0,0.77107 1.20871,1.45879 1.33375,0.75023 3.10513,0.75023 2.2507,0 3.772,-1.20871 1.52131,-1.22955 1.52131,-3.02177 0,-2.85505 -5.58507,-5.58506 -4.31383,-2.10482 -4.95987,-2.60498 -1.95894,-1.47962 -1.95894,-4.00124 0,-2.41741 1.87558,-4.54307 1.95894,-2.22986 5.12659,-3.10513 0.16672,-3.14681 0.66688,-4.293 0.60435,-1.33375 2.18818,-1.33375 0.95863,0 1.56298,0.58352 0.62519,0.56267 0.62519,1.45878 0,0.39596 -0.22923,1.31291 -0.29176,1.20871 -0.37512,1.81306 2.62581,0.50016 4.10544,2.16734 1.47963,1.64634 1.47963,4.02208 z"
       copytype="single_stretched"
       prop_scale="1"
       scale_y_rel="false"
       spacing="0"
       normal_offset="0"
       tang_offset="0"
       prop_units="false"
       vertical_pattern="false"
       hide_knot="false"
       fuse_tolerance="0" />
    <inkscape:path-effect
       effect="skeletal"
       id="path-effect4720-24"
       is_visible="true"
       lpeversion="1"
       pattern="m 663.36239,534.93771 q 0,2.98009 -2.68834,2.98009 -1.87558,0 -1.87558,-1.33375 0,-0.45847 0.29176,-1.06283 v -0.0833 q 0,-1.39627 -0.95863,-2.27154 -0.93779,-0.87527 -2.3549,-0.87527 -1.95894,0 -3.6678,1.45878 -1.62551,1.39627 -1.62551,2.79253 0,0.95864 1.02115,1.68803 0.6252,0.43763 2.93841,1.47962 4.52224,2.0423 6.37698,3.93873 2.16734,2.18817 2.16734,5.3975 0,2.93841 -2.08398,5.04323 -2.12566,2.16734 -5.64759,2.60498 -0.47931,2.25069 -0.95863,4.52223 -0.47931,1.37543 -1.9381,1.37543 -2.1465,0 -2.1465,-1.91726 0,-0.91695 0.60436,-4.10544 -5.58507,-1.29207 -5.58507,-5.62675 0,-1.58382 1.04199,-2.64665 1.04199,-1.08367 2.54246,-1.08367 0.89611,0 1.45878,0.56267 0.58352,0.56268 0.58352,1.41711 0,0.47932 -0.81275,0.93779 -0.81276,0.45848 -0.81276,0.93779 0,0.77107 1.20871,1.45879 1.33375,0.75023 3.10513,0.75023 2.2507,0 3.772,-1.20871 1.52131,-1.22955 1.52131,-3.02177 0,-2.85505 -5.58507,-5.58506 -4.31383,-2.10482 -4.95987,-2.60498 -1.95894,-1.47962 -1.95894,-4.00124 0,-2.41741 1.87558,-4.54307 1.95894,-2.22986 5.12659,-3.10513 0.16672,-3.14681 0.66688,-4.293 0.60435,-1.33375 2.18818,-1.33375 0.95863,0 1.56298,0.58352 0.62519,0.56267 0.62519,1.45878 0,0.39596 -0.22923,1.31291 -0.29176,1.20871 -0.37512,1.81306 2.62581,0.50016 4.10544,2.16734 1.47963,1.64634 1.47963,4.02208 z"
       copytype="single_stretched"
       prop_scale="1"
       scale_y_rel="false"
       spacing="0"
       normal_offset="0"
       tang_offset="0"
       prop_units="false"
       vertical_pattern="false"
       hide_knot="false"
       fuse_tolerance="0" />
  </defs>
  <sodipodi:namedview
     inkscape:snap-page="false"
     id="base"
     pagecolor="#ffffff"
     bordercolor="#666666"
     borderopacity="1.0"
     inkscape:pageopacity="0.0"
     inkscape:pageshadow="2"
     inkscape:zoom="0.56204841"
     inkscape:cx="543.81784"
     inkscape:cy="576.15643"
     inkscape:document-units="mm"
     inkscape:current-layer="layer1"
     inkscape:document-rotation="0"
     showgrid="true"
     inkscape:pagecheckerboard="false"
     inkscape:showpageshadow="false"
     showborder="true"
     inkscape:snap-bbox="false"
     inkscape:bbox-nodes="true"
     inkscape:snap-nodes="true"
     inkscape:bbox-paths="true"
     inkscape:snap-grids="false"
     inkscape:snap-bbox-midpoints="true"
     inkscape:snap-bbox-edge-midpoints="true"
     units="in"
     inkscape:snap-smooth-nodes="true"
     inkscape:window-width="1400"
     inkscape:window-height="943"
     inkscape:window-x="0"
     inkscape:window-y="22"
     inkscape:window-maximized="0"
     inkscape:snap-global="true"
     inkscape:snap-intersection-paths="true"
     inkscape:object-paths="true"
     inkscape:deskcolor="#d1d1d1">
    <inkscape:grid
       originy="1152"
       originx="0"
       visible="true"
       enabled="false"
       opacity="0.1254902"
       color="#ff3fff"
       empspacing="10"
       spacingy="3.7795276"
       spacingx="3.7795276"
       units="mm"
       id="grid42"
       type="xygrid" />
    <inkscape:grid
       originy="1152"
       originx="0"
       opacity="0.1254902"
       color="#fd3fff"
       empspacing="16"
       enabled="true"
       spacingy="6"
       spacingx="6"
       units="in"
       id="grid890"
       type="xygrid"
       visible="true" />
  </sodipodi:namedview>
  <metadata
     id="metadata61">
    <rdf:RDF>
      <cc:Work
         rdf:about="">
        <dc:format>image/svg+xml</dc:format>
        <dc:type
           rdf:resource="http://purl.org/dc/dcmitype/StillImage" />
      </cc:Work>
    </rdf:RDF>
  </metadata>
  <g
     inkscape:groupmode="layer"
     id="layer2"
     inkscape:label="Mat_12&quot;x12&quot;"
     style="display:none"
     sodipodi:insensitive="true">
    <rect
       ry="18.897638"
       rx="18.897638"
       y="-76.124939"
       x="-38.329662"
       height="1303.937"
       width="1228.3464"
       id="rect150"
       style="fill:#b3b3b3;stroke:#4d4d4d;stroke-width:3.77953;stroke-miterlimit:4;stroke-dasharray:none" />
    <rect
       y="0"
       x="0"
       height="1150.9313"
       width="1150.9312"
       id="rect152"
       style="fill:#ffffff;stroke:#4d4d4d;stroke-width:1.88976;stroke-miterlimit:4;stroke-dasharray:none" />
    <path
       style="fill:#4d4d4d;stroke:#4d4d4d;stroke-width:1px;stroke-linecap:butt;stroke-linejoin:miter;stroke-opacity:1"
       d="m 563.14961,-34.015748 v 18.897638 h 26.4567 v -18.897638 h 15.11811 l -28.34646,-26.456694 -28.34646,26.456694 z"
       id="path44"
       sodipodi:nodetypes="cccccccc" />
    <text
       xml:space="preserve"
       style="font-style:normal;font-weight:normal;font-size:40px;line-height:1.25;font-family:sans-serif;fill:#4d4d4d;fill-opacity:1;stroke:none"
       x="714.51276"
       y="1200.3906"
       id="text1121"><tspan
         sodipodi:role="line"
         id="tspan1119"
         x="714.51276"
         y="1200.3906">12&quot; x 12&quot; Cutting Mat</tspan></text>
  </g>
  <g
     inkscape:groupmode="layer"
     id="layer3"
     inkscape:label="Grid_1&quot;x1&quot;"
     style="display:none"
     sodipodi:insensitive="true">
    <g
       id="g958"
       style="stroke:#4d4d4d">
      <path
         id="path892"
         d="M 96,0 V 1152"
         style="fill:#808080;stroke:#4d4d4d;stroke-width:1.88976;stroke-linecap:butt;stroke-linejoin:miter;stroke-miterlimit:4;stroke-dasharray:none;stroke-opacity:1" />
      <path
         id="path894"
         d="M 192,0 V 1152"
         style="fill:#808080;stroke:#4d4d4d;stroke-width:1.88976;stroke-linecap:butt;stroke-linejoin:miter;stroke-miterlimit:4;stroke-dasharray:none;stroke-opacity:1" />
      <path
         id="path896"
         d="M 288,0 V 1152"
         style="fill:#808080;stroke:#4d4d4d;stroke-width:1.88976;stroke-linecap:butt;stroke-linejoin:miter;stroke-miterlimit:4;stroke-dasharray:none;stroke-opacity:1" />
      <path
         id="path898"
         d="M 384,0 V 1152"
         style="fill:#808080;stroke:#4d4d4d;stroke-width:1.88976;stroke-linecap:butt;stroke-linejoin:miter;stroke-miterlimit:4;stroke-dasharray:none;stroke-opacity:1" />
      <path
         id="path900"
         d="M 480,0 V 1152"
         style="fill:#808080;stroke:#4d4d4d;stroke-width:1.88976;stroke-linecap:butt;stroke-linejoin:miter;stroke-miterlimit:4;stroke-dasharray:none;stroke-opacity:1" />
      <path
         id="path902"
         d="M 576,0 V 1152"
         style="fill:#808080;stroke:#4d4d4d;stroke-width:1.88976;stroke-linecap:butt;stroke-linejoin:miter;stroke-miterlimit:4;stroke-dasharray:none;stroke-opacity:1" />
      <path
         id="path904"
         d="M 672,0 V 1152"
         style="fill:#808080;stroke:#4d4d4d;stroke-width:1.88976;stroke-linecap:butt;stroke-linejoin:miter;stroke-miterlimit:4;stroke-dasharray:none;stroke-opacity:1" />
      <path
         id="path906"
         d="M 768,0 V 1152"
         style="fill:#808080;stroke:#4d4d4d;stroke-width:1.88976;stroke-linecap:butt;stroke-linejoin:miter;stroke-miterlimit:4;stroke-dasharray:none;stroke-opacity:1" />
      <path
         id="path908"
         d="M 864,0 V 1152"
         style="fill:#808080;stroke:#4d4d4d;stroke-width:1.88976;stroke-linecap:butt;stroke-linejoin:miter;stroke-miterlimit:4;stroke-dasharray:none;stroke-opacity:1" />
      <path
         id="path910"
         d="M 960,0 V 1152"
         style="fill:#808080;stroke:#4d4d4d;stroke-width:1.88976;stroke-linecap:butt;stroke-linejoin:miter;stroke-miterlimit:4;stroke-dasharray:none;stroke-opacity:1" />
      <path
         id="path912"
         d="M 1056,0 V 1152"
         style="fill:#808080;stroke:#4d4d4d;stroke-width:1.88976;stroke-linecap:butt;stroke-linejoin:miter;stroke-miterlimit:4;stroke-dasharray:none;stroke-opacity:1" />
      <path
         id="path914"
         d="M 1152,96 H 0"
         style="fill:#808080;stroke:#4d4d4d;stroke-width:1.88976;stroke-linecap:butt;stroke-linejoin:miter;stroke-miterlimit:4;stroke-dasharray:none;stroke-opacity:1" />
      <path
         id="path916"
         d="M 1152,192 H 0"
         style="fill:#808080;stroke:#4d4d4d;stroke-width:1.88976;stroke-linecap:butt;stroke-linejoin:miter;stroke-miterlimit:4;stroke-dasharray:none;stroke-opacity:1" />
      <path
         id="path918"
         d="M 1152,288 H 0"
         style="fill:#808080;stroke:#4d4d4d;stroke-width:1.88976;stroke-linecap:butt;stroke-linejoin:miter;stroke-miterlimit:4;stroke-dasharray:none;stroke-opacity:1" />
      <path
         id="path920"
         d="M 1152,384 H 0"
         style="fill:#808080;stroke:#4d4d4d;stroke-width:1.88976;stroke-linecap:butt;stroke-linejoin:miter;stroke-miterlimit:4;stroke-dasharray:none;stroke-opacity:1" />
      <path
         id="path922"
         d="M 1152,480 H 0"
         style="fill:#808080;stroke:#4d4d4d;stroke-width:1.88976;stroke-linecap:butt;stroke-linejoin:miter;stroke-miterlimit:4;stroke-dasharray:none;stroke-opacity:1" />
      <path
         id="path924"
         d="M 1152,576 H 0"
         style="fill:#808080;stroke:#4d4d4d;stroke-width:1.88976;stroke-linecap:butt;stroke-linejoin:miter;stroke-miterlimit:4;stroke-dasharray:none;stroke-opacity:1" />
      <path
         id="path926"
         d="M 1152,672 H 0"
         style="fill:#808080;stroke:#4d4d4d;stroke-width:1.88976;stroke-linecap:butt;stroke-linejoin:miter;stroke-miterlimit:4;stroke-dasharray:none;stroke-opacity:1" />
      <path
         id="path928"
         d="M 1152,768 H 0"
         style="fill:#808080;stroke:#4d4d4d;stroke-width:1.88976;stroke-linecap:butt;stroke-linejoin:miter;stroke-miterlimit:4;stroke-dasharray:none;stroke-opacity:1" />
      <path
         id="path930"
         d="M 1152,864 H 0"
         style="fill:#808080;stroke:#4d4d4d;stroke-width:1.88976;stroke-linecap:butt;stroke-linejoin:miter;stroke-miterlimit:4;stroke-dasharray:none;stroke-opacity:1" />
      <path
         id="path932"
         d="M 1152,960 H 0"
         style="fill:#808080;stroke:#4d4d4d;stroke-width:1.88976;stroke-linecap:butt;stroke-linejoin:miter;stroke-miterlimit:4;stroke-dasharray:none;stroke-opacity:1" />
      <path
         id="path934"
         d="M 1152,1056 H 0"
         style="fill:#808080;stroke:#4d4d4d;stroke-width:1.88976;stroke-linecap:butt;stroke-linejoin:miter;stroke-miterlimit:4;stroke-dasharray:none;stroke-opacity:1" />
    </g>
    <g
       id="g1197">
      <text
         id="text962"
         y="18"
         x="81.53125"
         style="font-style:normal;font-weight:normal;font-size:40px;line-height:1.25;font-family:sans-serif;fill:#4d4d4d;fill-opacity:1;stroke:none"
         xml:space="preserve"><tspan
           style="font-size:16px;fill:#4d4d4d"
           y="18"
           x="81.53125"
           id="tspan960"
           sodipodi:role="line">1</tspan><tspan
           id="tspan964"
           y="68"
           x="81.53125"
           sodipodi:role="line" /></text>
      <text
         xml:space="preserve"
         style="font-style:normal;font-weight:normal;font-size:40px;line-height:1.25;font-family:sans-serif;fill:#4d4d4d;fill-opacity:1;stroke:none"
         x="176.86719"
         y="18"
         id="text979"><tspan
           sodipodi:role="line"
           id="tspan975"
           x="176.86719"
           y="18"
           style="font-size:16px;fill:#4d4d4d">2</tspan><tspan
           sodipodi:role="line"
           x="176.86719"
           y="68"
           id="tspan977" /></text>
      <text
         xml:space="preserve"
         style="font-style:normal;font-weight:normal;font-size:40px;line-height:1.25;font-family:sans-serif;fill:#4d4d4d;fill-opacity:1;stroke:none"
         x="273.03125"
         y="17.757812"
         id="text985"><tspan
           sodipodi:role="line"
           id="tspan981"
           x="273.03125"
           y="17.757812"
           style="font-size:16px;fill:#4d4d4d">3</tspan><tspan
           sodipodi:role="line"
           x="273.03125"
           y="67.757812"
           id="tspan983" /></text>
      <text
         id="text991"
         y="18"
         x="368.60156"
         style="font-style:normal;font-weight:normal;font-size:40px;line-height:1.25;font-family:sans-serif;fill:#4d4d4d;fill-opacity:1;stroke:none"
         xml:space="preserve"><tspan
           style="font-size:16px;fill:#4d4d4d"
           y="18"
           x="368.60156"
           id="tspan987"
           sodipodi:role="line">4</tspan><tspan
           id="tspan989"
           y="68"
           x="368.60156"
           sodipodi:role="line" /></text>
      <text
         xml:space="preserve"
         style="font-style:normal;font-weight:normal;font-size:40px;line-height:1.25;font-family:sans-serif;fill:#4d4d4d;fill-opacity:1;stroke:none"
         x="464.96094"
         y="17.757812"
         id="text997"><tspan
           sodipodi:role="line"
           id="tspan993"
           x="464.96094"
           y="17.757812"
           style="font-size:16px;fill:#4d4d4d">5</tspan><tspan
           sodipodi:role="line"
           x="464.96094"
           y="67.757812"
           id="tspan995" /></text>
      <text
         id="text1003"
         y="17.757812"
         x="560.69531"
         style="font-style:normal;font-weight:normal;font-size:40px;line-height:1.25;font-family:sans-serif;fill:#4d4d4d;fill-opacity:1;stroke:none"
         xml:space="preserve"><tspan
           style="font-size:16px;fill:#4d4d4d"
           y="17.757812"
           x="560.69531"
           id="tspan999"
           sodipodi:role="line">6</tspan><tspan
           id="tspan1001"
           y="67.757812"
           x="560.69531"
           sodipodi:role="line" /></text>
      <text
         id="text1009"
         y="18"
         x="656.83594"
         style="font-style:normal;font-weight:normal;font-size:40px;line-height:1.25;font-family:sans-serif;fill:#4d4d4d;fill-opacity:1;stroke:none"
         xml:space="preserve"><tspan
           style="font-size:16px;fill:#4d4d4d"
           y="18"
           x="656.83594"
           id="tspan1005"
           sodipodi:role="line">7</tspan><tspan
           id="tspan1007"
           y="68"
           x="656.83594"
           sodipodi:role="line" /></text>
      <text
         xml:space="preserve"
         style="font-style:normal;font-weight:normal;font-size:40px;line-height:1.25;font-family:sans-serif;fill:#4d4d4d;fill-opacity:1;stroke:none"
         x="752.78125"
         y="17.734375"
         id="text1015"><tspan
           sodipodi:role="line"
           id="tspan1011"
           x="752.78125"
           y="17.734375"
           style="font-size:16px;fill:#4d4d4d">8</tspan><tspan
           sodipodi:role="line"
           x="752.78125"
           y="67.734375"
           id="tspan1013" /></text>
      <text
         id="text1021"
         y="17.773438"
         x="848.88281"
         style="font-style:normal;font-weight:normal;font-size:40px;line-height:1.25;font-family:sans-serif;fill:#4d4d4d;fill-opacity:1;stroke:none"
         xml:space="preserve"><tspan
           style="font-size:16px;fill:#4d4d4d"
           y="17.773438"
           x="848.88281"
           id="tspan1017"
           sodipodi:role="line">9</tspan><tspan
           id="tspan1019"
           y="67.773438"
           x="848.88281"
           sodipodi:role="line" /></text>
      <text
         xml:space="preserve"
         style="font-style:normal;font-weight:normal;font-size:40px;line-height:1.25;font-family:sans-serif;fill:#4d4d4d;fill-opacity:1;stroke:none"
         x="934.69531"
         y="17.757812"
         id="text1027"><tspan
           sodipodi:role="line"
           id="tspan1023"
           x="934.69531"
           y="17.757812"
           style="font-size:16px;fill:#4d4d4d">10</tspan><tspan
           sodipodi:role="line"
           x="934.69531"
           y="67.757812"
           id="tspan1025" /></text>
      <text
         xml:space="preserve"
         style="font-style:normal;font-weight:normal;font-size:40px;line-height:1.25;font-family:sans-serif;fill:#4d4d4d;fill-opacity:1;stroke:none"
         x="1031.3438"
         y="18"
         id="text1033"><tspan
           sodipodi:role="line"
           id="tspan1029"
           x="1031.3438"
           y="18"
           style="font-size:16px;fill:#4d4d4d">11</tspan><tspan
           sodipodi:role="line"
           x="1031.3438"
           y="68"
           id="tspan1031" /></text>
      <text
         id="text1039"
         y="18"
         x="1126.6797"
         style="font-style:normal;font-weight:normal;font-size:40px;line-height:1.25;font-family:sans-serif;fill:#4d4d4d;fill-opacity:1;stroke:none"
         xml:space="preserve"><tspan
           style="font-size:16px;fill:#4d4d4d"
           y="18"
           x="1126.6797"
           id="tspan1035"
           sodipodi:role="line">12</tspan><tspan
           id="tspan1037"
           y="68"
           x="1126.6797"
           sodipodi:role="line" /></text>
      <text
         xml:space="preserve"
         style="font-style:normal;font-weight:normal;font-size:40px;line-height:1.25;font-family:sans-serif;fill:#4d4d4d;fill-opacity:1;stroke:none"
         x="9.2539062"
         y="90"
         id="text1045"><tspan
           sodipodi:role="line"
           id="tspan1041"
           x="9.2539062"
           y="90"
           style="font-size:16px;fill:#4d4d4d">1</tspan><tspan
           sodipodi:role="line"
           x="9.2539062"
           y="140"
           id="tspan1043" /></text>
      <text
         id="text1057"
         y="186"
         x="9.3789062"
         style="font-style:normal;font-weight:normal;font-size:40px;line-height:1.25;font-family:sans-serif;fill:#4d4d4d;fill-opacity:1;stroke:none"
         xml:space="preserve"><tspan
           style="font-size:16px;fill:#4d4d4d"
           y="186"
           x="9.3789062"
           id="tspan1053"
           sodipodi:role="line">2</tspan><tspan
           id="tspan1055"
           y="236"
           x="9.3789062"
           sodipodi:role="line" /></text>
      <text
         id="text1063"
         y="281.75781"
         x="9.4375"
         style="font-style:normal;font-weight:normal;font-size:40px;line-height:1.25;font-family:sans-serif;fill:#4d4d4d;fill-opacity:1;stroke:none"
         xml:space="preserve"><tspan
           style="font-size:16px;fill:#4d4d4d"
           y="281.75781"
           x="9.4375"
           id="tspan1059"
           sodipodi:role="line">3</tspan><tspan
           id="tspan1061"
           y="331.75781"
           x="9.4375"
           sodipodi:role="line" /></text>
      <text
         xml:space="preserve"
         style="font-style:normal;font-weight:normal;font-size:40px;line-height:1.25;font-family:sans-serif;fill:#4d4d4d;fill-opacity:1;stroke:none"
         x="9.5742188"
         y="378"
         id="text1069"><tspan
           sodipodi:role="line"
           id="tspan1065"
           x="9.5742188"
           y="378"
           style="font-size:16px;fill:#4d4d4d">4</tspan><tspan
           sodipodi:role="line"
           x="9.5742188"
           y="428"
           id="tspan1067" /></text>
      <text
         id="text1075"
         y="473.75781"
         x="9.3242188"
         style="font-style:normal;font-weight:normal;font-size:40px;line-height:1.25;font-family:sans-serif;fill:#4d4d4d;fill-opacity:1;stroke:none"
         xml:space="preserve"><tspan
           style="font-size:16px;fill:#4d4d4d"
           y="473.75781"
           x="9.3242188"
           id="tspan1071"
           sodipodi:role="line">5</tspan><tspan
           id="tspan1073"
           y="523.75781"
           x="9.3242188"
           sodipodi:role="line" /></text>
      <text
         xml:space="preserve"
         style="font-style:normal;font-weight:normal;font-size:40px;line-height:1.25;font-family:sans-serif;fill:#4d4d4d;fill-opacity:1;stroke:none"
         x="9.3867188"
         y="569.75781"
         id="text1081"><tspan
           sodipodi:role="line"
           id="tspan1077"
           x="9.3867188"
           y="569.75781"
           style="font-size:16px;fill:#4d4d4d">6</tspan><tspan
           sodipodi:role="line"
           x="9.3867188"
           y="619.75781"
           id="tspan1079" /></text>
      <text
         xml:space="preserve"
         style="font-style:normal;font-weight:normal;font-size:40px;line-height:1.25;font-family:sans-serif;fill:#4d4d4d;fill-opacity:1;stroke:none"
         x="9.390625"
         y="666"
         id="text1087"><tspan
           sodipodi:role="line"
           id="tspan1083"
           x="9.390625"
           y="666"
           style="font-size:16px;fill:#4d4d4d">7</tspan><tspan
           sodipodi:role="line"
           x="9.390625"
           y="716"
           id="tspan1085" /></text>
      <text
         id="text1093"
         y="761.73438"
         x="9.4882812"
         style="font-style:normal;font-weight:normal;font-size:40px;line-height:1.25;font-family:sans-serif;fill:#4d4d4d;fill-opacity:1;stroke:none"
         xml:space="preserve"><tspan
           style="font-size:16px;fill:#4d4d4d"
           y="761.73438"
           x="9.4882812"
           id="tspan1089"
           sodipodi:role="line">8</tspan><tspan
           id="tspan1091"
           y="811.73438"
           x="9.4882812"
           sodipodi:role="line" /></text>
      <text
         xml:space="preserve"
         style="font-style:normal;font-weight:normal;font-size:40px;line-height:1.25;font-family:sans-serif;fill:#4d4d4d;fill-opacity:1;stroke:none"
         x="9.5742188"
         y="857.77344"
         id="text1099"><tspan
           sodipodi:role="line"
           id="tspan1095"
           x="9.5742188"
           y="857.77344"
           style="font-size:16px;fill:#4d4d4d">9</tspan><tspan
           sodipodi:role="line"
           x="9.5742188"
           y="907.77344"
           id="tspan1097" /></text>
      <text
         id="text1105"
         y="953.75781"
         x="3.8359375"
         style="font-style:normal;font-weight:normal;font-size:40px;line-height:1.25;font-family:sans-serif;fill:#4d4d4d;fill-opacity:1;stroke:none"
         xml:space="preserve"><tspan
           style="font-size:16px;fill:#4d4d4d"
           y="953.75781"
           x="3.8359375"
           id="tspan1101"
           sodipodi:role="line">10</tspan><tspan
           id="tspan1103"
           y="1003.7578"
           x="3.8359375"
           sodipodi:role="line" /></text>
      <text
         id="text1111"
         y="1050"
         x="4.1601562"
         style="font-style:normal;font-weight:normal;font-size:40px;line-height:1.25;font-family:sans-serif;fill:#4d4d4d;fill-opacity:1;stroke:none"
         xml:space="preserve"><tspan
           style="font-size:16px;fill:#4d4d4d"
           y="1050"
           x="4.1601562"
           id="tspan1107"
           sodipodi:role="line">11</tspan><tspan
           id="tspan1109"
           y="1100"
           x="4.1601562"
           sodipodi:role="line" /></text>
      <text
         xml:space="preserve"
         style="font-style:normal;font-weight:normal;font-size:40px;line-height:1.25;font-family:sans-serif;fill:#4d4d4d;fill-opacity:1;stroke:none"
         x="3.828125"
         y="1146"
         id="text1117"><tspan
           sodipodi:role="line"
           id="tspan1113"
           x="3.828125"
           y="1146"
           style="font-size:16px;fill:#4d4d4d">12</tspan><tspan
           sodipodi:role="line"
           x="3.828125"
           y="1196"
           id="tspan1115" /></text>
    </g>
  </g>
  <g
     inkscape:label="Layer 1"
     inkscape:groupmode="layer"
     id="layer1"
     transform="translate(0,181.417)"
     style="display:inline">
    <g
       id="g3824"
       style="display:inline">
      <path
         d="m 213.81341,412.18194 c 6.24666,2.5152 12.45204,8.50428 15.38273,15.80777 2.93069,7.30361 2.58399,15.92149 -0.19074,22.05604 -2.45334,6.27041 -8.38,12.53629 -15.65334,15.5391 -7.27464,3.00294 -15.89597,2.74294 -22.05735,0.0289 2.68396,6.15321 2.92399,14.73123 -0.067,21.97378 -2.99197,7.24263 -9.21604,13.1499 -15.46,15.61593 -6.10941,2.78244 -14.68134,3.16202 -21.97208,0.28771 -7.28934,-2.87421 -13.29737,-9.0024 -15.86267,-15.20551 v -8.18228 c 0.86933,8.00722 6.38001,16.11725 13.504,19.87538 6.94934,4.07164 16.7467,4.47781 24.00935,0.99549 7.4094,-3.15542 13.57338,-10.78152 15.10271,-18.68913 1.88141,-7.83162 -0.57192,-17.32497 -6.01064,-23.26525 6.01863,5.43694 15.63065,7.81095 23.48801,5.80161 7.94133,-1.64974 15.53068,-8.00721 18.54674,-15.5367 3.35596,-7.38441 2.70266,-17.26283 -1.5947,-24.14164 -3.98137,-7.06709 -12.33997,-12.37083 -20.43066,-12.96123 z"
         stroke="#FFBF00"
         stroke-width="0.24"
         fill="none"
         id="path16"
         style="display:inline;stroke:#00a6ff;stroke-width:0.720225;stroke-miterlimit:4;stroke-dasharray:none;stroke-opacity:1" />
      <path
         d="m 213.81341,703.20615 c 6.24666,-2.51512 12.45204,-8.50416 15.38273,-15.80779 2.93069,-7.30354 2.58399,-15.92146 -0.19074,-22.05596 -2.45334,-6.27055 -8.38,-12.5362 -15.65334,-15.53917 -7.27464,-3.00287 -15.89597,-2.74285 -22.05735,-0.029 2.68396,-6.15339 2.92399,-14.73123 -0.067,-21.97398 -2.99197,-7.24255 -9.21604,-13.14982 -15.46,-15.61555 -6.10941,-2.78274 -14.68134,-3.16222 -21.97208,-0.28791 -7.28934,2.87431 -13.29737,9.0023 -15.86267,15.20548 v 8.18216 c 0.86933,-8.00712 6.38001,-16.1171 13.504,-19.87523 6.94934,-4.07164 16.7467,-4.47791 24.00935,-0.99549 7.4094,3.15532 13.57338,10.78135 15.10271,18.68909 1.88141,7.83167 -0.57192,17.32483 -6.01064,23.26518 6.01863,-5.43701 15.63065,-7.81087 23.48801,-5.8015 7.94133,1.64969 15.53068,8.00712 18.54674,15.53658 3.35596,7.3844 2.70266,17.26294 -1.5947,24.1416 -3.98137,7.06721 -12.33997,12.37086 -20.43066,12.96128 z"
         stroke="#FFBF00"
         stroke-width="0.24"
         fill="none"
         id="path38"
         style="display:inline;stroke:#00a6ff;stroke-width:0.720225;stroke-miterlimit:4;stroke-dasharray:none;stroke-opacity:1" />
      <path
         d="m 591.18753,412.18194 c -6.24676,2.5152 -12.45343,8.50428 -15.38272,15.80777 -2.93069,7.30361 -2.5854,15.92149 0.19064,22.05604 2.45204,6.27041 8.38,12.53629 15.65334,15.5391 7.27474,3.00294 15.89476,2.74294 22.05745,0.0289 -2.68407,6.15321 -2.92539,14.73123 0.067,21.97378 2.99197,7.24263 9.21594,13.1499 15.4587,15.61593 6.1093,2.78244 14.68264,3.16202 21.97198,0.28771 7.29073,-2.87421 13.29737,-9.0024 15.86407,-15.20551 v -8.18228 c -0.87073,8.00722 -6.38002,16.11725 -13.50401,19.87538 -6.94944,4.07164 -16.7467,4.47781 -24.00944,0.99549 -7.4107,-3.15542 -13.57339,-10.78152 -15.10271,-18.68913 -1.88132,-7.83162 0.57072,-17.32497 6.01073,-23.26525 -6.01873,5.43694 -15.63074,7.81095 -23.4881,5.80161 -7.94134,-1.64974 -15.53068,-8.00721 -18.54665,-15.5367 -3.35605,-7.38441 -2.70266,-17.26283 1.59461,-24.14164 3.98006,-7.06709 12.34007,-12.37083 20.42946,-12.96123 z"
         stroke="#FFBF00"
         stroke-width="0.24"
         fill="none"
         id="path48"
         style="display:inline;stroke:#00a6ff;stroke-width:0.720225;stroke-miterlimit:4;stroke-dasharray:none;stroke-opacity:1" />
      <path
         d="m 591.18753,703.20615 c -6.24676,-2.51512 -12.45343,-8.50416 -15.38272,-15.80779 -2.93069,-7.30354 -2.5854,-15.92146 0.19064,-22.05596 2.45204,-6.27055 8.38,-12.5362 15.65334,-15.53917 7.27474,-3.00287 15.89476,-2.74285 22.05745,-0.029 -2.68407,-6.15339 -2.92539,-14.73123 0.067,-21.97398 2.99197,-7.24255 9.21594,-13.14982 15.4587,-15.61555 6.1093,-2.78274 14.68264,-3.16222 21.97198,-0.28791 7.29073,2.87431 13.29737,9.0023 15.86407,15.20548 v 8.18216 c -0.87073,-8.00712 -6.38002,-16.1171 -13.50401,-19.87523 -6.94944,-4.07164 -16.7467,-4.47791 -24.00944,-0.99549 -7.4107,3.15532 -13.57339,10.78135 -15.10271,18.68909 -1.88132,7.83167 0.57072,17.32483 6.01073,23.26518 -6.01873,-5.43701 -15.63074,-7.81087 -23.4881,-5.8015 -7.94134,1.64969 -15.53068,8.00712 -18.54665,15.53658 -3.35605,7.3844 -2.70266,17.26294 1.59461,24.1416 3.98006,7.06721 12.34007,12.37086 20.42946,12.96128 z"
         stroke="#FFBF00"
         stroke-width="0.24"
         fill="none"
         id="path70"
         style="display:inline;stroke:#00a6ff;stroke-width:0.720225;stroke-miterlimit:4;stroke-dasharray:none;stroke-opacity:1" />
      <path
         d="m 402.50042,274.22887 c 31.20141,0 62.40283,13.1895 81.92017,31.96872 l 20.48004,-22.24404 c -12.52002,-11.55469 -28.00541,-21.76991 -45.56675,-28.87152 -17.56135,-7.10162 -37.19735,-11.08936 -56.83346,-11.08936 -19.636,0 -39.272,3.98774 -56.83345,11.08936 -17.56135,7.10161 -33.04674,17.31683 -45.56675,28.87152 l 20.48004,22.24404 c 19.51744,-18.77922 50.71875,-31.96872 81.92016,-31.96872 z"
         stroke="#7FCFFF"
         stroke-width="0.24"
         fill="none"
         id="path210"
         style="display:inline;stroke:#00a6ff;stroke-width:0.720225;stroke-miterlimit:4;stroke-dasharray:none;stroke-opacity:1"
         sodipodi:nodetypes="sccsssccs"
         inkscape:label="path210" />
      <path
         d="m 496.91261,319.58336 c 13.5214,16.59656 23.12272,38.83781 25.7521,61.87492 2.62928,23.03698 -1.71207,46.86983 -11.14534,66.08653 -9.10537,19.37471 -24.99604,37.65981 -44.62274,50.0053 -19.62671,12.34546 -42.98945,18.75147 -64.39621,18.56913 -21.40665,0.18234 -44.7694,-6.22367 -64.3961,-18.56913 -19.62671,-12.34549 -35.51737,-30.63059 -44.62274,-50.0053 -9.43338,-19.2167 -13.77603,-43.04955 -11.14674,-66.08653 2.63068,-23.03711 12.2307,-45.27836 25.7534,-61.87492 z"
         stroke="#7FCFFF"
         stroke-width="0.24"
         fill="none"
         id="path218"
         style="display:inline;stroke:#00a6ff;stroke-width:0.720225;stroke-miterlimit:4;stroke-dasharray:none;stroke-opacity:1"
         sodipodi:nodetypes="cscscscccc" />
      <path
         d="m 534.73536,319.58336 c 12.69606,21.86831 20.16674,48.9869 20.07877,76.08108 -0.087,27.09419 -7.7307,54.16397 -20.56942,75.95015 -12.5427,21.95725 -32.24938,42.02812 -55.72809,55.55002 -23.47871,13.522 -50.72945,20.49504 -76.0162,20.32469 -25.28664,0.17035 -52.53738,-6.80269 -76.01609,-20.32469 -23.47871,-13.5219 -43.18679,-33.59277 -55.7295,-55.55002 -12.83731,-21.78618 -20.48134,-48.85596 -20.56931,-75.95015 -0.087,-27.09418 7.38261,-54.21277 20.07996,-76.08108 h 2.61869 c -12.74264,21.51231 -20.34268,48.29329 -20.43065,75.09908 -0.088,26.80565 7.33602,53.6361 19.9387,75.23148 12.30538,21.76541 31.74275,41.69492 54.94274,55.12305 23.2001,13.42843 50.16283,20.35538 75.16546,20.18473 25.00274,0.17065 51.96547,-6.7563 75.16556,-20.18473 23.2,-13.42813 42.63606,-33.35764 54.94274,-55.12305 12.60269,-21.59538 20.02538,-48.42583 19.93871,-75.23148 -0.088,-26.80579 -7.68801,-53.58677 -20.43075,-75.09908 z"
         stroke="#7FCFFF"
         stroke-width="0.24"
         fill="none"
         id="path236"
         style="display:inline;stroke:#00a6ff;stroke-width:0.720225;stroke-miterlimit:4;stroke-dasharray:none;stroke-opacity:1" />
      <g
         aria-label="$"
         transform="matrix(-1.05395,0.816684,0.816684,1.05395,414.161,-434.815)"
         id="g4851"
         style="font-size:42.6799px;line-height:1.25;font-family:'Permanent Marker';-inkscape-font-specification:'Permanent Marker';display:inline;fill:none;stroke:#00a6ff;stroke-width:1.00031;stroke-opacity:1">
        <path
           d="m 663.3624,534.93771 q 0,2.98009 -2.68834,2.98009 -1.87558,0 -1.87558,-1.33375 0,-0.45847 0.29176,-1.06283 v -0.0833 q 0,-1.39627 -0.95863,-2.27154 -0.93779,-0.87527 -2.3549,-0.87527 -1.95894,0 -3.6678,1.45878 -1.62551,1.39627 -1.62551,2.79253 0,0.95864 1.02115,1.68803 0.6252,0.43763 2.93841,1.47962 4.52224,2.0423 6.37698,3.93873 2.16734,2.18817 2.16734,5.3975 0,2.93841 -2.08398,5.04323 -2.12566,2.16734 -5.64759,2.60498 -0.47931,2.25069 -0.95863,4.52223 -0.47931,1.37543 -1.9381,1.37543 -2.1465,0 -2.1465,-1.91726 0,-0.91695 0.60436,-4.10544 -5.58507,-1.29207 -5.58507,-5.62675 0,-1.58382 1.04199,-2.64665 1.04199,-1.08367 2.54246,-1.08367 0.89611,0 1.45878,0.56267 0.58352,0.56268 0.58352,1.41711 0,0.47932 -0.81275,0.93779 -0.81276,0.45848 -0.81276,0.93779 0,0.77107 1.20871,1.45879 1.33375,0.75023 3.10513,0.75023 2.2507,0 3.772,-1.20871 1.52131,-1.22955 1.52131,-3.02177 0,-2.85505 -5.58507,-5.58506 -4.31383,-2.10482 -4.95987,-2.60498 -1.95894,-1.47962 -1.95894,-4.00124 0,-2.41741 1.87558,-4.54307 1.95894,-2.22986 5.12659,-3.10513 0.16672,-3.14681 0.66688,-4.293 0.60435,-1.33375 2.18818,-1.33375 0.95863,0 1.56298,0.58352 0.62519,0.56267 0.62519,1.45878 0,0.39596 -0.22923,1.31291 -0.29176,1.20871 -0.37512,1.81306 2.62581,0.50016 4.10544,2.16734 1.47963,1.64634 1.47963,4.02208 z"
           style="font-family:'Kristen ITC';-inkscape-font-specification:'Kristen ITC';fill:none;stroke:#00a6ff;stroke-opacity:1"
           id="path4849" />
      </g>
      <g
         aria-label="$"
         transform="matrix(1.05395,0.816684,-0.816684,1.05395,387.821,-437.661)"
         id="g5367"
         style="font-size:42.6799px;line-height:1.25;font-family:'Permanent Marker';-inkscape-font-specification:'Permanent Marker';display:inline;fill:none;stroke:#00a6ff;stroke-width:1.00031;stroke-opacity:1">
        <path
           d="m 663.3624,534.93771 q 0,2.98009 -2.68834,2.98009 -1.87558,0 -1.87558,-1.33375 0,-0.45847 0.29176,-1.06283 v -0.0833 q 0,-1.39627 -0.95863,-2.27154 -0.93779,-0.87527 -2.3549,-0.87527 -1.95894,0 -3.6678,1.45878 -1.62551,1.39627 -1.62551,2.79253 0,0.95864 1.02115,1.68803 0.6252,0.43763 2.93841,1.47962 4.52224,2.0423 6.37698,3.93873 2.16734,2.18817 2.16734,5.3975 0,2.93841 -2.08398,5.04323 -2.12566,2.16734 -5.64759,2.60498 -0.47931,2.25069 -0.95863,4.52223 -0.47931,1.37543 -1.9381,1.37543 -2.1465,0 -2.1465,-1.91726 0,-0.91695 0.60436,-4.10544 -5.58507,-1.29207 -5.58507,-5.62675 0,-1.58382 1.04199,-2.64665 1.04199,-1.08367 2.54246,-1.08367 0.89611,0 1.45878,0.56267 0.58352,0.56268 0.58352,1.41711 0,0.47932 -0.81275,0.93779 -0.81276,0.45848 -0.81276,0.93779 0,0.77107 1.20871,1.45879 1.33375,0.75023 3.10513,0.75023 2.2507,0 3.772,-1.20871 1.52131,-1.22955 1.52131,-3.02177 0,-2.85505 -5.58507,-5.58506 -4.31383,-2.10482 -4.95987,-2.60498 -1.95894,-1.47962 -1.95894,-4.00124 0,-2.41741 1.87558,-4.54307 1.95894,-2.22986 5.12659,-3.10513 0.16672,-3.14681 0.66688,-4.293 0.60435,-1.33375 2.18818,-1.33375 0.95863,0 1.56298,0.58352 0.62519,0.56267 0.62519,1.45878 0,0.39596 -0.22923,1.31291 -0.29176,1.20871 -0.37512,1.81306 2.62581,0.50016 4.10544,2.16734 1.47963,1.64634 1.47963,4.02208 z"
           style="font-family:'Kristen ITC';-inkscape-font-specification:'Kristen ITC';fill:none;stroke:#00a6ff;stroke-opacity:1"
           id="path5365" />
      </g>
      <g
         aria-label="$"
         transform="matrix(-1.05395,0.816684,0.816684,1.05395,879.837,-661.329)"
         id="g5877"
         style="font-size:42.6799px;line-height:1.25;font-family:'Permanent Marker';-inkscape-font-specification:'Permanent Marker';display:inline;fill:none;stroke:#00a6ff;stroke-width:1.00031;stroke-opacity:1">
        <path
           d="m 663.3624,534.93771 q 0,2.98009 -2.68834,2.98009 -1.87558,0 -1.87558,-1.33375 0,-0.45847 0.29176,-1.06283 v -0.0833 q 0,-1.39627 -0.95863,-2.27154 -0.93779,-0.87527 -2.3549,-0.87527 -1.95894,0 -3.6678,1.45878 -1.62551,1.39627 -1.62551,2.79253 0,0.95864 1.02115,1.68803 0.6252,0.43763 2.93841,1.47962 4.52224,2.0423 6.37698,3.93873 2.16734,2.18817 2.16734,5.3975 0,2.93841 -2.08398,5.04323 -2.12566,2.16734 -5.64759,2.60498 -0.47931,2.25069 -0.95863,4.52223 -0.47931,1.37543 -1.9381,1.37543 -2.1465,0 -2.1465,-1.91726 0,-0.91695 0.60436,-4.10544 -5.58507,-1.29207 -5.58507,-5.62675 0,-1.58382 1.04199,-2.64665 1.04199,-1.08367 2.54246,-1.08367 0.89611,0 1.45878,0.56267 0.58352,0.56268 0.58352,1.41711 0,0.47932 -0.81275,0.93779 -0.81276,0.45848 -0.81276,0.93779 0,0.77107 1.20871,1.45879 1.33375,0.75023 3.10513,0.75023 2.2507,0 3.772,-1.20871 1.52131,-1.22955 1.52131,-3.02177 0,-2.85505 -5.58507,-5.58506 -4.31383,-2.10482 -4.95987,-2.60498 -1.95894,-1.47962 -1.95894,-4.00124 0,-2.41741 1.87558,-4.54307 1.95894,-2.22986 5.12659,-3.10513 0.16672,-3.14681 0.66688,-4.293 0.60435,-1.33375 2.18818,-1.33375 0.95863,0 1.56298,0.58352 0.62519,0.56267 0.62519,1.45878 0,0.39596 -0.22923,1.31291 -0.29176,1.20871 -0.37512,1.81306 2.62581,0.50016 4.10544,2.16734 1.47963,1.64634 1.47963,4.02208 z"
           style="font-family:'Kristen ITC';-inkscape-font-specification:'Kristen ITC';fill:none;stroke:#00a6ff;stroke-opacity:1"
           id="path5875" />
      </g>
      <g
         aria-label="$"
         transform="matrix(1.05395,0.816684,-0.816684,1.05395,-79.5983,-660.699)"
         id="g6387"
         style="font-size:42.6799px;line-height:1.25;font-family:'Permanent Marker';-inkscape-font-specification:'Permanent Marker';display:inline;fill:none;stroke:#00a6ff;stroke-width:1.00031;stroke-opacity:1">
        <path
           d="m 663.3624,534.93771 q 0,2.98009 -2.68834,2.98009 -1.87558,0 -1.87558,-1.33375 0,-0.45847 0.29176,-1.06283 v -0.0833 q 0,-1.39627 -0.95863,-2.27154 -0.93779,-0.87527 -2.3549,-0.87527 -1.95894,0 -3.6678,1.45878 -1.62551,1.39627 -1.62551,2.79253 0,0.95864 1.02115,1.68803 0.6252,0.43763 2.93841,1.47962 4.52224,2.0423 6.37698,3.93873 2.16734,2.18817 2.16734,5.3975 0,2.93841 -2.08398,5.04323 -2.12566,2.16734 -5.64759,2.60498 -0.47931,2.25069 -0.95863,4.52223 -0.47931,1.37543 -1.9381,1.37543 -2.1465,0 -2.1465,-1.91726 0,-0.91695 0.60436,-4.10544 -5.58507,-1.29207 -5.58507,-5.62675 0,-1.58382 1.04199,-2.64665 1.04199,-1.08367 2.54246,-1.08367 0.89611,0 1.45878,0.56267 0.58352,0.56268 0.58352,1.41711 0,0.47932 -0.81275,0.93779 -0.81276,0.45848 -0.81276,0.93779 0,0.77107 1.20871,1.45879 1.33375,0.75023 3.10513,0.75023 2.2507,0 3.772,-1.20871 1.52131,-1.22955 1.52131,-3.02177 0,-2.85505 -5.58507,-5.58506 -4.31383,-2.10482 -4.95987,-2.60498 -1.95894,-1.47962 -1.95894,-4.00124 0,-2.41741 1.87558,-4.54307 1.95894,-2.22986 5.12659,-3.10513 0.16672,-3.14681 0.66688,-4.293 0.60435,-1.33375 2.18818,-1.33375 0.95863,0 1.56298,0.58352 0.62519,0.56267 0.62519,1.45878 0,0.39596 -0.22923,1.31291 -0.29176,1.20871 -0.37512,1.81306 2.62581,0.50016 4.10544,2.16734 1.47963,1.64634 1.47963,4.02208 z"
           style="font-family:'Kristen ITC';-inkscape-font-specification:'Kristen ITC';fill:none;stroke:#00a6ff;stroke-opacity:1"
           id="path6385" />
      </g>
      <g
         id="g7096"
         transform="matrix(1.33334,0,0,1.33334,-271.48,-625.379)"
         style="display:inline;fill:none;stroke:#00a6ff;stroke-opacity:1">
        <path
           id="path7092"
           style="font-stretch:semi-expanded;font-size:32.0099px;line-height:1.25;font-family:'Kristen ITC';-inkscape-font-specification:'Kristen ITC Semi-Expanded';fill:none;stroke:#00a6ff;stroke-width:0.999999;stroke-opacity:1"
           d="m 5049.748,1016.1094 c -0.104,0 -0.2089,0 -0.3144,0 -1.8098,-0.045 -3.2833,1.5093 -3.5293,3.2344 -0.3432,2.6948 -0.2591,5.4278 -0.3555,8.1406 0.02,0.591 0.125,1.2701 -0.6718,1.0644 -3.3,0.1423 -6.604,0.1529 -9.9063,0.1172 0.1478,-2.7969 0.4817,-5.5854 0.5938,-8.3808 0.033,-1.7295 -1.2775,-3.4375 -3.0645,-3.545 -1.8103,-0.2757 -3.6299,0.9773 -4.0723,2.7442 -0.4414,1.6399 -0.335,3.3713 -0.5371,5.0508 -0.1546,1.6199 1.2739,2.6831 -0.3789,4.8847 -0.8236,1.7088 -1.5218,4.5634 -1.7949,7.5684 -1.9952,0.123 -4.4008,0.9942 -5.1406,2.0351 -0.7234,1.0526 -1.5664,2.1035 -2.8379,2.4981 -2.1755,0.7409 -4.5854,0.8281 -6.8223,0.3184 -2.0241,-0.4507 -3.5742,-2.1454 -4.082,-4.1231 -0.7245,-2.6746 -0.736,-5.5693 -0.014,-8.2461 0.7026,-2.6295 2.8503,-4.9885 5.6445,-5.3223 2.6892,-0.4787 5.3724,0.6059 7.4864,2.2149 1.4064,1.0751 3.5465,0.7441 4.6308,-0.625 1.2713,-1.3318 1.1081,-3.5708 -0.1699,-4.8399 -2.8633,-3.0303 -7.2334,-4.1269 -11.2871,-3.9472 -3.8966,0.1066 -7.7415,1.8496 -10.2363,4.873 -0.7481,0.862 -1.373,1.804 -1.8907,2.7989 -0.092,-0.8258 -0.2056,-1.6758 -0.3085,-2.5098 -0.6188,-3.2239 -1.3098,-4.3229 -3.0723,-5.2012 -0.5428,-0.2825 -1.1671,-0.3931 -1.7754,-0.3613 -0.8573,0.021 -1.6764,0.4002 -2.2871,0.9941 -3.4336,-1.3572 -7.4953,-0.9509 -10.668,0.9063 -3.3051,1.9463 -5.4386,5.6108 -5.625,9.4277 -0.2265,2.9621 0.3287,6.3201 2.7344,8.3184 0.5012,0.331 0.7806,0.5496 0.098,0.7871 -0.5182,0.3707 -0.8877,0.8399 -1.1563,1.3652 -1.1359,-0.4708 -2.5389,-0.4308 -3.9805,0.6406 -1.7198,0.5693 -3.248,1.6901 -5.0898,1.8985 -1.9373,0.357 -3.9108,0.4611 -5.877,0.5117 0.1475,-1.8789 0.229,-3.7626 0.2793,-5.6465 2.3145,-0.014 4.6688,0.163 6.9512,-0.291 1.6978,-0.3353 3.0006,-2.0296 2.7012,-3.7695 -0.1009,-1.7364 -1.7676,-3.0233 -3.4531,-2.9688 -2.0175,0.081 -4.0402,0.256 -6.0626,0.1485 0.013,-1.6375 0.032,-3.2746 0.035,-4.9122 3.8212,0.5686 7.277,0.8437 8.043,0.4532 1.8505,-0.7853 2.7444,-3.3492 1.4765,-5.0039 -2.7497,-3.3224 -10.4351,-2.8172 -15.2656,-2.7657 -1.6189,0.033 -3.5387,0.4476 -4.293,2.0606 -0.8902,1.7355 -0.098,4.2338 1.8653,4.7969 0.3773,0.2521 1.2487,-0.06 1.0722,0.5976 0.021,2.3998 0.037,4.8031 0.014,7.2051 -2.1327,-0.9172 -5.4705,-1.3453 -7.248,-1.627 -3.2702,-0.4749 -6.5253,-1.0994 -9.7442,-0.5078 -1.8504,0.3715 -3.9807,1.3214 -4.4453,3.3418 -0.4639,2.1242 1.4086,4.5037 3.6387,4.2129 1.3248,-0.1837 2.5795,-0.7739 3.9336,-0.7734 -0.6003,2.0916 -1.3548,4.4846 -3.3731,5.623 -2.0519,1.0044 -4.9185,0.4881 -6.1367,-1.5625 -1.5065,-2.4345 -1.4889,-5.4611 -1.2031,-8.2168 0.3032,-2.6961 1.6852,-5.4757 4.2617,-6.6347 2.5275,-1.1182 5.5058,-1.1816 8.1152,-0.3028 1.3596,0.5367 2.747,1.645 4.2872,1.0938 2.1182,-0.5955 3.2491,-3.3921 1.9726,-5.2383 -1.2657,-1.7917 -3.4893,-2.5537 -5.5254,-3.0898 -1.4333,-0.3372 -2.9086,-0.4674 -4.3789,-0.4688 -4.2755,-0.042 -8.7339,1.2995 -11.7441,4.4551 -3.3399,3.3378 -4.5577,8.2132 -4.4961,12.8164 -0.02,4.2052 1.1477,8.6779 4.3144,11.625 3.159,3.029 8.0939,3.779 12.1524,2.3437 1.0996,-0.3985 2.1122,-1.0157 3.0039,-1.7695 0.6724,1.6135 2.5797,2.6355 4.2695,2.0098 1.638,-0.4712 1.8632,-2.3093 2.2637,-4.0254 0.4867,-3.2616 1.4818,-3.9869 1.5723,-6.2422 1.8131,0.8523 3.1752,1.1973 4.1933,1.1934 -0.044,0.5893 -0.089,1.1789 -0.1445,1.7675 -0.2706,0.2567 -0.963,0.1802 -1.334,0.4942 -1.9735,0.9416 -2.5392,3.9632 -0.8496,5.4355 1.6913,1.4537 4.0775,1.1038 6.1426,1.1543 5.345,-0.022 11.5389,0.6867 16.4394,-1.6933 0.2399,-0.1166 0.5192,-0.2898 0.8106,-0.4864 -0.01,1.0754 0.01,2.15 0.076,3.2207 0.1383,1.7301 1.6645,3.2221 3.4258,3.168 1.6567,0.1252 3.3095,-1.0784 3.5352,-2.7559 0.088,-0.5272 -0.08,-1.2154 0.6894,-0.8222 3.2571,0.3854 5.2,0.208 7.4844,-2.3399 2.1347,-2.3567 2.1909,-6.0244 0.877,-8.791 -1.211,-2.5223 -2.1374,-4.2115 -4.6543,-5.0547 -1.5203,-0.5966 -3.211,-0.9448 -4.5176,-1.9609 -0.7184,-1.2309 -0.597,-2.8209 -0.1719,-4.1367 0.7388,-2.0612 3.0497,-3.2045 5.1602,-2.877 0.6712,0.077 1.3203,0.3025 1.916,0.6172 0.043,1.7775 2.6213,5.8953 4.459,6.5313 0.8639,0.313 1.8895,0.2522 2.7617,-0.1153 -0.1576,1.3702 -0.187,2.755 -0.1,4.1153 0.1867,4.1979 1.7068,8.5684 5.0683,11.2675 3.4808,2.8835 8.3058,3.429 12.6446,2.7891 2.6722,-0.4069 6.7778,-2.0151 9.5859,-4.0527 0.6556,1.9671 1.7816,3.4287 3.5527,3.8496 1.7261,0.4728 3.8016,-0.4196 4.3125,-2.2129 0.6054,-2.0588 0.2154,-4.2359 0.3086,-6.3477 0.01,-1.5444 0.036,-3.0894 0.09,-4.6328 3.6198,0.093 7.2406,0.093 10.8613,0.076 0.048,3.1394 -0.1136,6.2908 0.1445,9.4219 0.091,1.6259 1.3484,3.14 3.0196,3.2597 1.2272,0.2087 2.9662,-0.075 4.0214,-0.873 0.5255,0.2469 1.0981,0.4032 1.6582,0.4433 2.9458,0.1833 9.6647,0.3771 12.6114,0.2461 2.7978,-0.195 8.128,-0.2191 12.1093,-0.9687 0.5592,1.1304 1.59,2.018 2.9043,2.0605 1.7685,0.2218 3.4182,-1.1845 3.6602,-2.916 0.2795,-2.3407 1.1694,-5.1213 1.7051,-7.6933 0.5546,-2.6628 1.1888,-5.2711 1.5605,-8.0098 2.8266,5.3337 5.9938,10.5179 9.7676,15.2383 1.3156,1.6485 3.2669,3.2379 5.5137,2.8769 0.192,-0.021 0.3992,-0.076 0.6133,-0.1484 -0.268,0.8647 -0.3272,1.6294 0.082,2.0898 1.2739,1.5802 8.3202,-0.3643 9.6055,-1.8672 1.729,-1.9573 2.044,-4.6845 2.4531,-7.164 0.2563,-1.7445 0.432,-3.5 0.5879,-5.2559 0.432,-0.1791 0.8356,-0.7033 1.2656,-0.7051 4.2413,2.455 7.5131,6.2994 10.0234,10.4532 0.8597,1.3138 4.2647,4.3864 5.9668,4.6992 1.667,0.4537 3.5086,-0.5236 4.1817,-2.0586 0.1372,0.022 0.2759,0.047 0.4121,0.057 2.9457,0.1833 7.6549,-0.5565 10.6015,-0.6875 3.8226,-0.2658 7.7559,-0.8973 11.129,-2.8144 1.4355,-0.8136 2.5949,-2.5006 2.0585,-4.1914 -0.4919,-1.8929 -2.7459,-2.9703 -4.5468,-2.2403 -1.702,0.6102 -3.2448,1.6837 -5.084,1.8887 -1.9086,0.3388 -5.475,1.1955 -7.4102,1.2441 0.1533,-1.8785 1.0906,-4.1888 1.9043,-6.3984 2.3152,-0.014 4.6701,0.1629 6.9532,-0.291 1.6925,-0.3355 2.9969,-2.0207 2.7011,-3.7578 -0.093,-1.7389 -1.7631,-3.0366 -3.4531,-2.9805 -2.0175,0.081 -4.0402,0.258 -6.0625,0.1504 0.013,-1.6375 0.032,-3.2765 0.035,-4.9141 2.178,0.1805 4.5341,0.3117 6.75,0.8457 1.4695,0.42 3.0081,1.5129 4.5586,0.7598 1.8528,-0.7829 2.7492,-3.3515 1.4785,-5.0058 -1.337,-1.7437 -3.6238,-2.2742 -5.6446,-2.8067 -4.2159,-0.9659 -8.5789,-1.1656 -12.8906,-1.1094 -1.3425,0.6185 -1.6002,0.4475 -2.3535,2.0606 -0.8709,1.7013 -0.1374,4.1427 1.7637,4.7617 0.3555,0.2842 1.2438,-0.026 1.1699,0.5332 0.051,5.8097 -3.5871,12.2636 -4.1426,18.0527 -0.6533,0.036 -1.2598,0.2883 -1.7676,0.6778 -0.015,-0.026 -0.032,-0.053 -0.047,-0.078 -2.6068,-3.8436 -8.3484,-8.7765 -12.1641,-11.4531 2.9361,-2.5055 5.9761,-5.0265 8.1113,-8.2832 1.0293,-1.5428 1.6329,-3.808 0.3438,-5.3789 -1.3105,-1.5948 -3.9306,-1.3809 -5.3008,0.037 -1.7505,1.949 -3.3014,4.0904 -5.2363,5.875 -1.6219,1.5775 -3.3572,3.0365 -5.1661,4.3946 -0.1244,-2.6408 0.048,-5.323 -0.4843,-7.9258 -0.3796,-1.8892 -1.8059,-3.7248 -3.9121,-3.586 v 0 c -1.6959,-0.043 -3.2382,1.3243 -3.3926,3.0156 -0.1277,1.674 0.2479,3.3459 0.3242,5.0195 0.092,0.9986 0.1719,2.2486 0.2129,3.0938 0.1558,3.8602 -0.898,7.669 -2.0176,11.4492 -0.083,-0.3592 -0.1578,-0.695 -0.2656,-1.1211 -0.7354,-3.8129 -1.6019,-7.2595 -2.2774,-10.914 -0.3997,-2.1629 -0.6708,-4.2918 -1.0507,-6.5137 -0.2653,-1.5511 -0.6452,-3.4888 -2.3926,-3.9278 -0.3903,-0.1019 -0.7937,-0.1545 -1.1973,-0.1328 -1.7941,0.03 -3.543,1.615 -3.4043,3.1836 0.3534,3.9952 0.6605,5.9282 1.2266,8.8535 0.4211,2.1762 0.8691,4.4613 1.6094,6.4512 -3.6073,-5.3017 -7.1103,-10.3694 -9.6504,-16.2051 -0.6415,-1.5565 -2.4577,-2.5381 -4.0938,-1.9902 -2.0552,0.562 -2.9775,2.7231 -3.4453,4.6133 -1.07,4.3085 -2.2592,8.5404 -3.1016,12.873 -0.2748,1.4136 -0.6183,2.8638 -0.9296,4.3145 -1.8362,0.6482 -7.1072,2.3155 -8.9024,2.5156 -1.9085,0.3386 -3.85,0.4457 -5.7851,0.4941 0.1509,-1.8787 0.2272,-3.7646 0.2793,-5.6484 2.3151,-0.014 4.67,0.1628 6.9531,-0.291 1.6919,-0.337 2.9973,-2.0196 2.7012,-3.7578 -0.094,-1.7384 -1.7653,-3.0365 -3.4551,-2.9805 -2.0175,0.081 -4.0383,0.2579 -6.0606,0.1504 0.013,-1.6375 0.032,-3.2765 0.035,-4.9141 2.1781,0.1805 4.5341,0.3118 6.75,0.8457 1.4697,0.42 1.1309,0.7618 2.6816,0.01 1.8532,-0.7832 2.7507,-3.3508 1.4805,-5.0058 -1.3608,-1.7687 -1.8146,-1.5436 -3.8672,-2.0782 -4.1872,-0.9455 -8.5132,-1.1423 -12.793,-1.0859 v 0 c -1.6132,0.035 -2.1667,-0.1765 -2.9277,1.4258 -0.8989,1.7333 0.635,4.2416 2.6035,4.8106 -0.5428,5.7867 -1.7034,10.4905 -2.1972,15.8496 -0.7885,0.043 -2.0238,0.8051 -3.1875,1.8144 -0.081,-4.0153 -0.9842,-8.4322 -0.8868,-12.4277 l 0.031,-1.2344 c 0.071,-2.2052 0.1543,-4.3551 0.2656,-6.5742 -0.014,-0.3079 -9e-4,-0.9785 -0.1328,-1.4219 -0.291,-1.554 -1.6585,-2.7252 -3.2188,-2.7812 z"
           transform="matrix(1.00031,0,0,1.00031,-4658.44,0)" />
        <path
           id="path7094"
           style="font-stretch:semi-expanded;font-size:32.0099px;line-height:1.25;font-family:'Kristen ITC';-inkscape-font-specification:'Kristen ITC Semi-Expanded';fill:none;stroke:#00a6ff;stroke-width:0.999999;stroke-opacity:1"
           d="m 5220.6973,1016.0488 c -2.1508,0.024 -3.5186,0.4586 -4.9434,2.2344 -0.4296,0.5456 -0.6427,1.2376 -0.6543,1.9277 l 0.2168,1.2832 c 0.4461,1.1812 0.4218,2.1235 1.709,2.2325 0.3818,3.9934 0.5749,8.0671 -0.1387,12.0351 -0.5017,2.6486 -1.6673,5.5856 -4.3183,6.7188 -1.6854,0.6608 -3.6691,0.8669 -5.3848,0.205 -1.712,-0.8171 -1.9587,-2.956 -1.9902,-4.6386 -0.065,-4.8048 1.3842,-9.5659 3.873,-13.6563 1.4472,0.8945 2.4969,-1.0871 2.8145,-2.2441 0.4037,-1.4711 0.1397,-3.2337 -1.6211,-4.2793 -1.2236,-0.7265 -1.4256,-1.06 -3.6563,-1.293 -2.22,-0.1084 -2.8082,-0.014 -4.6894,1.3184 -1.7812,1.2664 -2.0888,4.3153 -0.2715,5.6719 -1.2767,2.4439 -2.2324,5.0691 -2.8301,7.7695 -1.6184,-1.059 -3.9529,-1.6415 -5.543,-2.0469 -2.9441,-0.6234 -6.0542,-0.6751 -8.9863,0.041 -1.7191,0.4305 -3.6501,1.5531 -3.8359,3.4942 -0.3132,2.1529 1.7795,4.375 3.9746,3.8613 1.2106,-0.2374 2.3803,-0.7227 3.6289,-0.7285 -0.5997,2.0922 -1.3554,4.4835 -3.3731,5.623 -2.0518,1.0048 -4.9188,0.4881 -6.1367,-1.5625 -1.4916,-2.4039 -1.4856,-5.3921 -1.2148,-8.1172 0.2829,-2.7301 1.6642,-5.5581 4.2734,-6.7324 2.5275,-1.1178 5.5058,-1.1837 8.1152,-0.3047 1.3596,0.5367 2.747,1.645 4.2872,1.0938 2.1182,-0.5955 3.2491,-3.3921 1.9726,-5.2383 -1.2657,-1.7917 -3.4893,-2.5518 -5.5254,-3.0879 -1.4334,-0.3373 -2.9086,-0.4691 -4.3789,-0.4707 -4.2752,-0.043 -8.7281,1.2993 -11.7422,4.4492 -1.9521,1.9538 -3.1664,4.4386 -3.8379,7.0821 -0.053,-0.025 -0.1084,-0.049 -0.164,-0.07 -1.1703,-0.5235 -2.4812,-0.4442 -3.7305,-0.4394 v 0 c -1.9528,-9e-4 -4.2368,0.072 -5.6055,1.6836 -1.4153,1.6765 -0.7995,4.7136 1.375,5.4141 2.0084,0.523 4.0755,-0.273 6.1094,0.031 0.4621,0.035 0.9318,-0.021 1.377,-0.1543 0.1161,3.9415 1.2728,8.0077 4.1777,10.795 3.1587,3.1087 8.1593,3.9031 12.2676,2.4472 1.0998,-0.398 2.1117,-1.0163 3.0039,-1.7695 0.672,1.6138 2.5797,2.6352 4.2695,2.0098 1.5001,-0.451 2.8787,-2.1857 2.1817,-3.7715 0.344,0.2538 -0.096,-0.7801 -0.094,-1.2383 -0.2176,-1.1898 -0.3377,-2.3967 -0.375,-3.6055 -0.3389,0.5155 -0.7381,1.4341 -0.834,0.3145 -0.2922,-1.0163 -0.5847,-2.0325 -0.8769,-3.0488 0.6214,0.027 1.1153,0.5052 1.7129,0.5957 0.8642,0.1307 2.1712,10e-5 2.621,-0.09 -0.032,0.1091 0.065,0.1153 0.211,0.074 0.01,0.8541 0.045,1.7077 0.1348,2.5586 0.3728,3.3622 2.1417,6.7117 5.207,8.3321 3.1137,1.6704 6.8865,1.7107 10.248,0.8515 3.8747,-1.0103 6.9671,-4.0504 8.5528,-7.664 1.7353,-3.882 2.2123,-8.1363 2.1836,-12.3653 0.4233,0.1449 0.8778,0.2015 1.3398,0.1387 1.9029,-0.1186 3.1357,-1.9399 3.4023,-3.6855 1.2835,-0.5292 2.808,-0.6157 4.2168,-0.7344 0.3515,0.2494 0.073,1.1788 0.1797,1.6914 0.1356,5.3864 0.1283,10.7788 -0.248,16.1562 -0.047,1.8542 -0.567,4.0117 0.7578,5.5684 1.513,1.8473 4.9002,1.386 5.7969,-0.8594 0.7666,-1.9479 0.576,-4.0959 0.7343,-6.1465 0.2124,-5.435 0.147,-10.8766 0,-16.3125 1.8214,0.1944 3.705,0.2444 5.4434,0.8575 0.5616,0.3378 1.215,0.5612 1.873,0.6269 -0.03,0.2242 -0.075,0.4458 -0.092,0.6719 -0.2764,3.0051 -0.054,7.155 2.5781,8.5332 0.7277,0.381 2.209,1.2305 2.209,1.2305 1.9135,0.9374 3.5682,1.7179 4.0957,1.914 0.269,0.097 0.5377,0.1943 0.8067,0.291 0.8549,0.3854 1.9032,0.6014 2.5058,1.3672 0.1853,0.3664 0.087,0.8476 -0.3847,0.8965 -1.0155,0.2616 -2.1738,0.4542 -3.1797,0.08 -0.4214,-0.6898 -2.6149,-1.3173 -4.4278,-1.6328 -1.9542,0.1776 -3.2203,0.1496 -3.3047,2.0664 -0.068,2.353 -0.141,4.7164 -0.023,7.0664 0.1168,1.7259 1.5821,3.2712 3.3516,3.2539 1.684,0.1656 3.3964,-1.0389 3.625,-2.752 0.089,-0.5238 -0.081,-1.2157 0.6875,-0.8222 3.2602,0.3859 4.977,-0.2361 7.2597,-2.791 2.1755,-2.413 2.1874,-6.1748 0.7852,-8.9707 -1.3056,-2.4684 -1.9986,-3.6439 -4.5137,-4.4903 -1.4508,-0.5541 -3.0411,-0.9133 -4.2988,-1.8554 -0.7359,-1.1178 -0.6243,-2.6095 -0.3164,-3.8614 0.5782,-2.11 2.8093,-3.4395 4.9414,-3.2207 0.7826,0.042 1.5487,0.2784 2.2383,0.6465 0.041,1.7778 0.7189,3.8578 2.5547,4.4961 0.9104,0.3303 2.3642,0.2815 3.6113,-0.1055 -0.4545,2.077 -0.59,4.2359 -0.4414,6.336 0.2225,4.1659 1.7771,8.4853 5.1367,11.1347 3.5056,2.8515 8.3315,3.3708 12.668,2.711 3.1522,-0.5008 9.4787,-3.3107 12.3476,-6.0274 0,0.7306 0.01,1.4612 0.029,2.1914 0.045,1.5998 0.9887,3.2997 2.6524,3.6465 1.7333,0.4797 3.8204,-0.4233 4.3261,-2.2265 0.5992,-2.0887 0.2053,-4.2918 0.3028,-6.4317 0.01,-1.5111 0.037,-3.0231 0.09,-4.5332 3.6205,0.093 7.2419,0.093 10.8633,0.076 0.8469,3.6606 1.5887,7.8446 2.2656,11.543 0.091,1.6262 1.3486,3.1431 3.0215,3.2597 1.722,0.2921 5.2955,0.6805 5.7246,-1.0293 0.042,-0.1642 0.056,-0.3452 0.059,-0.5332 0.3111,0.072 0.6251,0.1252 0.9336,0.1367 3.2298,0.1433 9.3026,-0.7393 12.5273,-0.955 2.7195,-0.2762 7.3504,-1.6735 10.7286,-3.1465 0.098,1.3606 0.911,2.8819 1.9863,3.4922 2.2849,1.3397 6.5221,0.8472 9.0898,0.7089 1.6892,-0.1402 4.9337,-0.3231 6.8282,-1.3632 0.5506,0.6137 1.2814,1.04 2.1543,1.0937 1.7581,0.2665 3.46,-1.0777 3.7382,-2.8086 0.3016,-2.1033 0.1887,-4.2492 0.3223,-6.3691 0.1097,-3.0281 0.3106,-6.0567 0.7168,-9.0606 2.81,5.3073 5.9636,10.4597 9.7031,15.166 1.3165,1.648 3.2326,3.2796 5.4883,2.9629 1.8221,-0.1501 3.1326,-1.9068 3.1152,-3.6718 -0.01,-2.5391 -0.3435,-5.0776 -0.1796,-7.6211 0.1473,-3.6754 0.4244,-7.349 0.9082,-10.9961 0.1313,-0.9504 0.3263,-2.1613 0.5,-3.211 0.2622,-1.8893 0.9166,-4.0743 -0.3243,-5.7636 -0.6543,-0.9116 -1.8044,-1.3634 -2.9062,-1.3028 -1.7916,0.031 -3.0114,1.6874 -3.3692,3.3028 -0.7922,3.2133 -1.1417,6.5208 -1.4785,9.8086 -0.1992,2.0376 -0.3131,4.082 -0.4023,6.1269 -3.6481,-5.3603 -6.4706,-11.2217 -9.0547,-17.1523 -0.7037,-1.4509 -2.4439,-2.3116 -4.0059,-1.793 -2.0542,0.5627 -2.978,2.7232 -3.4453,4.6133 -1.0622,4.2761 -1.7239,8.6471 -2.2129,13.0234 -0.2116,2.1174 -0.388,4.2469 -0.4511,6.377 v 0 c -0.6527,-0.3018 -4.1932,0.5784 -4.8945,0.7364 0.5567,-5.5307 1.5687,-11.7834 0.4336,-17.252 1.6085,0.4 3.2286,-0.9241 3.3926,-2.582 0.3901,-1.9642 -1.3214,-3.2988 -3.084,-4.0625 -2.0303,-0.9947 -2.2362,-0.7255 -4.4629,-0.6875 -2.0453,0.064 -4.4792,0.44 -5.6387,2.3379 -1.1947,1.8731 -0.2801,4.8028 1.9512,5.3691 0.6611,0.1569 1.3518,0.069 1.9863,-0.1621 1.0789,4.2795 0.9207,4.9764 0.6914,9.3691 -0.9774,2.0628 -2.3843,4.8788 -2.5293,6.3692 v 0 c -0.032,-0.1876 -0.08,-0.3747 -0.1524,-0.5606 -0.5859,-1.8037 -2.7802,-2.7534 -4.5215,-2.041 -1.6874,0.6198 -6.3184,3.2664 -8.1464,3.4707 -1.9069,0.3376 -6.0376,3.2823 -7.7227,1.2891 -1.4667,-1.7348 2.171,-4.5596 2.2227,-6.4434 2.3151,-0.014 4.6701,0.1631 6.9531,-0.291 1.6926,-0.3355 2.997,-2.0207 2.7011,-3.7578 -0.093,-1.7389 -1.7631,-3.0366 -3.4531,-2.9805 -2.0174,0.081 -4.0402,0.2561 -6.0625,0.1485 0.013,-1.6375 0.032,-3.2746 0.035,-4.9122 2.1832,0.1826 4.5349,0.3091 6.75,0.8457 1.4716,0.4191 1.415,1.6012 2.9668,0.8477 1.8142,-0.7742 2.7201,-3.2379 1.5547,-4.9121 -1.3499,-1.8363 -2.1365,-2.4699 -4.2266,-3.0098 -4.1871,-0.9462 -8.5133,-1.1439 -12.793,-1.0879 -1.6184,0.033 -3.537,0.4485 -4.291,2.0606 -0.8724,1.7032 -0.1362,4.1505 1.7695,4.7637 0.3552,0.2783 1.2392,-0.026 1.1641,0.5312 0.051,5.8097 -2.7277,12.4336 -3.2832,18.2227 -0.6882,0.036 -1.3173,0.3191 -1.8379,0.7422 -0.019,-0.1602 -0.031,-0.3161 -0.025,-0.459 -2.8846,-9.9769 -4.2775,-9.6463 -1.7871,-22.2442 0.1058,-1.6988 -0.81,-3.6083 -2.5762,-4.0234 -0.3574,-0.098 -0.7296,-0.1372 -1.0996,-0.1289 -1.8123,-0.044 -3.2819,1.5158 -3.5254,3.2422 -0.3417,2.7256 -0.2598,5.4889 -0.3554,8.2324 0.098,0.667 -0.01,1.1428 -0.7735,0.9687 -3.2667,0.1399 -6.5357,0.1481 -9.8046,0.1133 0.1468,-2.7995 0.4863,-5.5909 0.5937,-8.3887 0.028,-1.7271 -1.2828,-3.4294 -3.0664,-3.5371 -1.8067,-0.2753 -3.6254,0.9707 -4.0684,2.7344 -0.4455,1.6075 -0.3327,3.3121 -0.5332,4.961 -0.1589,1.6524 -0.1858,3.3715 -0.3867,4.9843 -1.4908,1.1898 -1.5913,3.686 -0.1445,4.9532 -0.01,0.6853 -0.032,1.371 -0.049,2.0566 -1.4625,-0.9643 -3.634,-0.6347 -4.6719,0.8262 -0.7225,1.054 -5.6359,3.8709 -6.9082,4.2656 -2.2066,0.7446 -4.6557,0.8408 -6.918,0.291 -2.0248,-0.4748 -3.5208,-2.2165 -4.0156,-4.1914 -0.7006,-2.7276 -0.7097,-5.6746 0.088,-8.3828 0.7567,-2.5707 2.9257,-4.8142 5.6719,-5.1055 2.6612,-0.4417 2.5599,0.025 4.6503,1.6113 1.3095,0.9912 3.2562,0.7982 4.3926,-0.3652 1.3551,-1.2098 1.4872,-3.4413 0.3008,-4.8125 -2.2042,-2.5753 -2.8636,-3.2526 -6.1797,-3.5469 -0.8645,-0.087 -1.7356,-0.096 -2.6035,-0.068 -3.8943,0.1065 -7.7353,1.8476 -10.2305,4.8672 -0.2578,0.2969 -0.4793,0.6172 -0.709,0.9316 0.032,-0.2582 0.072,-0.5153 0.1329,-0.7695 0.3449,-1.7965 -0.055,-4.0934 -1.8789,-4.9395 -0.5247,-0.2417 -2.6095,-0.5234 -3.1856,-0.4902 -0.8569,0.021 -1.6804,0.3973 -2.2891,0.9941 -3.4035,-1.3475 -7.4219,-0.9546 -10.5839,0.8535 -1.0904,0.6319 -2.0443,1.4617 -2.8594,2.4102 -1.5673,-1.5572 -3.9422,-1.933 -6.0488,-2.2715 -3.2616,-0.4324 -6.5644,-0.4777 -9.8497,-0.4199 -2.8727,0.1303 -5.8582,0.3344 -8.5585,1.3809 -0.038,-0.1645 -0.084,-0.3284 -0.1465,-0.4844 -0.8031,-2.1218 -3.2607,-3.022 -5.375,-2.9688 z"
           transform="matrix(1.00031,0,0,1.00031,-4658.44,0)" />
      </g>
      <path
         id="path41707"
         style="font-size:133.375px;line-height:1.25;font-family:'Kristen ITC';-inkscape-font-specification:'Kristen ITC';display:inline;fill:none;stroke:#00a6ff;stroke-width:1.33375;stroke-opacity:1"
         d="m 259.36167,4.61917 c -8.60743,0.2261 -17.4046,2.471283 -24.32555,7.773446 -5.07992,3.792213 -9.09557,9.281768 -10.21632,15.607054 -0.6722,3.681207 -0.81975,7.823321 1.39586,11.04666 2.29109,3.470502 6.67753,5.905396 10.86583,4.82905 2.54691,-0.692995 4.22449,-2.907117 5.43881,-5.113322 2.18422,-3.63742 4.33625,-7.50421 7.91344,-9.970204 3.70335,-2.742708 8.48707,-3.466304 12.98497,-3.06042 6.36972,0.324559 12.85201,2.64012 17.24405,7.412229 4.71263,4.800559 6.65013,11.672245 6.66463,18.268137 0.16714,8.250598 -2.00228,16.723307 -7.102,23.319509 -3.43013,4.650196 -8.32361,8.610666 -14.18,9.488664 -6.00043,0.928221 -12.03046,-0.800372 -17.50856,-3.146293 -2.5635,-0.919085 -5.10881,-2.154221 -7.86016,-2.326758 -3.2111,-0.07308 -6.63774,1.377542 -8.13017,4.356777 -1.75066,3.342522 -1.11196,7.221591 -1.12375,10.839201 0.44136,12.50615 2.46053,25.03915 6.79169,36.80917 1.64169,4.11622 5.57147,6.90995 9.78516,7.94288 5.20998,1.31967 10.64479,0.86112 15.94675,0.51531 10.05198,-0.8642 20.00039,-3.21503 29.31259,-7.11046 3.572,-1.63391 7.40441,-3.8239 8.91534,-7.66268 1.38727,-3.70665 -0.3424,-7.92606 -3.28908,-10.35159 -3.76683,-3.36876 -9.22494,-4.06806 -14.02635,-3.02226 -4.45731,0.84317 -8.75358,2.33788 -13.05184,3.75663 -0.48325,0.15192 -1.46095,0.45151 -2.13544,0.65626 -3.70575,0.99428 -7.54046,2.11316 -11.41336,1.56891 -0.98219,0.17404 -0.92421,-1.11628 -1.32099,-1.73036 -1.42276,-3.68688 -2.2401,-7.59535 -2.51822,-11.53388 9.32581,2.17377 19.42467,2.18602 28.362,-1.55671 9.44297,-3.89121 16.89475,-11.7112 21.50442,-20.707938 5.02114,-9.877603 6.50148,-21.216772 5.86538,-32.181317 C 309.55189,39.575146 306.24051,29.86888 300.02934,22.241258 294.00291,14.688483 285.60712,9.026272 276.25752,6.515011 270.76803,4.999862 265.04441,4.45883 259.36167,4.61917 Z" />
      <path
         id="path41711"
         style="font-size:133.375px;line-height:1.25;font-family:'Kristen ITC';-inkscape-font-specification:'Kristen ITC';display:inline;fill:none;stroke:#00a6ff;stroke-width:1.33375;stroke-opacity:1"
         d="m 523.91682,12.681686 c -9.51015,0.141017 -19.19414,2.697633 -26.87275,8.47087 -9.00741,6.652824 -14.88608,16.899573 -17.45598,27.687153 -0.46746,1.80252 -0.78886,3.66922 -1.12705,5.480078 -3.18821,1.036838 -5.73622,3.857952 -6.18138,7.216969 -0.63751,3.440532 0.45615,7.315419 3.36895,9.426303 0.59521,0.44989 1.23891,0.835511 1.91131,1.15885 0.072,1.9965 0.22483,3.989382 0.40107,5.979174 -2.98947,0.730093 -5.19229,3.460945 -5.57417,6.47215 -0.67959,3.611269 0.42127,7.621847 3.30867,10.010247 1.68418,1.49343 3.76454,2.46671 5.89577,3.14264 3.2216,10.57475 9.01121,20.56389 17.55735,27.7084 7.53726,6.39825 17.15218,10.06668 26.94623,11.00919 12.83082,1.30125 26.23516,-0.98938 37.3662,-7.68449 5.58267,-3.32789 10.43046,-8.42053 12.14673,-14.82182 0.99889,-3.88635 1.31459,-8.16675 -0.17255,-11.97168 -1.2791,-3.26035 -4.57458,-5.38706 -8.00681,-5.65678 -3.34776,-0.48113 -7.16577,0.398 -9.23533,3.26615 -1.00029,1.41597 -1.42716,3.15588 -2.28929,4.66126 -0.9688,1.84909 -1.85053,3.7776 -3.00077,5.51085 -3.56399,3.55529 -8.74418,4.73341 -13.58118,5.30573 -6.99723,0.74011 -14.42972,0.4853 -20.78915,-2.84486 -5.18279,-2.62475 -9.16705,-7.13645 -11.99087,-12.1408 10.12685,0.1367 20.2682,0.14245 30.38026,-0.47737 4.96066,-0.37496 10.22283,-0.79801 14.5139,-3.5616 2.83372,-1.74429 4.52009,-5.11661 4.13091,-8.432746 -0.15075,-3.434593 -2.38456,-6.602379 -5.53598,-7.955369 -4.30326,-1.961351 -9.16835,-1.670612 -13.76142,-1.28893 -10.16615,0.697993 -20.34359,1.639181 -30.54492,1.281512 -1.70727,-0.03469 -3.41444,-0.08777 -5.12021,-0.167088 -0.20544,-1.921453 -0.34489,-3.850105 -0.41407,-5.781265 11.65628,-0.357259 23.33885,-1.391178 34.74631,-3.885064 4.38164,-1.104527 9.06588,-2.777657 11.80583,-6.596731 2.39926,-3.404253 2.37257,-8.467111 -0.3073,-11.705745 -2.47803,-2.830631 -6.54237,-3.508581 -10.12246,-3.244813 -11.51932,1.567554 -22.83011,4.682516 -34.48439,5.205744 1.52663,-6.166665 4.76142,-12.268251 10.3012,-15.691748 5.90237,-3.687915 13.17831,-4.213301 19.94751,-3.526415 8.20205,0.819706 15.99733,4.57438 21.92299,10.27536 1.69267,1.611699 2.78314,3.738479 4.15961,5.612037 2.03757,3.073606 4.15681,6.484806 7.74169,7.916712 3.80572,1.60964 8.32472,0.232678 11.12215,-2.662054 2.53032,-2.209564 3.65527,-5.769678 2.97378,-9.045151 -0.9769,-5.253319 -4.44282,-9.59616 -8.01002,-13.394861 -4.11692,-4.247351 -8.6697,-8.075622 -13.495,-11.492691 -9.24503,-6.218719 -20.54253,-8.594381 -31.54761,-8.756931 -1.00939,-0.01789 -2.01837,-0.03109 -3.02776,-0.0107 z" />
      <path
         id="path10428"
         style="font-stretch:semi-expanded;font-size:133.375px;line-height:1.25;font-family:'Kristen ITC';-inkscape-font-specification:'Kristen ITC Semi-Expanded';display:inline;fill:none;stroke:#00a6ff;stroke-width:1.33375;stroke-opacity:1"
         d="m 357.32385,97.89523 c -4.08963,-5.80169 -6.51058,-12.645197 -7.66802,-19.613983 -0.10537,-0.616639 -0.20973,-1.302856 -0.3033,-2.015564 -0.26322,-1.985904 -0.42617,-3.722704 -0.53234,-5.741298 -0.38118,-7.222887 0.092,-14.647931 2.74175,-21.44633 0.28561,-0.750827 0.78246,-1.886285 1.22352,-2.752126 3.15502,-6.355266 8.6965,-11.759008 15.62875,-13.715931 2.94608,-0.877107 6.03722,-1.193699 9.10357,-1.128329 5.84219,0.09317 11.39006,2.868569 15.4547,6.980212 7.37021,7.347369 11.41016,17.524529 12.44714,27.776115 0.75846,7.809885 0.44056,15.796735 -1.50754,23.419848 -1.84002,6.941276 -5.42721,13.809576 -11.47233,17.959396 -5.26707,3.61423 -3.72015,12.92762 0.6235,16.06842 6.17848,4.46764 16.15479,0.20705 21.98348,-6.31932 7.03751,-7.62604 10.9474,-17.6763 12.40315,-27.849682 1.29529,-8.994117 1.08706,-18.167289 -0.073,-27.164075 -1.6252,-12.195863 -5.91137,-24.273393 -13.74293,-33.891846 -5.812,-7.291396 -13.79562,-12.937433 -22.82692,-15.422151 -4.94566,-1.405484 -10.11276,-1.937279 -15.24536,-1.825184 h 7e-4 c -10.12896,0.149044 -20.42016,2.795752 -28.73448,8.738597 -8.74588,6.113671 -15.08172,15.383973 -18.05429,25.595742 -3.06475,10.356724 -3.2173,21.369135 -1.92221,32.025166 1.49374,11.802975 5.8049,23.393963 13.30997,32.711003 6.7724,8.52371 15.93315,15.33722 26.45389,18.40324 8.39419,2.45409 7.36171,-14.02774 4.87808,-20.65016 -2.03947,-5.43836 -10.13485,-4.29886 -14.1691,-10.14176 z"
         sodipodi:nodetypes="cccccccccccsacccccsscccccac" />
      <path
         style="fill:none;stroke:#00a6ff;stroke-width:0.457323;stroke-linecap:round;stroke-linejoin:round;stroke-miterlimit:4;stroke-dasharray:none;stroke-opacity:1"
         d="m 780.45354,101.20916 1.2e-4,301.5071 c -0.20863,-1.43521 -0.59371,-2.45055 -1.32958,-3.72546 -1.09077,-1.84513 -2.5881,-3.58167 -4.58718,-4.45701 -1.71457,-0.74833 -3.76233,-0.30802 -5.1606,0.88647 -1.44595,1.0827 -2.5566,2.85773 -2.255,4.72283 0.15695,0.91252 0.6525,1.7308 0.89532,2.625 0.3325,1.06427 0.72928,2.12533 0.94951,3.21433 0,2.68897 -1.51513,5.09125 -3.12593,7.13436 -2.36307,2.92235 -5.26706,5.63394 -8.92693,6.77806 -2.94878,0.96602 -6.15819,0.7665 -9.11497,-0.0571 3.8765,-3.77326 7.71031,-7.60188 11.2952,-11.65529 1.73206,-2.01528 3.55959,-4.16175 4.13661,-6.82636 0.41127,-1.72906 -0.22603,-3.6409 -1.62559,-4.74633 -1.35418,-1.2403 -3.39335,-1.59226 -5.09472,-0.91313 -2.36597,0.88463 -4.09413,2.83199 -5.68494,4.711 -3.57619,4.10347 -7.0639,8.30232 -11.05217,12.02034 -0.65789,0.63177 -1.32318,1.25713 -1.99718,1.87139 -0.80385,-0.64754 -1.585,-1.3248 -2.34087,-2.02784 4.26768,-4.53749 8.29073,-9.34073 11.65738,-14.59127 1.23762,-2.07205 2.37446,-4.47391 1.96699,-6.95124 -0.37988,-2.19199 -2.30148,-4.09356 -4.53709,-4.30458 -2.00478,-0.1332 -3.79672,1.14573 -5.04913,2.59749 -3.75894,4.9429 -6.85387,10.39223 -11.05817,14.99172 -1.75245,-2.9058 -2.83592,-6.43207 -2.03677,-9.81746 0.83644,-3.62222 3.38625,-6.5696 6.20258,-8.86689 3.40754,-2.78822 7.77068,-4.31416 12.16212,-4.39896 1.24801,-0.0307 2.46204,0.36111 3.68946,0.54894 1.9306,0.39148 4.01955,0.87924 5.91426,0.066 2.04536,-0.82948 3.23191,-3.05682 3.19591,-5.20678 0.12136,-1.79035 -0.79896,-3.55907 -2.29369,-4.5388 -2.35307,-1.61515 -5.30165,-1.94717 -8.08369,-2.03467 -3.15912,-0.0493 -6.32544,0.22477 -9.43847,0.75661 -5.84089,1.14309 -11.00488,4.5119 -15.22317,8.60719 -0.38868,0.37364 -0.77516,0.75077 -1.14895,1.13958 -3.5388,3.6453 -6.23046,8.26898 -6.95024,13.34965 -0.6465,4.30128 0.0547,8.69351 1.67558,12.71101 -3.2239,-1.62612 -6.72861,-2.68027 -10.35248,-2.82579 -4.66645,-0.26347 -10.04378,1.89512 -10.69038,5.91628 -0.45426,2.8269 2.47943,6.92806 5.83388,6.30376 3.85071,-0.71578 7.80048,0.52419 11.11695,2.45107 3.61508,2.14338 6.75171,5.03932 9.41518,8.27553 3.48032,4.26371 5.802,9.6345 5.789,15.19345 0.0174,3.0881 -1.02908,6.23043 -3.20041,8.47235 -1.13344,1.18281 -2.42064,2.2313 -3.8646,3.01272 -3.35775,1.87929 -7.49197,1.93187 -11.08375,0.72324 -0.49375,-0.16043 -1.11006,-0.40293 -1.50164,-0.57854 -3.56899,-1.56662 -6.55146,-4.19143 -9.13546,-7.06348 -0.72248,-0.8025 -1.31709,-1.51973 -1.96799,-2.36916 -0.23313,-0.30523 -0.45396,-0.60329 -0.6462,-0.87674 -2.19492,-3.06936 -3.8645,-6.56853 -4.5113,-10.30441 -0.68299,-3.73064 2.80403,-6.35841 1.52013,-9.18272 -1.56311,-3.43943 -7.3986,-10.05396 -9.64201,-5.95665 -2.81592,5.1318 -3.70195,11.16556 -3.04045,16.94279 0.20344,1.88971 0.59391,3.74669 1.13824,5.55814 -2.882,-1.63143 -6.06291,-2.72549 -9.36869,-3.06393 -5.1288,-0.5765 -10.43795,0.45545 -14.91766,3.03831 -2.64588,1.50114 -5.01205,3.45842 -7.0981,5.66534 -3.16542,3.33641 -5.63915,7.50795 -6.25066,12.12455 -0.48655,3.35117 0.0694,6.94118 2.03567,9.75344 1.13645,1.64441 2.64488,3.26379 4.69904,3.64444 2.17602,0.44548 4.75262,-0.2912 5.92826,-2.27976 0.69998,-1.22366 0.49734,-2.69388 0.12266,-3.98574 -0.54863,-2.19889 -1.19603,-4.4719 -0.77636,-6.75449 0.36289,-2.43465 1.89571,-4.51428 3.74784,-6.05991 2.52841,-2.28328 5.85118,-3.85771 9.31251,-3.71411 3.59308,0.0331 6.91635,1.90145 9.41697,4.38327 3.17942,3.05307 5.56068,7.07236 6.1256,11.48998 0.46096,3.05196 0.10937,6.39606 -1.77075,8.93969 -1.9159,2.61694 -4.84719,4.24224 -7.80228,5.42531 -1.31539,0.62105 -2.74285,1.11591 -3.8471,2.08983 -1.24052,1.18523 -1.98749,3.02693 -1.42576,4.71571 0.60121,1.9238 2.31308,3.1424 3.66986,4.5182 4.73803,4.4148 9.9983,8.25768 15.85478,11.04932 l 91.54157,10e-6 V 977.22129 H 24.546887 V 501.00036 l 99.611463,-10e-6 c 1.08207,-0.247 1.91231,-0.58909 2.88951,-1.15303 1.84492,-1.0907 3.58148,-2.58814 4.45681,-4.58711 0.74857,-1.71454 0.30811,-3.76228 -0.88642,-5.16054 -1.08267,-1.44613 -2.85762,-2.55663 -4.72274,-2.2551 -0.91261,0.15696 -1.73086,0.65242 -2.62508,0.89531 -1.06417,0.33247 -2.12534,0.72922 -3.2142,0.94954 -2.68917,-0.003 -5.09132,-1.51522 -7.13439,-3.1259 -2.92249,-2.36324 -5.63385,-5.26721 -6.77809,-8.92689 -0.96588,-2.94882 -0.76665,-6.15835 0.057,-9.11499 3.77333,3.87652 7.60184,7.71012 11.65538,11.29519 2.01517,1.732 4.16171,3.55947 6.82628,4.13644 1.72906,0.4113 3.64107,-0.22585 4.74643,-1.62544 1.24021,-1.35419 1.5922,-3.39341 0.91311,-5.09469 -0.88462,-2.36618 -2.83192,-4.09426 -4.71093,-5.68499 -4.10353,-3.5763 -8.30243,-7.06398 -12.02027,-11.05213 -0.63201,-0.658 -1.25721,-1.32314 -1.87162,-1.99736 0.6478,-0.80383 1.32479,-1.58481 2.02807,-2.34065 4.53749,4.2676 9.3407,8.2906 14.59117,11.65733 2.07216,1.23761 4.47381,2.37431 6.95114,1.96682 2.19202,-0.37972 4.09373,-2.30145 4.30466,-4.5369 0.13336,-2.00493 -1.14574,-3.79685 -2.59749,-5.04925 -4.94277,-3.75888 -10.39217,-6.85385 -14.99174,-11.05816 2.90589,-1.75254 6.432,-2.8358 9.81745,-2.03662 3.62217,0.83632 6.56966,3.38629 8.86694,6.20243 2.78814,3.40756 4.31394,7.77061 4.39894,12.16208 0.0307,1.24801 -0.36119,2.46207 -0.54893,3.68964 -0.3924,1.9305 -0.88015,4.01935 -0.067,5.91426 0.82954,2.04533 3.05695,3.23173 5.20698,3.19573 1.79045,0.12106 3.5591,-0.79888 4.53869,-2.29358 1.6153,-2.35321 1.94677,-5.30155 2.03477,-8.08374 0.0494,-3.15907 -0.22493,-6.32551 -0.75676,-9.43858 -1.14295,-5.84068 -4.5118,-11.00487 -8.60713,-15.2229 -0.37369,-0.38873 -0.75077,-0.77529 -1.13955,-1.14903 -3.64527,-3.53872 -8.26893,-6.23068 -13.34965,-6.9502 -4.30137,-0.64677 -8.6936,0.0541 -12.71096,1.67561 1.6261,-3.224 2.68017,-6.72889 2.82573,-10.35263 0.26362,-4.6664 -1.89511,-10.04387 -5.91617,-10.69018 -2.82692,-0.45428 -6.92824,2.47912 -6.30384,5.83364 0.71588,3.85064 -0.52414,7.80045 -2.45124,11.11703 -2.14333,3.61511 -5.03923,6.75164 -8.275325,9.41501 -4.263776,3.48042 -9.634408,5.80278 -15.193482,5.78928 -3.088141,0.0177 -6.230565,-1.0292 -8.472269,-3.20058 -1.182933,-1.13349 -2.231407,-2.42072 -3.012665,-3.8647 -1.879516,-3.35767 -1.932,-7.49172 -0.723475,-11.08379 0.16065,-0.49361 0.402875,-1.10983 0.57862,-1.50137 1.566514,-3.56895 4.191399,-6.55146 7.063507,-9.13557 0.802551,-0.72237 1.519628,-1.31722 2.369064,-1.96791 0.305206,-0.23319 0.603513,-0.45394 0.876928,-0.64631 3.069347,-2.19499 6.568461,-3.86456 10.304301,-4.51122 3.730541,-0.6831 6.358325,2.80383 9.182846,1.52007 3.43933,-1.56305 10.05368,-7.39862 5.95665,-9.64211 -5.13191,-2.8157 -11.16563,-3.7018 -16.942936,-3.04026 -1.889614,0.2034 -3.746537,0.59374 -5.558175,1.13824 1.631494,-2.88197 2.725554,-6.06285 3.063849,-9.36869 0.576721,-5.12876 -0.455459,-10.43797 -3.038257,-14.9179 -1.501033,-2.64572 -3.458426,-5.01199 -5.66534,-7.09787 -3.336364,-3.1656 -7.507769,-5.63936 -12.124435,-6.25064 -3.35136,-0.48647 -6.941245,0.0697 -9.753572,2.03559 -1.644389,1.1364 -3.263686,2.64494 -3.644268,4.69905 -0.445462,2.1761 0.291009,4.75265 2.279592,5.92818 1.22382,0.69991 2.693863,0.49739 3.985662,0.12267 2.199117,-0.54879 4.472212,-1.19602 6.754603,-0.77633 2.434844,0.36285 4.514398,1.89551 6.059918,3.74778 2.283391,2.52845 3.857702,5.85116 3.714247,9.31252 -0.03339,3.59315 -1.90161,6.91627 -4.383339,9.41694 -3.052952,3.1794 -7.072404,5.56064 -11.489932,6.12576 -3.051953,0.46093 -6.396214,0.10933 -8.939824,-1.77102 -2.616888,-1.91572 -4.242183,-4.84721 -5.425216,-7.80234 -0.621107,-1.31527 -1.115953,-2.74264 -2.089751,-3.84704 -1.185232,-1.24044 -3.02696,-1.98731 -4.715735,-1.42557 -1.923903,0.60104 -3.142525,2.31291 -4.518297,3.66986 -4.556785,4.8904 -8.527852,10.38628 -11.33738,16.46765 -0.08287,0.19092 -0.141957,0.34608 -0.202937,0.54199 l 0.001,-309.58102 z"
         id="path1649"
         transform="translate(0,-181.417)"
         sodipodi:nodetypes="ccccccccccccccccccccccccccccccccccccccsscccccccscccscccccccccccccccccccccccccccccccccccccccccccccccccccccccccccccccsscccccccscccsccccccccccccccccccccccccc" />
    </g>
  </g>
  <g
     inkscape:groupmode="layer"
     id="layer5"
     inkscape:label="Falz"
     style="display:none">
    <path
       d="M 688.91209,501.00035 H 124.15835"
       stroke="#7FCFFF"
       stroke-width="0.24"
       fill="none"
       id="path166"
       style="display:inline;overflow:visible;stroke:#ffbf00;stroke-width:0.538096;stroke-miterlimit:4;stroke-dasharray:none;stroke-opacity:1" />
    <path
       id="path106"
       style="display:inline;overflow:visible;stroke:#ffbf00;stroke-width:0.720449;stroke-miterlimit:4;stroke-dasharray:none;stroke-opacity:1"
       d="M 4592.2601,920.64153 V 1211.7561 M 4062.9614,920.64153 h 113.2394 m -113.2394,291.11457 h 529.2987 m -529.2987,0 V 920.64153 m 416.0593,0 h 113.2394"
       transform="matrix(0.99969,0,0,0.99969,-3923.77,-326.757)" />
  </g>
  <g
     inkscape:groupmode="layer"
     id="layer6"
     inkscape:label="Schnitt-neu"
     style="display:none">
    <path
       style="display:inline;fill:none;stroke:#ff0a00;stroke-width:1.00157;stroke-linecap:round;stroke-linejoin:round;stroke-opacity:1"
       d="M 137.93378,117.37755 667.06817,408.40176"
       id="path1114" />
    <path
       style="fill:none;stroke:#ff0a00;stroke-width:1.00157;stroke-linecap:round;stroke-linejoin:round;stroke-opacity:1"
       d="M 137.93378,408.40176 667.06817,117.37755"
       id="path1340" />
    <path
       style="fill:none;stroke:#ff0a00;stroke-width:1.00157;stroke-linecap:round;stroke-linejoin:round;stroke-opacity:1"
       d="M 24.547387,101.20916 H 781.27361"
       id="path1342" />
  </g>
</svg>
