<?xml version="1.0" encoding="UTF-8" standalone="no"?>
<svg
   version="1.1"
   width="297mm"
   height="210mm"
   viewBox="0 0 297 209.99999"
   overflow="visible"
   id="svg22"
   sodipodi:docname="Einladung-Bowling-V3-default.svg"
   inkscape:version="1.1.2 (b8e25be833, 2022-02-05)"
   xmlns:inkscape="http://www.inkscape.org/namespaces/inkscape"
   xmlns:sodipodi="http://sodipodi.sourceforge.net/DTD/sodipodi-0.dtd"
   xmlns="http://www.w3.org/2000/svg"
   xmlns:svg="http://www.w3.org/2000/svg">
  <defs
     id="defs26" />
  <sodipodi:namedview
     id="namedview24"
     pagecolor="#ffffff"
     bordercolor="#3c3c3c"
     borderopacity="1"
     inkscape:pageshadow="0"
     inkscape:pageopacity="0"
     inkscape:pagecheckerboard="1"
     inkscape:document-units="mm"
     showgrid="false"
     width="297mm"
     units="mm"
     showguides="true"
     inkscape:guide-bbox="true"
     inkscape:snap-bbox="true"
     inkscape:object-paths="true"
     inkscape:snap-intersection-paths="true"
     inkscape:snap-smooth-nodes="true"
     inkscape:snap-midpoints="true"
     inkscape:snap-grids="true"
     inkscape:current-layer="layer1"
     inkscape:snap-page="false"
     inkscape:object-nodes="true"
     inkscape:snap-global="true">
    <sodipodi:guide
       position="36.574387,197.25"
       orientation="0,1"
       id="guide843"
       inkscape:label=""
       inkscape:locked="false"
       inkscape:color="rgb(0,0,255)" />
    <sodipodi:guide
       position="53.642434,12.75"
       orientation="0,1"
       id="guide845"
       inkscape:label=""
       inkscape:locked="false"
       inkscape:color="rgb(0,0,255)" />
    <sodipodi:guide
       position="128.31477,93.256733"
       orientation="0,-1"
       id="guide2662" />
    <sodipodi:guide
       position="284.49999,-17.106059"
       orientation="-1,0"
       id="guide4092"
       inkscape:label=""
       inkscape:locked="false"
       inkscape:color="rgb(0,0,255)" />
    <sodipodi:guide
       position="12.5,-12.049042"
       orientation="-1,0"
       id="guide4094"
       inkscape:label=""
       inkscape:locked="false"
       inkscape:color="rgb(0,0,255)" />
  </sodipodi:namedview>
  <g
     inkscape:groupmode="layer"
     id="layer3"
     inkscape:label="Text"
     style="display:inline">
    <g
       aria-label="Hallo     ich lade ganz herzlich zu  meinem 8. Geburtstag ein am 15. Juni um 15:00 Uhr im City-Bowling Kassel.   Bitte gib mir bis zum  8. Juni Bescheid. Tel. 0176 78738835"
       id="text5647"
       style="font-size:12.8819px;line-height:1.25;font-family:'MV Boli';-inkscape-font-specification:'MV Boli, Normal';display:inline;stroke-width:0.75"
       transform="matrix(0.35277777,0,0,0.35277777,22.71018,-5.0965237)" />
    <path
       id="path12283"
       style="font-size:4.58611px;line-height:1.25;font-family:'MV Boli';-inkscape-font-specification:'MV Boli';stroke-width:0.264583"
       d="m 240.64179,113.41379 q -0.0145,-0.0417 -0.0117,-0.10096 -0.002,-0.0575 0.0229,-0.11883 0.022,-0.0543 0.0736,-0.10725 0.0464,-0.0511 0.12975,-0.0801 0.0573,-0.0199 0.12519,-0.026 0.1863,-0.018 0.31192,-0.009 0.12042,0.0107 0.22406,0.0739 0.10363,0.0632 0.20814,0.19613 0.0993,0.13474 0.23634,0.3614 0.0855,0.14536 0.17415,0.26629 0.0853,0.12793 0.17329,0.19657 0.32653,0.1842 0.63976,0.27967 0.31503,0.10067 0.6292,0.13162 0.31077,0.038 0.62088,0.0236 0.31193,-0.009 0.63065,-0.0322 0.10979,-0.003 0.22116,-0.0185 0.11839,-0.0119 0.26644,-0.0225 -0.24055,-0.13821 -0.48651,-0.29204 -0.24597,-0.15383 -0.4591,-0.33073 -0.21314,-0.1769 -0.38302,-0.38049 -0.16287,-0.20018 -0.24242,-0.4293 -0.047,-0.13538 -0.0234,-0.33615 0.0255,-0.19556 0.10841,-0.39358 0.083,-0.19801 0.22384,-0.36363 0.14609,-0.16743 0.34397,-0.23613 0.12497,-0.0434 0.28162,-0.0628 0.15665,-0.0194 0.28024,-0.0331 0.37261,-0.036 0.7515,0.0133 0.3789,0.0493 0.74463,0.16157 0.36573,0.11224 0.71469,0.27699 0.35416,0.16294 0.67389,0.36118 0.40052,0.24604 0.64483,0.54632 0.2443,0.30028 0.37809,0.68562 0.056,0.16142 0.091,0.31264 0.0368,0.15643 0.03,0.3047 1.4e-4,0.15165 -0.059,0.30057 -0.054,0.1471 -0.17762,0.29507 -0.0292,0.0335 -0.0777,0.062 -0.0414,0.0319 -0.0779,0.0446 -0.0417,0.0145 -0.21732,0.0463 -0.16866,0.0352 -0.42786,0.0785 -0.25219,0.0467 -0.57409,0.0943 -0.3149,0.051 -0.64201,0.10038 -0.3219,0.0476 -0.6386,0.0934 -0.31149,0.044 -0.5639,0.0733 -0.4421,0.0543 -0.92651,0.0708 -0.48261,0.0217 -0.96608,-0.0263 -0.48167,-0.0428 -0.93997,-0.1696 -0.45831,-0.12678 -0.85181,-0.36942 -0.39871,-0.24084 -0.70839,-0.61178 -0.31489,-0.36913 -0.49931,-0.90026 z m 4.49055,-0.98154 q -0.0679,0.006 -0.14103,0.014 -0.0661,0.0113 -0.12859,0.033 -0.11456,0.0398 -0.18341,0.11036 -0.0688,0.0706 -0.0309,0.17994 0.0597,0.17184 0.25899,0.35937 0.20633,0.19093 0.47335,0.35496 0.26882,0.16923 0.55803,0.29638 0.29102,0.13234 0.53048,0.1834 0.1014,0.0232 0.27613,0.0558 0.17654,0.0379 0.37209,0.0633 0.20258,0.0289 0.39271,0.0387 0.19535,0.008 0.33095,-0.0216 0.0885,-0.0307 0.14876,-0.0925 0.0655,-0.0636 0.1918,-0.13662 l -0.0163,-0.0469 q -0.0434,-0.12497 -0.18276,-0.25747 -0.13416,-0.1343 -0.32762,-0.27135 -0.19165,-0.13184 -0.42156,-0.25624 -0.22471,-0.1262 -0.45259,-0.22796 -0.22268,-0.10356 -0.43111,-0.1829 -0.20142,-0.0759 -0.3465,-0.10725 -0.2098,-0.0497 -0.41939,-0.082 -0.20258,-0.0289 -0.45158,-0.007 z m 1.10221,-4.14308 q -0.0783,-0.17633 -0.25339,-0.33983 -0.17007,-0.16574 -0.40731,-0.31974 -0.23724,-0.15401 -0.51925,-0.3002 -0.27475,-0.1434 -0.56236,-0.27504 -0.14493,-0.0683 -0.27027,-0.13331 -0.1203,-0.0672 -0.20534,-0.15008 -0.14719,-0.0191 -0.37441,-0.0147 -0.21996,0.007 -0.48022,0.0323 -0.25522,0.0229 -0.52332,0.0574 -0.26082,0.0374 -0.48247,0.0815 -0.11698,0.0218 -0.22445,0.0514 -0.10747,0.0296 -0.23229,0.0609 -0.11978,0.029 -0.26419,0.057 -0.14217,0.0329 -0.32128,0.0642 -0.10691,0.0173 -0.19197,-0.0113 -0.08,-0.0308 -0.13708,-0.0778 -0.0571,-0.047 -0.0867,-0.10022 -0.0347,-0.0509 -0.0481,-0.0812 -0.085,-0.19144 -0.048,-0.35261 0.037,-0.16117 0.29898,-0.27748 0.0705,-0.0313 0.14834,-0.0598 0.0828,-0.0308 0.18974,-0.0481 0.52782,-0.10165 0.95544,-0.17087 0.42986,-0.0642 0.80429,-0.10376 0.37444,-0.0396 0.70858,-0.0613 0.34141,-0.0189 0.68282,-0.0378 0.34868,-0.0161 0.71472,-0.0338 0.37331,-0.015 0.81882,-0.0439 0.0991,-0.008 0.21039,0.0936 0.11862,0.10415 0.18347,0.25025 0.085,0.19145 0.053,0.35038 -0.0297,0.16397 -0.19095,0.23554 -0.0151,0.007 -0.0599,0.0145 -0.0448,0.008 -0.0991,0.008 l -0.62236,0.0109 q 0.26019,0.13779 0.5271,0.29069 0.26913,0.15794 0.50748,0.34161 0.24338,0.18144 0.43135,0.38748 0.19523,0.20884 0.30035,0.44562 0.21472,0.48365 0.0735,0.872 -0.13616,0.38612 -0.68027,0.62768 -0.31235,0.13867 -0.75956,0.20452 -0.44497,0.0709 -0.97723,0.10817 -0.52499,0.0401 -1.11379,0.0723 -0.58151,0.035 -1.172,0.10417 -0.16119,0.0173 -0.27928,0.009 -0.11585,-0.003 -0.20035,-0.0437 -0.0895,-0.0387 -0.15497,-0.11816 -0.0632,-0.0745 -0.11913,-0.20041 -0.0872,-0.19648 -0.0452,-0.3056 0.037,-0.10688 0.1982,-0.17846 0.14106,-0.0626 0.36048,-0.11178 0.22668,-0.0464 0.50206,-0.0782 0.28264,-0.029 0.60447,-0.0512 0.32406,-0.0172 0.6649,-0.0238 0.27424,-0.007 0.54625,-0.0194 0.27424,-0.007 0.52219,-0.0328 0.25018,-0.0206 0.46679,-0.0625 0.21661,-0.0419 0.38287,-0.11569 0.15618,-0.0693 0.24074,-0.19131 0.0918,-0.11917 0.009,-0.30558 z m -3.64659,-8.622397 q 0.089,-0.01842 0.16039,-0.01 0.0787,0.01101 0.13264,0.03401 0.0563,0.02794 0.0879,0.05553 0.0316,0.02759 0.0412,0.04745 0.0263,0.05462 0.0473,0.136292 0.026,0.07928 0.0495,0.153575 0.0234,0.0866 0.0444,0.1683 0.0573,0.1315 -0.0158,0.23398 -0.0706,0.10744 -0.20964,0.17443 -0.10925,0.0526 -0.21796,0.0683 -0.70207,0.13023 -1.23089,0.21369 -0.52385,0.0811 -0.89448,0.13727 -0.36824,0.0612 -0.59815,0.10464 -0.22753,0.0484 -0.33181,0.0987 -0.10428,0.0502 -0.22143,0.13728 -0.11476,0.092 -0.20266,0.20165 -0.0829,0.10726 -0.11674,0.22757 -0.0338,0.1203 0.0236,0.23948 0.10049,0.20857 0.33248,0.35989 0.23199,0.15133 0.50904,0.25647 0.28201,0.10275 0.56474,0.15621 0.29009,0.056 0.50182,0.0764 l 0.28566,0.0215 q 0.26599,0.0187 0.582,-0.0112 0.32336,-0.0273 0.63237,-0.0844 0.31141,-0.0521 0.57608,-0.11235 0.26965,-0.0626 0.42801,-0.1022 l 0.72266,-0.1891 q 0.20785,-0.0512 0.31565,-0.005 0.11516,0.0485 0.20847,0.2422 0.0598,0.12415 0.0779,0.23781 0.023,0.11128 -0.013,0.2143 -0.036,0.10302 -0.13846,0.1952 -0.0975,0.0898 -0.2812,0.17832 -0.21353,0.10288 -0.55987,0.18408 -0.33899,0.0838 -0.69012,0.15506 -0.20527,0.0438 -0.43776,0.0947 -0.22513,0.0534 -0.45284,0.11417 -0.22034,0.0633 -0.42101,0.12942 -0.1933,0.0687 -0.34228,0.14043 -0.25326,0.12203 -0.49934,0.25894 -0.24369,0.14189 -0.52674,0.27826 -0.12911,0.0622 -0.23321,0.10013 -0.10171,0.0429 -0.15855,0.0519 -0.21998,0.0387 -0.3574,-0.005 -0.13502,-0.039 -0.23551,-0.24752 -0.0694,-0.14401 -0.0753,-0.24518 -0.0109,-0.0988 0.0198,-0.17475 0.0331,-0.071 0.0905,-0.11701 0.0623,-0.0484 0.12947,-0.0869 l 0.91223,-0.50681 -0.0364,-0.0375 q -0.28751,-0.0634 -0.63905,-0.13265 -0.35153,-0.0692 -0.68744,-0.19498 -0.33591,-0.12573 -0.61887,-0.33204 -0.28554,-0.19895 -0.44105,-0.52173 -0.0311,-0.0646 -0.0466,-0.18559 -0.0181,-0.11367 -0.021,-0.24685 -0.003,-0.13317 0.0137,-0.26359 0.0117,-0.12802 0.0376,-0.21393 0.12167,-0.39515 0.38446,-0.66248 0.26278,-0.26734 0.59053,-0.42525 0.18373,-0.0885 0.38182,-0.14725 0.19809,-0.0587 0.38608,-0.10035 0.19294,-0.044 0.36345,-0.0711 0.17786,-0.0245 0.3114,-0.0521 0.4179,-0.08509 0.73684,-0.146977 0.31894,-0.06189 0.55878,-0.110144 0.24225,-0.04329 0.41036,-0.07534 0.17309,-0.03443 0.30165,-0.05967 z m -5.60272,-5.172607 q 0.3019,-0.0509 0.62111,-0.06124 0.32136,-0.0053 0.65929,0.04233 0.33793,0.04759 0.68661,0.162521 0.35374,0.112762 0.71458,0.312388 0.24877,0.133579 0.48591,0.296093 0.24437,0.165421 0.45033,0.353216 0.20598,0.187794 0.36632,0.395058 0.16757,0.210171 0.26491,0.438319 0.0714,0.167309 0.095,0.307037 0.0309,0.142638 0.03,0.280878 0.19908,-0.02501 1.0678,-0.137954 0.87089,-0.107872 2.39127,-0.378985 0.16068,-0.0025 0.2952,0.05983 0.13453,0.06246 0.19509,0.204424 0.0433,0.101399 0.0641,0.206382 0.0259,0.102817 0.002,0.202664 -0.0182,0.09768 -0.09,0.182245 -0.0718,0.08456 -0.21883,0.147295 l -4.50598,0.717896 q -0.19185,0.0279 -0.50322,0.112814 -0.30629,0.08273 -0.64591,0.185681 -0.33962,0.102952 -0.66769,0.218945 -0.32299,0.113831 -0.55114,0.211169 -0.28392,0.121133 -0.59089,0.174195 -0.13465,0.02148 -0.23599,0.02279 -0.0941,0.0042 -0.17366,-0.0278 -0.0745,-0.03415 -0.13662,-0.109512 -0.0549,-0.07247 -0.10896,-0.199218 -0.0627,-0.14703 -0.0669,-0.24113 -0.004,-0.0941 0.0292,-0.156288 0.0385,-0.06435 0.10005,-0.102616 0.0688,-0.03535 0.1427,-0.07287 0.0811,-0.03461 0.15792,-0.07936 0.084,-0.04184 0.14493,-0.109777 -0.0665,-0.04354 -0.17785,-0.121885 -0.11133,-0.07835 -0.2299,-0.159607 -0.11133,-0.07835 -0.21327,-0.148724 -0.0969,-0.07254 -0.14169,-0.107351 -0.11566,-0.08849 -0.25444,-0.203073 -0.13371,-0.116744 -0.27317,-0.261006 -0.13222,-0.141351 -0.25282,-0.311637 -0.11843,-0.165216 -0.19846,-0.352806 -0.0973,-0.228148 -0.1143,-0.478606 -0.0148,-0.245385 0.0688,-0.484823 0.0858,-0.234364 0.28082,-0.43743 0.2001,-0.205229 0.52458,-0.343666 0.11661,-0.04975 0.23247,-0.0872 0.1231,-0.03454 0.2802,-0.05962 z m 0.41477,0.859804 q -0.1694,0.02434 -0.31136,0.0849 -0.14703,0.06273 -0.26803,0.144317 -0.11594,0.07943 -0.18415,0.186436 -0.066,0.112081 -0.0793,0.249577 -0.006,0.140405 0.0719,0.322925 0.0433,0.101399 0.1285,0.202869 0.0852,0.101466 0.18353,0.191374 0.10552,0.09282 0.20239,0.165354 0.1041,0.07544 0.18002,0.126955 0.20894,0.138581 0.39984,0.248909 0.19306,0.115394 0.39126,0.186648 0.1982,0.07125 0.41168,0.09404 0.22071,0.02568 0.47482,-0.0108 0.22443,-0.03582 0.40688,-0.07172 0.18462,-0.03083 0.35477,-0.06746 0.17521,-0.0388 0.35334,-0.08483 0.17813,-0.04603 0.39174,-0.107205 0.0196,-0.03833 0.0255,-0.09477 0.0131,-0.05354 -0.0237,-0.139728 -0.0865,-0.202798 -0.26134,-0.415876 -0.16973,-0.21524 -0.4068,-0.419731 -0.23491,-0.199422 -0.52342,-0.369983 -0.28634,-0.165488 -0.60535,-0.28109 -0.31176,-0.112691 -0.64753,-0.155219 -0.33576,-0.04252 -0.66518,0.01411 z m -2.9298,-2.749314 q 0.14912,-0.05758 0.36871,-0.101 0.22472,-0.04541 0.53325,-0.164535 -0.18893,-0.12204 -0.43804,-0.262206 -0.24911,-0.140169 -0.48875,-0.301717 -0.23964,-0.161551 -0.433,-0.34097 -0.18623,-0.176258 -0.25969,-0.366518 -0.0596,-0.154267 -0.0669,-0.310974 -0.007,-0.156708 0.0321,-0.284191 0.11075,-0.355924 0.27907,-0.562723 0.1703,-0.201658 0.45826,-0.312843 0.12856,-0.04964 0.27534,-0.08268 0.14876,-0.02791 0.34661,-0.05111 0.88791,-0.1183 1.75962,0.08873 0.87884,0.210185 1.63935,0.726041 0.29548,0.199073 0.45213,0.451753 0.1618,0.250695 0.26504,0.51809 0.0457,0.118268 0.0858,0.268206 0.0421,0.155078 0.0724,0.279305 0.0714,0.108341 0.10946,0.17636 0.0401,0.07316 0.0718,0.155438 0.0596,0.154262 0.0581,0.27299 -0.001,0.118727 -0.0496,0.20823 -0.043,0.08752 -0.12566,0.148964 -0.0755,0.06461 -0.1732,0.102331 -0.1337,0.05162 -0.273,0.05813 -0.13415,0.0045 -0.27344,0.01104 l -2.972,0.367566 q -0.22906,0.0648 -0.42013,0.120855 -0.19107,0.05605 -0.36835,0.07132 -0.0522,0.0025 -0.13416,0.0045 -0.0748,0.0053 -0.16149,-0.02035 -0.0816,-0.02759 -0.15762,-0.08686 -0.0761,-0.05926 -0.12371,-0.182675 -0.0616,-0.159407 -0.0787,-0.265049 -0.0152,-0.100503 0.001,-0.16582 0.0213,-0.06731 0.0668,-0.102588 0.0506,-0.03727 0.1226,-0.06506 z m 0.89376,-2.306803 q -0.0799,0.0072 -0.22356,0.03313 -0.14163,0.03104 -0.27533,0.08267 -0.13884,0.05361 -0.23608,0.138427 -0.0921,0.08283 -0.0385,0.221668 0.0834,0.21597 0.24743,0.365351 0.17116,0.152537 0.36839,0.265465 0.26535,0.15162 0.57382,0.292502 0.3156,0.144036 0.63986,0.24928 0.32624,0.110384 0.64291,0.165375 0.3238,0.05815 0.6087,0.03087 0.16501,-0.01644 0.37034,-0.06618 0.20732,-0.0446 0.36158,-0.104158 0.0668,-0.02582 0.11664,-0.08049 0.0549,-0.05666 0.0212,-0.144078 -0.0973,-0.251968 -0.29426,-0.47135 -0.19499,-0.214245 -0.45087,-0.387247 -0.25588,-0.173006 -0.56553,-0.301618 -0.30251,-0.125455 -0.62712,-0.201013 -0.31948,-0.07755 -0.64165,-0.100873 -0.31504,-0.02018 -0.59796,0.01224 z m 4.20719,-3.698843 q 0.18165,-0.04901 0.39814,-0.09906 0.21649,-0.05005 0.41332,-0.05767 0.19683,-0.0076 0.34485,0.04378 0.15509,0.05467 0.21014,0.204741 0.0304,0.0828 0.0354,0.192515 0.007,0.114889 -0.0177,0.223745 -0.0176,0.112131 -0.0724,0.202703 -0.0548,0.09058 -0.148,0.124742 -0.0414,0.01517 -0.10402,0.02053 -0.0574,0.0035 -0.11299,0.0121 l -5.6599,0.608224 q -0.33897,0.03627 -0.64258,0.08892 -0.29843,0.05075 -0.48905,0.09131 l -0.1242,0.04556 q -0.15525,0.05694 -0.34915,0.104577 -0.18871,0.04574 -0.37002,0.04766 -0.17613,1.7e-5 -0.31759,-0.06552 -0.14475,-0.05846 -0.20359,-0.218888 -0.0513,-0.139725 -0.0271,-0.266005 0.0189,-0.124379 0.0874,-0.22582 0.0685,-0.101445 0.16058,-0.170459 0.0973,-0.07091 0.19044,-0.105078 0.0828,-0.03037 0.20752,-0.0585 0.12989,-0.03002 0.26686,-0.05678 0.14404,-0.02349 0.28291,-0.04506 0.14404,-0.02346 0.25186,-0.03366 z m -3.74857,-2.550192 q -0.0553,-0.18482 -0.20834,-0.369164 -0.14773,-0.185924 -0.36357,-0.368716 -0.21585,-0.182796 -0.47709,-0.363502 -0.25439,-0.177007 -0.52303,-0.343987 -0.13511,-0.08613 -0.25122,-0.166448 -0.11084,-0.08189 -0.1847,-0.174857 -0.14359,-0.03756 -0.36955,-0.06197 -0.21909,-0.02071 -0.48043,-0.02875 -0.25606,-0.0096 -0.52638,-0.0093 -0.26346,0.0041 -0.48891,0.01979 -0.1188,0.0068 -0.22915,0.02258 -0.11035,0.01577 -0.23813,0.03101 -0.1225,0.01365 -0.26928,0.02307 -0.1452,0.01471 -0.32682,0.02304 -0.10824,0.0036 -0.189,-0.03547 -0.0755,-0.04069 -0.12613,-0.09457 -0.0506,-0.05388 -0.0733,-0.110387 -0.0279,-0.05492 -0.0374,-0.08661 -0.0601,-0.20066 -0.003,-0.355851 0.0571,-0.155194 0.33169,-0.237408 0.0739,-0.02212 0.15472,-0.04057 0.0861,-0.02 0.1943,-0.02364 0.53644,-0.03404 0.96938,-0.04858 0.43452,-0.0093 0.81096,-0.0011 0.37644,0.0081 0.71063,0.02889 0.34106,0.02448 0.68211,0.04894 0.34792,0.02815 0.71325,0.05688 0.37221,0.03242 0.8178,0.0601 0.0993,0.0048 0.19686,0.119425 0.10448,0.118322 0.15033,0.271456 0.0601,0.200663 0.008,0.354273 -0.0502,0.158892 -0.21922,0.209483 -0.0158,0.0048 -0.0612,0.0068 -0.0454,0.0021 -0.0993,-0.0048 l -0.61874,-0.06791 q 0.24066,0.169609 0.48606,0.355057 0.24699,0.190733 0.46018,0.403091 0.21846,0.210778 0.37884,0.438944 0.16724,0.23187 0.24155,0.480056 0.15178,0.506931 -0.0374,0.874296 -0.18393,0.365781 -0.75423,0.536536 -0.32739,0.09802 -0.77934,0.106758 -0.45036,0.014 -0.98307,-0.01637 -0.52584,-0.02667 -1.11397,-0.06924 -0.58127,-0.03885 -1.17576,-0.04498 -0.16209,-0.0032 -0.27823,-0.02603 -0.11456,-0.0175 -0.1932,-0.06874 -0.0839,-0.04968 -0.13878,-0.136818 -0.0533,-0.08186 -0.0928,-0.213878 -0.0617,-0.205941 -0.006,-0.308864 0.0502,-0.101343 0.21919,-0.151938 0.14785,-0.04427 0.37172,-0.06527 0.23074,-0.01729 0.50792,-0.01397 0.28404,0.007 0.60609,0.02568 0.32363,0.02392 0.66257,0.06054 0.27295,0.02759 0.54431,0.04993 0.27294,0.02759 0.52214,0.03355 0.25078,0.01122 0.47095,-0.0028 0.22017,-0.01415 0.39443,-0.06631 0.1637,-0.04901 0.26301,-0.159307 0.10618,-0.106592 0.0477,-0.301971 z m -5.04317,-5.445297 q 0.32945,0.02272 0.76791,0.05875 0.43846,0.03603 0.9277,0.07382 0.49026,0.04321 1.00219,0.08237 0.51194,0.03916 0.99375,0.06712 0.0227,0.0014 0.0775,0.0248 0.0602,0.0224 0.12013,0.07293 0.0653,0.04951 0.1204,0.13456 0.0551,0.08505 0.0783,0.209688 0.0172,0.09212 0.0117,0.182858 -1e-4,0.08973 -0.0259,0.161827 -0.0248,0.07752 -0.0828,0.127568 -0.0515,0.05446 -0.13281,0.06961 -0.0163,0.0032 -0.0379,0.0071 -0.0163,0.0032 -0.0335,7.05e-4 l -0.60268,-0.04468 q -1.01202,-0.07493 -2.03148,-0.159685 -1.01844,-0.07934 -2.04029,-0.146829 -0.0345,-0.0048 -0.0873,-0.01736 -0.0528,-0.01259 -0.10865,-0.04143 -0.0558,-0.02886 -0.0985,-0.07697 -0.0426,-0.04813 -0.0567,-0.123991 -0.0263,-0.140892 0.0131,-0.260378 0.034,-0.118477 0.10656,-0.210495 0.0726,-0.09202 0.16845,-0.149144 0.0959,-0.05712 0.18801,-0.07429 0.0271,-0.005 0.0488,-0.0091 0.0217,-0.004 0.0508,0.0018 z m 5.8721,0.3691 q 0.11884,0.0059 0.29454,0.04604 0.17569,0.04015 0.33907,0.194733 0.0649,0.07761 0.12609,0.195178 0.0666,0.116554 0.0767,0.170744 0.0101,0.05419 -0.0177,0.115443 -0.0268,0.06668 -0.0621,0.118107 -0.0441,0.06429 -0.10003,0.125176 0.0144,0.137492 -0.0652,0.191583 -0.0786,0.05951 -0.19784,0.08172 -0.0867,0.01616 -0.16017,0.01302 -0.0735,-0.0032 -0.11885,-0.0059 -0.11985,-0.01129 -0.23456,-0.08525 -0.10929,-0.07495 -0.20195,-0.181039 -0.0873,-0.107096 -0.14941,-0.230081 -0.0622,-0.122982 -0.0803,-0.220522 -0.0232,-0.124632 0.007,-0.203157 0.0312,-0.07311 0.15294,-0.202322 0.0702,-0.07475 0.11151,-0.09367 0.0478,-0.0145 0.0803,-0.02057 0.0596,-0.01111 0.10396,-0.01376 0.0508,0.0018 0.0962,0.0045 z m -7.11876,-6.86532 q 0.19252,-0.01242 0.4106,0.02872 0.76018,0.138699 1.49126,0.340036 0.73694,0.206481 1.45967,0.364169 0.72274,0.157688 1.21532,0.258434 0.49845,0.10589 0.85174,0.188017 0.3588,0.08177 0.61752,0.153437 0.25871,0.07167 0.513,0.160189 0.15278,0.05641 0.31727,0.12312 0.16485,0.07221 0.30291,0.157187 0.14356,0.08463 0.23247,0.178311 0.0948,0.09883 0.10186,0.208841 0.0146,0.225528 -0.055,0.346019 -0.0637,0.125635 -0.12243,0.157046 l -0.22233,0.06408 q 0.0108,0.08216 0.0414,0.21275 0.036,0.130242 0.0721,0.26048 0.0364,0.135742 0.0713,0.249478 0.035,0.113739 0.0609,0.172825 0.12246,0.356648 0.21387,0.660069 0.0914,0.303417 0.15318,0.57561 0.0676,0.277336 0.10598,0.528948 0.0383,0.251608 0.055,0.510141 0.0163,0.253033 -7e-4,0.414327 -0.0172,0.161297 -0.0607,0.258007 -0.038,0.09636 -0.10184,0.133622 -0.058,0.04241 -0.12953,0.04703 -0.066,0.0043 -0.1455,-0.02925 -0.0736,-0.0284 -0.14498,-0.106631 -0.0713,-0.07825 -0.12937,-0.207066 -0.058,-0.128817 -0.0873,-0.325776 -0.0142,-0.0488 -0.0589,-0.228187 -0.0389,-0.174244 -0.0909,-0.380785 -0.0465,-0.206894 -0.0916,-0.391785 -0.0451,-0.18489 -0.0662,-0.255333 l 3.5e-4,0.0055 q -0.008,-0.03267 -0.0543,-0.156675 -0.0408,-0.118887 -0.1017,-0.291709 -0.0554,-0.173178 -0.12939,-0.378298 -0.0736,-0.199615 -0.14731,-0.399231 -0.0678,-0.194472 -0.13382,-0.361442 -0.0605,-0.167323 -0.10028,-0.269702 -0.15369,-0.327015 -0.38615,-0.505326 -0.22661,-0.173165 -0.50325,-0.265765 -0.0509,-0.0188 -0.17479,-0.05499 -0.11835,-0.03654 -0.27593,-0.0816 -0.15171,-0.03991 -0.32614,-0.0894 -0.17443,-0.04949 -0.33201,-0.09455 -0.15757,-0.04506 -0.28693,-0.08089 -0.129,-0.03034 -0.19058,-0.04292 -0.0561,-0.01295 -0.10043,-0.01559 -0.0444,-0.0028 -0.0664,-0.0014 -0.033,0.0021 -0.0319,0.01863 0.005,0.08251 0.0935,0.336423 0.0941,0.259059 0.22647,0.598495 0.13275,0.344939 0.28485,0.732814 0.15246,0.393379 0.28592,0.749318 0.13383,0.361438 0.22381,0.642853 0.0955,0.281061 0.10366,0.407578 0.0125,0.192525 -0.0493,0.262798 -0.0562,0.06991 -0.13325,0.07489 -0.19802,0.01281 -0.35578,-0.120632 -0.1574,-0.127924 -0.28092,-0.329844 -0.0373,-0.06387 -0.115,-0.241134 -0.0719,-0.172113 -0.15139,-0.376876 -0.0792,-0.199259 -0.15175,-0.382376 -0.0726,-0.183112 -0.10542,-0.263846 -0.24385,-0.525564 -0.4034,-0.857726 -0.15369,-0.327014 -0.2552,-0.530352 -0.096,-0.203697 -0.14748,-0.316371 -0.0511,-0.10717 -0.0905,-0.20405 -0.0335,-0.09173 -0.0685,-0.205472 -0.035,-0.113739 -0.0976,-0.314064 -0.11872,-0.04204 -0.35951,-0.09277 -0.23529,-0.05109 -0.49223,-0.09525 -0.25145,-0.04452 -0.46881,-0.07467 -0.21702,-0.02466 -0.29953,-0.0193 -0.099,0.0064 -0.14674,0.03709 -0.0422,0.03034 -0.0562,0.06992 -0.014,0.03957 -0.0115,0.07808 0.002,0.03851 0.004,0.06051 0.017,0.264033 0.11787,0.627602 0.10117,0.369072 0.25114,0.723946 0.1434,0.338726 0.30312,0.58802 0.15972,0.249294 0.2953,0.467004 0.14144,0.222857 0.23781,0.432054 0.10223,0.214341 0.12443,0.472517 0.004,0.05501 -0.003,0.127226 -0.006,0.07772 -0.0348,0.14586 -0.0233,0.06779 -0.0703,0.109488 -0.0467,0.04721 -0.12438,0.04118 -0.16094,-0.01171 -0.32385,-0.139267 -0.1629,-0.127567 -0.31942,-0.327356 -0.15652,-0.199789 -0.30524,-0.449792 -0.14871,-0.250003 -0.28714,-0.511718 -0.13293,-0.262072 -0.24864,-0.514209 -0.11021,-0.252494 -0.19487,-0.451397 -0.20871,-0.494693 -0.32214,-0.967923 -0.11342,-0.47323 -0.13794,-0.852777 -0.027,-0.418052 0.11794,-0.653884 0.13981,-0.229979 0.50286,-0.253432 z" />
  </g>
  <g
     inkscape:groupmode="layer"
     id="layer6"
     inkscape:label="2er-Markierung"
     style="display:inline">
    <path
       id="rect3586"
       style="fill:none;stroke:#245bed;stroke-width:0.282223"
       d="m 221.35856,52.322388 c -0.24973,-0.0088 -0.55128,0.268462 -0.71882,0.682128 l -0.43046,1.062984 c 0.12794,0.896866 0.24463,1.795201 0.36328,2.693377 l 1.31672,-3.250449 c 0.19147,-0.47276 0.13281,-0.938977 -0.13126,-1.04593 l -0.29611,-0.120406 c -0.033,-0.01337 -0.0677,-0.02045 -0.10335,-0.0217 z m 2.55333,0 c -0.24972,-0.0088 -0.55179,0.268462 -0.71933,0.682128 l -1.77199,4.375959 c -0.19147,0.472763 -0.13281,0.939496 0.13126,1.046448 l 0.2961,0.119891 c 0.26408,0.106953 0.6307,-0.187664 0.82218,-0.660426 l 1.77198,-4.37596 c 0.19148,-0.472763 0.13333,-0.938977 -0.13074,-1.04593 l -0.2961,-0.120406 c -0.033,-0.01337 -0.0677,-0.02045 -0.10336,-0.0217 z m 2.55282,0 c -0.24973,-0.0088 -0.55128,0.268462 -0.71882,0.682128 l -1.7725,4.375959 c -0.19148,0.472763 -0.13283,0.939491 0.13126,1.046448 l 0.2961,0.119891 c 0.26408,0.106958 0.63122,-0.187664 0.82269,-0.660426 l 1.77198,-4.37596 c 0.19148,-0.472763 0.13283,-0.938972 -0.13125,-1.04593 l -0.29611,-0.120406 c -0.033,-0.01337 -0.0677,-0.02045 -0.10335,-0.0217 z m 2.55333,0 c -0.24973,-0.0088 -0.55128,0.268462 -0.71882,0.682128 l -1.7725,4.375959 c -0.19148,0.472763 -0.13283,0.939491 0.13126,1.046448 l 0.2961,0.119891 c 0.26409,0.106958 0.6307,-0.187664 0.82218,-0.660426 l 1.7725,-4.375444 c 0.19147,-0.47276 0.13282,-0.939488 -0.13126,-1.046446 l -0.29611,-0.120406 c -0.033,-0.01337 -0.0677,-0.02045 -0.10335,-0.0217 z m 2.55333,0 c -0.24972,-0.0088 -0.55179,0.268462 -0.71933,0.682128 l -1.77199,4.375959 c -0.19147,0.472763 -0.13333,0.939496 0.13074,1.046448 l 0.29611,0.119891 c 0.26408,0.106958 0.63121,-0.187664 0.82269,-0.660426 l 1.77198,-4.37596 c 0.19148,-0.472763 0.13335,-0.938972 -0.13074,-1.04593 l -0.29662,-0.120406 c -0.033,-0.01337 -0.0672,-0.02045 -0.10284,-0.0217 z m 2.55282,0 c -0.24973,-0.0088 -0.55128,0.268462 -0.71882,0.682128 l -1.7725,4.375959 c -0.19148,0.472763 -0.13283,0.939491 0.13126,1.046448 l 0.2961,0.119891 c 0.26408,0.106953 0.6307,-0.187664 0.82217,-0.660426 l 1.77251,-4.37596 c 0.19147,-0.472763 0.13281,-0.938977 -0.13126,-1.04593 l -0.29611,-0.120406 c -0.033,-0.01337 -0.0677,-0.02045 -0.10335,-0.0217 z m 2.55333,0 c -0.24973,-0.0088 -0.55179,0.268462 -0.71933,0.682128 l -1.77199,4.375959 c -0.19147,0.472763 -0.13334,0.939491 0.13074,1.046448 l 0.29662,0.119891 c 0.26408,0.106953 0.6307,-0.187664 0.82218,-0.660426 l 1.77198,-4.37596 c 0.19148,-0.47276 0.13333,-0.938977 -0.13074,-1.04593 l -0.2961,-0.120406 c -0.033,-0.01337 -0.0677,-0.02045 -0.10336,-0.0217 z m 2.55282,0 c -0.24973,-0.0088 -0.55128,0.268462 -0.71882,0.682128 l -1.7725,4.375959 c -0.19148,0.472763 -0.13283,0.939491 0.13126,1.046448 l 0.2961,0.119891 c 0.26408,0.106958 0.63121,-0.187664 0.82269,-0.660426 l 1.77198,-4.37596 c 0.19148,-0.472763 0.13283,-0.938972 -0.13126,-1.04593 l -0.2961,-0.120406 c -0.033,-0.01337 -0.0677,-0.02045 -0.10335,-0.0217 z m 2.55333,0 c -0.24972,-0.0088 -0.55128,0.268462 -0.71882,0.682128 l -1.7725,4.375959 c -0.19148,0.472763 -0.13282,0.939496 0.13126,1.046448 l 0.2961,0.119891 c 0.26409,0.106958 0.6307,-0.187664 0.82217,-0.660426 l 1.77251,-4.37596 c 0.19147,-0.472763 0.13282,-0.938972 -0.13126,-1.04593 l -0.29611,-0.120406 c -0.033,-0.01337 -0.0677,-0.02045 -0.10335,-0.0217 z m 2.55333,0 c -0.24972,-0.0088 -0.55179,0.268462 -0.71933,0.682128 l -1.77199,4.375959 c -0.19148,0.472763 -0.13333,0.939496 0.13074,1.046448 l 0.29611,0.119891 c 0.26408,0.106958 0.63121,-0.187664 0.82269,-0.660426 l 1.77198,-4.37596 c 0.19148,-0.472763 0.13334,-0.938972 -0.13074,-1.04593 l -0.29662,-0.120406 c -0.033,-0.01337 -0.0672,-0.02045 -0.10284,-0.0217 z m 0.56431,3.816302 -0.50281,1.241785 c -0.19148,0.472763 -0.13283,0.939491 0.13126,1.046448 l 0.076,0.03101 c 0.0957,-0.773462 0.19231,-1.54676 0.29559,-2.31924 z" />
    <path
       id="rect3608"
       style="fill:none;stroke:#245bed;stroke-width:0.250514"
       d="m 221.87739,63.693269 c -0.15571,-0.0051 -0.32516,0.100595 -0.45837,0.277503 0.0953,0.941446 0.17905,1.88364 0.262,2.826184 l 0.76223,-2.09083 c 0.14687,-0.402992 0.0633,-0.800764 -0.18759,-0.891934 l -0.28163,-0.10232 c -0.0314,-0.0114 -0.0636,-0.01752 -0.0966,-0.0186 z m 2.35955,0 c -0.2314,-0.0075 -0.49264,0.228741 -0.62115,0.581359 l -1.35909,3.730006 c -0.14688,0.402992 -0.0633,0.800764 0.18758,0.891934 l 0.28164,0.102319 c 0.25091,0.09117 0.57091,-0.159763 0.71778,-0.562755 l 1.35961,-3.730006 c 0.14687,-0.402992 0.0628,-0.800764 -0.1881,-0.891934 l -0.28112,-0.10232 c -0.0314,-0.0114 -0.0641,-0.01752 -0.0971,-0.0186 z m 2.36006,0 c -0.23139,-0.0075 -0.49264,0.228743 -0.62115,0.581359 l -1.35909,3.730006 c -0.14687,0.402992 -0.0633,0.800764 0.18758,0.891934 l 0.28164,0.102319 c 0.25091,0.09117 0.57092,-0.159763 0.71779,-0.562755 l 1.3596,-3.730006 c 0.14687,-0.402989 0.0628,-0.800764 -0.1881,-0.891934 l -0.28112,-0.10232 c -0.0314,-0.0114 -0.0641,-0.01752 -0.0971,-0.0186 z m 2.36006,0 c -0.23139,-0.0075 -0.49263,0.228741 -0.62115,0.581359 l -1.3596,3.730006 c -0.14688,0.402992 -0.0628,0.800764 0.1881,0.891934 l 0.28112,0.102319 c 0.25091,0.09117 0.57143,-0.159763 0.7183,-0.562755 l 1.35909,-3.730006 c 0.14687,-0.402992 0.0633,-0.800764 -0.18759,-0.891934 l -0.28163,-0.10232 c -0.0314,-0.0114 -0.0636,-0.01752 -0.0966,-0.0186 z m 2.36007,0 c -0.2314,-0.0075 -0.49264,0.228741 -0.62116,0.581359 l -1.3596,3.730006 c -0.14687,0.402992 -0.0633,0.800764 0.18758,0.891934 l 0.28164,0.102319 c 0.25091,0.09117 0.57143,-0.159763 0.7183,-0.562755 l 1.35909,-3.730006 c 0.14688,-0.402992 0.0633,-0.800764 -0.18758,-0.891934 l -0.28164,-0.10232 c -0.0314,-0.0114 -0.0636,-0.01752 -0.0966,-0.0186 z m 2.35954,0 c -0.23139,-0.0075 -0.49264,0.228741 -0.62115,0.581359 l -1.35909,3.730006 c -0.14687,0.402992 -0.0633,0.800764 0.18758,0.891934 l 0.28164,0.102319 c 0.25091,0.09117 0.57092,-0.159763 0.71779,-0.562755 l 1.3596,-3.730006 c 0.14688,-0.402992 0.0628,-0.800764 -0.1881,-0.891934 l -0.28112,-0.10232 c -0.0314,-0.0114 -0.0641,-0.01752 -0.0971,-0.0186 z m 2.36006,0 c -0.23139,-0.0075 -0.49263,0.228743 -0.62115,0.581359 l -1.35909,3.730006 c -0.14687,0.402992 -0.0633,0.800764 0.18759,0.891934 l 0.28164,0.102319 c 0.2509,0.09117 0.57091,-0.159763 0.71778,-0.562755 l 1.35961,-3.730006 c 0.14687,-0.402989 0.0628,-0.800764 -0.18811,-0.891934 l -0.28112,-0.10232 c -0.0314,-0.0114 -0.0641,-0.01752 -0.0971,-0.0186 z m 2.36007,0 c -0.2314,-0.0075 -0.49264,0.228741 -0.62115,0.581359 l -1.35961,3.730006 c -0.14687,0.402992 -0.0628,0.800764 0.1881,0.891934 l 0.28112,0.102319 c 0.25091,0.09117 0.57143,-0.159763 0.7183,-0.562755 l 1.35909,-3.730006 c 0.14688,-0.402992 0.0633,-0.800764 -0.18758,-0.891934 l -0.28164,-0.10232 c -0.0314,-0.0114 -0.0636,-0.01752 -0.0966,-0.0186 z m 2.36006,0 c -0.2314,-0.0075 -0.49264,0.228741 -0.62115,0.581359 l -1.35961,3.730006 c -0.14687,0.402992 -0.0633,0.800764 0.18759,0.891934 l 0.28163,0.102319 c 0.25091,0.09117 0.57143,-0.159763 0.7183,-0.562755 l 1.3591,-3.730006 c 0.14687,-0.402992 0.0633,-0.800764 -0.18759,-0.891934 l -0.28164,-0.10232 c -0.0314,-0.0114 -0.0636,-0.01752 -0.0966,-0.0186 z m 2.35955,0 c -0.2314,-0.0075 -0.49264,0.228741 -0.62116,0.581359 l -1.35909,3.730006 c -0.14687,0.402992 -0.0633,0.800764 0.18759,0.891934 l 0.28164,0.102319 c 0.25091,0.09117 0.57091,-0.159763 0.71778,-0.562755 l 1.35961,-3.730006 c 0.14687,-0.402992 0.0633,-0.800764 -0.18759,-0.891934 l -0.28163,-0.10232 c -0.0314,-0.0114 -0.0641,-0.01752 -0.0972,-0.0186 z"
       sodipodi:nodetypes="scccssssccssccccssccssccccssccccccssssccssccssssccssccccssccssccccssccccccssssccssccssssccssccsss" />
  </g>
  <g
     inkscape:groupmode="layer"
     id="layer7"
     inkscape:label="Kegelbild"
     style="display:inline">
    <path
       id="path3239"
       style="fill:none;stroke:#245bed;stroke-width:0.499999;stroke-miterlimit:4;stroke-dasharray:none"
       d="m 150.46577,169.12508 -0.0899,0.93638 m 0.007,-0.0476 c -0.0595,0.47425 -0.18122,0.98982 -0.33951,1.44229 m 0.007,-0.0475 c -0.18881,0.53961 -0.44684,1.10502 -0.75293,1.58647 m 0.007,-0.0476 c -0.19175,0.30168 -0.41556,0.63394 -0.64439,0.90899 h 6.8054 l -0.0533,-0.0362 c -0.51963,-0.37985 -1.01272,-0.79986 -1.44384,-1.27692 -0.38246,-0.42331 -0.71658,-0.89135 -0.99321,-1.39165 -0.23198,-0.4195 -0.42346,-0.86178 -0.56173,-1.3193 l -0.23047,-0.86248 -0.36277,-1.11001 -0.36484,-0.86455 c -0.0957,-0.17685 -0.20811,-0.34562 -0.33125,-0.50591 -0.10894,0.19794 -0.20778,0.40107 -0.28008,0.61392 l -0.21446,0.91364 -0.17157,1.15548 m -11.41227,3.40031 c -0.0166,-0.57027 0.0329,-1.14353 0.14676,-1.70377 0.0955,-0.46975 0.2359,-0.93046 0.42736,-1.36839 l 0.38396,-0.80615 0.4439,-1.08004 0.28319,-0.89504 c 0.0753,-0.35367 0.0939,-0.72096 0.0754,-1.08314 l -0.18914,-1.63556 -0.0537,-0.30489 c -0.15078,0.1376 -0.29246,0.28486 -0.41858,0.4439 l -0.50953,0.78807 -0.54984,1.03043 -0.37672,0.80925 c -0.21558,0.42658 -0.48111,0.82862 -0.78238,1.20148 -0.35931,0.44466 -0.76938,0.84794 -1.21957,1.19838 -0.50736,0.39502 -1.0656,0.7228 -1.64331,1.00665 l -1.58129,0.65319 c -0.42899,0.14597 -0.86555,0.27051 -1.3069,0.37362 -0.0439,0.47949 -0.1291,0.95597 -0.24081,1.42472 l -0.001,0.003 0.0708,0.21445 c 0.0871,0.33466 0.16048,0.67297 0.22296,1.01338 l 6.96577,5e-5 c -0.0748,-0.4249 -0.13471,-0.85253 -0.14733,-1.28359 z m -11.86121,1.68714 c -0.48409,-0.42422 -0.93765,-0.88615 -1.32498,-1.3994 -0.34363,-0.45542 -0.63521,-0.95156 -0.86662,-1.47433 -0.19403,-0.43834 -0.34598,-0.89528 -0.44338,-1.36322 l -0.15348,-0.87954 -0.26355,-1.13791 -0.28732,-0.89349 c -0.14331,-0.33199 -0.34062,-0.64243 -0.56534,-0.92707 l -1.10071,-1.22422 -0.59944,-0.59169 -0.33693,-0.32866 -0.46974,-0.58756 -0.18345,-0.29301 c -0.14658,-0.275 -0.2317,-0.59349 -0.20619,-0.90744 0.0286,-0.35143 0.19628,-0.69761 0.447,-0.94051 l 0.24649,-0.19534 0.26562,-0.16846 c 0.31193,-0.15651 0.69441,-0.20001 1.0356,-0.11111 0.30479,0.0795 0.57682,0.26489 0.78806,0.49403 l 0.21653,0.26975 0.39946,0.63717 0.19947,0.42685 0.36018,0.76068 0.79272,1.44332 c 0.19455,0.30605 0.42224,0.5944 0.68833,0.83923 l 0.74879,0.56637 0.817,0.51573 0.42375,-1.03146 0.28267,-0.89504 c 0.0754,-0.35367 0.0939,-0.72096 0.0755,-1.08314 l -0.18914,-1.63556 -0.14624,-0.82888 -0.0842,-0.46303 -0.0434,-0.75137 0.0207,-0.3452 c 0.0396,-0.30912 0.15402,-0.61763 0.35657,-0.85886 0.22676,-0.27 0.56342,-0.4555 0.90847,-0.5085 l 0.31419,-0.0165 0.31368,0.0165 c 0.34498,0.0529 0.68225,0.2385 0.90899,0.5085 0.20255,0.24123 0.31697,0.54974 0.35657,0.85886 l 0.0207,0.3452 -0.0434,0.75137 -0.0842,0.46303 -0.14625,0.82888 -0.18913,1.63556 c -0.0185,0.36218 7.9e-4,0.72947 0.076,1.08314 l 0.28216,0.89504 0.44441,1.08055 0.46923,-0.7152 c 0.38761,-0.51387 0.81514,-0.99978 1.29862,-1.42369 0.42901,-0.37609 0.90225,-0.70344 1.40664,-0.97255 0.42293,-0.22563 0.8675,-0.41068 1.32705,-0.54208 l 0.86609,-0.21756 1.11518,-0.34571 0.87023,-0.35244 c 0.3206,-0.16725 0.61575,-0.3865 0.88315,-0.63148 l 1.13998,-1.18805 0.54622,-0.64078 0.30283,-0.36019 0.55139,-0.51159 0.27957,-0.20413 c 0.26352,-0.16637 0.57488,-0.27445 0.88986,-0.27233 0.35258,0.003 0.70935,0.14448 0.96997,0.37672 l 0.21342,0.23151 0.18707,0.2527 c 0.17908,0.29963 0.25077,0.67743 0.18707,1.02423 -0.0569,0.30979 -0.22207,0.59471 -0.43511,0.82217 l -0.25322,0.23616 -0.52865,0.38809 0.0104,0.16433 -0.0434,0.75086 -0.0842,0.46302 -0.14677,0.8294 -0.18913,1.63556 c -0.0185,0.36218 7.9e-4,0.72947 0.076,1.08314 l 0.28267,0.89504 0.4439,1.08004 0.38396,0.80615 c 0.0525,0.12014 0.10073,0.24206 0.14573,0.36535 0.25819,-0.43714 0.56126,-0.84887 0.9033,-1.22525 0.3224,-0.35475 0.67907,-0.67823 1.06764,-0.95653 l 0.74207,-0.49609 0.93431,-0.70125 0.70073,-0.62425 c 0.24565,-0.26534 0.44967,-0.57129 0.61909,-0.89194 l 0.0517,-0.11524 -0.4749,-0.39222 -0.36432,-0.29766 -0.52038,-0.54363 -0.20826,-0.27647 c -0.17033,-0.26098 -0.28314,-0.57025 -0.28525,-0.88522 -0.003,-0.35259 0.13343,-0.71209 0.36173,-0.97617 l 0.22841,-0.21652 0.25012,-0.1912 c 0.29689,-0.18346 0.67342,-0.26056 1.02112,-0.20206 0.31061,0.0522 0.59825,0.2126 0.82889,0.4222 l 0.23926,0.2496 0.21963,0.2899 0.13694,-0.26303 0.19431,-0.28629 c 0.19218,-0.24534 0.44825,-0.4519 0.74568,-0.55552 0.33299,-0.11598 0.71774,-0.10316 1.04128,0.0279 l 0.27802,0.14676 0.26149,0.17467 c 0.26934,0.22196 0.4642,0.55375 0.52089,0.90175 0.0506,0.31089 -0.009,0.63501 -0.13332,0.92088 l -0.15865,0.30696 -0.42168,0.62321 -0.30954,0.35502 -0.36535,0.42323 0.0238,0.0351 c 0.22081,0.28768 0.4735,0.55527 0.76016,0.77566 l 0.7953,0.49765 1.0387,0.53433 0.81494,0.36484 c 0.42976,0.20916 0.83602,0.46867 1.21336,0.76429 0.36409,0.28528 0.69985,0.6054 1.00459,0.9524 l 0.005,-0.83819 -0.0558,-1.16686 -0.12299,-0.93069 c -0.0817,-0.35224 -0.22041,-0.69266 -0.39068,-1.01286 l -0.86454,-1.40146 -0.48421,-0.68885 -0.27234,-0.38344 -0.3576,-0.66197 -0.12815,-0.32143 c -0.0952,-0.29677 -0.12203,-0.62483 -0.0408,-0.92914 0.0909,-0.34068 0.31765,-0.65174 0.60771,-0.84595 l 0.27751,-0.14779 0.29145,-0.11834 c 0.33488,-0.0984 0.71889,-0.073 1.0387,0.0754 0.2857,0.13262 0.52038,0.36365 0.68729,0.62683 l 0.16485,0.30386 0.27906,0.69867 0.11988,0.45526 0.21911,0.81288 0.52193,1.56166 c 0.13676,0.33588 0.30954,0.66036 0.52762,0.94878 l 0.6351,0.69091 0.86042,0.79013 0.68884,0.56741 c 0.16171,0.14208 0.31395,0.29532 0.46096,0.4532 0.1517,-0.16251 0.31067,-0.3178 0.478,-0.46354 l 0.69195,-0.56379 0.86352,-0.78703 0.63872,-0.68781 c 0.21936,-0.28745 0.39351,-0.61092 0.53175,-0.9462 l 0.52865,-1.55959 0.22221,-0.81184 0.12195,-0.45475 0.28215,-0.69763 0.1664,-0.30334 c 0.16805,-0.26246 0.4036,-0.49237 0.68988,-0.62374 0.32048,-0.147 0.70469,-0.17049 1.03922,-0.0708 l 0.29093,0.11989 0.27699,0.14934 c 0.28918,0.19541 0.51418,0.50695 0.60358,0.84801 0.0799,0.30469 0.0515,0.63279 -0.045,0.92914 l -0.12919,0.32092 -0.3607,0.66042 -0.2744,0.3824 -0.48679,0.68679 -0.87075,1.39733 c -0.17168,0.31945 -0.31203,0.65943 -0.39533,1.0113 l -0.12712,0.92966 -0.061,1.16686 0.002,0.89245 c -0.0143,0.47775 -0.0843,0.95462 -0.19896,1.42006 -0.13677,0.55508 -0.33729,1.09418 -0.59634,1.60249 -0.29189,0.57293 -0.65816,1.1066 -1.06092,1.60869 l -0.62839,0.68678 c -0.004,0.26093 -0.009,0.52181 -0.0269,0.78186 l -0.44683,0.21339 7.70476,4.41682 v -30.81053 h -53.74865 v 30.81053 l 8.71088,-4.99362 c -0.0152,-0.0235 -0.0286,-0.0485 -0.0386,-0.0748 z m 35.25057,1.18494 h -1.27744 l 0.19634,1.26269 c 0.92644,0.29967 1.59253,0.87787 1.96891,0.0523 0.70599,-0.70603 -0.18203,-0.91029 -0.88781,-1.31494 z m -2.99,0 h -2.23496 c 0.47677,0.2445 0.53318,1.76215 1.03454,1.94928 z m -11.8215,0 h -8.17263 l 0.36949,1.19941 c 0.23681,0.62417 0.51892,1.23195 0.84336,1.81487 h 2.55901 c 0.3244,-0.58278 0.60708,-1.19035 0.84388,-1.81436 l 1.09916,0.65423 c 0.57704,-0.33483 1.1308,-0.71247 1.65364,-1.12758 z m -15.40423,0 h -3.88038 c -0.23254,0.13332 -0.46509,0.26665 -0.69763,0.39997 0.12255,0.25617 0.24906,0.51068 0.38705,0.75861 h 1.81488 c 0.14434,0.0754 0.28986,0.14795 0.43666,0.21808 l 0.30696,-0.21808 z" />
    <path
       id="path16504"
       style="fill:none;stroke:#245bed;stroke-width:0.5;stroke-miterlimit:4;stroke-dasharray:none"
       d="m 156.38551,124.65011 a 3.5079125,3.5079125 0 0 0 -1.88874,4.58715 3.5079125,3.5079125 0 0 0 4.58715,1.88874 3.5079125,3.5079125 0 0 0 1.88922,-4.58734 3.5079125,3.5079125 0 0 0 -4.58763,-1.88855 z m 9.7645,7.59482 a 3.5079125,3.5079125 0 0 0 -1.88874,4.58714 3.5079125,3.5079125 0 0 0 4.58715,1.88875 3.5079125,3.5079125 0 0 0 1.88874,-4.58715 3.5079125,3.5079125 0 0 0 -4.58715,-1.88874 z m -11.12821,4.78867 a 3.5079125,3.5079125 0 0 0 -1.88874,4.58714 3.5079125,3.5079125 0 0 0 4.58735,1.88922 3.5079125,3.5079125 0 0 0 1.88854,-4.58762 3.5079125,3.5079125 0 0 0 -4.58715,-1.88874 z" />
  </g>
  <g
     inkscape:groupmode="layer"
     id="layer8"
     inkscape:label="Kreis"
     style="display:inline">
    <path
       id="rect17715"
       style="fill:none;stroke:#245bed;stroke-width:0.5"
       d="m 103.73648,146.18692 h 0.75531 c 0.51834,0 0.93564,0.57453 0.93564,1.28818 v 18.83738 c 0,0.71366 -0.4173,1.28819 -0.93564,1.28819 h -0.75531 c -0.51835,0 -0.93565,-0.57453 -0.93565,-1.28819 V 147.4751 c 0,-0.71365 0.4173,-1.28818 0.93565,-1.28818 z" />
    <path
       id="path22135"
       style="display:inline;fill:none;stroke:#245bed;stroke-width:0.5;stroke-miterlimit:4;stroke-dasharray:none"
       d="m 119.09367,130.3546 c 0.3162,0.007 0.56502,0.42295 0.56306,0.93301 l -0.0394,10.22874 c -0.002,0.51006 -0.26225,0.91507 -0.57844,0.9082 -0.31619,-0.007 -0.56502,-0.42296 -0.56305,-0.93301 l 0.0394,-10.22874 c 0.002,-0.51006 0.26224,-0.91508 0.57843,-0.9082 z m 2.28278,0 c 0.3162,0.007 0.56502,0.42295 0.56306,0.93301 l -0.0394,10.22874 c -0.002,0.51006 -0.26225,0.91507 -0.57844,0.9082 -0.31619,-0.007 -0.56502,-0.42296 -0.56305,-0.93301 l 0.0394,-10.22874 c 0.002,-0.51006 0.26224,-0.91508 0.57843,-0.9082 z m 15.48212,1.3e-4 c 0.3162,0.007 0.56523,0.4227 0.56327,0.93276 l -0.007,1.87844 1.06092,-0.66818 c 0.56227,-0.3541 1.23766,-0.38828 1.50998,-0.0816 0.27217,0.30673 0.0357,0.83493 -0.52658,1.18907 l -2.05104,1.29191 -0.0253,6.61923 c -0.002,0.51007 -0.26258,0.91535 -0.57877,0.90848 -0.31619,-0.007 -0.56473,-0.42323 -0.56276,-0.93328 l 0.0227,-5.87406 -1.14412,0.72037 -0.0202,5.17849 c -0.002,0.51007 -0.26206,0.91535 -0.57825,0.90848 -0.31619,-0.007 -0.56525,-0.42323 -0.56328,-0.93328 l 0.017,-4.43281 -1.1436,0.72038 -0.0145,3.73723 c -0.002,0.51007 -0.26207,0.91535 -0.57826,0.90848 -0.31619,-0.007 -0.56524,-0.42323 -0.56327,-0.93328 l 0.0114,-2.99155 -1.14412,0.72037 -0.009,2.29598 c -0.002,0.51007 -0.26207,0.91535 -0.57826,0.90848 -0.31619,-0.007 -0.56472,-0.42323 -0.56276,-0.93328 l 0.006,-1.55081 -1.21595,0.76584 c -0.56229,0.3541 -1.23767,0.3883 -1.50999,0.0816 -0.27217,-0.30673 -0.0351,-0.83445 0.5271,-1.18855 l 2.20504,-1.38907 0.0269,-6.94789 c 0.002,-0.51006 0.26207,-0.91484 0.57826,-0.90796 0.3162,0.007 0.56523,0.4227 0.56327,0.93276 l -0.0243,6.20221 1.14412,-0.72037 0.0212,-5.50664 c 0.002,-0.51006 0.26259,-0.91484 0.57878,-0.90796 0.3162,0.007 0.56472,0.4227 0.56275,0.93276 l -0.0181,4.76095 1.1436,-0.72037 0.016,-4.06538 c 0.002,-0.51006 0.26207,-0.91484 0.57826,-0.90796 0.3162,0.007 0.56523,0.4227 0.56327,0.93276 l -0.0129,3.3197 1.14412,-0.72037 0.01,-2.62413 c 0.002,-0.51006 0.26207,-0.91484 0.57826,-0.90796 z m -13.19934,-1.3e-4 c 0.3162,0.007 0.56502,0.42295 0.56306,0.93301 l -0.0394,10.22874 c -0.002,0.51006 -0.26225,0.91507 -0.57844,0.9082 -0.31619,-0.007 -0.56502,-0.42296 -0.56305,-0.93301 l 0.0394,-10.22874 c 0.002,-0.51006 0.26224,-0.91508 0.57843,-0.9082 z" />
    <path
       id="path23795"
       style="display:inline;fill:none;stroke:#245bed;stroke-width:0.5;stroke-miterlimit:4;stroke-dasharray:none"
       d="m 156.38551,124.65011 a 3.5079125,3.5079125 0 0 0 -1.88874,4.58715 3.5079125,3.5079125 0 0 0 4.58715,1.88874 3.5079125,3.5079125 0 0 0 1.88922,-4.58734 3.5079125,3.5079125 0 0 0 -4.58763,-1.88855 z m 9.7645,7.59482 a 3.5079125,3.5079125 0 0 0 -1.88874,4.58714 3.5079125,3.5079125 0 0 0 4.58715,1.88875 3.5079125,3.5079125 0 0 0 1.88874,-4.58715 3.5079125,3.5079125 0 0 0 -4.58715,-1.88874 z m -11.12821,4.78867 a 3.5079125,3.5079125 0 0 0 -1.88874,4.58714 3.5079125,3.5079125 0 0 0 4.58735,1.88922 3.5079125,3.5079125 0 0 0 1.88854,-4.58762 3.5079125,3.5079125 0 0 0 -4.58715,-1.88874 z" />
    <path
       d="m 191.56681,156.99854 c 0,6.6017 -1.68726,13.20337 -4.60776,18.69949 -1.4703,1.6638 -3.02605,3.25095 -4.6486,4.76642 -1.65625,1.54697 -3.38213,3.01923 -5.17058,4.41126 -1.76323,1.37239 -3.58728,2.66674 -5.47054,3.86914 -1.80107,1.14992 -3.65627,2.21567 -5.56396,3.17836 -1.78317,0.89986 -3.61222,1.70969 -5.48273,2.41009 -1.78849,0.66968 -3.61489,1.23935 -5.47034,1.69137 -1.79404,0.43708 -3.61524,0.76419 -5.45035,0.96868 -1.7889,0.19935 -3.59101,0.28219 -5.39055,0.24363 -1.83476,-0.0394 -3.66684,-0.20484 -5.47928,-0.49269 -1.82782,-0.29028 -3.63568,-0.70502 -5.40961,-1.23259 -1.82402,-0.54243 -3.61218,-1.20422 -5.35469,-1.96902 -1.81671,-0.79735 -3.58384,-1.70669 -5.29509,-2.7106 -1.80233,-1.05734 -3.54271,-2.21958 -5.21617,-3.47096 -1.70614,-1.27587 -3.3427,-2.64439 -4.90223,-4.09588 -1.54029,-1.43364 -3.03278,-2.97991 -4.38039,-4.5411 -1.34761,-1.56119 -2.77264,-3.42487 -3.94696,-4.66459 h 10e-6 c -1.17432,-1.23972 -3.09707,-2.8254 -3.36023,-6.70354 -0.19987,-1.25961 -0.061,-8.56715 -0.061,-9.8425 -0.0196,-3.21448 -0.2334,-9.12735 0.22571,-11.84942 0.32415,-2.55205 2.98328,-4.7663 3.65322,-5.46195 0.66993,-0.69564 2.16818,-3.39862 3.48797,-4.92767 1.38718,-1.60715 2.86613,-3.13455 4.42149,-4.57956 1.56333,-1.4524 3.20382,-2.82154 4.91412,-4.09753 1.65933,-1.23796 3.38429,-2.38823 5.17005,-3.43556 1.71195,-1.00407 3.47979,-1.91351 5.29725,-2.71083 1.7431,-0.76471 3.53185,-1.42626 5.35646,-1.96843 1.77509,-0.52745 3.58412,-0.94192 5.41308,-1.23181 1.80823,-0.28658 3.63596,-0.45141 5.46635,-0.49065 1.81189,-0.0388 3.62642,0.0455 5.42745,0.24779 1.82315,0.20482 3.63247,0.5306 5.41494,0.96494 1.85755,0.45261 3.68592,1.0231 5.47633,1.69382 1.87047,0.70072 3.6995,1.51085 5.48263,2.41099 1.90353,0.96094 3.75479,2.02448 5.55216,3.17184 1.88491,1.20323 3.71058,2.49866 5.47531,3.87223 1.79265,1.39527 3.52239,2.87117 5.18219,4.42214 1.61822,1.51208 3.16995,3.09553 4.6366,4.75521 2.9205,5.49612 4.60776,12.09783 4.60776,18.69948 z"
       stroke="#245bed"
       stroke-width="0.0780247"
       fill="none"
       id="path6-5"
       sodipodi:nodetypes="scssssssscsssssszzzccczsssssssccsssssscs"
       style="stroke-width:0.8;stroke-miterlimit:4;stroke-dasharray:none" />
    <path
       id="path1824"
       style="fill:none;stroke:#245bed;stroke-width:0.5"
       d="m 184.64875,146.18692 h 0.75531 c 0.51835,0 0.93564,0.57453 0.93564,1.28818 v 18.83738 c 0,0.71366 -0.41729,1.28819 -0.93564,1.28819 h -0.75531 c -0.51835,0 -0.93564,-0.57453 -0.93564,-1.28819 V 147.4751 c 0,-0.71365 0.41729,-1.28818 0.93564,-1.28818 z" />
  </g>
  <g
     inkscape:groupmode="layer"
     id="layer11"
     inkscape:label="Kreis-clip-innen"
     style="display:inline">
    <path
       style="color:#000000;display:inline;fill:none;stroke:#245bed;stroke-width:0.5;stroke-miterlimit:4;stroke-dasharray:none;stroke-opacity:1"
       d="m 174.27219,169.78052 c 1.70541,0 3.28402,0.9098 4.13672,2.38672 0.8527,1.47693 0.8527,3.30042 0,4.77735 -0.8527,1.47692 -2.43131,2.38671 -4.13672,2.38671 l -2.01131,-0.003 v -0.99741 h 2.01131 c 1.34974,0 2.59466,-0.7178 3.26953,-1.88671 0.67487,-1.16892 0.67487,-2.60844 0,-3.77735 -0.67487,-1.16891 -1.91979,-1.88672 -3.26953,-1.88672 h -2.01131 v -1 z"
       id="circle17378"
       sodipodi:nodetypes="cssccccsscccc" />
    <path
       style="color:#000000;display:inline;fill:none;stroke:#245bed;stroke-width:0.5;stroke-miterlimit:4;stroke-dasharray:none;stroke-opacity:1"
       d="m 174.27219,148.52354 -2.01131,-0.006 v 0.99555 l 2.01131,0.0102 c 2.09121,0 3.77539,1.68418 3.77539,3.77539 0,2.0912 -1.68418,3.77734 -3.77539,3.77734 l -2.01131,-2.4e-4 v 1 l 2.01131,2.4e-4 c 2.63165,0 4.77539,-2.1457 4.77539,-4.77734 0,-2.63165 -2.14374,-4.77539 -4.77539,-4.77539 z"
       id="circle17380"
       sodipodi:nodetypes="ccccsccccsc" />
    <path
       style="color:#000000;display:inline;fill:none;stroke:#245bed;stroke-width:0.5;stroke-miterlimit:4;stroke-dasharray:none;stroke-opacity:1"
       d="m 116.50092,169.78052 c -1.70541,0 -3.28402,0.9098 -4.13672,2.38672 -0.8527,1.47693 -0.8527,3.30042 0,4.77735 0.8527,1.47692 2.43131,2.38671 4.13672,2.38671 l 2.01131,-0.003 v -0.99741 h -2.01131 c -1.34974,0 -2.59466,-0.7178 -3.26953,-1.88671 -0.67487,-1.16892 -0.67487,-2.60844 0,-3.77735 0.67487,-1.16891 1.91979,-1.88672 3.26953,-1.88672 h 2.01131 v -1 z"
       id="path11532"
       sodipodi:nodetypes="cssccccsscccc" />
    <path
       style="color:#000000;display:inline;fill:none;stroke:#245bed;stroke-width:0.5;stroke-miterlimit:4;stroke-dasharray:none;stroke-opacity:1"
       d="m 116.50092,148.52377 2.01131,-0.006 v 0.99555 l -2.01131,0.0102 c -2.09121,0 -3.77539,1.68418 -3.77539,3.77539 0,2.0912 1.68418,3.77734 3.77539,3.77734 l 2.01131,-2.5e-4 v 1 l -2.01131,2.5e-4 c -2.63165,0 -4.77539,-2.1457 -4.77539,-4.77734 0,-2.63165 2.14374,-4.77539 4.77539,-4.77539 z"
       id="path11534"
       sodipodi:nodetypes="ccccsccccsc" />
  </g>
  <g
     inkscape:groupmode="layer"
     id="layer2"
     inkscape:label="Falz"
     style="display:inline">
    <path
       style="fill:none;stroke:#ffd412;stroke-width:0.499999;stroke-miterlimit:4;stroke-dasharray:none;stroke-opacity:1"
       d="m 186.9648,138.27562 v 37.41651"
       id="path23059" />
  </g>
  <g
     inkscape:groupmode="layer"
     id="layer1"
     inkscape:label="Schnitt"
     style="display:inline">
    <path
       id="path10"
       d="m 260.55431,164.4279 c 0.0368,0.36295 -0.37462,0.77441 -0.73757,0.73758 -0.36292,0.0368 -0.77435,-0.37463 -0.73756,-0.73758 v -14.88805 c -0.003,-0.18868 0.0809,-0.38996 0.21603,-0.52154 0.13163,-0.13521 0.33286,-0.21858 0.52153,-0.21609 0.18868,-0.003 0.38991,0.0809 0.52154,0.21609 0.1352,0.13158 0.21857,0.33282 0.21603,0.52154 z m -55.89483,-43.48251 c 0.9533,-3.93965 2.22458,-7.7996 3.84376,-11.50274 1.24184,-2.84022 2.68831,-5.58817 3.99826,-8.39532 1.71416,-3.6733 3.19454,-7.447922 4.62544,-11.254544 1.14956,-3.058247 2.26722,-6.137142 2.94511,-9.321524 0.78458,-3.6842 0.97996,-7.509557 0.78758,-11.282611 -0.66461,-7.244706 -0.84337,-8.848085 -1.97003,-17.037421 -0.45269,-2.888043 -0.96148,-5.766812 -1.52519,-8.636729 -0.31517,-1.604646 -0.64755,-3.20653 -0.87906,-4.824315 -0.36997,-2.585391 -0.48247,-5.211367 -0.45047,-7.823753 0.0147,-1.201233 0.06,-2.399638 0.2135,-3.59726 0.41264,-3.219895 1.60726,-6.434491 3.71701,-8.946985 2.3619,-2.812778 5.87079,-4.74561 9.46463,-5.297203 0.87261,-0.133971 1.7502,-0.186481 3.27299,-0.171281 1.52281,-0.01519 2.40039,0.03734 3.27302,0.171281 3.59384,0.551593 7.1027,2.484425 9.46463,5.297203 2.10975,2.512494 3.30436,5.72709 3.71701,8.946985 0.15349,1.197622 0.19879,2.396027 0.21349,3.59726 0.032,2.612386 -0.0805,5.238362 -0.45047,7.823753 -0.23151,1.617785 -0.56388,3.219669 -0.87909,4.824315 -0.56368,2.869917 -1.07247,5.748686 -1.52515,8.636729 -1.12667,8.189336 -1.30542,9.792715 -1.97004,17.037421 -0.19239,3.773054 0.003,7.598411 0.78759,11.282611 0.67788,3.184382 1.7955,6.263277 2.94511,9.321524 1.4309,3.806622 2.91127,7.581244 4.62539,11.254544 1.30998,2.80715 2.75646,5.5551 3.9983,8.39532 1.99456,4.56168 3.46124,9.36132 4.45592,14.25477 1.18616,5.8358 1.70105,11.80501 1.52776,17.74527 -0.0807,2.76528 -0.31045,5.52429 -0.66191,8.27 0.45443,2.47416 0.66217,4.91656 0.66191,7.27119 0.0975,8.82466 -3.24456,19.15503 -10.3002,26.89652 -1.95334,4.56723 -4.14347,9.03456 -6.55654,13.36994 l -23.18631,-2.9e-4 -0.22271,2.9e-4 c -6.45561,0.0391 -13.72929,-1.67592 -20.17925,-5.42148 -6.44999,-3.74558 -12.07622,-9.52172 -15.47667,-16.13673 -1.47211,1.66586 -3.02979,3.25497 -4.65434,4.77232 -1.6583,1.54887 -3.38631,3.02296 -5.17697,4.41671 -1.76541,1.37408 -3.59172,2.67004 -5.4773,3.87392 -1.8033,1.15135 -3.66079,2.21842 -5.57085,3.1823 -1.78537,0.90097 -3.61668,1.7118 -5.48952,2.41307 -1.79069,0.67051 -3.61934,1.24089 -5.4771,1.69347 -1.79626,0.43761 -3.61971,0.76513 -5.45709,0.96987 -1.79112,0.1996 -3.59545,0.28254 -5.39722,0.24394 -1.83702,-0.0393 -3.67137,-0.2051 -5.48606,-0.4933 -1.83008,-0.29065 -3.64018,-0.7059 -5.41631,-1.23413 -1.82627,-0.5431 -3.61665,-1.2057 -5.36132,-1.97145 -1.81895,-0.79833 -3.58827,-1.7088 -5.30162,-2.71395 -1.80457,-1.05864 -3.54709,-2.22232 -5.22262,-3.47526 -1.70826,-1.27744 -3.34686,-2.64766 -4.9083,-4.10094 -1.54221,-1.43541 -3.00916,-2.95187 -4.38582,-4.54671 -1.32191,-1.5314 -2.56058,-3.1351 -3.69057,-4.81341 v -9.28277 h -6.716845 l -0.533347,-1.93216 -0.37801,-1.90916 c -0.200107,-1.26116 -0.303387,-2.53805 -0.303387,-3.81498 0,-1.27774 0.10344,-2.55547 0.303787,-3.81748 0.2065,-1.30075 0.515917,-2.58477 0.911607,-3.84083 h 6.716195 l 3e-5,-9.28073 c 1.12957,-1.67774 2.36782,-3.28096 3.68924,-4.8119 1.38889,-1.60914 2.86968,-3.13842 4.42696,-4.58522 1.56526,-1.4542 3.20779,-2.82503 4.92021,-4.1026 1.66137,-1.2395 3.38847,-2.39119 5.17643,-3.43981 1.71408,-1.00532 3.48411,-1.91588 5.30381,-2.71419 1.74526,-0.76564 3.53622,-1.42802 5.36308,-1.97086 1.77729,-0.5281 3.58856,-0.94308 5.41979,-1.23334 1.81046,-0.28693 3.64044,-0.45197 5.4731,-0.49125 1.81414,-0.0388 3.63091,0.0456 5.43418,0.2481 1.82539,0.20507 3.63696,0.53126 5.42163,0.96613 1.85983,0.45317 3.69048,1.02436 5.48309,1.69591 1.8728,0.7016 3.70409,1.51272 5.48941,2.41397 1.9059,0.96213 3.75946,2.02699 5.55904,3.17576 1.88724,1.20473 3.71519,2.50176 5.48209,3.87702 1.79487,1.397 3.52675,2.87473 5.18861,4.42762 1.6202,1.51395 3.17386,3.09935 4.64231,4.77545 3.79712,-7.34295 10.28579,-13.68576 17.69468,-17.31587 z"
       style="fill:none;stroke:#245bed;stroke-width:0.8;stroke-miterlimit:4;stroke-dasharray:none;stroke-opacity:1"
       sodipodi:nodetypes="ccccccccccssscccssscsscsssssccccssscsccccccscssssssscssssssscccccsscccsssssscccsssssscc" />
    <path
       style="color:#000000;display:inline;fill:none;stroke:#245bed;stroke-width:0.5;stroke-miterlimit:4;stroke-dasharray:none;stroke-opacity:1"
       d="m 183.59381,148.91178 v 0.79883 h 4.45117 c 0.3496,1.15065 0.64385,2.31851 0.83204,3.50391 0.19714,1.24177 0.29882,2.49775 0.29882,3.7539 0,1.25012 -0.10158,2.50242 -0.29687,3.73828 -8.2e-4,0.005 -0.001,0.0104 -0.002,0.0156 l -0.37305,1.87891 -0.44726,1.625 h -4.4629 v 0.79883 h 5.07032 l 0.61914,-2.24024 0.38281,-1.92968 v -0.008 c 0.20337,-1.28141 0.30864,-2.58043 0.30864,-3.87893 0,-1.29932 -0.10503,-2.59666 -0.30859,-3.8789 -0.20981,-1.3216 -0.52263,-2.62487 -0.92383,-3.89844 l -0.0898,-0.2793 z"
       id="path917" />
    <text
       xml:space="preserve"
       style="font-size:4.23333px;line-height:1.25;font-family:'MV Boli';-inkscape-font-specification:'MV Boli';stroke-width:0.264583"
       x="121.36842"
       y="128.95395"
       id="text5658"><tspan
         sodipodi:role="line"
         id="tspan5656"
         style="font-size:4.23333px;stroke-width:0.264583"
         x="121.36842"
         y="128.95395">Die Adresse ist:</tspan><tspan
         sodipodi:role="line"
         style="font-size:4.23333px;stroke-width:0.264583"
         x="121.36842"
         y="134.24561"
         id="tspan5660">______________</tspan><tspan
         sodipodi:role="line"
         style="font-size:4.23333px;stroke-width:0.264583"
         x="121.36842"
         y="139.53728"
         id="tspan5662">______________</tspan><tspan
         sodipodi:role="line"
         style="font-size:4.23333px;stroke-width:0.264583"
         x="121.36842"
         y="144.82893"
         id="tspan5664">______________</tspan></text>
    <text
       xml:space="preserve"
       style="font-size:4.23333px;line-height:1.25;font-family:'MV Boli';-inkscape-font-specification:'MV Boli';stroke-width:0.264583"
       x="192.39653"
       y="134.01097"
       id="text10340"><tspan
         sodipodi:role="line"
         style="font-size:4.23333px;stroke-width:0.264583"
         x="192.39653"
         y="134.01097"
         id="tspan10338">Hallo _________ ,</tspan><tspan
         sodipodi:role="line"
         style="font-size:4.23333px;stroke-width:0.264583"
         x="192.39653"
         y="139.30263"
         id="tspan10625" /><tspan
         sodipodi:role="line"
         style="font-size:4.23333px;stroke-width:0.264583"
         x="192.39653"
         y="144.5943"
         id="tspan10627">ich lade dich ganz herzlich zu</tspan><tspan
         sodipodi:role="line"
         style="font-size:4.23333px;stroke-width:0.264583"
         x="192.39653"
         y="149.88596"
         id="tspan10629">meinem __ Geburtstag ein,</tspan><tspan
         sodipodi:role="line"
         style="font-size:4.23333px;stroke-width:0.264583"
         x="192.39653"
         y="155.17761"
         id="tspan10631">am __ __________ um __:__ Uhr</tspan><tspan
         sodipodi:role="line"
         style="font-size:4.23333px;stroke-width:0.264583"
         x="192.39653"
         y="160.46928"
         id="tspan10633">im ___________ in _________.</tspan><tspan
         sodipodi:role="line"
         style="font-size:4.23333px;stroke-width:0.264583"
         x="192.39653"
         y="165.76094"
         id="tspan10635" /><tspan
         sodipodi:role="line"
         style="font-size:4.23333px;stroke-width:0.264583"
         x="192.39653"
         y="171.05261"
         id="tspan10637">Bitte gib mir bis zum </tspan><tspan
         sodipodi:role="line"
         style="font-size:4.23333px;stroke-width:0.264583"
         x="192.39653"
         y="176.34427"
         id="tspan10639">__ ____________ Bescheid.</tspan><tspan
         sodipodi:role="line"
         style="font-size:4.23333px;stroke-width:0.264583"
         x="192.39653"
         y="181.63593"
         id="tspan10641">Tel. ____ / _________</tspan></text>
  </g>
</svg>
