<?xml version="1.0" encoding="UTF-8" standalone="no"?>
<!-- Created with Inkscape (http://www.inkscape.org/) -->

<svg
   width="177.33066mm"
   height="398.97076mm"
   viewBox="0 0 177.33066 398.97076"
   version="1.1"
   id="svg1999"
   inkscape:version="1.3-dev (bd2194656, 2023-01-08)"
   sodipodi:docname="horse-clipart.svg"
   xmlns:inkscape="http://www.inkscape.org/namespaces/inkscape"
   xmlns:sodipodi="http://sodipodi.sourceforge.net/DTD/sodipodi-0.dtd"
   xmlns="http://www.w3.org/2000/svg"
   xmlns:svg="http://www.w3.org/2000/svg"
   xmlns:rdf="http://www.w3.org/1999/02/22-rdf-syntax-ns#"
   xmlns:cc="http://creativecommons.org/ns#"
   xmlns:dc="http://purl.org/dc/elements/1.1/">
  <defs
     id="defs1993" />
  <sodipodi:namedview
     id="base"
     pagecolor="#ffffff"
     bordercolor="#666666"
     borderopacity="1.0"
     inkscape:pageopacity="0.0"
     inkscape:pageshadow="2"
     inkscape:zoom="0.35"
     inkscape:cx="326.54164"
     inkscape:cy="925.3891"
     inkscape:document-units="mm"
     inkscape:current-layer="g16"
     showgrid="false"
     fit-margin-top="0"
     fit-margin-left="0"
     fit-margin-right="0"
     fit-margin-bottom="0"
     inkscape:window-width="1920"
     inkscape:window-height="1013"
     inkscape:window-x="-9"
     inkscape:window-y="-9"
     inkscape:window-maximized="1"
     inkscape:showpageshadow="2"
     inkscape:pagecheckerboard="0"
     inkscape:deskcolor="#d1d1d1"
     showguides="true">
    <sodipodi:guide
       position="52.736009,213.97131"
       orientation="0,-1"
       id="guide6"
       inkscape:locked="false" />
    <sodipodi:guide
       position="63.209242,259.05516"
       orientation="0,-1"
       id="guide17"
       inkscape:locked="false" />
    <sodipodi:guide
       position="36.21502,253.97704"
       orientation="0,-1"
       id="guide18"
       inkscape:locked="false" />
    <sodipodi:guide
       position="55.992965,312.6427"
       orientation="0,-1"
       id="guide19"
       inkscape:locked="false" />
    <sodipodi:guide
       position="41.694045,248.89892"
       orientation="0,-1"
       id="guide20"
       inkscape:locked="false" />
    <sodipodi:guide
       position="43.564932,244.2217"
       orientation="0,-1"
       id="guide21"
       inkscape:locked="false" />
    <sodipodi:guide
       position="39.956793,233.93182"
       orientation="0,-1"
       id="guide23"
       inkscape:locked="false" />
    <sodipodi:guide
       position="38.820797,213.97131"
       orientation="0,-1"
       id="guide24"
       inkscape:locked="false" />
    <sodipodi:guide
       position="44.500375,228.8537"
       orientation="0,-1"
       id="guide25"
       inkscape:locked="false" />
    <sodipodi:guide
       position="48.440765,223.90922"
       orientation="0,1"
       id="guide26"
       inkscape:locked="false" />
    <sodipodi:guide
       position="121.33035,264.03326"
       orientation="0,-1"
       id="guide35"
       inkscape:locked="false" />
    <sodipodi:guide
       position="142.21354,268.94695"
       orientation="0,-1"
       id="guide36"
       inkscape:locked="false" />
    <sodipodi:guide
       position="142.21354,273.95513"
       orientation="0,-1"
       id="guide37"
       inkscape:locked="false" />
  </sodipodi:namedview>
  <metadata
     id="metadata1996">
    <rdf:RDF>
      <cc:Work
         rdf:about="">
        <dc:format>image/svg+xml</dc:format>
        <dc:type
           rdf:resource="http://purl.org/dc/dcmitype/StillImage" />
        <dc:title />
      </cc:Work>
    </rdf:RDF>
  </metadata>
  <g
     inkscape:label="Layer 1"
     inkscape:groupmode="layer"
     id="g16"
     transform="translate(-19.435858,5.2949101)"
     style="display:inline">
    <path
       id="path7"
       style="display:inline;vector-effect:none;fill:#000000;fill-opacity:1;stroke:none;stroke-width:2.71363;stroke-linecap:round;stroke-linejoin:round;stroke-miterlimit:4;stroke-dasharray:none;stroke-dashoffset:0;stroke-opacity:1"
       d="M 171.15321 -5.2943933 C 146.33382 17.183533 127.58491 43.579807 128.38838 77.640596 C 122.02321 74.371445 113.9685 72.424187 103.6302 72.691027 C 96.864473 72.865672 91.185912 74.045188 86.428151 76.2505 C 85.953641 49.818506 66.943536 15.661544 49.122935 -4.2221074 C 26.595896 30.895003 29.74979 59.538096 41.533734 95.621411 C 44.370015 104.30629 44.118563 113.56987 38.590244 123.76078 C 33.456029 133.22523 33.787919 141.36913 33.537323 150.78755 C 33.361112 157.41034 28.210553 156.33289 24.554409 163.36973 C 22.761336 163.55357 21.060774 163.68135 19.435858 163.55215 C 23.279958 165.69494 27.341907 164.86698 30.481695 167.54674 C 27.905488 169.60845 26.242678 172.80753 26.242678 176.36377 C 26.242678 181.71391 29.983239 186.17249 34.989431 187.30832 C 34.777899 188.88075 35.122376 190.32719 36.457558 191.19439 C 36.675343 191.75308 49.038347 223.49203 53.104604 240.15522 C 58.544695 262.44849 63.447125 308.21774 63.447125 308.21774 C 63.447125 308.21774 57.242465 326.24846 60.361525 344.30132 C 51.762119 351.79878 58.83592 368.32325 65.654226 369.56025 C 68.069327 377.3554 69.752305 377.98084 74.67228 383.80692 C 80.556303 390.77496 86.085344 389.68425 94.985768 391.67414 C 104.12372 393.72514 107.168 394.89732 119.84265 391.67414 C 128.74305 389.68425 134.30589 390.77496 140.18973 383.80692 C 145.10958 377.98041 146.40556 377.35485 148.82073 369.56025 C 155.10917 370.61808 163.64041 352.19677 155.04102 343.30603 C 157.16532 324.25789 151.38078 308.21774 151.38078 308.21774 C 151.38078 308.21774 156.31046 262.44912 161.75792 240.15626 C 165.86495 223.34949 178.48041 191.01972 178.48041 191.01972 L 178.47266 191.04143 C 179.5646 190.21064 179.88971 188.94009 179.7532 187.55017 C 185.45652 186.99853 189.96033 182.20611 189.96033 176.36377 C 189.96033 172.80753 188.29749 169.60841 185.72132 167.54674 C 188.86107 164.86698 192.92308 165.69494 196.76715 163.55215 C 195.07684 163.68655 193.30366 163.54215 191.43053 163.34648 L 191.43001 163.34648 C 191.12238 162.84138 191.20204 162.98455 190.88379 162.4256 C 190.88579 162.42562 190.88751 162.42559 190.89051 162.4256 C 190.82971 162.31221 190.76802 162.21407 190.70654 162.11193 C 190.69654 162.09443 190.6516 162.01593 190.6466 162.00599 C 190.64608 162.00612 190.6445 162.00534 190.6435 162.00547 C 190.5994 161.93267 190.5556 161.85649 190.51172 161.78068 C 190.51872 161.78109 190.52539 161.78082 190.53239 161.7812 C 186.43942 155.35721 181.82132 156.74455 181.26061 150.73226 C 180.44269 141.96174 182.65549 133.77057 176.24127 123.77163 C 171.32619 116.10938 169.02131 107.79811 171.96815 100.94977 C 190.38556 58.148206 186.31163 27.419285 171.15321 -5.2943933 z M 164.56808 23.929146 C 177.38467 37.022771 174.37229 111.98102 143.20556 80.493135 C 138.97547 67.279193 148.48314 39.125807 164.56808 23.929146 z M 51.35639 24.464514 C 63.495373 34.063825 79.282301 66.734502 69.993496 83.200463 C 45.487172 96.891102 32.461957 51.178919 51.35639 24.464514 z M 105.16034 79.54694 C 136.9327 79.395127 146.45164 100.65453 152.16006 115.70804 C 129.14896 109.04372 146.28038 138.83515 159.51 147.92209 C 144.3395 149.70551 127.13484 135.20767 115.02175 118.47893 C 116.36086 135.74693 78.493235 170.21737 78.493235 170.21737 C 78.493235 170.21737 96.856318 132.21382 87.628595 123.9835 C 79.908813 117.09881 63.634711 141.88887 63.634711 141.88887 C 65.161885 100.31147 73.992825 80.3352 103.6302 79.570194 C 104.14582 79.556884 104.65601 79.54935 105.16034 79.54694 z M 145.50672 124.72868 L 146.5542 124.72868 L 146.88131 129.64259 L 145.80851 129.64259 L 145.50672 124.72868 z M 67.988967 144.77707 L 69.056602 144.77707 L 69.231268 149.43931 L 68.186887 149.4543 L 67.988967 144.77707 z M 68.509865 154.79971 L 69.572333 154.79971 L 69.951638 159.74411 L 68.884519 159.74411 L 68.509865 154.79971 z M 145.29226 154.79971 L 146.35576 154.79971 L 145.97284 159.74411 L 144.90727 159.74411 L 145.29226 154.79971 z M 29.619216 162.62042 C 44.084771 164.09051 50.547794 172.59946 58.880996 181.3614 C 49.827265 175.17008 38.722198 165.36958 28.871458 163.95057 C 29.343977 163.16244 29.468766 162.94959 29.619216 162.62042 z M 186.73107 162.62042 C 186.88152 162.94959 187.00631 163.16244 187.47883 163.95057 C 177.62808 165.36958 166.52303 175.17008 157.46929 181.3614 C 165.8025 172.59945 172.2655 164.09051 186.73107 162.62042 z M 69.338755 164.82235 L 70.418793 164.82235 L 70.941758 169.76676 L 69.865338 169.76676 L 69.338755 164.82235 z M 144.43908 164.82235 L 145.51705 164.82235 L 144.98995 169.76676 L 143.91663 169.76676 L 144.43908 164.82235 z M 31.250641 170.05718 C 32.10693 170.05718 32.824308 171.77466 33.084637 174.1608 C 34.882905 175.66637 36.385728 179.17962 36.385728 179.17962 C 36.385728 179.17962 34.736275 178.12516 33.118227 177.78952 C 32.880947 180.29607 32.13452 182.13034 31.250641 182.13034 C 30.175782 182.13034 29.283319 179.43217 29.283319 176.09402 C 29.283319 172.75579 30.175702 170.05718 31.250641 170.05718 z M 185.09965 170.05718 C 186.17459 170.05718 187.06697 172.75579 187.06697 176.09402 C 187.06697 179.43218 186.17451 182.13034 185.09965 182.13034 C 184.21577 182.13034 183.46934 180.29607 183.23206 177.78952 C 181.61401 178.12516 179.96456 179.17962 179.96456 179.17962 C 179.96456 179.17962 181.46738 175.66637 183.26565 174.1608 C 183.52598 171.77465 184.24336 170.05718 185.09965 170.05718 z M 49.498106 180.70097 C 52.318933 180.66627 57.008317 184.24673 59.756394 184.04289 C 57.888776 184.75044 50.490381 182.73406 50.094452 184.04289 C 49.146873 187.17528 46.677437 189.37854 42.171421 190.10918 C 41.164352 189.31168 41.101753 188.57339 41.195253 187.27111 C 45.204729 187.05673 45.842355 185.09461 47.599514 181.73657 C 47.985023 180.99972 48.653767 180.71137 49.498106 180.70097 z M 166.85218 180.70097 C 167.69652 180.71137 168.36526 180.99972 168.75077 181.73657 C 170.50793 185.09462 171.14556 187.05673 175.15504 187.27111 C 175.24854 188.57339 175.18594 189.31168 174.17887 190.10918 C 169.67285 189.37854 167.20342 187.17529 166.25584 184.04289 C 165.85991 182.73406 158.46151 184.75044 156.59389 184.04289 C 159.34197 184.24673 164.03135 180.66626 166.85218 180.70097 z M 71.448704 182.23576 C 71.802167 182.23577 72.170506 182.23576 72.517372 182.23576 C 72.682086 183.40764 72.993447 185.6388 73.15816 186.81068 C 75.532481 203.35487 78.314526 219.82879 81.200047 236.29293 C 82.692057 253.6937 84.183273 271.09522 85.675742 288.49594 C 84.04797 294.81886 83.278625 301.34784 83.098122 307.82551 C 82.853951 317.64823 84.248622 327.62732 88.094716 336.74519 C 89.246962 339.40002 90.542179 342.081 92.247951 344.45532 C 94.721171 347.19966 98.436841 348.33427 101.95795 349.00129 C 106.91225 349.87181 112.11499 349.62107 116.89761 348.01892 C 119.67582 347.07136 122.39003 345.39879 123.77368 342.71692 C 128.73689 334.21493 131.17742 324.18447 131.66467 314.36982 C 132.11378 305.61657 131.26359 296.89362 129.1873 288.39827 C 130.68465 270.86636 132.15697 253.33047 133.68522 235.802 C 136.80236 218.34239 139.85655 199.79956 142.32551 182.23576 C 142.9051 182.23576 142.80959 182.23577 143.40297 182.23576 C 139.97037 207.23857 134.69291 236.18286 134.69291 236.18286 L 130.25028 288.40706 C 130.25028 288.40706 139.09629 319.67251 124.14626 344.15818 C 118.44869 352.93799 95.873831 352.42533 90.709544 344.15818 C 75.759273 319.67251 84.605524 288.40706 84.605524 288.40706 L 80.129311 236.18286 C 80.129311 236.18286 74.872077 207.23852 71.448704 182.23576 z M 68.935162 346.11516 C 75.011074 346.20966 74.009034 352.91191 72.7525 361.80981 C 71.916432 367.73034 74.63127 372.291 72.425905 372.92903 C 69.567665 373.75592 68.236647 350.37116 64.085846 358.8441 C 60.546869 366.06823 58.863637 346.61366 68.324864 346.12705 C 68.535812 346.11615 68.739163 346.11216 68.935162 346.11516 z M 146.26688 346.11516 C 146.46288 346.11216 146.66622 346.11613 146.87717 346.12705 C 156.3385 346.61366 154.6552 366.06823 151.11619 358.8441 C 146.96545 350.37115 145.63441 373.75592 142.77613 372.92903 C 140.57085 372.291 143.28562 367.73034 142.44954 361.80981 C 141.193 352.9119 140.19091 346.20968 146.26688 346.11516 z "
       inkscape:label="Kopf" />
  </g>
</svg>
